<svg width="1129" height="981" viewBox="0 0 1129 981" fill="none" xmlns="http://www.w3.org/2000/svg">
<path d="M0.303269 -77.8466L0.303223 980.441M102.847 -77.8466L102.847 980.441M205.39 -77.8466L205.39 980.441M307.934 -77.8466L307.934 980.441M410.477 -77.8466L410.477 980.441M513.02 -77.8466L513.02 980.441M615.564 -77.8466L615.564 980.441M718.107 -77.8466L718.107 980.441M820.651 -77.8466L820.651 980.441M923.194 -77.8466L923.194 980.441M1025.74 -77.8466L1025.74 980.441M1128.28 -77.8466L1128.28 980.441M35.1496 918.203H1093.44M35.1496 815.66H1093.44M35.1496 713.116H1093.44M35.1496 610.573H1093.44M35.1496 508.03H1093.44M35.1496 405.486H1093.44M35.1496 302.943H1093.44M35.1496 200.399L1093.44 200.399M35.1496 97.8558L1093.44 97.8558M35.1496 -4.68765L1093.44 -4.68762M35.1496 -107.231L1093.44 -107.231M35.1496 -209.775L1093.44 -209.775" stroke="url(#paint0_radial_225_14102)" stroke-opacity="0.4" stroke-width="0.606766"/>
<defs>
<radialGradient id="paint0_radial_225_14102" cx="0" cy="0" r="1" gradientUnits="userSpaceOnUse" gradientTransform="translate(564.292 112.442) rotate(90) scale(615.999 583.788)">
<stop stop-color="#E00074"/>
<stop offset="1" stop-color="#E00074" stop-opacity="0"/>
</radialGradient>
</defs>
</svg>
