<svg width="735" height="481" viewBox="0 0 735 481" fill="none" xmlns="http://www.w3.org/2000/svg">
<g filter="url(#filter0_d_225_14370)">
<rect x="200.417" y="196.417" width="334" height="232" rx="4" fill="white" shape-rendering="crispEdges"/>
<rect x="200.208" y="196.208" width="334.417" height="232.417" rx="4.20828" stroke="#E5E7EB" stroke-width="0.416566" shape-rendering="crispEdges"/>
<rect x="217.631" y="208.568" width="51.3301" height="20.6651" rx="4.99879" fill="#FBE5EE"/>
<path d="M225.056 221.901V215.043H230.405V216.152H226.356V217.842H229.965V218.952H226.356V220.791H230.465V221.901H225.056ZM231.113 221.901L232.993 219.192L231.243 216.642H232.723L233.763 218.272H233.823L234.883 216.642H236.272L234.513 219.162L236.372 221.901H234.913L233.743 220.081H233.683L232.503 221.901H231.113ZM237.121 215.832V214.673H238.341V215.832H237.121ZM237.121 221.901V216.642H238.341V221.901H237.121ZM241.689 222.021C241.31 222.021 240.976 221.981 240.69 221.901C240.403 221.814 240.163 221.698 239.97 221.551C239.777 221.404 239.63 221.234 239.53 221.041C239.437 220.841 239.39 220.625 239.39 220.391C239.39 220.358 239.39 220.328 239.39 220.301C239.397 220.275 239.4 220.255 239.4 220.241H240.6C240.6 220.255 240.6 220.268 240.6 220.281C240.6 220.295 240.6 220.308 240.6 220.321C240.606 220.501 240.663 220.648 240.77 220.761C240.876 220.868 241.016 220.945 241.19 220.991C241.363 221.038 241.546 221.061 241.739 221.061C241.913 221.061 242.076 221.045 242.229 221.011C242.389 220.971 242.519 220.911 242.619 220.831C242.726 220.745 242.779 220.635 242.779 220.501C242.779 220.328 242.713 220.195 242.579 220.101C242.446 220.008 242.269 219.931 242.049 219.871C241.836 219.812 241.606 219.748 241.36 219.682C241.14 219.622 240.92 219.555 240.7 219.482C240.48 219.408 240.28 219.315 240.1 219.202C239.927 219.088 239.783 218.942 239.67 218.762C239.563 218.582 239.51 218.359 239.51 218.092C239.51 217.832 239.567 217.605 239.68 217.412C239.793 217.219 239.95 217.059 240.15 216.932C240.35 216.799 240.586 216.699 240.86 216.632C241.133 216.566 241.43 216.532 241.749 216.532C242.063 216.532 242.346 216.566 242.599 216.632C242.859 216.699 243.082 216.796 243.269 216.922C243.462 217.042 243.609 217.192 243.709 217.372C243.816 217.545 243.869 217.739 243.869 217.952C243.869 217.999 243.866 218.045 243.859 218.092C243.859 218.139 243.859 218.165 243.859 218.172H242.669V218.102C242.669 217.975 242.629 217.869 242.549 217.782C242.476 217.689 242.366 217.615 242.219 217.562C242.079 217.509 241.903 217.482 241.689 217.482C241.529 217.482 241.39 217.495 241.27 217.522C241.15 217.549 241.05 217.585 240.97 217.632C240.896 217.679 240.84 217.732 240.8 217.792C240.76 217.852 240.74 217.919 240.74 217.992C240.74 218.119 240.79 218.219 240.89 218.292C240.99 218.365 241.123 218.429 241.29 218.482C241.463 218.535 241.649 218.592 241.849 218.652C242.089 218.718 242.336 218.788 242.589 218.862C242.843 218.928 243.076 219.015 243.289 219.122C243.509 219.228 243.686 219.378 243.819 219.572C243.952 219.765 244.019 220.021 244.019 220.341C244.019 220.648 243.959 220.911 243.839 221.131C243.726 221.344 243.562 221.518 243.349 221.651C243.142 221.778 242.896 221.871 242.609 221.931C242.329 221.991 242.023 222.021 241.689 222.021ZM246.438 222.021C246.112 222.021 245.855 221.958 245.669 221.831C245.482 221.698 245.349 221.531 245.269 221.331C245.195 221.125 245.159 220.915 245.159 220.701V217.642H244.529V216.642H245.189L245.409 215.173H246.378V216.642H247.288V217.642H246.378V220.581C246.378 220.721 246.415 220.831 246.488 220.911C246.562 220.985 246.672 221.021 246.818 221.021H247.288V221.861C247.222 221.888 247.138 221.911 247.038 221.931C246.945 221.958 246.845 221.978 246.738 221.991C246.632 222.011 246.532 222.021 246.438 222.021ZM248.193 215.832V214.673H249.412V215.832H248.193ZM248.193 221.901V216.642H249.412V221.901H248.193ZM250.711 221.901V216.642H251.731L251.831 217.342H251.901C252.021 217.182 252.161 217.042 252.321 216.922C252.488 216.796 252.674 216.699 252.881 216.632C253.094 216.559 253.328 216.522 253.581 216.522C253.914 216.522 254.207 216.582 254.461 216.702C254.721 216.822 254.924 217.016 255.07 217.282C255.217 217.549 255.29 217.905 255.29 218.352V221.901H254.061V218.572C254.061 218.385 254.037 218.232 253.991 218.112C253.951 217.985 253.887 217.885 253.801 217.812C253.721 217.732 253.621 217.675 253.501 217.642C253.381 217.609 253.248 217.592 253.101 217.592C252.881 217.592 252.681 217.645 252.501 217.752C252.328 217.859 252.188 218.005 252.081 218.192C251.981 218.379 251.931 218.595 251.931 218.842V221.901H250.711ZM257.42 223.721C257.186 223.721 256.966 223.674 256.76 223.581C256.553 223.487 256.387 223.347 256.26 223.161C256.133 222.981 256.07 222.757 256.07 222.491C256.07 222.198 256.153 221.968 256.32 221.801C256.493 221.628 256.683 221.498 256.89 221.411C256.737 221.331 256.61 221.224 256.51 221.091C256.417 220.958 256.37 220.798 256.37 220.611C256.37 220.358 256.463 220.158 256.65 220.011C256.837 219.858 257.05 219.758 257.29 219.712C257.043 219.558 256.853 219.362 256.72 219.122C256.593 218.882 256.53 218.608 256.53 218.302C256.53 217.935 256.617 217.622 256.79 217.362C256.97 217.095 257.23 216.889 257.57 216.742C257.91 216.596 258.319 216.522 258.799 216.522C258.993 216.522 259.179 216.536 259.359 216.562C259.539 216.589 259.702 216.629 259.849 216.682C260.082 216.542 260.242 216.386 260.329 216.212C260.416 216.032 260.462 215.886 260.469 215.772H261.659C261.659 216.006 261.612 216.212 261.519 216.392C261.432 216.572 261.309 216.722 261.149 216.842C260.989 216.956 260.796 217.039 260.569 217.092C260.736 217.239 260.862 217.415 260.949 217.622C261.036 217.829 261.079 218.055 261.079 218.302C261.079 218.668 260.992 218.985 260.819 219.252C260.652 219.518 260.402 219.725 260.069 219.871C259.742 220.018 259.339 220.091 258.859 220.091H258.05C257.91 220.091 257.8 220.121 257.72 220.181C257.646 220.241 257.61 220.325 257.61 220.431C257.61 220.518 257.643 220.595 257.71 220.661C257.783 220.728 257.883 220.761 258.01 220.761H260.309C260.702 220.761 261.026 220.891 261.279 221.151C261.539 221.404 261.669 221.731 261.669 222.131C261.669 222.431 261.589 222.701 261.429 222.941C261.275 223.181 261.059 223.371 260.779 223.511C260.499 223.651 260.172 223.721 259.799 223.721H257.42ZM257.86 222.841H259.789C259.916 222.841 260.026 222.817 260.119 222.771C260.219 222.731 260.296 222.671 260.349 222.591C260.409 222.511 260.439 222.421 260.439 222.321C260.439 222.148 260.382 222.018 260.269 221.931C260.162 221.844 260.029 221.801 259.869 221.801H257.86C257.7 221.801 257.566 221.848 257.46 221.941C257.353 222.041 257.3 222.168 257.3 222.321C257.3 222.474 257.35 222.597 257.45 222.691C257.556 222.791 257.693 222.841 257.86 222.841ZM258.809 219.232C259.163 219.232 259.426 219.152 259.599 218.992C259.779 218.825 259.869 218.595 259.869 218.302C259.869 218.009 259.779 217.782 259.599 217.622C259.426 217.462 259.163 217.382 258.809 217.382C258.456 217.382 258.19 217.462 258.01 217.622C257.836 217.782 257.75 218.009 257.75 218.302C257.75 218.495 257.786 218.662 257.86 218.802C257.94 218.942 258.056 219.048 258.21 219.122C258.369 219.195 258.569 219.232 258.809 219.232Z" fill="#791142"/>
<path d="M222.228 274.15V268.185H222.611V274.15H222.228ZM223.424 270.035C223.399 269.815 223.296 269.644 223.116 269.523C222.936 269.4 222.709 269.339 222.436 269.339C222.24 269.339 222.071 269.37 221.928 269.432C221.785 269.492 221.674 269.576 221.595 269.684C221.517 269.789 221.478 269.91 221.478 270.045C221.478 270.158 221.505 270.256 221.557 270.338C221.612 270.421 221.682 270.49 221.769 270.546C221.858 270.6 221.953 270.646 222.054 270.683C222.155 270.719 222.252 270.748 222.345 270.772L222.811 270.893C222.963 270.93 223.119 270.981 223.279 271.044C223.439 271.108 223.588 271.192 223.724 271.296C223.861 271.4 223.971 271.529 224.055 271.683C224.141 271.836 224.183 272.021 224.183 272.235C224.183 272.505 224.113 272.745 223.974 272.955C223.835 273.165 223.634 273.33 223.37 273.451C223.108 273.572 222.79 273.633 222.417 273.633C222.06 273.633 221.751 273.576 221.49 273.463C221.229 273.349 221.025 273.189 220.877 272.981C220.729 272.771 220.648 272.522 220.632 272.235H221.355C221.369 272.407 221.425 272.551 221.522 272.666C221.622 272.779 221.748 272.864 221.902 272.92C222.058 272.974 222.228 273.001 222.413 273.001C222.616 273.001 222.797 272.97 222.955 272.906C223.115 272.841 223.241 272.751 223.333 272.636C223.425 272.519 223.47 272.383 223.47 272.228C223.47 272.087 223.43 271.971 223.349 271.881C223.27 271.791 223.162 271.716 223.025 271.657C222.89 271.598 222.737 271.546 222.566 271.501L222.002 271.347C221.62 271.243 221.317 271.09 221.094 270.888C220.872 270.686 220.761 270.419 220.761 270.087C220.761 269.812 220.835 269.572 220.984 269.367C221.133 269.162 221.335 269.002 221.59 268.889C221.845 268.774 222.132 268.717 222.452 268.717C222.775 268.717 223.06 268.773 223.307 268.887C223.556 269 223.752 269.156 223.894 269.355C224.037 269.552 224.112 269.779 224.118 270.035H223.424ZM226.461 268.782V273.554H225.739V269.504H225.711L224.569 270.25V269.56L225.759 268.782H226.461ZM229.085 273.633C228.717 273.631 228.402 273.534 228.141 273.342C227.88 273.149 227.681 272.869 227.542 272.501C227.404 272.132 227.335 271.689 227.335 271.17C227.335 270.653 227.404 270.211 227.542 269.844C227.682 269.478 227.883 269.198 228.144 269.006C228.406 268.813 228.72 268.717 229.085 268.717C229.45 268.717 229.763 268.814 230.024 269.008C230.285 269.2 230.484 269.48 230.623 269.847C230.763 270.212 230.832 270.653 230.832 271.17C230.832 271.69 230.763 272.135 230.625 272.503C230.487 272.869 230.287 273.15 230.026 273.344C229.765 273.537 229.451 273.633 229.085 273.633ZM229.085 273.011C229.408 273.011 229.66 272.853 229.842 272.538C230.025 272.222 230.117 271.767 230.117 271.17C230.117 270.774 230.075 270.439 229.991 270.166C229.909 269.891 229.79 269.683 229.635 269.541C229.481 269.399 229.298 269.327 229.085 269.327C228.763 269.327 228.511 269.485 228.328 269.802C228.144 270.119 228.052 270.575 228.05 271.17C228.05 271.568 228.092 271.904 228.174 272.179C228.258 272.452 228.377 272.66 228.53 272.801C228.684 272.941 228.869 273.011 229.085 273.011ZM232.992 273.633C232.624 273.631 232.31 273.534 232.049 273.342C231.788 273.149 231.588 272.869 231.45 272.501C231.312 272.132 231.242 271.689 231.242 271.17C231.242 270.653 231.312 270.211 231.45 269.844C231.59 269.478 231.79 269.198 232.051 269.006C232.313 268.813 232.627 268.717 232.992 268.717C233.357 268.717 233.67 268.814 233.931 269.008C234.192 269.2 234.392 269.48 234.53 269.847C234.67 270.212 234.74 270.653 234.74 271.17C234.74 271.69 234.671 272.135 234.532 272.503C234.394 272.869 234.195 273.15 233.934 273.344C233.673 273.537 233.359 273.633 232.992 273.633ZM232.992 273.011C233.315 273.011 233.568 272.853 233.749 272.538C233.933 272.222 234.024 271.767 234.024 271.17C234.024 270.774 233.982 270.439 233.899 270.166C233.816 269.891 233.697 269.683 233.542 269.541C233.388 269.399 233.205 269.327 232.992 269.327C232.671 269.327 232.418 269.485 232.235 269.802C232.052 270.119 231.959 270.575 231.958 271.17C231.958 271.568 231.999 271.904 232.081 272.179C232.165 272.452 232.284 272.66 232.438 272.801C232.591 272.941 232.776 273.011 232.992 273.011ZM236.9 273.633C236.531 273.631 236.217 273.534 235.956 273.342C235.695 273.149 235.495 272.869 235.357 272.501C235.219 272.132 235.15 271.689 235.15 271.17C235.15 270.653 235.219 270.211 235.357 269.844C235.497 269.478 235.697 269.198 235.958 269.006C236.221 268.813 236.535 268.717 236.9 268.717C237.265 268.717 237.578 268.814 237.839 269.008C238.1 269.2 238.299 269.48 238.437 269.847C238.577 270.212 238.647 270.653 238.647 271.17C238.647 271.69 238.578 272.135 238.44 272.503C238.301 272.869 238.102 273.15 237.841 273.344C237.58 273.537 237.266 273.633 236.9 273.633ZM236.9 273.011C237.223 273.011 237.475 272.853 237.657 272.538C237.84 272.222 237.932 271.767 237.932 271.17C237.932 270.774 237.89 270.439 237.806 270.166C237.724 269.891 237.605 269.683 237.449 269.541C237.296 269.399 237.112 269.327 236.9 269.327C236.578 269.327 236.326 269.485 236.142 269.802C235.959 270.119 235.867 270.575 235.865 271.17C235.865 271.568 235.906 271.904 235.989 272.179C236.072 272.452 236.191 272.66 236.345 272.801C236.499 272.941 236.684 273.011 236.9 273.011Z" fill="#464646"/>
<path d="M222.228 303.178V297.213H222.611V303.178H222.228ZM223.424 299.063C223.399 298.843 223.296 298.672 223.116 298.551C222.936 298.428 222.709 298.367 222.436 298.367C222.24 298.367 222.071 298.398 221.928 298.46C221.785 298.52 221.674 298.604 221.595 298.711C221.517 298.817 221.478 298.937 221.478 299.073C221.478 299.186 221.505 299.284 221.557 299.366C221.612 299.448 221.682 299.518 221.769 299.574C221.858 299.628 221.953 299.674 222.054 299.711C222.155 299.747 222.252 299.776 222.345 299.8L222.811 299.921C222.963 299.958 223.119 300.008 223.279 300.072C223.439 300.136 223.588 300.22 223.724 300.324C223.861 300.428 223.971 300.557 224.055 300.711C224.141 300.864 224.183 301.048 224.183 301.263C224.183 301.533 224.113 301.773 223.974 301.983C223.835 302.192 223.634 302.358 223.37 302.479C223.108 302.6 222.79 302.661 222.417 302.661C222.06 302.661 221.751 302.604 221.49 302.491C221.229 302.377 221.025 302.217 220.877 302.008C220.729 301.799 220.648 301.55 220.632 301.263H221.355C221.369 301.435 221.425 301.579 221.522 301.694C221.622 301.807 221.748 301.892 221.902 301.948C222.058 302.002 222.228 302.029 222.413 302.029C222.616 302.029 222.797 301.998 222.955 301.934C223.115 301.869 223.241 301.779 223.333 301.664C223.425 301.547 223.47 301.411 223.47 301.256C223.47 301.114 223.43 300.999 223.349 300.909C223.27 300.819 223.162 300.744 223.025 300.685C222.89 300.626 222.737 300.574 222.566 300.529L222.002 300.375C221.62 300.271 221.317 300.118 221.094 299.916C220.872 299.714 220.761 299.447 220.761 299.115C220.761 298.84 220.835 298.6 220.984 298.395C221.133 298.19 221.335 298.03 221.59 297.917C221.845 297.802 222.132 297.744 222.452 297.744C222.775 297.744 223.06 297.801 223.307 297.915C223.556 298.028 223.752 298.184 223.894 298.383C224.037 298.58 224.112 298.807 224.118 299.063H223.424ZM226.226 302.647C225.933 302.647 225.671 302.591 225.438 302.479C225.207 302.366 225.022 302.21 224.883 302.013C224.745 301.816 224.671 301.591 224.662 301.337H225.361C225.378 301.542 225.469 301.711 225.634 301.843C225.798 301.975 225.996 302.041 226.226 302.041C226.409 302.041 226.571 301.999 226.712 301.915C226.855 301.83 226.967 301.713 227.048 301.563C227.13 301.414 227.171 301.244 227.171 301.053C227.171 300.859 227.13 300.686 227.046 300.534C226.962 300.381 226.846 300.262 226.698 300.175C226.552 300.088 226.385 300.043 226.195 300.042C226.051 300.042 225.906 300.067 225.759 300.116C225.613 300.166 225.495 300.231 225.405 300.312L224.746 300.214L225.014 297.81H227.637V298.427H225.613L225.461 299.762H225.489C225.582 299.672 225.706 299.597 225.86 299.536C226.015 299.476 226.181 299.445 226.358 299.445C226.649 299.445 226.907 299.515 227.134 299.653C227.363 299.791 227.542 299.98 227.672 300.219C227.804 300.457 227.87 300.73 227.868 301.039C227.87 301.348 227.8 301.624 227.658 301.866C227.519 302.109 227.324 302.3 227.076 302.439C226.829 302.578 226.545 302.647 226.226 302.647ZM230.052 302.661C229.684 302.659 229.37 302.562 229.109 302.37C228.848 302.177 228.648 301.897 228.51 301.528C228.372 301.16 228.303 300.717 228.303 300.198C228.303 299.681 228.372 299.239 228.51 298.872C228.65 298.506 228.85 298.226 229.111 298.033C229.374 297.841 229.687 297.744 230.052 297.744C230.417 297.744 230.73 297.842 230.991 298.036C231.252 298.228 231.452 298.508 231.59 298.875C231.73 299.24 231.8 299.681 231.8 300.198C231.8 300.718 231.731 301.163 231.593 301.531C231.454 301.897 231.255 302.178 230.994 302.372C230.733 302.565 230.419 302.661 230.052 302.661ZM230.052 302.039C230.376 302.039 230.628 301.881 230.81 301.566C230.993 301.25 231.085 300.794 231.085 300.198C231.085 299.802 231.043 299.467 230.959 299.194C230.876 298.919 230.758 298.711 230.602 298.569C230.449 298.426 230.265 298.355 230.052 298.355C229.731 298.355 229.478 298.513 229.295 298.83C229.112 299.147 229.019 299.603 229.018 300.198C229.018 300.596 229.059 300.932 229.141 301.207C229.225 301.48 229.344 301.688 229.498 301.829C229.652 301.969 229.837 302.039 230.052 302.039ZM233.96 302.661C233.592 302.659 233.277 302.562 233.016 302.37C232.755 302.177 232.556 301.897 232.417 301.528C232.279 301.16 232.21 300.717 232.21 300.198C232.21 299.681 232.279 299.239 232.417 298.872C232.557 298.506 232.757 298.226 233.018 298.033C233.281 297.841 233.595 297.744 233.96 297.744C234.325 297.744 234.638 297.842 234.899 298.036C235.16 298.228 235.359 298.508 235.498 298.875C235.637 299.24 235.707 299.681 235.707 300.198C235.707 300.718 235.638 301.163 235.5 301.531C235.362 301.897 235.162 302.178 234.901 302.372C234.64 302.565 234.326 302.661 233.96 302.661ZM233.96 302.039C234.283 302.039 234.535 301.881 234.717 301.566C234.9 301.25 234.992 300.794 234.992 300.198C234.992 299.802 234.95 299.467 234.866 299.194C234.784 298.919 234.665 298.711 234.51 298.569C234.356 298.426 234.173 298.355 233.96 298.355C233.638 298.355 233.386 298.513 233.203 298.83C233.019 299.147 232.927 299.603 232.925 300.198C232.925 300.596 232.966 300.932 233.049 301.207C233.133 301.48 233.251 301.688 233.405 301.829C233.559 301.969 233.744 302.039 233.96 302.039Z" fill="#464646"/>
<path d="M222.228 332.206V326.241H222.611V332.206H222.228ZM223.424 328.091C223.399 327.871 223.296 327.7 223.116 327.579C222.936 327.456 222.709 327.394 222.436 327.394C222.24 327.394 222.071 327.426 221.928 327.488C221.785 327.548 221.674 327.632 221.595 327.739C221.517 327.845 221.478 327.965 221.478 328.1C221.478 328.214 221.505 328.312 221.557 328.394C221.612 328.476 221.682 328.546 221.769 328.601C221.858 328.656 221.953 328.702 222.054 328.739C222.155 328.775 222.252 328.804 222.345 328.827L222.811 328.949C222.963 328.986 223.119 329.036 223.279 329.1C223.439 329.164 223.588 329.248 223.724 329.352C223.861 329.456 223.971 329.585 224.055 329.738C224.141 329.892 224.183 330.076 224.183 330.291C224.183 330.561 224.113 330.801 223.974 331.011C223.835 331.22 223.634 331.386 223.37 331.507C223.108 331.628 222.79 331.689 222.417 331.689C222.06 331.689 221.751 331.632 221.49 331.519C221.229 331.405 221.025 331.244 220.877 331.036C220.729 330.827 220.648 330.578 220.632 330.291H221.355C221.369 330.463 221.425 330.607 221.522 330.722C221.622 330.835 221.748 330.92 221.902 330.976C222.058 331.03 222.228 331.057 222.413 331.057C222.616 331.057 222.797 331.025 222.955 330.962C223.115 330.897 223.241 330.806 223.333 330.691C223.425 330.575 223.47 330.439 223.47 330.284C223.47 330.142 223.43 330.027 223.349 329.937C223.27 329.846 223.162 329.772 223.025 329.713C222.89 329.654 222.737 329.602 222.566 329.557L222.002 329.403C221.62 329.299 221.317 329.146 221.094 328.944C220.872 328.742 220.761 328.475 220.761 328.142C220.761 327.867 220.835 327.627 220.984 327.422C221.133 327.217 221.335 327.058 221.59 326.945C221.845 326.83 222.132 326.772 222.452 326.772C222.775 326.772 223.06 326.829 223.307 326.942C223.556 327.056 223.752 327.212 223.894 327.411C224.037 327.608 224.112 327.835 224.118 328.091H223.424ZM224.65 331.609V331.088L226.265 329.415C226.438 329.233 226.58 329.074 226.692 328.937C226.805 328.799 226.89 328.667 226.945 328.543C227.001 328.419 227.029 328.287 227.029 328.147C227.029 327.989 226.992 327.852 226.918 327.737C226.843 327.62 226.741 327.531 226.612 327.469C226.483 327.405 226.338 327.374 226.177 327.374C226.006 327.374 225.857 327.408 225.729 327.478C225.602 327.548 225.504 327.647 225.436 327.774C225.367 327.902 225.333 328.051 225.333 328.222H224.646C224.646 327.931 224.713 327.677 224.846 327.46C224.98 327.242 225.163 327.074 225.396 326.954C225.629 326.833 225.894 326.772 226.191 326.772C226.49 326.772 226.754 326.832 226.983 326.952C227.213 327.07 227.392 327.231 227.521 327.436C227.65 327.64 227.714 327.87 227.714 328.126C227.714 328.303 227.681 328.476 227.614 328.646C227.549 328.815 227.435 329.004 227.272 329.212C227.109 329.418 226.882 329.669 226.591 329.965L225.643 330.957V330.992H227.791V331.609H224.65ZM230.008 331.689C229.639 331.687 229.325 331.59 229.064 331.397C228.803 331.205 228.603 330.924 228.465 330.556C228.327 330.188 228.258 329.745 228.258 329.226C228.258 328.709 228.327 328.267 228.465 327.9C228.605 327.534 228.805 327.254 229.066 327.061C229.329 326.869 229.643 326.772 230.008 326.772C230.373 326.772 230.686 326.869 230.947 327.064C231.208 327.256 231.407 327.536 231.545 327.902C231.685 328.267 231.755 328.709 231.755 329.226C231.755 329.746 231.686 330.191 231.548 330.559C231.409 330.925 231.21 331.206 230.949 331.4C230.688 331.592 230.374 331.689 230.008 331.689ZM230.008 331.067C230.331 331.067 230.583 330.909 230.765 330.594C230.948 330.278 231.04 329.822 231.04 329.226C231.04 328.83 230.998 328.495 230.914 328.222C230.832 327.947 230.713 327.739 230.557 327.597C230.404 327.454 230.22 327.383 230.008 327.383C229.686 327.383 229.434 327.541 229.25 327.858C229.067 328.175 228.975 328.631 228.973 329.226C228.973 329.624 229.014 329.96 229.097 330.235C229.18 330.508 229.299 330.716 229.453 330.857C229.607 330.997 229.792 331.067 230.008 331.067ZM233.915 331.689C233.547 331.687 233.232 331.59 232.971 331.397C232.71 331.205 232.511 330.924 232.372 330.556C232.234 330.188 232.165 329.745 232.165 329.226C232.165 328.709 232.234 328.267 232.372 327.9C232.512 327.534 232.713 327.254 232.974 327.061C233.236 326.869 233.55 326.772 233.915 326.772C234.28 326.772 234.593 326.869 234.854 327.064C235.115 327.256 235.314 327.536 235.453 327.902C235.593 328.267 235.662 328.709 235.662 329.226C235.662 329.746 235.593 330.191 235.455 330.559C235.317 330.925 235.117 331.206 234.856 331.4C234.595 331.592 234.282 331.689 233.915 331.689ZM233.915 331.067C234.238 331.067 234.49 330.909 234.672 330.594C234.855 330.278 234.947 329.822 234.947 329.226C234.947 328.83 234.905 328.495 234.821 328.222C234.739 327.947 234.62 327.739 234.465 327.597C234.311 327.454 234.128 327.383 233.915 327.383C233.593 327.383 233.341 327.541 233.158 327.858C232.974 328.175 232.882 328.631 232.88 329.226C232.88 329.624 232.922 329.96 233.004 330.235C233.088 330.508 233.207 330.716 233.36 330.857C233.514 330.997 233.699 331.067 233.915 331.067Z" fill="#464646"/>
<path d="M222.228 361.234V355.269H222.611V361.234H222.228ZM223.424 357.119C223.399 356.898 223.296 356.728 223.116 356.606C222.936 356.484 222.709 356.422 222.436 356.422C222.24 356.422 222.071 356.453 221.928 356.516C221.785 356.576 221.674 356.66 221.595 356.767C221.517 356.873 221.478 356.993 221.478 357.128C221.478 357.242 221.505 357.34 221.557 357.422C221.612 357.504 221.682 357.573 221.769 357.629C221.858 357.684 221.953 357.73 222.054 357.767C222.155 357.803 222.252 357.832 222.345 357.855L222.811 357.977C222.963 358.014 223.119 358.064 223.279 358.128C223.439 358.192 223.588 358.276 223.724 358.38C223.861 358.484 223.971 358.613 224.055 358.766C224.141 358.92 224.183 359.104 224.183 359.319C224.183 359.589 224.113 359.829 223.974 360.039C223.835 360.248 223.634 360.414 223.37 360.535C223.108 360.656 222.79 360.717 222.417 360.717C222.06 360.717 221.751 360.66 221.49 360.547C221.229 360.433 221.025 360.272 220.877 360.064C220.729 359.855 220.648 359.606 220.632 359.319H221.355C221.369 359.491 221.425 359.635 221.522 359.75C221.622 359.863 221.748 359.948 221.902 360.004C222.058 360.058 222.228 360.085 222.413 360.085C222.616 360.085 222.797 360.053 222.955 359.99C223.115 359.924 223.241 359.834 223.333 359.719C223.425 359.603 223.47 359.467 223.47 359.312C223.47 359.17 223.43 359.055 223.349 358.964C223.27 358.874 223.162 358.8 223.025 358.741C222.89 358.682 222.737 358.63 222.566 358.585L222.002 358.431C221.62 358.327 221.317 358.174 221.094 357.972C220.872 357.77 220.761 357.503 220.761 357.17C220.761 356.895 220.835 356.655 220.984 356.45C221.133 356.245 221.335 356.086 221.59 355.973C221.845 355.858 222.132 355.8 222.452 355.8C222.775 355.8 223.06 355.857 223.307 355.97C223.556 356.084 223.752 356.24 223.894 356.439C224.037 356.636 224.112 356.863 224.118 357.119H223.424ZM226.312 360.717C225.944 360.715 225.629 360.618 225.368 360.425C225.107 360.233 224.907 359.952 224.769 359.584C224.631 359.216 224.562 358.773 224.562 358.254C224.562 357.737 224.631 357.295 224.769 356.928C224.909 356.561 225.109 356.282 225.37 356.089C225.633 355.897 225.947 355.8 226.312 355.8C226.677 355.8 226.99 355.897 227.251 356.092C227.512 356.284 227.711 356.564 227.85 356.93C227.989 357.295 228.059 357.737 228.059 358.254C228.059 358.774 227.99 359.218 227.852 359.587C227.714 359.953 227.514 360.234 227.253 360.428C226.992 360.62 226.678 360.717 226.312 360.717ZM226.312 360.094C226.635 360.094 226.887 359.937 227.069 359.622C227.252 359.306 227.344 358.85 227.344 358.254C227.344 357.858 227.302 357.523 227.218 357.25C227.136 356.975 227.017 356.766 226.862 356.625C226.708 356.482 226.525 356.411 226.312 356.411C225.99 356.411 225.738 356.569 225.554 356.886C225.371 357.203 225.279 357.659 225.277 358.254C225.277 358.651 225.318 358.988 225.401 359.263C225.485 359.536 225.603 359.743 225.757 359.885C225.911 360.025 226.096 360.094 226.312 360.094Z" fill="#464646"/>
<g clip-path="url(#clip0_225_14370)">
<rect x="255.468" y="250.83" width="15.0925" height="63.8528" rx="2.32192" fill="#F2F2F2"/>
<rect x="255.468" y="250.83" width="15.0925" height="63.8528" rx="2.32192" fill="url(#paint0_linear_225_14370)"/>
<path d="M255.468 282.756C255.468 281.474 256.507 280.434 257.79 280.434H268.238C269.521 280.434 270.56 281.474 270.56 282.756V288.561H255.468V282.756Z" fill="white"/>
</g>
<rect x="255.297" y="282.637" width="15" height="81" rx="2.32192" fill="url(#paint1_linear_225_14370)"/>
<rect x="255.297" y="282.637" width="15" height="81" rx="2.32192" fill="url(#paint2_linear_225_14370)"/>
<g clip-path="url(#clip1_225_14370)">
<rect x="287.111" y="251.147" width="15.0925" height="63.8528" rx="2.32192" fill="#F2F2F2"/>
<rect x="287.111" y="251.147" width="15.0925" height="63.8528" rx="2.32192" fill="url(#paint3_linear_225_14370)"/>
<path d="M287.11 265.659C287.11 264.377 288.15 263.337 289.432 263.337H299.881C301.163 263.337 302.203 264.377 302.203 265.659V269.142H287.11V265.659Z" fill="white"/>
</g>
<rect x="286.561" y="265.637" width="16" height="98" rx="2.32192" fill="#3323DC"/>
<rect x="286.561" y="265.637" width="16" height="98" rx="2.32192" fill="url(#paint4_linear_225_14370)"/>
<g clip-path="url(#clip2_225_14370)">
<rect x="318.561" y="251.147" width="15.0925" height="63.8528" rx="2.32192" fill="#F2F2F2"/>
<rect x="318.561" y="251.147" width="15.0925" height="63.8528" rx="2.32192" fill="url(#paint5_linear_225_14370)"/>
<path d="M318.561 277.269C318.561 275.986 319.601 274.947 320.883 274.947H331.332C332.614 274.947 333.654 275.986 333.654 277.269V280.752H318.561V277.269Z" fill="white"/>
</g>
<rect x="318.631" y="276.637" width="15" height="87" rx="2.32192" fill="url(#paint6_linear_225_14370)"/>
<rect x="318.631" y="276.637" width="15" height="87" rx="2.32192" fill="url(#paint7_linear_225_14370)"/>
<g clip-path="url(#clip3_225_14370)">
<rect x="349.962" y="251.147" width="15.0925" height="63.8528" rx="2.32192" fill="#F2F2F2"/>
<rect x="349.962" y="251.147" width="15.0925" height="63.8528" rx="2.32192" fill="url(#paint8_linear_225_14370)"/>
<path d="M349.962 303.39C349.962 302.108 351.001 301.068 352.284 301.068H362.732C364.015 301.068 365.054 302.108 365.054 303.39V306.873H349.962V303.39Z" fill="white"/>
</g>
<rect x="349.653" y="302.637" width="16" height="61" rx="2.32192" fill="url(#paint9_linear_225_14370)"/>
<rect x="349.653" y="302.637" width="16" height="61" rx="2.32192" fill="url(#paint10_linear_225_14370)"/>
<g clip-path="url(#clip4_225_14370)">
<rect x="381.653" y="251.147" width="15.0925" height="63.8528" rx="2.32192" fill="#F2F2F2"/>
<rect x="381.653" y="251.147" width="15.0925" height="63.8528" rx="2.32192" fill="url(#paint11_linear_225_14370)"/>
<path d="M381.654 258.693C381.654 257.411 382.694 256.371 383.976 256.371H394.425C395.707 256.371 396.747 257.411 396.747 258.693V262.176H381.654V258.693Z" fill="white"/>
</g>
<rect x="381.966" y="258.637" width="15" height="105" rx="2.32192" fill="url(#paint12_linear_225_14370)"/>
<rect x="381.966" y="258.637" width="15" height="105" rx="2.32192" fill="url(#paint13_linear_225_14370)"/>
<g clip-path="url(#clip5_225_14370)">
<rect x="413.021" y="259.151" width="15.0925" height="89.9744" rx="2.32192" fill="#F2F2F2"/>
<rect x="413.021" y="259.151" width="15.0925" height="89.9744" rx="2.32192" fill="url(#paint14_linear_225_14370)"/>
<path d="M413.022 335.194C413.022 333.911 414.062 332.872 415.344 332.872H425.793C427.075 332.872 428.115 333.911 428.115 335.194V338.677H413.022V335.194Z" fill="white"/>
</g>
<rect x="412.966" y="334.934" width="15" height="28" rx="2.32192" fill="url(#paint15_linear_225_14370)"/>
<rect x="412.966" y="334.934" width="15" height="28" rx="2.32192" fill="url(#paint16_linear_225_14370)"/>
<g clip-path="url(#clip6_225_14370)">
<circle cx="443.265" cy="292.312" r="1.9684" fill="#C02D79"/>
</g>
<rect x="450.483" y="289.868" width="37.0537" height="4.88833" rx="2.44416" fill="#D8D8D8"/>
<rect x="441.297" y="303.544" width="37.0537" height="6.54661" rx="2.62454" fill="#C1C1C1"/>
<rect x="482.288" y="300.005" width="32.2491" height="13.6245" rx="2.62454" fill="#E0F0E4"/>
<path d="M487.528 308.356V304.576H488.28V308.356H487.528ZM486.016 306.84V306.091H489.796V306.84H486.016ZM493.25 303.591V309.318H492.384V304.458H492.35L490.98 305.353V304.525L492.409 303.591H493.25ZM496.972 303.591V309.318H496.105V304.458H496.071L494.701 305.353V304.525L496.13 303.591H496.972ZM498.752 309.371C498.599 309.371 498.468 309.317 498.358 309.209C498.248 309.099 498.193 308.966 498.193 308.812C498.193 308.659 498.248 308.528 498.358 308.42C498.468 308.31 498.599 308.255 498.752 308.255C498.905 308.255 499.036 308.31 499.146 308.42C499.256 308.528 499.311 308.659 499.311 308.812C499.311 308.914 499.285 309.008 499.233 309.094C499.183 309.178 499.116 309.245 499.032 309.295C498.948 309.346 498.855 309.371 498.752 309.371ZM500.3 308.199V307.5L502.774 303.591H503.325V304.62H502.976L501.206 307.422V307.467H504.597V308.199H500.3ZM503.015 309.318V307.987L503.02 307.668V303.591H503.84V309.318H503.015ZM508.561 308.244V307.942C508.561 307.726 508.605 307.528 508.695 307.349C508.786 307.169 508.919 307.024 509.092 306.916C509.267 306.806 509.479 306.751 509.727 306.751C509.98 306.751 510.193 306.805 510.364 306.913C510.536 307.021 510.665 307.166 510.753 307.347C510.842 307.527 510.887 307.726 510.887 307.942V308.244C510.887 308.46 510.842 308.659 510.753 308.84C510.663 309.019 510.532 309.163 510.358 309.273C510.187 309.381 509.976 309.435 509.727 309.435C509.475 309.435 509.262 309.381 509.089 309.273C508.916 309.163 508.784 309.019 508.695 308.84C508.605 308.659 508.561 308.46 508.561 308.244ZM509.212 307.942V308.244C509.212 308.404 509.25 308.55 509.327 308.68C509.403 308.811 509.536 308.876 509.727 308.876C509.915 308.876 510.046 308.811 510.121 308.68C510.195 308.55 510.233 308.404 510.233 308.244V307.942C510.233 307.782 510.196 307.636 510.124 307.506C510.053 307.375 509.92 307.31 509.727 307.31C509.54 307.31 509.408 307.375 509.33 307.506C509.251 307.636 509.212 307.782 509.212 307.942ZM505.681 304.967V304.665C505.681 304.449 505.725 304.25 505.815 304.07C505.906 303.889 506.039 303.744 506.212 303.636C506.387 303.528 506.599 303.474 506.847 303.474C507.1 303.474 507.313 303.528 507.484 303.636C507.656 303.744 507.785 303.889 507.873 304.07C507.96 304.25 508.004 304.449 508.004 304.665V304.967C508.004 305.183 507.959 305.382 507.87 305.563C507.782 305.742 507.652 305.886 507.479 305.996C507.307 306.104 507.096 306.158 506.847 306.158C506.593 306.158 506.38 306.104 506.206 305.996C506.035 305.886 505.904 305.742 505.815 305.563C505.725 305.382 505.681 305.183 505.681 304.967ZM506.335 304.665V304.967C506.335 305.127 506.372 305.273 506.447 305.403C506.523 305.534 506.657 305.599 506.847 305.599C507.033 305.599 507.164 305.534 507.238 305.403C507.315 305.273 507.353 305.127 507.353 304.967V304.665C507.353 304.505 507.316 304.359 507.244 304.229C507.171 304.098 507.039 304.033 506.847 304.033C506.66 304.033 506.528 304.098 506.45 304.229C506.373 304.359 506.335 304.505 506.335 304.665ZM505.946 309.318L509.883 303.591H510.551L506.615 309.318H505.946Z" fill="#377E36"/>
<g clip-path="url(#clip7_225_14370)">
<circle cx="443.265" cy="342.32" r="1.9684" fill="#F691C5"/>
</g>
<rect x="450.483" y="339.875" width="37.0537" height="4.88833" rx="2.44416" fill="#D8D8D8"/>
<rect x="441.297" y="353.552" width="37.0537" height="6.54661" rx="2.62454" fill="#C1C1C1"/>
<rect x="482.288" y="350.013" width="28.2491" height="13.6245" rx="2.62454" fill="#E0F0E4"/>
<path d="M487.531 358.363V354.583H488.283V358.363H487.531ZM486.019 356.848V356.098H489.799V356.848H486.019ZM491.081 359.325L493.581 354.382V354.34H490.69V353.599H494.476V354.365L491.985 359.325H491.081ZM495.026 359.378C494.873 359.378 494.742 359.324 494.632 359.216C494.522 359.106 494.467 358.974 494.467 358.819C494.467 358.666 494.522 358.536 494.632 358.428C494.742 358.318 494.873 358.263 495.026 358.263C495.179 358.263 495.31 358.318 495.42 358.428C495.53 358.536 495.585 358.666 495.585 358.819C495.585 358.922 495.559 359.016 495.507 359.101C495.457 359.185 495.389 359.252 495.306 359.303C495.222 359.353 495.129 359.378 495.026 359.378ZM498.48 359.42C498.038 359.418 497.661 359.302 497.347 359.071C497.034 358.839 496.795 358.503 496.629 358.061C496.463 357.619 496.38 357.087 496.38 356.465C496.38 355.844 496.463 355.314 496.629 354.874C496.797 354.434 497.037 354.098 497.35 353.867C497.665 353.636 498.042 353.521 498.48 353.521C498.918 353.521 499.293 353.637 499.607 353.87C499.92 354.101 500.159 354.437 500.325 354.877C500.493 355.315 500.577 355.844 500.577 356.465C500.577 357.089 500.494 357.622 500.328 358.064C500.162 358.504 499.923 358.84 499.609 359.073C499.296 359.305 498.92 359.42 498.48 359.42ZM498.48 358.674C498.867 358.674 499.17 358.484 499.388 358.106C499.608 357.728 499.718 357.181 499.718 356.465C499.718 355.989 499.668 355.588 499.567 355.26C499.469 354.93 499.326 354.68 499.14 354.51C498.955 354.339 498.735 354.253 498.48 354.253C498.094 354.253 497.791 354.443 497.571 354.823C497.351 355.204 497.24 355.751 497.238 356.465C497.238 356.942 497.288 357.345 497.387 357.675C497.487 358.003 497.63 358.252 497.814 358.422C497.999 358.59 498.221 358.674 498.48 358.674ZM504.558 358.251V357.949C504.558 357.733 504.602 357.536 504.692 357.357C504.783 357.176 504.916 357.031 505.089 356.923C505.264 356.813 505.476 356.758 505.724 356.758C505.977 356.758 506.19 356.812 506.361 356.92C506.533 357.029 506.662 357.173 506.75 357.354C506.839 357.535 506.884 357.733 506.884 357.949V358.251C506.884 358.468 506.839 358.666 506.75 358.847C506.66 359.026 506.529 359.17 506.355 359.28C506.184 359.388 505.973 359.443 505.724 359.443C505.472 359.443 505.259 359.388 505.086 359.28C504.913 359.17 504.781 359.026 504.692 358.847C504.602 358.666 504.558 358.468 504.558 358.251ZM505.209 357.949V358.251C505.209 358.412 505.247 358.557 505.324 358.688C505.4 358.818 505.533 358.883 505.724 358.883C505.912 358.883 506.043 358.818 506.118 358.688C506.192 358.557 506.23 358.412 506.23 358.251V357.949C506.23 357.789 506.193 357.644 506.121 357.513C506.05 357.383 505.917 357.318 505.724 357.318C505.537 357.318 505.405 357.383 505.327 357.513C505.248 357.644 505.209 357.789 505.209 357.949ZM501.678 354.974V354.672C501.678 354.456 501.722 354.258 501.812 354.077C501.903 353.896 502.036 353.752 502.209 353.644C502.384 353.535 502.596 353.481 502.844 353.481C503.097 353.481 503.31 353.535 503.481 353.644C503.653 353.752 503.782 353.896 503.87 354.077C503.957 354.258 504.001 354.456 504.001 354.672V354.974C504.001 355.191 503.956 355.389 503.867 355.57C503.779 355.749 503.649 355.893 503.476 356.003C503.304 356.112 503.093 356.166 502.844 356.166C502.59 356.166 502.377 356.112 502.203 356.003C502.032 355.893 501.901 355.749 501.812 355.57C501.722 355.389 501.678 355.191 501.678 354.974ZM502.332 354.672V354.974C502.332 355.135 502.369 355.28 502.444 355.411C502.52 355.541 502.654 355.606 502.844 355.606C503.03 355.606 503.161 355.541 503.235 355.411C503.312 355.28 503.35 355.135 503.35 354.974V354.672C503.35 354.512 503.313 354.367 503.241 354.236C503.168 354.106 503.036 354.041 502.844 354.041C502.657 354.041 502.525 354.106 502.447 354.236C502.37 354.367 502.332 354.512 502.332 354.672ZM501.943 359.325L505.88 353.599H506.548L502.612 359.325H501.943Z" fill="#377E36"/>
<path d="M217.915 410.709C217.429 410.709 216.967 410.661 216.529 410.564C216.092 410.466 215.703 410.312 215.363 410.102C215.031 409.883 214.767 409.612 214.573 409.288C214.387 408.956 214.293 408.554 214.293 408.085C214.293 408.044 214.293 408.004 214.293 407.963C214.293 407.914 214.297 407.878 214.306 407.854H216.104C216.096 407.878 216.092 407.91 216.092 407.951C216.092 407.991 216.092 408.028 216.092 408.06C216.092 408.32 216.161 408.538 216.298 408.717C216.444 408.895 216.655 409.028 216.93 409.118C217.206 409.207 217.526 409.251 217.89 409.251C218.125 409.251 218.332 409.239 218.51 409.215C218.696 409.182 218.858 409.142 218.996 409.093C219.142 409.037 219.259 408.972 219.349 408.899C219.446 408.826 219.515 408.741 219.555 408.644C219.604 408.546 219.628 408.437 219.628 408.316C219.628 408.097 219.555 407.919 219.409 407.781C219.272 407.643 219.077 407.526 218.826 407.428C218.583 407.331 218.308 407.242 218 407.161C217.692 407.08 217.376 406.999 217.052 406.918C216.728 406.829 216.412 406.724 216.104 406.602C215.796 406.472 215.521 406.319 215.278 406.14C215.035 405.962 214.84 405.735 214.694 405.46C214.549 405.184 214.476 404.852 214.476 404.463C214.476 404.05 214.561 403.694 214.731 403.394C214.909 403.094 215.156 402.847 215.472 402.653C215.788 402.458 216.153 402.317 216.566 402.227C216.979 402.13 217.429 402.082 217.915 402.082C218.368 402.082 218.798 402.13 219.203 402.227C219.608 402.317 219.964 402.462 220.272 402.665C220.58 402.867 220.819 403.123 220.989 403.43C221.167 403.738 221.256 404.103 221.256 404.524V404.67H219.494V404.573C219.494 404.354 219.43 404.168 219.3 404.014C219.17 403.86 218.988 403.738 218.753 403.649C218.518 403.56 218.243 403.516 217.927 403.516C217.587 403.516 217.295 403.548 217.052 403.613C216.817 403.678 216.635 403.775 216.505 403.904C216.384 404.026 216.323 404.172 216.323 404.342C216.323 404.536 216.392 404.698 216.529 404.828C216.675 404.949 216.87 405.059 217.113 405.156C217.364 405.245 217.643 405.326 217.951 405.399C218.259 405.472 218.575 405.553 218.899 405.642C219.223 405.731 219.539 405.837 219.847 405.958C220.155 406.08 220.43 406.233 220.673 406.42C220.916 406.598 221.111 406.821 221.256 407.088C221.402 407.356 221.475 407.676 221.475 408.048C221.475 408.688 221.321 409.203 221.013 409.591C220.706 409.98 220.284 410.264 219.75 410.442C219.215 410.62 218.603 410.709 217.915 410.709ZM225.676 410.709C224.971 410.709 224.38 410.592 223.902 410.357C223.424 410.114 223.064 409.745 222.821 409.251C222.577 408.757 222.456 408.129 222.456 407.368C222.456 406.598 222.577 405.97 222.821 405.484C223.064 404.99 223.42 404.625 223.89 404.39C224.368 404.147 224.951 404.026 225.64 404.026C226.288 404.026 226.835 404.143 227.28 404.378C227.726 404.605 228.062 404.962 228.289 405.448C228.516 405.926 228.629 406.545 228.629 407.307V407.744H224.169C224.186 408.117 224.242 408.433 224.339 408.692C224.445 408.951 224.603 409.146 224.813 409.276C225.032 409.397 225.32 409.458 225.676 409.458C225.871 409.458 226.045 409.433 226.199 409.385C226.361 409.336 226.498 409.263 226.612 409.166C226.725 409.069 226.814 408.947 226.879 408.802C226.944 408.656 226.976 408.49 226.976 408.303H228.629C228.629 408.708 228.556 409.061 228.41 409.361C228.265 409.66 228.062 409.911 227.803 410.114C227.544 410.308 227.232 410.458 226.867 410.564C226.511 410.661 226.114 410.709 225.676 410.709ZM224.194 406.675H226.891C226.891 406.432 226.859 406.221 226.794 406.043C226.737 405.865 226.656 405.719 226.551 405.606C226.446 405.492 226.316 405.411 226.162 405.363C226.016 405.306 225.85 405.278 225.664 405.278C225.356 405.278 225.097 405.33 224.886 405.436C224.684 405.533 224.526 405.687 224.412 405.897C224.307 406.1 224.234 406.359 224.194 406.675ZM232.675 410.709C231.995 410.709 231.424 410.592 230.962 410.357C230.5 410.114 230.148 409.745 229.905 409.251C229.67 408.749 229.552 408.121 229.552 407.368C229.552 406.598 229.67 405.97 229.905 405.484C230.148 404.99 230.5 404.621 230.962 404.378C231.432 404.135 232.003 404.014 232.675 404.014C233.113 404.014 233.506 404.066 233.854 404.172C234.211 404.277 234.518 404.439 234.778 404.658C235.037 404.877 235.231 405.148 235.361 405.472C235.499 405.788 235.568 406.165 235.568 406.602H233.878C233.878 406.31 233.834 406.071 233.745 405.885C233.656 405.699 233.518 405.557 233.332 405.46C233.153 405.363 232.927 405.314 232.651 405.314C232.327 405.314 232.064 405.387 231.861 405.533C231.659 405.679 231.509 405.893 231.412 406.177C231.314 406.46 231.266 406.813 231.266 407.234V407.513C231.266 407.927 231.314 408.275 231.412 408.559C231.517 408.842 231.675 409.057 231.886 409.203C232.096 409.34 232.372 409.409 232.712 409.409C232.987 409.409 233.214 409.361 233.392 409.263C233.579 409.166 233.721 409.02 233.818 408.826C233.915 408.631 233.964 408.397 233.964 408.121H235.568C235.568 408.534 235.499 408.903 235.361 409.227C235.231 409.551 235.037 409.822 234.778 410.041C234.527 410.26 234.223 410.426 233.866 410.539C233.51 410.653 233.113 410.709 232.675 410.709ZM238.742 410.709C238.337 410.709 238.009 410.637 237.758 410.491C237.507 410.345 237.324 410.15 237.211 409.907C237.098 409.656 237.041 409.381 237.041 409.081V405.472H236.251V404.172H237.102L237.418 402.349H238.73V404.172H239.897V405.472H238.73V408.802C238.73 408.996 238.775 409.146 238.864 409.251C238.953 409.348 239.099 409.397 239.301 409.397H239.897V410.515C239.799 410.547 239.686 410.576 239.556 410.6C239.427 410.632 239.289 410.657 239.143 410.673C238.997 410.697 238.864 410.709 238.742 410.709ZM243.929 410.709C243.232 410.709 242.64 410.592 242.154 410.357C241.668 410.114 241.3 409.745 241.049 409.251C240.797 408.749 240.672 408.121 240.672 407.368C240.672 406.598 240.797 405.97 241.049 405.484C241.3 404.99 241.668 404.625 242.154 404.39C242.64 404.147 243.232 404.026 243.929 404.026C244.641 404.026 245.237 404.147 245.715 404.39C246.201 404.625 246.57 404.99 246.821 405.484C247.072 405.97 247.197 406.598 247.197 407.368C247.197 408.121 247.072 408.749 246.821 409.251C246.57 409.745 246.201 410.114 245.715 410.357C245.237 410.592 244.641 410.709 243.929 410.709ZM243.929 409.397C244.301 409.397 244.597 409.328 244.816 409.19C245.042 409.053 245.209 408.842 245.314 408.559C245.419 408.275 245.472 407.927 245.472 407.513V407.222C245.472 406.809 245.419 406.46 245.314 406.177C245.209 405.893 245.042 405.683 244.816 405.545C244.597 405.399 244.301 405.326 243.929 405.326C243.564 405.326 243.268 405.399 243.041 405.545C242.823 405.683 242.661 405.893 242.555 406.177C242.45 406.46 242.397 406.809 242.397 407.222V407.513C242.397 407.927 242.45 408.275 242.555 408.559C242.661 408.842 242.823 409.053 243.041 409.19C243.268 409.328 243.564 409.397 243.929 409.397ZM248.44 410.564V404.172H249.838L249.971 405.168H250.056C250.138 404.958 250.243 404.767 250.372 404.597C250.502 404.419 250.664 404.277 250.859 404.172C251.053 404.066 251.28 404.014 251.539 404.014C251.677 404.014 251.802 404.03 251.916 404.062C252.029 404.087 252.114 404.111 252.171 404.135V405.666H251.648C251.397 405.666 251.174 405.703 250.98 405.776C250.794 405.841 250.636 405.946 250.506 406.092C250.376 406.238 250.279 406.416 250.214 406.626C250.158 406.837 250.129 407.084 250.129 407.368V410.564H248.44ZM255.35 410.564V402.227H257.161V405.533H260.855V402.227H262.666V410.564H260.855V407.064H257.161V410.564H255.35ZM264.366 403.236V401.778H266.055V403.236H264.366ZM264.366 410.564V404.172H266.055V410.564H264.366ZM268.651 412.848C268.367 412.848 268.1 412.787 267.849 412.666C267.597 412.552 267.395 412.382 267.241 412.155C267.087 411.929 267.01 411.657 267.01 411.341C267.01 410.985 267.111 410.701 267.314 410.491C267.525 410.272 267.759 410.11 268.019 410.005C267.832 409.899 267.678 409.762 267.557 409.591C267.444 409.421 267.387 409.223 267.387 408.996C267.387 408.68 267.5 408.425 267.727 408.23C267.962 408.028 268.229 407.898 268.529 407.842C268.229 407.655 267.994 407.42 267.824 407.137C267.662 406.845 267.581 406.521 267.581 406.165C267.581 405.703 267.695 405.314 267.922 404.998C268.156 404.682 268.489 404.443 268.918 404.281C269.355 404.111 269.87 404.026 270.461 404.026C270.696 404.026 270.915 404.038 271.117 404.062C271.328 404.087 271.518 404.127 271.689 404.184C271.988 404.006 272.191 403.811 272.296 403.601C272.41 403.382 272.47 403.208 272.478 403.078H274.046C274.046 403.378 273.989 403.637 273.876 403.856C273.771 404.075 273.617 404.257 273.414 404.403C273.212 404.54 272.969 404.642 272.685 404.706C272.896 404.885 273.058 405.099 273.171 405.35C273.285 405.602 273.341 405.873 273.341 406.165C273.341 406.618 273.232 407.007 273.013 407.331C272.794 407.647 272.483 407.89 272.077 408.06C271.68 408.23 271.203 408.316 270.644 408.316H269.671C269.477 408.316 269.331 408.352 269.234 408.425C269.137 408.49 269.088 408.587 269.088 408.717C269.088 408.822 269.129 408.915 269.21 408.996C269.299 409.069 269.44 409.105 269.635 409.105H272.296C272.831 409.105 273.256 409.271 273.572 409.604C273.896 409.928 274.058 410.345 274.058 410.855C274.058 411.244 273.957 411.588 273.754 411.888C273.552 412.188 273.272 412.423 272.916 412.593C272.559 412.763 272.15 412.848 271.689 412.848H268.651ZM269.355 411.718H271.604C271.749 411.718 271.879 411.69 271.992 411.633C272.106 411.584 272.195 411.511 272.26 411.414C272.325 411.325 272.357 411.22 272.357 411.098C272.357 410.888 272.292 410.73 272.163 410.624C272.033 410.519 271.871 410.466 271.676 410.466H269.355C269.161 410.466 268.999 410.523 268.869 410.637C268.748 410.75 268.687 410.9 268.687 411.086C268.687 411.272 268.748 411.422 268.869 411.536C268.999 411.657 269.161 411.718 269.355 411.718ZM270.461 407.222C270.858 407.222 271.158 407.133 271.36 406.954C271.571 406.768 271.676 406.505 271.676 406.165C271.676 405.824 271.571 405.565 271.36 405.387C271.158 405.201 270.858 405.107 270.461 405.107C270.072 405.107 269.773 405.201 269.562 405.387C269.359 405.565 269.258 405.824 269.258 406.165C269.258 406.383 269.303 406.574 269.392 406.736C269.481 406.898 269.615 407.019 269.793 407.1C269.971 407.181 270.194 407.222 270.461 407.222ZM274.987 410.564V401.778H276.676V404.877H276.761C276.899 404.706 277.061 404.561 277.247 404.439C277.442 404.309 277.656 404.208 277.891 404.135C278.134 404.062 278.397 404.026 278.681 404.026C279.102 404.026 279.471 404.103 279.787 404.257C280.103 404.411 280.346 404.654 280.516 404.986C280.694 405.318 280.783 405.751 280.783 406.286V410.564H279.094V406.553C279.094 406.351 279.07 406.181 279.021 406.043C278.973 405.897 278.9 405.78 278.803 405.691C278.713 405.593 278.6 405.525 278.462 405.484C278.325 405.444 278.171 405.423 278.001 405.423C277.749 405.423 277.523 405.484 277.32 405.606C277.117 405.727 276.96 405.893 276.846 406.104C276.733 406.315 276.676 406.558 276.676 406.833V410.564H274.987ZM282.297 410.564V401.778H283.986V410.564H282.297ZM285.537 403.236V401.778H287.226V403.236H285.537ZM285.537 410.564V404.172H287.226V410.564H285.537ZM289.821 412.848C289.538 412.848 289.271 412.787 289.019 412.666C288.768 412.552 288.566 412.382 288.412 412.155C288.258 411.929 288.181 411.657 288.181 411.341C288.181 410.985 288.282 410.701 288.485 410.491C288.695 410.272 288.93 410.11 289.19 410.005C289.003 409.899 288.849 409.762 288.728 409.591C288.614 409.421 288.558 409.223 288.558 408.996C288.558 408.68 288.671 408.425 288.898 408.23C289.133 408.028 289.4 407.898 289.7 407.842C289.4 407.655 289.165 407.42 288.995 407.137C288.833 406.845 288.752 406.521 288.752 406.165C288.752 405.703 288.865 405.314 289.092 404.998C289.327 404.682 289.659 404.443 290.089 404.281C290.526 404.111 291.041 404.026 291.632 404.026C291.867 404.026 292.086 404.038 292.288 404.062C292.499 404.087 292.689 404.127 292.859 404.184C293.159 404.006 293.362 403.811 293.467 403.601C293.58 403.382 293.641 403.208 293.649 403.078H295.217C295.217 403.378 295.16 403.637 295.047 403.856C294.941 404.075 294.787 404.257 294.585 404.403C294.382 404.54 294.139 404.642 293.856 404.706C294.066 404.885 294.228 405.099 294.342 405.35C294.455 405.602 294.512 405.873 294.512 406.165C294.512 406.618 294.403 407.007 294.184 407.331C293.965 407.647 293.653 407.89 293.248 408.06C292.851 408.23 292.373 408.316 291.814 408.316H290.842C290.648 408.316 290.502 408.352 290.405 408.425C290.308 408.49 290.259 408.587 290.259 408.717C290.259 408.822 290.299 408.915 290.38 408.996C290.47 409.069 290.611 409.105 290.806 409.105H293.467C294.002 409.105 294.427 409.271 294.743 409.604C295.067 409.928 295.229 410.345 295.229 410.855C295.229 411.244 295.128 411.588 294.925 411.888C294.723 412.188 294.443 412.423 294.087 412.593C293.73 412.763 293.321 412.848 292.859 412.848H289.821ZM290.526 411.718H292.774C292.92 411.718 293.05 411.69 293.163 411.633C293.277 411.584 293.366 411.511 293.431 411.414C293.495 411.325 293.528 411.22 293.528 411.098C293.528 410.888 293.463 410.73 293.333 410.624C293.204 410.519 293.042 410.466 292.847 410.466H290.526C290.332 410.466 290.17 410.523 290.04 410.637C289.919 410.75 289.858 410.9 289.858 411.086C289.858 411.272 289.919 411.422 290.04 411.536C290.17 411.657 290.332 411.718 290.526 411.718ZM291.632 407.222C292.029 407.222 292.329 407.133 292.531 406.954C292.742 406.768 292.847 406.505 292.847 406.165C292.847 405.824 292.742 405.565 292.531 405.387C292.329 405.201 292.029 405.107 291.632 405.107C291.243 405.107 290.943 405.201 290.733 405.387C290.53 405.565 290.429 405.824 290.429 406.165C290.429 406.383 290.474 406.574 290.563 406.736C290.652 406.898 290.785 407.019 290.964 407.1C291.142 407.181 291.365 407.222 291.632 407.222ZM296.158 410.564V401.778H297.847V404.877H297.932C298.07 404.706 298.232 404.561 298.418 404.439C298.612 404.309 298.827 404.208 299.062 404.135C299.305 404.062 299.568 404.026 299.852 404.026C300.273 404.026 300.642 404.103 300.958 404.257C301.274 404.411 301.517 404.654 301.687 404.986C301.865 405.318 301.954 405.751 301.954 406.286V410.564H300.265V406.553C300.265 406.351 300.241 406.181 300.192 406.043C300.143 405.897 300.071 405.78 299.973 405.691C299.884 405.593 299.771 405.525 299.633 405.484C299.495 405.444 299.341 405.423 299.171 405.423C298.92 405.423 298.693 405.484 298.491 405.606C298.288 405.727 298.13 405.893 298.017 406.104C297.903 406.315 297.847 406.558 297.847 406.833V410.564H296.158ZM305.376 410.709C304.971 410.709 304.642 410.637 304.391 410.491C304.14 410.345 303.958 410.15 303.844 409.907C303.731 409.656 303.674 409.381 303.674 409.081V405.472H302.884V404.172H303.735L304.051 402.349H305.363V404.172H306.53V405.472H305.363V408.802C305.363 408.996 305.408 409.146 305.497 409.251C305.586 409.348 305.732 409.397 305.935 409.397H306.53V410.515C306.433 410.547 306.319 410.576 306.19 410.6C306.06 410.632 305.922 410.657 305.777 410.673C305.631 410.697 305.497 410.709 305.376 410.709ZM310.21 410.709C309.764 410.709 309.363 410.661 309.007 410.564C308.65 410.466 308.346 410.333 308.095 410.163C307.844 409.984 307.65 409.774 307.512 409.531C307.382 409.288 307.317 409.012 307.317 408.704C307.317 408.672 307.317 408.64 307.317 408.607C307.317 408.575 307.321 408.55 307.33 408.534H308.958C308.958 408.55 308.958 408.567 308.958 408.583C308.958 408.599 308.958 408.615 308.958 408.631C308.966 408.834 309.031 409 309.152 409.13C309.274 409.251 309.432 409.34 309.626 409.397C309.829 409.454 310.039 409.482 310.258 409.482C310.453 409.482 310.639 409.466 310.817 409.433C311.003 409.393 311.157 409.324 311.279 409.227C311.409 409.13 311.473 409.004 311.473 408.85C311.473 408.656 311.392 408.506 311.23 408.401C311.076 408.295 310.87 408.21 310.611 408.145C310.359 408.081 310.084 408.008 309.784 407.927C309.509 407.862 309.233 407.789 308.958 407.708C308.682 407.619 308.431 407.505 308.205 407.368C307.986 407.23 307.808 407.052 307.67 406.833C307.532 406.606 307.463 406.323 307.463 405.982C307.463 405.65 307.536 405.363 307.682 405.12C307.828 404.868 308.026 404.662 308.277 404.5C308.537 404.338 308.836 404.22 309.177 404.147C309.525 404.066 309.898 404.026 310.295 404.026C310.667 404.026 311.016 404.066 311.34 404.147C311.664 404.22 311.947 404.334 312.19 404.488C312.433 404.633 312.624 404.82 312.761 405.047C312.899 405.265 312.968 405.512 312.968 405.788C312.968 405.845 312.968 405.897 312.968 405.946C312.968 405.995 312.964 406.027 312.956 406.043H311.34V405.946C311.34 405.8 311.295 405.679 311.206 405.581C311.117 405.476 310.987 405.395 310.817 405.338C310.655 405.282 310.457 405.253 310.222 405.253C310.06 405.253 309.91 405.265 309.772 405.29C309.642 405.314 309.529 405.35 309.432 405.399C309.335 405.448 309.258 405.508 309.201 405.581C309.152 405.646 309.128 405.727 309.128 405.824C309.128 405.962 309.185 406.076 309.298 406.165C309.42 406.246 309.578 406.315 309.772 406.371C309.967 406.428 310.181 406.489 310.416 406.553C310.708 406.635 311.012 406.716 311.328 406.797C311.652 406.869 311.951 406.971 312.227 407.1C312.502 407.23 312.725 407.416 312.895 407.659C313.065 407.894 313.15 408.214 313.15 408.619C313.15 409.008 313.073 409.336 312.919 409.604C312.774 409.871 312.567 410.086 312.3 410.248C312.032 410.41 311.72 410.527 311.364 410.6C311.008 410.673 310.623 410.709 310.21 410.709Z" fill="#111827"/>
<path d="M441.726 410.184C441.146 410.184 440.646 410.09 440.226 409.904C439.806 409.717 439.483 409.424 439.256 409.024C439.036 408.617 438.926 408.097 438.926 407.464V403.205H439.876V407.564C439.876 408.164 440.036 408.614 440.356 408.914C440.682 409.214 441.139 409.364 441.726 409.364C442.319 409.364 442.782 409.214 443.115 408.914C443.448 408.614 443.615 408.164 443.615 407.564V403.205H444.555V407.464C444.555 408.097 444.442 408.617 444.215 409.024C443.988 409.424 443.662 409.717 443.235 409.904C442.815 410.09 442.312 410.184 441.726 410.184ZM446.089 411.793V404.805H446.789L446.879 405.555H446.949C447.129 405.261 447.359 405.045 447.639 404.905C447.919 404.758 448.235 404.685 448.588 404.685C449.028 404.685 449.401 404.782 449.708 404.975C450.015 405.168 450.251 405.471 450.418 405.885C450.585 406.291 450.668 406.821 450.668 407.474C450.668 408.087 450.581 408.597 450.408 409.004C450.241 409.404 450.005 409.7 449.698 409.894C449.391 410.087 449.035 410.184 448.628 410.184C448.402 410.184 448.188 410.157 447.988 410.104C447.789 410.05 447.609 409.967 447.449 409.854C447.289 409.734 447.149 409.584 447.029 409.404H446.969V411.793H446.089ZM448.348 409.414C448.675 409.414 448.942 409.35 449.148 409.224C449.355 409.091 449.508 408.887 449.608 408.614C449.708 408.334 449.758 407.977 449.758 407.544V407.334C449.758 406.874 449.705 406.508 449.598 406.235C449.491 405.955 449.335 405.755 449.128 405.635C448.928 405.515 448.678 405.455 448.378 405.455C448.052 405.455 447.782 405.528 447.569 405.675C447.362 405.815 447.209 406.028 447.109 406.315C447.015 406.601 446.969 406.951 446.969 407.364V407.514C446.969 407.881 447.002 408.187 447.069 408.434C447.142 408.674 447.242 408.867 447.369 409.014C447.502 409.16 447.652 409.264 447.819 409.324C447.985 409.384 448.162 409.414 448.348 409.414ZM453.551 410.184C453.118 410.184 452.744 410.087 452.431 409.894C452.125 409.7 451.885 409.4 451.711 408.994C451.545 408.581 451.461 408.047 451.461 407.394C451.461 406.774 451.548 406.265 451.721 405.865C451.895 405.465 452.135 405.168 452.441 404.975C452.748 404.782 453.104 404.685 453.511 404.685C453.744 404.685 453.961 404.712 454.161 404.765C454.361 404.818 454.537 404.902 454.691 405.015C454.851 405.128 454.991 405.278 455.111 405.465H455.171V402.835H456.05V410.064H455.341L455.261 409.314H455.191C455.011 409.607 454.777 409.827 454.491 409.974C454.204 410.114 453.891 410.184 453.551 410.184ZM453.761 409.414C454.094 409.414 454.364 409.34 454.571 409.194C454.777 409.047 454.927 408.834 455.021 408.554C455.121 408.274 455.171 407.927 455.171 407.514V407.354C455.171 406.994 455.134 406.691 455.061 406.444C454.987 406.198 454.887 406.001 454.761 405.855C454.634 405.708 454.487 405.605 454.321 405.545C454.154 405.485 453.978 405.455 453.791 405.455C453.464 405.455 453.198 405.521 452.991 405.655C452.784 405.781 452.631 405.985 452.531 406.265C452.431 406.538 452.381 406.894 452.381 407.334V407.544C452.381 407.997 452.435 408.364 452.541 408.644C452.648 408.917 452.801 409.114 453.001 409.234C453.208 409.354 453.461 409.414 453.761 409.414ZM458.754 410.184C458.56 410.184 458.367 410.16 458.174 410.114C457.98 410.067 457.8 409.99 457.634 409.884C457.467 409.777 457.334 409.63 457.234 409.444C457.134 409.25 457.084 409.011 457.084 408.724C457.084 408.364 457.171 408.067 457.344 407.834C457.517 407.601 457.757 407.421 458.064 407.294C458.377 407.161 458.747 407.071 459.173 407.024C459.6 406.971 460.063 406.944 460.563 406.944V406.344C460.563 406.151 460.53 405.985 460.463 405.845C460.396 405.705 460.277 405.598 460.103 405.525C459.937 405.445 459.697 405.405 459.383 405.405C459.083 405.405 458.844 405.445 458.664 405.525C458.49 405.598 458.367 405.695 458.294 405.815C458.227 405.935 458.194 406.068 458.194 406.215V406.364H457.344C457.337 406.331 457.334 406.298 457.334 406.265C457.334 406.231 457.334 406.191 457.334 406.145C457.334 405.825 457.421 405.558 457.594 405.345C457.774 405.125 458.024 404.961 458.344 404.855C458.664 404.742 459.03 404.685 459.443 404.685C459.883 404.685 460.25 404.748 460.543 404.875C460.843 405.001 461.066 405.181 461.213 405.415C461.366 405.648 461.443 405.928 461.443 406.255V409.104C461.443 409.23 461.473 409.32 461.533 409.374C461.593 409.42 461.666 409.444 461.753 409.444H462.143V410.024C462.049 410.064 461.946 410.097 461.833 410.124C461.719 410.157 461.59 410.174 461.443 410.174C461.27 410.174 461.126 410.137 461.013 410.064C460.9 409.997 460.813 409.904 460.753 409.784C460.693 409.657 460.653 409.517 460.633 409.364H460.563C460.443 409.53 460.29 409.677 460.103 409.804C459.923 409.924 459.72 410.017 459.493 410.084C459.267 410.15 459.02 410.184 458.754 410.184ZM458.973 409.444C459.187 409.444 459.387 409.41 459.573 409.344C459.767 409.277 459.937 409.184 460.083 409.064C460.23 408.937 460.346 408.787 460.433 408.614C460.52 408.441 460.563 408.251 460.563 408.044V407.604C460.023 407.604 459.563 407.634 459.183 407.694C458.804 407.754 458.51 407.861 458.304 408.014C458.104 408.167 458.004 408.384 458.004 408.664C458.004 408.844 458.044 408.991 458.124 409.104C458.204 409.217 458.317 409.304 458.464 409.364C458.61 409.417 458.78 409.444 458.973 409.444ZM464.111 410.184C463.838 410.184 463.625 410.134 463.472 410.034C463.318 409.927 463.208 409.79 463.142 409.624C463.075 409.45 463.042 409.267 463.042 409.074V405.545H462.362V404.805H463.062L463.222 403.335H463.922V404.805H464.911V405.545H463.922V408.944C463.922 409.11 463.952 409.237 464.011 409.324C464.071 409.404 464.185 409.444 464.351 409.444H464.911V410.024C464.845 410.057 464.765 410.084 464.671 410.104C464.578 410.124 464.481 410.14 464.381 410.154C464.288 410.174 464.198 410.184 464.111 410.184ZM467.949 410.184C467.429 410.184 466.99 410.087 466.63 409.894C466.276 409.694 466.006 409.39 465.82 408.984C465.64 408.577 465.55 408.061 465.55 407.434C465.55 406.801 465.64 406.285 465.82 405.885C466.006 405.478 466.28 405.178 466.64 404.985C467 404.785 467.449 404.685 467.989 404.685C468.482 404.685 468.896 404.782 469.229 404.975C469.562 405.161 469.812 405.445 469.979 405.825C470.152 406.198 470.239 406.668 470.239 407.234V407.654H466.46C466.473 408.074 466.533 408.421 466.64 408.694C466.753 408.961 466.92 409.157 467.139 409.284C467.359 409.404 467.636 409.464 467.969 409.464C468.196 409.464 468.393 409.437 468.559 409.384C468.732 409.324 468.876 409.24 468.989 409.134C469.109 409.027 469.199 408.901 469.259 408.754C469.319 408.607 469.352 408.447 469.359 408.274H470.219C470.212 408.554 470.159 408.814 470.059 409.054C469.959 409.287 469.812 409.487 469.619 409.654C469.426 409.82 469.189 409.95 468.909 410.044C468.629 410.137 468.309 410.184 467.949 410.184ZM466.48 406.994H469.329C469.329 406.701 469.296 406.454 469.229 406.255C469.162 406.055 469.066 405.891 468.939 405.765C468.819 405.638 468.676 405.548 468.509 405.495C468.349 405.435 468.166 405.405 467.959 405.405C467.653 405.405 467.393 405.461 467.179 405.575C466.966 405.688 466.803 405.861 466.69 406.095C466.576 406.328 466.506 406.628 466.48 406.994ZM473.117 410.184C472.683 410.184 472.31 410.087 471.997 409.894C471.69 409.7 471.45 409.4 471.277 408.994C471.11 408.581 471.027 408.047 471.027 407.394C471.027 406.774 471.114 406.265 471.287 405.865C471.46 405.465 471.7 405.168 472.007 404.975C472.313 404.782 472.67 404.685 473.077 404.685C473.31 404.685 473.526 404.712 473.726 404.765C473.926 404.818 474.103 404.902 474.256 405.015C474.416 405.128 474.556 405.278 474.676 405.465H474.736V402.835H475.616V410.064H474.906L474.826 409.314H474.756C474.576 409.607 474.343 409.827 474.056 409.974C473.77 410.114 473.456 410.184 473.117 410.184ZM473.326 409.414C473.66 409.414 473.93 409.34 474.136 409.194C474.343 409.047 474.493 408.834 474.586 408.554C474.686 408.274 474.736 407.927 474.736 407.514V407.354C474.736 406.994 474.7 406.691 474.626 406.444C474.553 406.198 474.453 406.001 474.326 405.855C474.2 405.708 474.053 405.605 473.886 405.545C473.72 405.485 473.543 405.455 473.356 405.455C473.03 405.455 472.763 405.521 472.557 405.655C472.35 405.781 472.197 405.985 472.097 406.265C471.997 406.538 471.947 406.894 471.947 407.334V407.544C471.947 407.997 472 408.364 472.107 408.644C472.213 408.917 472.367 409.114 472.567 409.234C472.773 409.354 473.027 409.414 473.326 409.414ZM479.069 410.064V409.314H480.798V404.565H479.059V404.005C479.305 403.985 479.559 403.948 479.819 403.895C480.085 403.842 480.345 403.758 480.598 403.645C480.852 403.525 481.082 403.372 481.288 403.185H481.688V409.314H483.318V410.064H479.069ZM488.181 410.184C487.748 410.184 487.375 410.087 487.062 409.894C486.755 409.7 486.515 409.4 486.342 408.994C486.175 408.581 486.092 408.047 486.092 407.394C486.092 406.774 486.178 406.265 486.352 405.865C486.525 405.465 486.765 405.168 487.072 404.975C487.378 404.782 487.735 404.685 488.141 404.685C488.375 404.685 488.591 404.712 488.791 404.765C488.991 404.818 489.168 404.902 489.321 405.015C489.481 405.128 489.621 405.278 489.741 405.465H489.801V402.835H490.681V410.064H489.971L489.891 409.314H489.821C489.641 409.607 489.408 409.827 489.121 409.974C488.834 410.114 488.521 410.184 488.181 410.184ZM488.391 409.414C488.724 409.414 488.994 409.34 489.201 409.194C489.408 409.047 489.558 408.834 489.651 408.554C489.751 408.274 489.801 407.927 489.801 407.514V407.354C489.801 406.994 489.764 406.691 489.691 406.444C489.618 406.198 489.518 406.001 489.391 405.855C489.264 405.708 489.118 405.605 488.951 405.545C488.784 405.485 488.608 405.455 488.421 405.455C488.095 405.455 487.828 405.521 487.621 405.655C487.415 405.781 487.261 405.985 487.162 406.265C487.062 406.538 487.012 406.894 487.012 407.334V407.544C487.012 407.997 487.065 408.364 487.172 408.644C487.278 408.917 487.431 409.114 487.631 409.234C487.838 409.354 488.091 409.414 488.391 409.414ZM493.384 410.184C493.191 410.184 492.997 410.16 492.804 410.114C492.611 410.067 492.431 409.99 492.264 409.884C492.097 409.777 491.964 409.63 491.864 409.444C491.764 409.25 491.714 409.011 491.714 408.724C491.714 408.364 491.801 408.067 491.974 407.834C492.147 407.601 492.387 407.421 492.694 407.294C493.007 407.161 493.377 407.071 493.804 407.024C494.23 406.971 494.694 406.944 495.193 406.944V406.344C495.193 406.151 495.16 405.985 495.093 405.845C495.027 405.705 494.907 405.598 494.734 405.525C494.567 405.445 494.327 405.405 494.014 405.405C493.714 405.405 493.474 405.445 493.294 405.525C493.121 405.598 492.997 405.695 492.924 405.815C492.857 405.935 492.824 406.068 492.824 406.215V406.364H491.974C491.968 406.331 491.964 406.298 491.964 406.265C491.964 406.231 491.964 406.191 491.964 406.145C491.964 405.825 492.051 405.558 492.224 405.345C492.404 405.125 492.654 404.961 492.974 404.855C493.294 404.742 493.66 404.685 494.074 404.685C494.514 404.685 494.88 404.748 495.173 404.875C495.473 405.001 495.697 405.181 495.843 405.415C495.997 405.648 496.073 405.928 496.073 406.255V409.104C496.073 409.23 496.103 409.32 496.163 409.374C496.223 409.42 496.296 409.444 496.383 409.444H496.773V410.024C496.68 410.064 496.576 410.097 496.463 410.124C496.35 410.157 496.22 410.174 496.073 410.174C495.9 410.174 495.757 410.137 495.643 410.064C495.53 409.997 495.443 409.904 495.383 409.784C495.323 409.657 495.283 409.517 495.263 409.364H495.193C495.073 409.53 494.92 409.677 494.734 409.804C494.554 409.924 494.35 410.017 494.124 410.084C493.897 410.15 493.65 410.184 493.384 410.184ZM493.604 409.444C493.817 409.444 494.017 409.41 494.204 409.344C494.397 409.277 494.567 409.184 494.714 409.064C494.86 408.937 494.977 408.787 495.063 408.614C495.15 408.441 495.193 408.251 495.193 408.044V407.604C494.654 407.604 494.194 407.634 493.814 407.694C493.434 407.754 493.141 407.861 492.934 408.014C492.734 408.167 492.634 408.384 492.634 408.664C492.634 408.844 492.674 408.991 492.754 409.104C492.834 409.217 492.947 409.304 493.094 409.364C493.241 409.417 493.411 409.444 493.604 409.444ZM497.962 411.883C497.802 411.883 497.662 411.87 497.542 411.843C497.429 411.823 497.352 411.81 497.312 411.803V411.163H497.752C497.912 411.163 498.069 411.13 498.222 411.063C498.375 410.997 498.518 410.883 498.652 410.723C498.785 410.563 498.898 410.344 498.992 410.064L496.952 404.805H497.872L498.922 407.514C498.968 407.641 499.022 407.797 499.082 407.984C499.148 408.164 499.212 408.351 499.272 408.544C499.338 408.737 499.392 408.907 499.432 409.054H499.492C499.518 408.947 499.552 408.827 499.592 408.694C499.632 408.561 499.672 408.424 499.712 408.284C499.758 408.137 499.802 408.001 499.841 407.874C499.888 407.741 499.925 407.624 499.951 407.524L500.841 404.805H501.731L499.951 409.914C499.851 410.2 499.742 410.464 499.622 410.703C499.502 410.95 499.368 411.16 499.222 411.333C499.075 411.507 498.898 411.64 498.692 411.733C498.485 411.833 498.242 411.883 497.962 411.883ZM505.959 410.184C505.766 410.184 505.572 410.16 505.379 410.114C505.186 410.067 505.006 409.99 504.839 409.884C504.673 409.777 504.539 409.63 504.439 409.444C504.339 409.25 504.289 409.011 504.289 408.724C504.289 408.364 504.376 408.067 504.549 407.834C504.723 407.601 504.962 407.421 505.269 407.294C505.582 407.161 505.952 407.071 506.379 407.024C506.805 406.971 507.269 406.944 507.768 406.944V406.344C507.768 406.151 507.735 405.985 507.669 405.845C507.602 405.705 507.482 405.598 507.309 405.525C507.142 405.445 506.902 405.405 506.589 405.405C506.289 405.405 506.049 405.445 505.869 405.525C505.696 405.598 505.572 405.695 505.499 405.815C505.432 405.935 505.399 406.068 505.399 406.215V406.364H504.549C504.543 406.331 504.539 406.298 504.539 406.265C504.539 406.231 504.539 406.191 504.539 406.145C504.539 405.825 504.626 405.558 504.799 405.345C504.979 405.125 505.229 404.961 505.549 404.855C505.869 404.742 506.236 404.685 506.649 404.685C507.089 404.685 507.455 404.748 507.748 404.875C508.048 405.001 508.272 405.181 508.418 405.415C508.572 405.648 508.648 405.928 508.648 406.255V409.104C508.648 409.23 508.678 409.32 508.738 409.374C508.798 409.42 508.872 409.444 508.958 409.444H509.348V410.024C509.255 410.064 509.151 410.097 509.038 410.124C508.925 410.157 508.795 410.174 508.648 410.174C508.475 410.174 508.332 410.137 508.218 410.064C508.105 409.997 508.018 409.904 507.958 409.784C507.898 409.657 507.858 409.517 507.838 409.364H507.768C507.649 409.53 507.495 409.677 507.309 409.804C507.129 409.924 506.925 410.017 506.699 410.084C506.472 410.15 506.226 410.184 505.959 410.184ZM506.179 409.444C506.392 409.444 506.592 409.41 506.779 409.344C506.972 409.277 507.142 409.184 507.289 409.064C507.435 408.937 507.552 408.787 507.639 408.614C507.725 408.441 507.768 408.251 507.768 408.044V407.604C507.229 407.604 506.769 407.634 506.389 407.694C506.009 407.754 505.716 407.861 505.509 408.014C505.309 408.167 505.209 408.384 505.209 408.664C505.209 408.844 505.249 408.991 505.329 409.104C505.409 409.217 505.522 409.304 505.669 409.364C505.816 409.417 505.986 409.444 506.179 409.444ZM510.977 411.883C510.724 411.883 510.49 411.83 510.277 411.723C510.064 411.623 509.894 411.477 509.767 411.283C509.641 411.09 509.577 410.86 509.577 410.593C509.577 410.3 509.657 410.057 509.817 409.864C509.984 409.67 510.18 409.527 510.407 409.434C510.24 409.354 510.11 409.244 510.017 409.104C509.924 408.957 509.877 408.797 509.877 408.624C509.877 408.391 509.961 408.194 510.127 408.034C510.3 407.874 510.51 407.767 510.757 407.714C510.53 407.568 510.35 407.381 510.217 407.154C510.09 406.921 510.027 406.664 510.027 406.384C510.027 406.051 510.104 405.758 510.257 405.505C510.417 405.251 510.657 405.051 510.977 404.905C511.304 404.758 511.7 404.685 512.167 404.685C512.38 404.685 512.58 404.702 512.767 404.735C512.953 404.762 513.12 404.808 513.266 404.875C513.5 404.768 513.673 404.632 513.786 404.465C513.906 404.298 513.98 404.128 514.006 403.955H514.876C514.876 404.155 514.829 404.345 514.736 404.525C514.649 404.698 514.529 404.845 514.376 404.965C514.223 405.078 514.036 405.155 513.816 405.195C513.983 405.355 514.106 405.535 514.186 405.735C514.273 405.935 514.316 406.151 514.316 406.384C514.316 406.718 514.236 407.014 514.076 407.274C513.923 407.528 513.69 407.727 513.376 407.874C513.063 408.021 512.67 408.094 512.197 408.094H511.377C511.197 408.094 511.05 408.131 510.937 408.204C510.824 408.271 510.767 408.381 510.767 408.534C510.767 408.667 510.824 408.777 510.937 408.864C511.05 408.944 511.197 408.984 511.377 408.984H513.516C513.903 408.984 514.219 409.114 514.466 409.374C514.713 409.627 514.836 409.954 514.836 410.354C514.836 410.64 514.763 410.897 514.616 411.123C514.476 411.357 514.276 411.54 514.016 411.673C513.763 411.813 513.466 411.883 513.126 411.883H510.977ZM511.227 411.213H513.116C513.27 411.213 513.41 411.18 513.536 411.113C513.663 411.053 513.763 410.967 513.836 410.853C513.91 410.74 513.946 410.617 513.946 410.483C513.946 410.257 513.88 410.077 513.746 409.944C513.613 409.81 513.446 409.744 513.246 409.744H511.227C511.014 409.744 510.834 409.817 510.687 409.964C510.54 410.104 510.467 410.277 510.467 410.483C510.467 410.703 510.54 410.88 510.687 411.013C510.834 411.147 511.014 411.213 511.227 411.213ZM512.177 407.434C512.603 407.434 512.92 407.341 513.126 407.154C513.333 406.968 513.436 406.711 513.436 406.384C513.436 406.065 513.333 405.811 513.126 405.625C512.92 405.438 512.603 405.345 512.177 405.345C511.75 405.345 511.43 405.438 511.217 405.625C511.01 405.811 510.907 406.065 510.907 406.384C510.907 406.591 510.954 406.774 511.047 406.934C511.14 407.094 511.28 407.218 511.467 407.304C511.653 407.391 511.89 407.434 512.177 407.434ZM517.802 410.184C517.269 410.184 516.819 410.087 516.452 409.894C516.092 409.694 515.816 409.39 515.622 408.984C515.436 408.577 515.343 408.061 515.343 407.434C515.343 406.801 515.436 406.285 515.622 405.885C515.816 405.478 516.092 405.178 516.452 404.985C516.819 404.785 517.269 404.685 517.802 404.685C518.335 404.685 518.782 404.785 519.142 404.985C519.508 405.178 519.785 405.478 519.971 405.885C520.158 406.285 520.251 406.801 520.251 407.434C520.251 408.061 520.158 408.577 519.971 408.984C519.785 409.39 519.508 409.694 519.142 409.894C518.782 410.087 518.335 410.184 517.802 410.184ZM517.802 409.444C518.142 409.444 518.425 409.377 518.652 409.244C518.878 409.11 519.048 408.904 519.162 408.624C519.282 408.337 519.342 407.977 519.342 407.544V407.324C519.342 406.884 519.282 406.524 519.162 406.245C519.048 405.965 518.878 405.758 518.652 405.625C518.425 405.491 518.142 405.425 517.802 405.425C517.462 405.425 517.175 405.491 516.942 405.625C516.716 405.758 516.546 405.965 516.432 406.245C516.319 406.524 516.262 406.884 516.262 407.324V407.544C516.262 407.977 516.319 408.337 516.432 408.624C516.546 408.904 516.716 409.11 516.942 409.244C517.175 409.377 517.462 409.444 517.802 409.444Z" fill="#6B7280"/>
</g>
<defs>
<filter id="filter0_d_225_14370" x="0" y="0" width="734.833" height="632.894" filterUnits="userSpaceOnUse" color-interpolation-filters="sRGB">
<feFlood flood-opacity="0" result="BackgroundImageFix"/>
<feColorMatrix in="SourceAlpha" type="matrix" values="0 0 0 0 0 0 0 0 0 0 0 0 0 0 0 0 0 0 127 0" result="hardAlpha"/>
<feOffset dy="4"/>
<feGaussianBlur stdDeviation="100"/>
<feComposite in2="hardAlpha" operator="out"/>
<feColorMatrix type="matrix" values="0 0 0 0 0 0 0 0 0 0 0 0 0 0 0 0 0 0 0.1 0"/>
<feBlend mode="normal" in2="BackgroundImageFix" result="effect1_dropShadow_225_14370"/>
<feBlend mode="normal" in="SourceGraphic" in2="effect1_dropShadow_225_14370" result="shape"/>
</filter>
<linearGradient id="paint0_linear_225_14370" x1="263.015" y1="250.83" x2="263.015" y2="314.682" gradientUnits="userSpaceOnUse">
<stop stop-color="#F29AC8"/>
<stop offset="1" stop-color="#B20B61"/>
</linearGradient>
<linearGradient id="paint1_linear_225_14370" x1="262.797" y1="282.637" x2="262.797" y2="363.637" gradientUnits="userSpaceOnUse">
<stop stop-color="#FDB6DB"/>
<stop offset="1" stop-color="#E10175"/>
</linearGradient>
<linearGradient id="paint2_linear_225_14370" x1="262.797" y1="282.637" x2="262.797" y2="363.637" gradientUnits="userSpaceOnUse">
<stop stop-color="#FDB6DB"/>
<stop offset="1" stop-color="#E10175"/>
</linearGradient>
<linearGradient id="paint3_linear_225_14370" x1="294.657" y1="251.147" x2="294.657" y2="315" gradientUnits="userSpaceOnUse">
<stop stop-color="#F29AC8"/>
<stop offset="1" stop-color="#B20B61"/>
</linearGradient>
<linearGradient id="paint4_linear_225_14370" x1="294.561" y1="265.637" x2="294.561" y2="363.637" gradientUnits="userSpaceOnUse">
<stop stop-color="#FDB6DB"/>
<stop offset="1" stop-color="#E10175"/>
</linearGradient>
<linearGradient id="paint5_linear_225_14370" x1="326.107" y1="251.147" x2="326.107" y2="315" gradientUnits="userSpaceOnUse">
<stop stop-color="#F29AC8"/>
<stop offset="1" stop-color="#B20B61"/>
</linearGradient>
<linearGradient id="paint6_linear_225_14370" x1="326.131" y1="276.637" x2="326.131" y2="363.637" gradientUnits="userSpaceOnUse">
<stop stop-color="#F29AC8"/>
<stop offset="1" stop-color="#B20B61"/>
</linearGradient>
<linearGradient id="paint7_linear_225_14370" x1="326.131" y1="276.637" x2="326.131" y2="363.637" gradientUnits="userSpaceOnUse">
<stop stop-color="#FDB6DB"/>
<stop offset="1" stop-color="#E10175"/>
</linearGradient>
<linearGradient id="paint8_linear_225_14370" x1="357.508" y1="251.147" x2="357.508" y2="315" gradientUnits="userSpaceOnUse">
<stop stop-color="#F29AC8"/>
<stop offset="1" stop-color="#B20B61"/>
</linearGradient>
<linearGradient id="paint9_linear_225_14370" x1="357.653" y1="302.637" x2="357.653" y2="363.637" gradientUnits="userSpaceOnUse">
<stop stop-color="#FDB6DB"/>
<stop offset="1" stop-color="#E10175"/>
</linearGradient>
<linearGradient id="paint10_linear_225_14370" x1="357.653" y1="302.637" x2="357.653" y2="363.637" gradientUnits="userSpaceOnUse">
<stop stop-color="#FDB6DB"/>
<stop offset="1" stop-color="#E10175"/>
</linearGradient>
<linearGradient id="paint11_linear_225_14370" x1="389.2" y1="251.147" x2="389.2" y2="315" gradientUnits="userSpaceOnUse">
<stop stop-color="#F29AC8"/>
<stop offset="1" stop-color="#B20B61"/>
</linearGradient>
<linearGradient id="paint12_linear_225_14370" x1="389.466" y1="258.637" x2="389.466" y2="363.637" gradientUnits="userSpaceOnUse">
<stop stop-color="#FDB6DB"/>
<stop offset="1" stop-color="#E10175"/>
</linearGradient>
<linearGradient id="paint13_linear_225_14370" x1="389.466" y1="258.637" x2="389.466" y2="363.637" gradientUnits="userSpaceOnUse">
<stop stop-color="#FDB6DB"/>
<stop offset="1" stop-color="#E10175"/>
</linearGradient>
<linearGradient id="paint14_linear_225_14370" x1="420.568" y1="259.151" x2="420.568" y2="349.125" gradientUnits="userSpaceOnUse">
<stop stop-color="#F29AC8"/>
<stop offset="1" stop-color="#B20B61"/>
</linearGradient>
<linearGradient id="paint15_linear_225_14370" x1="420.466" y1="334.934" x2="420.466" y2="362.934" gradientUnits="userSpaceOnUse">
<stop stop-color="#FDB6DB"/>
<stop offset="1" stop-color="#E10175"/>
</linearGradient>
<linearGradient id="paint16_linear_225_14370" x1="420.466" y1="334.934" x2="420.466" y2="362.934" gradientUnits="userSpaceOnUse">
<stop stop-color="#FDB6DB"/>
<stop offset="1" stop-color="#E10175"/>
</linearGradient>
<clipPath id="clip0_225_14370">
<rect width="15.0925" height="38.1222" fill="white" transform="translate(255.468 250.83)"/>
</clipPath>
<clipPath id="clip1_225_14370">
<rect width="15.0925" height="18.276" fill="white" transform="translate(287.111 251.147)"/>
</clipPath>
<clipPath id="clip2_225_14370">
<rect width="15.0925" height="29.4775" fill="white" transform="translate(318.561 251.147)"/>
</clipPath>
<clipPath id="clip3_225_14370">
<rect width="15.0925" height="56.5968" fill="white" transform="translate(349.962 251.147)"/>
</clipPath>
<clipPath id="clip4_225_14370">
<rect width="15.0925" height="10.0223" fill="white" transform="translate(381.653 251.147)"/>
</clipPath>
<clipPath id="clip5_225_14370">
<rect width="15.0925" height="104.486" fill="white" transform="translate(413.021 259.151)"/>
</clipPath>
<clipPath id="clip6_225_14370">
<rect width="3.93681" height="3.93681" fill="white" transform="translate(441.297 290.344)"/>
</clipPath>
<clipPath id="clip7_225_14370">
<rect width="3.93681" height="3.93681" fill="white" transform="translate(441.297 340.351)"/>
</clipPath>
</defs>
</svg>
