<svg width="735" height="481" viewBox="0 0 735 481" fill="none" xmlns="http://www.w3.org/2000/svg">
<g filter="url(#filter0_d_225_14334)">
<rect x="200.417" y="196.417" width="334" height="232" rx="4" fill="white" shape-rendering="crispEdges"/>
<rect x="200.208" y="196.208" width="334.417" height="232.417" rx="4.20828" stroke="#E5E7EB" stroke-width="0.416566" shape-rendering="crispEdges"/>
<rect x="217.632" y="208.568" width="51.3301" height="20.6651" rx="4.99879" fill="#FBE5EE"/>
<path d="M225.057 221.901V215.043H230.405V216.152H226.356V217.842H229.966V218.952H226.356V220.791H230.465V221.901H225.057ZM231.114 221.901L232.994 219.192L231.244 216.642H232.724L233.763 218.272H233.823L234.883 216.642H236.273L234.513 219.162L236.373 221.901H234.913L233.743 220.081H233.683L232.504 221.901H231.114ZM237.122 215.832V214.673H238.341V215.832H237.122ZM237.122 221.901V216.642H238.341V221.901H237.122ZM241.69 222.021C241.31 222.021 240.977 221.981 240.69 221.901C240.404 221.814 240.164 221.698 239.97 221.551C239.777 221.404 239.63 221.234 239.53 221.041C239.437 220.841 239.39 220.625 239.39 220.391C239.39 220.358 239.39 220.328 239.39 220.301C239.397 220.275 239.4 220.255 239.4 220.241H240.6C240.6 220.255 240.6 220.268 240.6 220.281C240.6 220.295 240.6 220.308 240.6 220.321C240.607 220.501 240.664 220.648 240.77 220.761C240.877 220.868 241.017 220.945 241.19 220.991C241.363 221.038 241.547 221.061 241.74 221.061C241.913 221.061 242.077 221.044 242.23 221.011C242.39 220.971 242.52 220.911 242.62 220.831C242.726 220.745 242.78 220.635 242.78 220.501C242.78 220.328 242.713 220.195 242.58 220.101C242.446 220.008 242.27 219.931 242.05 219.871C241.837 219.811 241.607 219.748 241.36 219.681C241.14 219.621 240.92 219.555 240.7 219.482C240.48 219.408 240.28 219.315 240.1 219.202C239.927 219.088 239.784 218.942 239.67 218.762C239.564 218.582 239.51 218.358 239.51 218.092C239.51 217.832 239.567 217.605 239.68 217.412C239.794 217.219 239.95 217.059 240.15 216.932C240.35 216.799 240.587 216.699 240.86 216.632C241.133 216.566 241.43 216.532 241.75 216.532C242.063 216.532 242.346 216.566 242.6 216.632C242.86 216.699 243.083 216.796 243.27 216.922C243.463 217.042 243.609 217.192 243.709 217.372C243.816 217.545 243.869 217.739 243.869 217.952C243.869 217.999 243.866 218.045 243.859 218.092C243.859 218.139 243.859 218.165 243.859 218.172H242.67V218.102C242.67 217.975 242.63 217.869 242.55 217.782C242.476 217.689 242.366 217.615 242.22 217.562C242.08 217.509 241.903 217.482 241.69 217.482C241.53 217.482 241.39 217.495 241.27 217.522C241.15 217.549 241.05 217.585 240.97 217.632C240.897 217.679 240.84 217.732 240.8 217.792C240.76 217.852 240.74 217.919 240.74 217.992C240.74 218.119 240.79 218.218 240.89 218.292C240.99 218.365 241.123 218.428 241.29 218.482C241.463 218.535 241.65 218.592 241.85 218.652C242.09 218.718 242.336 218.788 242.59 218.862C242.843 218.928 243.076 219.015 243.29 219.122C243.509 219.228 243.686 219.378 243.819 219.572C243.953 219.765 244.019 220.021 244.019 220.341C244.019 220.648 243.959 220.911 243.839 221.131C243.726 221.344 243.563 221.518 243.35 221.651C243.143 221.778 242.896 221.871 242.61 221.931C242.33 221.991 242.023 222.021 241.69 222.021ZM246.439 222.021C246.112 222.021 245.856 221.958 245.669 221.831C245.483 221.698 245.349 221.531 245.269 221.331C245.196 221.124 245.159 220.915 245.159 220.701V217.642H244.529V216.642H245.189L245.409 215.173H246.379V216.642H247.289V217.642H246.379V220.581C246.379 220.721 246.416 220.831 246.489 220.911C246.562 220.984 246.672 221.021 246.819 221.021H247.289V221.861C247.222 221.888 247.139 221.911 247.039 221.931C246.945 221.958 246.846 221.978 246.739 221.991C246.632 222.011 246.532 222.021 246.439 222.021ZM248.193 215.832V214.673H249.413V215.832H248.193ZM248.193 221.901V216.642H249.413V221.901H248.193ZM250.712 221.901V216.642H251.732L251.832 217.342H251.902C252.022 217.182 252.162 217.042 252.322 216.922C252.488 216.796 252.675 216.699 252.881 216.632C253.095 216.559 253.328 216.522 253.581 216.522C253.915 216.522 254.208 216.582 254.461 216.702C254.721 216.822 254.924 217.015 255.071 217.282C255.218 217.549 255.291 217.905 255.291 218.352V221.901H254.061V218.572C254.061 218.385 254.038 218.232 253.991 218.112C253.951 217.985 253.888 217.885 253.801 217.812C253.721 217.732 253.621 217.675 253.501 217.642C253.381 217.609 253.248 217.592 253.101 217.592C252.881 217.592 252.682 217.645 252.502 217.752C252.328 217.859 252.188 218.005 252.082 218.192C251.982 218.378 251.932 218.595 251.932 218.842V221.901H250.712ZM257.42 223.721C257.187 223.721 256.967 223.674 256.76 223.581C256.554 223.487 256.387 223.347 256.26 223.161C256.134 222.981 256.071 222.757 256.071 222.491C256.071 222.198 256.154 221.968 256.32 221.801C256.494 221.628 256.684 221.498 256.89 221.411C256.737 221.331 256.61 221.224 256.51 221.091C256.417 220.958 256.37 220.798 256.37 220.611C256.37 220.358 256.464 220.158 256.65 220.011C256.837 219.858 257.05 219.758 257.29 219.711C257.044 219.558 256.854 219.362 256.72 219.122C256.594 218.882 256.53 218.608 256.53 218.302C256.53 217.935 256.617 217.622 256.79 217.362C256.97 217.095 257.23 216.889 257.57 216.742C257.91 216.596 258.32 216.522 258.8 216.522C258.993 216.522 259.18 216.536 259.36 216.562C259.54 216.589 259.703 216.629 259.85 216.682C260.083 216.542 260.243 216.386 260.329 216.212C260.416 216.032 260.463 215.886 260.469 215.772H261.659C261.659 216.006 261.613 216.212 261.519 216.392C261.433 216.572 261.309 216.722 261.149 216.842C260.989 216.955 260.796 217.039 260.569 217.092C260.736 217.239 260.863 217.415 260.949 217.622C261.036 217.829 261.079 218.055 261.079 218.302C261.079 218.668 260.993 218.985 260.819 219.252C260.653 219.518 260.403 219.725 260.07 219.871C259.743 220.018 259.34 220.091 258.86 220.091H258.05C257.91 220.091 257.8 220.121 257.72 220.181C257.647 220.241 257.61 220.325 257.61 220.431C257.61 220.518 257.643 220.595 257.71 220.661C257.783 220.728 257.883 220.761 258.01 220.761H260.31C260.703 220.761 261.026 220.891 261.279 221.151C261.539 221.404 261.669 221.731 261.669 222.131C261.669 222.431 261.589 222.701 261.429 222.941C261.276 223.181 261.059 223.371 260.779 223.511C260.499 223.651 260.173 223.721 259.8 223.721H257.42ZM257.86 222.841H259.79C259.916 222.841 260.026 222.817 260.12 222.771C260.22 222.731 260.296 222.671 260.349 222.591C260.409 222.511 260.439 222.421 260.439 222.321C260.439 222.148 260.383 222.018 260.27 221.931C260.163 221.844 260.03 221.801 259.87 221.801H257.86C257.7 221.801 257.567 221.848 257.46 221.941C257.354 222.041 257.3 222.168 257.3 222.321C257.3 222.474 257.35 222.597 257.45 222.691C257.557 222.791 257.693 222.841 257.86 222.841ZM258.81 219.232C259.163 219.232 259.426 219.152 259.6 218.992C259.78 218.825 259.87 218.595 259.87 218.302C259.87 218.009 259.78 217.782 259.6 217.622C259.426 217.462 259.163 217.382 258.81 217.382C258.457 217.382 258.19 217.462 258.01 217.622C257.837 217.782 257.75 218.009 257.75 218.302C257.75 218.495 257.787 218.662 257.86 218.802C257.94 218.942 258.057 219.048 258.21 219.122C258.37 219.195 258.57 219.232 258.81 219.232Z" fill="#791142"/>
<g clip-path="url(#clip0_225_14334)">
<mask id="mask0_225_14334" style="mask-type:alpha" maskUnits="userSpaceOnUse" x="202" y="181" width="327" height="275">
<line x1="203.462" y1="181.919" x2="203.462" y2="455.422" stroke="black" stroke-width="1.10879"/>
<path d="M205.864 181.919L205.864 455.422" stroke="black" stroke-width="1.10879"/>
<path d="M208.821 181.919L208.821 455.422" stroke="black" stroke-width="1.10879"/>
<path d="M211.778 181.919L211.778 455.422" stroke="black" stroke-width="1.10879"/>
<path d="M214.735 181.919L214.735 455.422" stroke="black" stroke-width="1.10879"/>
<path d="M217.691 181.919L217.691 455.422" stroke="black" stroke-width="1.10879"/>
<path d="M220.648 181.919L220.648 455.422" stroke="black" stroke-width="1.10879"/>
<path d="M223.605 181.919L223.605 455.422" stroke="black" stroke-width="1.10879"/>
<path d="M226.562 181.919L226.562 455.422" stroke="black" stroke-width="1.10879"/>
<path d="M229.518 181.919L229.518 455.422" stroke="black" stroke-width="1.10879"/>
<path d="M232.475 181.919L232.475 455.422" stroke="black" stroke-width="1.10879"/>
<path d="M235.432 181.919L235.432 455.422" stroke="black" stroke-width="1.10879"/>
<path d="M238.389 181.919L238.389 455.422" stroke="black" stroke-width="1.10879"/>
<path d="M241.345 181.919L241.345 455.422" stroke="black" stroke-width="1.10879"/>
<path d="M244.302 181.919L244.302 455.422" stroke="black" stroke-width="1.10879"/>
<path d="M247.259 181.919L247.259 455.422" stroke="black" stroke-width="1.10879"/>
<path d="M250.216 181.919L250.216 455.422" stroke="black" stroke-width="1.10879"/>
<path d="M253.173 181.919L253.173 455.422" stroke="black" stroke-width="1.10879"/>
<path d="M256.129 181.919V455.422" stroke="black" stroke-width="1.10879"/>
<path d="M259.086 181.919V455.422" stroke="black" stroke-width="1.10879"/>
<path d="M262.043 181.919V455.422" stroke="black" stroke-width="1.10879"/>
<path d="M265 181.919V455.422" stroke="black" stroke-width="1.10879"/>
<path d="M267.957 181.919V455.422" stroke="black" stroke-width="1.10879"/>
<path d="M270.913 181.919V455.422" stroke="black" stroke-width="1.10879"/>
<path d="M273.87 181.919V455.422" stroke="black" stroke-width="1.10879"/>
<path d="M276.827 181.919V455.422" stroke="black" stroke-width="1.10879"/>
<path d="M279.784 181.919V455.422" stroke="black" stroke-width="1.10879"/>
<path d="M282.74 181.919V455.422" stroke="black" stroke-width="1.10879"/>
<path d="M285.697 181.919V455.422" stroke="black" stroke-width="1.10879"/>
<path d="M288.654 181.919V455.422" stroke="black" stroke-width="1.10879"/>
<path d="M291.611 181.919V455.422" stroke="black" stroke-width="1.10879"/>
<path d="M294.568 181.919V455.422" stroke="black" stroke-width="1.10879"/>
<path d="M297.525 181.919V455.422" stroke="black" stroke-width="1.10879"/>
<path d="M300.481 181.919V455.422" stroke="black" stroke-width="1.10879"/>
<path d="M303.438 181.919V455.422" stroke="black" stroke-width="1.10879"/>
<path d="M306.395 181.919V455.422" stroke="black" stroke-width="1.10879"/>
<path d="M309.351 181.919V455.422" stroke="black" stroke-width="1.10879"/>
<path d="M312.308 181.919V455.422" stroke="black" stroke-width="1.10879"/>
<path d="M315.265 181.919V455.422" stroke="black" stroke-width="1.10879"/>
<path d="M318.222 181.919V455.422" stroke="black" stroke-width="1.10879"/>
<path d="M321.178 181.919V455.422" stroke="black" stroke-width="1.10879"/>
<path d="M324.135 181.919V455.422" stroke="black" stroke-width="1.10879"/>
<path d="M327.092 181.919V455.422" stroke="black" stroke-width="1.10879"/>
<path d="M330.049 181.919V455.422" stroke="black" stroke-width="1.10879"/>
<path d="M333.006 181.919V455.422" stroke="black" stroke-width="1.10879"/>
<path d="M335.963 181.919V455.422" stroke="black" stroke-width="1.10879"/>
<path d="M338.919 181.919V455.422" stroke="black" stroke-width="1.10879"/>
<path d="M341.876 181.919V455.422" stroke="black" stroke-width="1.10879"/>
<path d="M344.833 181.919V455.422" stroke="black" stroke-width="1.10879"/>
<path d="M347.79 181.919V455.422" stroke="black" stroke-width="1.10879"/>
<path d="M350.746 181.919V455.422" stroke="black" stroke-width="1.10879"/>
<path d="M353.703 181.919V455.422" stroke="black" stroke-width="1.10879"/>
<path d="M356.66 181.919V455.422" stroke="black" stroke-width="1.10879"/>
<path d="M359.617 181.919V455.422" stroke="black" stroke-width="1.10879"/>
<path d="M362.573 181.919V455.422" stroke="black" stroke-width="1.10879"/>
<path d="M365.53 181.919V455.422" stroke="black" stroke-width="1.10879"/>
<path d="M368.487 181.919V455.422" stroke="black" stroke-width="1.10879"/>
<path d="M371.444 181.919V455.422" stroke="black" stroke-width="1.10879"/>
<path d="M374.401 181.919V455.422" stroke="black" stroke-width="1.10879"/>
<path d="M377.357 181.919V455.422" stroke="black" stroke-width="1.10879"/>
<path d="M380.314 181.919V455.422" stroke="black" stroke-width="1.10879"/>
<path d="M383.271 181.919V455.422" stroke="black" stroke-width="1.10879"/>
<path d="M386.228 181.919V455.422" stroke="black" stroke-width="1.10879"/>
<path d="M389.184 181.919V455.422" stroke="black" stroke-width="1.10879"/>
<path d="M392.141 181.919V455.422" stroke="black" stroke-width="1.10879"/>
<path d="M395.098 181.919V455.422" stroke="black" stroke-width="1.10879"/>
<path d="M398.055 181.919V455.422" stroke="black" stroke-width="1.10879"/>
<path d="M401.011 181.919V455.422" stroke="black" stroke-width="1.10879"/>
<path d="M403.968 181.919V455.422" stroke="black" stroke-width="1.10879"/>
<path d="M406.925 181.919V455.422" stroke="black" stroke-width="1.10879"/>
<path d="M409.882 181.919V455.422" stroke="black" stroke-width="1.10879"/>
<path d="M412.839 181.919V455.422" stroke="black" stroke-width="1.10879"/>
<path d="M415.796 181.919V455.422" stroke="black" stroke-width="1.10879"/>
<path d="M418.752 181.919V455.422" stroke="black" stroke-width="1.10879"/>
<path d="M421.709 181.919V455.422" stroke="black" stroke-width="1.10879"/>
<path d="M424.666 181.919V455.422" stroke="black" stroke-width="1.10879"/>
<path d="M427.622 181.919V455.422" stroke="black" stroke-width="1.10879"/>
<path d="M430.579 181.919V455.422" stroke="black" stroke-width="1.10879"/>
<path d="M433.536 181.919V455.422" stroke="black" stroke-width="1.10879"/>
<path d="M436.493 181.919V455.422" stroke="black" stroke-width="1.10879"/>
<path d="M439.449 181.919V455.422" stroke="black" stroke-width="1.10879"/>
<path d="M442.406 181.919V455.422" stroke="black" stroke-width="1.10879"/>
<path d="M445.363 181.919V455.422" stroke="black" stroke-width="1.10879"/>
<path d="M448.32 181.919V455.422" stroke="black" stroke-width="1.10879"/>
<path d="M451.277 181.919V455.422" stroke="black" stroke-width="1.10879"/>
<path d="M454.234 181.919V455.422" stroke="black" stroke-width="1.10879"/>
<path d="M457.19 181.919V455.422" stroke="black" stroke-width="1.10879"/>
<path d="M460.147 181.919V455.422" stroke="black" stroke-width="1.10879"/>
<path d="M463.104 181.919V455.422" stroke="black" stroke-width="1.10879"/>
<path d="M466.06 181.919V455.422" stroke="black" stroke-width="1.10879"/>
<path d="M469.017 181.919V455.422" stroke="black" stroke-width="1.10879"/>
<path d="M471.974 181.919V455.422" stroke="black" stroke-width="1.10879"/>
<path d="M474.931 181.919V455.422" stroke="black" stroke-width="1.10879"/>
<path d="M477.887 181.919V455.422" stroke="black" stroke-width="1.10879"/>
<path d="M480.844 181.919V455.422" stroke="black" stroke-width="1.10879"/>
<path d="M483.801 181.919V455.422" stroke="black" stroke-width="1.10879"/>
<path d="M486.758 181.919V455.422" stroke="black" stroke-width="1.10879"/>
<path d="M489.715 181.919V455.422" stroke="black" stroke-width="1.10879"/>
<path d="M492.672 181.919V455.422" stroke="black" stroke-width="1.10879"/>
<path d="M495.628 181.919V455.422" stroke="black" stroke-width="1.10879"/>
<path d="M498.585 181.919V455.422" stroke="black" stroke-width="1.10879"/>
<path d="M501.542 181.919V455.422" stroke="black" stroke-width="1.10879"/>
<path d="M504.499 181.919V455.422" stroke="black" stroke-width="1.10879"/>
<path d="M507.455 181.919V455.422" stroke="black" stroke-width="1.10879"/>
<path d="M510.412 181.919V455.422" stroke="black" stroke-width="1.10879"/>
<path d="M513.369 181.919V455.422" stroke="black" stroke-width="1.10879"/>
<path d="M516.326 181.919V455.422" stroke="black" stroke-width="1.10879"/>
<path d="M519.282 181.919V455.422" stroke="black" stroke-width="1.10879"/>
<path d="M522.239 181.919V455.422" stroke="black" stroke-width="1.10879"/>
<path d="M525.196 181.919V455.422" stroke="black" stroke-width="1.10879"/>
<path d="M528.153 181.919V455.422" stroke="black" stroke-width="1.10879"/>
</mask>
<g mask="url(#mask0_225_14334)">
<path d="M294.077 341.546C283.358 341.273 216.609 359.68 216.609 359.68V374.112H520.795V269.626C520.795 269.626 453.996 318.567 448.452 319.934C442.909 321.301 408.681 301.988 399.441 303.354C390.201 304.721 356.716 342.103 347.476 342.704C338.236 343.306 320.441 320.342 316.006 320.342C311.571 320.342 304.795 341.82 294.077 341.546Z" fill="url(#paint0_linear_225_14334)"/>
<path d="M360.731 332.951C355.277 336.231 346.715 342.459 346.715 342.459L329.824 320.108L313.159 300.633H309.372L292.09 340.04L217.691 357.998V366.782C217.691 370.048 220.339 372.695 223.605 372.695L514.462 372.695C517.728 372.695 520.375 370.048 520.375 366.782V269.831C520.375 269.831 453.537 318.227 447.993 319.567C442.449 320.908 409.943 300.996 400.703 302.337C391.463 303.677 366.185 329.67 360.731 332.951Z" fill="url(#paint1_linear_225_14334)"/>
</g>
<path d="M217.691 358.996L290.49 341.496C291.804 341.18 292.863 340.24 293.326 338.97C296.324 330.743 307.715 300.19 311.553 300.19C315.221 300.19 336.774 330.766 344.123 341.348C345.458 343.269 348.133 343.636 349.948 342.161L397.782 303.282C398.882 302.388 400.373 302.143 401.702 302.638L446.212 319.229C447.437 319.685 448.809 319.514 449.884 318.77L520.392 270.01" stroke="#E10175" stroke-width="2.21758" stroke-linecap="round"/>
<path d="M400.106 295.195C402.328 295.196 404.171 296.965 404.171 299.197C404.171 301.43 402.328 303.198 400.106 303.198C397.884 303.198 396.041 301.43 396.041 299.197C396.041 296.965 397.883 295.195 400.106 295.195Z" fill="white" stroke="url(#paint2_linear_225_14334)" stroke-width="2.21758"/>
<path d="M217.094 252.275V245.555H217.525V252.275H217.094ZM218.441 247.639C218.413 247.391 218.297 247.198 218.094 247.062C217.891 246.923 217.636 246.854 217.328 246.854C217.107 246.854 216.916 246.889 216.755 246.959C216.594 247.028 216.469 247.122 216.38 247.243C216.293 247.362 216.249 247.497 216.249 247.65C216.249 247.777 216.279 247.888 216.338 247.98C216.399 248.073 216.479 248.151 216.577 248.214C216.677 248.275 216.783 248.327 216.897 248.369C217.011 248.409 217.12 248.442 217.225 248.469L217.75 248.605C217.922 248.647 218.098 248.704 218.278 248.776C218.458 248.848 218.625 248.942 218.779 249.059C218.933 249.177 219.058 249.322 219.152 249.495C219.248 249.668 219.296 249.876 219.296 250.117C219.296 250.422 219.218 250.692 219.06 250.928C218.904 251.165 218.678 251.351 218.38 251.487C218.085 251.624 217.727 251.692 217.307 251.692C216.904 251.692 216.556 251.628 216.262 251.501C215.968 251.373 215.738 251.192 215.572 250.957C215.405 250.721 215.313 250.441 215.296 250.117H216.11C216.125 250.311 216.188 250.473 216.299 250.603C216.411 250.731 216.553 250.826 216.727 250.889C216.902 250.95 217.093 250.981 217.301 250.981C217.531 250.981 217.735 250.945 217.913 250.873C218.093 250.8 218.235 250.698 218.338 250.569C218.442 250.437 218.493 250.284 218.493 250.109C218.493 249.95 218.448 249.82 218.357 249.718C218.267 249.617 218.146 249.533 217.992 249.466C217.84 249.4 217.667 249.341 217.475 249.29L216.839 249.117C216.409 249 216.068 248.827 215.816 248.6C215.565 248.372 215.44 248.071 215.44 247.697C215.44 247.387 215.524 247.117 215.692 246.886C215.86 246.655 216.088 246.476 216.375 246.348C216.662 246.218 216.986 246.154 217.346 246.154C217.71 246.154 218.031 246.217 218.309 246.345C218.589 246.473 218.81 246.649 218.971 246.873C219.132 247.095 219.216 247.35 219.223 247.639H218.441ZM221.862 246.227V251.603H221.048V247.041H221.017L219.731 247.881V247.104L221.072 246.227H221.862ZM224.818 251.692C224.404 251.69 224.049 251.581 223.755 251.364C223.461 251.147 223.236 250.831 223.081 250.416C222.925 250.002 222.847 249.502 222.847 248.918C222.847 248.335 222.925 247.837 223.081 247.424C223.238 247.011 223.464 246.696 223.758 246.479C224.054 246.262 224.407 246.154 224.818 246.154C225.23 246.154 225.582 246.263 225.876 246.482C226.17 246.699 226.395 247.014 226.551 247.427C226.708 247.838 226.787 248.335 226.787 248.918C226.787 249.504 226.709 250.004 226.554 250.419C226.398 250.832 226.173 251.148 225.879 251.367C225.585 251.584 225.231 251.692 224.818 251.692ZM224.818 250.991C225.182 250.991 225.467 250.814 225.672 250.458C225.878 250.103 225.981 249.59 225.981 248.918C225.981 248.471 225.934 248.094 225.84 247.786C225.747 247.476 225.613 247.242 225.438 247.083C225.265 246.922 225.058 246.841 224.818 246.841C224.456 246.841 224.172 247.02 223.965 247.377C223.759 247.734 223.655 248.247 223.653 248.918C223.653 249.366 223.699 249.744 223.792 250.054C223.887 250.362 224.02 250.596 224.194 250.755C224.367 250.913 224.575 250.991 224.818 250.991ZM229.22 251.692C228.806 251.69 228.451 251.581 228.157 251.364C227.863 251.147 227.638 250.831 227.483 250.416C227.327 250.002 227.249 249.502 227.249 248.918C227.249 248.335 227.327 247.837 227.483 247.424C227.64 247.011 227.866 246.696 228.16 246.479C228.456 246.262 228.809 246.154 229.22 246.154C229.632 246.154 229.984 246.263 230.278 246.482C230.572 246.699 230.797 247.014 230.953 247.427C231.11 247.838 231.189 248.335 231.189 248.918C231.189 249.504 231.111 250.004 230.956 250.419C230.8 250.832 230.575 251.148 230.281 251.367C229.987 251.584 229.633 251.692 229.22 251.692ZM229.22 250.991C229.584 250.991 229.869 250.814 230.074 250.458C230.28 250.103 230.383 249.59 230.383 248.918C230.383 248.471 230.336 248.094 230.242 247.786C230.149 247.476 230.015 247.242 229.84 247.083C229.667 246.922 229.46 246.841 229.22 246.841C228.858 246.841 228.574 247.02 228.367 247.377C228.161 247.734 228.057 248.247 228.055 248.918C228.055 249.366 228.101 249.744 228.194 250.054C228.289 250.362 228.422 250.596 228.596 250.755C228.769 250.913 228.977 250.991 229.22 250.991ZM233.622 251.692C233.208 251.69 232.853 251.581 232.559 251.364C232.265 251.147 232.04 250.831 231.885 250.416C231.729 250.002 231.651 249.502 231.651 248.918C231.651 248.335 231.729 247.837 231.885 247.424C232.042 247.011 232.268 246.696 232.562 246.479C232.858 246.262 233.211 246.154 233.622 246.154C234.034 246.154 234.386 246.263 234.68 246.482C234.974 246.699 235.199 247.014 235.355 247.427C235.512 247.838 235.591 248.335 235.591 248.918C235.591 249.504 235.513 250.004 235.358 250.419C235.202 250.832 234.977 251.148 234.683 251.367C234.389 251.584 234.035 251.692 233.622 251.692ZM233.622 250.991C233.986 250.991 234.271 250.814 234.476 250.458C234.682 250.103 234.785 249.59 234.785 248.918C234.785 248.471 234.738 248.094 234.644 247.786C234.551 247.476 234.417 247.242 234.242 247.083C234.069 246.922 233.862 246.841 233.622 246.841C233.26 246.841 232.976 247.02 232.769 247.377C232.563 247.734 232.459 248.247 232.457 248.918C232.457 249.366 232.503 249.744 232.596 250.054C232.691 250.362 232.824 250.596 232.998 250.755C233.171 250.913 233.379 250.991 233.622 250.991Z" fill="#464646"/>
<path d="M217.094 281.016V274.296H217.525V281.016H217.094ZM218.441 276.38C218.413 276.131 218.297 275.939 218.094 275.802C217.891 275.664 217.636 275.595 217.328 275.595C217.107 275.595 216.916 275.63 216.755 275.7C216.594 275.768 216.469 275.863 216.38 275.984C216.293 276.103 216.249 276.238 216.249 276.39C216.249 276.518 216.279 276.628 216.338 276.721C216.399 276.814 216.479 276.892 216.577 276.955C216.677 277.016 216.783 277.068 216.897 277.11C217.011 277.15 217.12 277.183 217.225 277.209L217.75 277.346C217.922 277.388 218.098 277.445 218.278 277.517C218.458 277.588 218.625 277.683 218.779 277.8C218.933 277.917 219.058 278.063 219.152 278.236C219.248 278.409 219.296 278.616 219.296 278.858C219.296 279.162 219.218 279.433 219.06 279.669C218.904 279.905 218.678 280.092 218.38 280.228C218.085 280.365 217.727 280.433 217.307 280.433C216.904 280.433 216.556 280.369 216.262 280.241C215.968 280.114 215.738 279.932 215.572 279.698C215.405 279.462 215.313 279.182 215.296 278.858H216.11C216.125 279.052 216.188 279.214 216.299 279.344C216.411 279.471 216.553 279.567 216.727 279.63C216.902 279.691 217.093 279.722 217.301 279.722C217.531 279.722 217.735 279.686 217.913 279.614C218.093 279.54 218.235 279.439 218.338 279.309C218.442 279.178 218.493 279.025 218.493 278.85C218.493 278.691 218.448 278.56 218.357 278.459C218.267 278.357 218.146 278.273 217.992 278.207C217.84 278.14 217.667 278.082 217.475 278.031L216.839 277.858C216.409 277.741 216.068 277.568 215.816 277.341C215.565 277.113 215.44 276.812 215.44 276.438C215.44 276.128 215.524 275.858 215.692 275.627C215.86 275.396 216.088 275.216 216.375 275.088C216.662 274.959 216.986 274.894 217.346 274.894C217.71 274.894 218.031 274.958 218.309 275.086C218.589 275.214 218.81 275.389 218.971 275.613C219.132 275.836 219.216 276.091 219.223 276.38H218.441ZM221.597 280.417C221.268 280.417 220.972 280.354 220.71 280.228C220.449 280.1 220.241 279.925 220.085 279.703C219.929 279.481 219.846 279.227 219.836 278.942H220.623C220.642 279.173 220.745 279.363 220.93 279.512C221.116 279.66 221.338 279.735 221.597 279.735C221.804 279.735 221.986 279.687 222.146 279.593C222.307 279.497 222.433 279.365 222.524 279.197C222.616 279.029 222.663 278.837 222.663 278.622C222.663 278.403 222.616 278.208 222.521 278.036C222.427 277.865 222.296 277.73 222.13 277.632C221.965 277.534 221.776 277.484 221.563 277.482C221.4 277.482 221.237 277.51 221.072 277.566C220.908 277.622 220.775 277.696 220.673 277.787L219.93 277.677L220.232 274.968H223.188V275.663H220.907L220.736 277.167H220.768C220.873 277.066 221.012 276.981 221.185 276.913C221.36 276.845 221.547 276.81 221.747 276.81C222.074 276.81 222.365 276.888 222.621 277.044C222.878 277.2 223.08 277.412 223.227 277.682C223.376 277.95 223.449 278.258 223.448 278.606C223.449 278.954 223.371 279.265 223.211 279.538C223.054 279.811 222.835 280.026 222.555 280.184C222.277 280.339 221.958 280.417 221.597 280.417ZM225.909 280.433C225.494 280.431 225.139 280.322 224.845 280.105C224.551 279.888 224.327 279.572 224.171 279.157C224.015 278.742 223.937 278.243 223.937 277.658C223.937 277.076 224.015 276.578 224.171 276.165C224.328 275.752 224.554 275.437 224.848 275.22C225.144 275.003 225.497 274.894 225.909 274.894C226.32 274.894 226.672 275.004 226.966 275.222C227.26 275.439 227.485 275.754 227.641 276.167C227.798 276.579 227.877 277.076 227.877 277.658C227.877 278.245 227.799 278.745 227.644 279.16C227.488 279.573 227.263 279.889 226.969 280.107C226.675 280.324 226.321 280.433 225.909 280.433ZM225.909 279.732C226.272 279.732 226.557 279.554 226.762 279.199C226.968 278.844 227.071 278.33 227.071 277.658C227.071 277.212 227.024 276.835 226.93 276.527C226.837 276.217 226.703 275.983 226.528 275.823C226.355 275.662 226.148 275.582 225.909 275.582C225.546 275.582 225.262 275.76 225.055 276.117C224.849 276.474 224.745 276.988 224.743 277.658C224.743 278.106 224.789 278.485 224.882 278.795C224.977 279.103 225.111 279.337 225.284 279.496C225.457 279.653 225.665 279.732 225.909 279.732ZM230.31 280.433C229.896 280.431 229.541 280.322 229.247 280.105C228.953 279.888 228.728 279.572 228.573 279.157C228.417 278.742 228.339 278.243 228.339 277.658C228.339 277.076 228.417 276.578 228.573 276.165C228.73 275.752 228.956 275.437 229.25 275.22C229.546 275.003 229.899 274.894 230.31 274.894C230.722 274.894 231.074 275.004 231.368 275.222C231.662 275.439 231.887 275.754 232.043 276.167C232.2 276.579 232.279 277.076 232.279 277.658C232.279 278.245 232.201 278.745 232.046 279.16C231.89 279.573 231.665 279.889 231.371 280.107C231.077 280.324 230.723 280.433 230.31 280.433ZM230.31 279.732C230.674 279.732 230.959 279.554 231.164 279.199C231.37 278.844 231.473 278.33 231.473 277.658C231.473 277.212 231.426 276.835 231.332 276.527C231.239 276.217 231.105 275.983 230.93 275.823C230.757 275.662 230.55 275.582 230.31 275.582C229.948 275.582 229.664 275.76 229.457 276.117C229.251 276.474 229.147 276.988 229.145 277.658C229.145 278.106 229.191 278.485 229.284 278.795C229.379 279.103 229.512 279.337 229.686 279.496C229.859 279.653 230.067 279.732 230.31 279.732Z" fill="#464646"/>
<path d="M217.094 309.756V303.036H217.525V309.756H217.094ZM218.441 305.121C218.413 304.872 218.297 304.68 218.094 304.543C217.891 304.405 217.636 304.336 217.328 304.336C217.107 304.336 216.916 304.371 216.755 304.441C216.594 304.509 216.469 304.603 216.38 304.724C216.293 304.843 216.249 304.979 216.249 305.131C216.249 305.259 216.279 305.369 216.338 305.462C216.399 305.555 216.479 305.632 216.577 305.695C216.677 305.757 216.783 305.808 216.897 305.85C217.011 305.891 217.12 305.924 217.225 305.95L217.75 306.087C217.922 306.129 218.098 306.185 218.278 306.257C218.458 306.329 218.625 306.423 218.779 306.541C218.933 306.658 219.058 306.803 219.152 306.976C219.248 307.15 219.296 307.357 219.296 307.599C219.296 307.903 219.218 308.173 219.06 308.41C218.904 308.646 218.678 308.832 218.38 308.969C218.085 309.105 217.727 309.174 217.307 309.174C216.904 309.174 216.556 309.11 216.262 308.982C215.968 308.854 215.738 308.673 215.572 308.439C215.405 308.202 215.313 307.922 215.296 307.599H216.11C216.125 307.793 216.188 307.955 216.299 308.084C216.411 308.212 216.553 308.307 216.727 308.37C216.902 308.432 217.093 308.462 217.301 308.462C217.531 308.462 217.735 308.426 217.913 308.355C218.093 308.281 218.235 308.18 218.338 308.05C218.442 307.919 218.493 307.766 218.493 307.591C218.493 307.431 218.448 307.301 218.357 307.2C218.267 307.098 218.146 307.014 217.992 306.948C217.84 306.881 217.667 306.822 217.475 306.772L216.839 306.598C216.409 306.481 216.068 306.309 215.816 306.081C215.565 305.854 215.44 305.553 215.44 305.178C215.44 304.869 215.524 304.598 215.692 304.367C215.86 304.136 216.088 303.957 216.375 303.829C216.662 303.7 216.986 303.635 217.346 303.635C217.71 303.635 218.031 303.699 218.309 303.826C218.589 303.954 218.81 304.13 218.971 304.354C219.132 304.576 219.216 304.832 219.223 305.121H218.441ZM219.823 309.084V308.496L221.642 306.612C221.836 306.407 221.996 306.227 222.122 306.073C222.25 305.918 222.345 305.77 222.408 305.63C222.471 305.49 222.503 305.341 222.503 305.184C222.503 305.005 222.461 304.851 222.377 304.722C222.293 304.59 222.178 304.49 222.033 304.42C221.888 304.348 221.724 304.312 221.542 304.312C221.349 304.312 221.181 304.351 221.038 304.43C220.894 304.509 220.784 304.62 220.707 304.764C220.63 304.907 220.592 305.075 220.592 305.268H219.817C219.817 304.94 219.893 304.654 220.043 304.409C220.194 304.164 220.4 303.974 220.663 303.84C220.925 303.703 221.223 303.635 221.558 303.635C221.895 303.635 222.193 303.702 222.45 303.837C222.709 303.97 222.911 304.152 223.057 304.383C223.202 304.612 223.274 304.871 223.274 305.16C223.274 305.359 223.237 305.555 223.162 305.745C223.088 305.936 222.959 306.149 222.776 306.383C222.592 306.616 222.336 306.899 222.009 307.231L220.941 308.349V308.389H223.361V309.084H219.823ZM225.858 309.174C225.443 309.172 225.089 309.062 224.795 308.845C224.501 308.628 224.276 308.313 224.12 307.898C223.964 307.483 223.887 306.983 223.887 306.399C223.887 305.816 223.964 305.318 224.12 304.905C224.278 304.492 224.503 304.177 224.797 303.96C225.093 303.743 225.447 303.635 225.858 303.635C226.269 303.635 226.622 303.744 226.916 303.963C227.21 304.18 227.435 304.495 227.59 304.908C227.748 305.319 227.827 305.816 227.827 306.399C227.827 306.985 227.749 307.486 227.593 307.9C227.437 308.313 227.212 308.629 226.918 308.848C226.624 309.065 226.271 309.174 225.858 309.174ZM225.858 308.473C226.222 308.473 226.506 308.295 226.711 307.94C226.918 307.585 227.021 307.071 227.021 306.399C227.021 305.953 226.974 305.576 226.879 305.268C226.786 304.958 226.652 304.723 226.477 304.564C226.304 304.403 226.098 304.323 225.858 304.323C225.496 304.323 225.211 304.501 225.005 304.858C224.798 305.215 224.694 305.729 224.692 306.399C224.692 306.847 224.739 307.226 224.832 307.536C224.926 307.844 225.06 308.077 225.233 308.236C225.406 308.394 225.615 308.473 225.858 308.473ZM230.26 309.174C229.845 309.172 229.491 309.062 229.197 308.845C228.903 308.628 228.678 308.313 228.522 307.898C228.366 307.483 228.289 306.983 228.289 306.399C228.289 305.816 228.366 305.318 228.522 304.905C228.68 304.492 228.905 304.177 229.199 303.96C229.495 303.743 229.849 303.635 230.26 303.635C230.671 303.635 231.024 303.744 231.318 303.963C231.612 304.18 231.837 304.495 231.992 304.908C232.15 305.319 232.229 305.816 232.229 306.399C232.229 306.985 232.151 307.486 231.995 307.9C231.839 308.313 231.614 308.629 231.32 308.848C231.026 309.065 230.673 309.174 230.26 309.174ZM230.26 308.473C230.624 308.473 230.908 308.295 231.113 307.94C231.32 307.585 231.423 307.071 231.423 306.399C231.423 305.953 231.376 305.576 231.281 305.268C231.188 304.958 231.054 304.723 230.879 304.564C230.706 304.403 230.5 304.323 230.26 304.323C229.898 304.323 229.613 304.501 229.407 304.858C229.2 305.215 229.096 305.729 229.094 306.399C229.094 306.847 229.141 307.226 229.234 307.536C229.328 307.844 229.462 308.077 229.635 308.236C229.808 308.394 230.017 308.473 230.26 308.473Z" fill="#464646"/>
<path d="M217.094 338.497V331.777H217.525V338.497H217.094ZM218.441 333.861C218.413 333.613 218.297 333.42 218.094 333.284C217.891 333.146 217.636 333.076 217.328 333.076C217.107 333.076 216.916 333.111 216.755 333.181C216.594 333.25 216.469 333.344 216.38 333.465C216.293 333.584 216.249 333.72 216.249 333.872C216.249 334 216.279 334.11 216.338 334.203C216.399 334.295 216.479 334.373 216.577 334.436C216.677 334.497 216.783 334.549 216.897 334.591C217.011 334.631 217.12 334.665 217.225 334.691L217.75 334.827C217.922 334.869 218.098 334.926 218.278 334.998C218.458 335.07 218.625 335.164 218.779 335.281C218.933 335.399 219.058 335.544 219.152 335.717C219.248 335.89 219.296 336.098 219.296 336.339C219.296 336.644 219.218 336.914 219.06 337.15C218.904 337.387 218.678 337.573 218.38 337.71C218.085 337.846 217.727 337.914 217.307 337.914C216.904 337.914 216.556 337.85 216.262 337.723C215.968 337.595 215.738 337.414 215.572 337.179C215.405 336.943 215.313 336.663 215.296 336.339H216.11C216.125 336.534 216.188 336.695 216.299 336.825C216.411 336.953 216.553 337.048 216.727 337.111C216.902 337.172 217.093 337.203 217.301 337.203C217.531 337.203 217.735 337.167 217.913 337.095C218.093 337.022 218.235 336.92 218.338 336.791C218.442 336.66 218.493 336.506 218.493 336.331C218.493 336.172 218.448 336.042 218.357 335.94C218.267 335.839 218.146 335.755 217.992 335.688C217.84 335.622 217.667 335.563 217.475 335.512L216.839 335.339C216.409 335.222 216.068 335.05 215.816 334.822C215.565 334.595 215.44 334.294 215.44 333.919C215.44 333.609 215.524 333.339 215.692 333.108C215.86 332.877 216.088 332.698 216.375 332.57C216.662 332.44 216.986 332.376 217.346 332.376C217.71 332.376 218.031 332.439 218.309 332.567C218.589 332.695 218.81 332.871 218.971 333.095C219.132 333.317 219.216 333.573 219.223 333.861H218.441ZM221.862 332.449V337.825H221.048V333.263H221.017L219.731 334.103V333.326L221.072 332.449H221.862ZM224.818 337.914C224.404 337.913 224.049 337.803 223.755 337.586C223.461 337.369 223.236 337.053 223.081 336.639C222.925 336.224 222.847 335.724 222.847 335.14C222.847 334.557 222.925 334.059 223.081 333.646C223.238 333.233 223.464 332.918 223.758 332.701C224.054 332.484 224.407 332.376 224.818 332.376C225.23 332.376 225.582 332.485 225.876 332.704C226.17 332.921 226.395 333.236 226.551 333.649C226.708 334.06 226.787 334.557 226.787 335.14C226.787 335.726 226.709 336.226 226.554 336.641C226.398 337.054 226.173 337.37 225.879 337.589C225.585 337.806 225.231 337.914 224.818 337.914ZM224.818 337.213C225.182 337.213 225.467 337.036 225.672 336.681C225.878 336.325 225.981 335.812 225.981 335.14C225.981 334.693 225.934 334.316 225.84 334.008C225.747 333.699 225.613 333.464 225.438 333.305C225.265 333.144 225.058 333.063 224.818 333.063C224.456 333.063 224.172 333.242 223.965 333.599C223.759 333.956 223.655 334.469 223.653 335.14C223.653 335.588 223.699 335.967 223.792 336.276C223.887 336.584 224.02 336.818 224.194 336.977C224.367 337.135 224.575 337.213 224.818 337.213ZM229.22 337.914C228.806 337.913 228.451 337.803 228.157 337.586C227.863 337.369 227.638 337.053 227.483 336.639C227.327 336.224 227.249 335.724 227.249 335.14C227.249 334.557 227.327 334.059 227.483 333.646C227.64 333.233 227.866 332.918 228.16 332.701C228.456 332.484 228.809 332.376 229.22 332.376C229.632 332.376 229.984 332.485 230.278 332.704C230.572 332.921 230.797 333.236 230.953 333.649C231.11 334.06 231.189 334.557 231.189 335.14C231.189 335.726 231.111 336.226 230.956 336.641C230.8 337.054 230.575 337.37 230.281 337.589C229.987 337.806 229.633 337.914 229.22 337.914ZM229.22 337.213C229.584 337.213 229.869 337.036 230.074 336.681C230.28 336.325 230.383 335.812 230.383 335.14C230.383 334.693 230.336 334.316 230.242 334.008C230.149 333.699 230.015 333.464 229.84 333.305C229.667 333.144 229.46 333.063 229.22 333.063C228.858 333.063 228.574 333.242 228.367 333.599C228.161 333.956 228.057 334.469 228.055 335.14C228.055 335.588 228.101 335.967 228.194 336.276C228.289 336.584 228.422 336.818 228.596 336.977C228.769 337.135 228.977 337.213 229.22 337.213Z" fill="#464646"/>
<line x1="240.059" y1="249.895" x2="518.366" y2="249.895" stroke="#F2F2F2" stroke-width="0.369597" stroke-linecap="round" stroke-dasharray="7.39 5.91"/>
<line x1="240.059" y1="277.985" x2="518.366" y2="277.985" stroke="#F2F2F2" stroke-width="0.369597" stroke-linecap="round" stroke-dasharray="7.39 5.91"/>
<line x1="240.059" y1="306.074" x2="518.366" y2="306.074" stroke="#F2F2F2" stroke-width="0.369597" stroke-linecap="round" stroke-dasharray="7.39 5.91"/>
<line x1="240.059" y1="334.163" x2="518.366" y2="334.163" stroke="#F2F2F2" stroke-width="0.369597" stroke-linecap="round" stroke-dasharray="7.39 5.91"/>
<g filter="url(#filter1_d_225_14334)">
<rect x="335.961" y="253.793" width="127.586" height="32.1005" rx="5.62747" fill="#F9F9F9" shape-rendering="crispEdges"/>
<rect x="336.313" y="254.145" width="126.882" height="31.3971" rx="5.27575" stroke="#F5F5F5" stroke-width="0.703434" shape-rendering="crispEdges"/>
<rect x="345.105" y="259.421" width="37.8998" height="4.03186" rx="1" fill="#CECECE"/>
<rect x="345.105" y="269.228" width="57.2148" height="7.4502" rx="1" fill="#A5A5A5"/>
<rect x="411.578" y="268.453" width="43.5273" height="9" rx="2" fill="#E0F0E4"/>
<rect x="414.392" y="270.937" width="37.8998" height="4.03186" rx="1" fill="#156A1C"/>
</g>
</g>
<path d="M214.67 410.564V402.227H217.429L218.619 406.493C218.668 406.647 218.717 406.829 218.765 407.04C218.814 407.25 218.863 407.461 218.911 407.671C218.968 407.874 219.012 408.056 219.045 408.218H219.142C219.158 408.081 219.187 407.919 219.227 407.732C219.268 407.538 219.312 407.331 219.361 407.112C219.409 406.894 219.462 406.683 219.519 406.481L220.71 402.227H223.419V410.564H221.633V406.614C221.633 406.25 221.633 405.885 221.633 405.521C221.641 405.148 221.649 404.824 221.657 404.548C221.674 404.273 221.682 404.095 221.682 404.014H221.585C221.568 404.103 221.528 404.269 221.463 404.512C221.406 404.747 221.341 404.998 221.269 405.265C221.204 405.533 221.143 405.764 221.086 405.958L219.786 410.564H218.206L216.894 405.97C216.845 405.8 216.789 405.602 216.724 405.375C216.667 405.14 216.61 404.901 216.554 404.658C216.505 404.407 216.456 404.192 216.408 404.014H216.311C216.319 404.232 216.327 404.496 216.335 404.804C216.343 405.103 216.351 405.415 216.359 405.739C216.367 406.055 216.371 406.347 216.371 406.614V410.564H214.67ZM226.811 410.709C226.6 410.709 226.373 410.685 226.13 410.637C225.895 410.588 225.672 410.503 225.462 410.381C225.251 410.252 225.077 410.069 224.939 409.834C224.81 409.591 224.745 409.284 224.745 408.911C224.745 408.465 224.842 408.097 225.037 407.805C225.231 407.513 225.506 407.287 225.863 407.125C226.227 406.954 226.661 406.837 227.163 406.772C227.665 406.707 228.22 406.675 228.828 406.675V406.201C228.828 406.015 228.795 405.853 228.731 405.715C228.674 405.577 228.569 405.468 228.415 405.387C228.269 405.306 228.062 405.265 227.795 405.265C227.528 405.265 227.309 405.298 227.139 405.363C226.977 405.427 226.859 405.512 226.786 405.618C226.722 405.715 226.689 405.824 226.689 405.946V406.092H225.049C225.041 406.051 225.037 406.015 225.037 405.982C225.037 405.942 225.037 405.893 225.037 405.837C225.037 405.464 225.15 405.144 225.377 404.877C225.604 404.601 225.924 404.39 226.337 404.245C226.75 404.099 227.232 404.026 227.783 404.026C228.374 404.026 228.868 404.103 229.265 404.257C229.67 404.411 229.978 404.638 230.189 404.937C230.408 405.237 230.517 405.614 230.517 406.067V408.972C230.517 409.118 230.557 409.227 230.639 409.3C230.728 409.365 230.825 409.397 230.93 409.397H231.331V410.503C231.25 410.543 231.125 410.584 230.954 410.624C230.784 410.673 230.578 410.697 230.335 410.697C230.1 410.697 229.889 410.661 229.703 410.588C229.525 410.523 229.375 410.43 229.253 410.308C229.132 410.179 229.047 410.025 228.998 409.847H228.913C228.775 410.017 228.605 410.167 228.403 410.296C228.208 410.426 227.977 410.527 227.71 410.6C227.451 410.673 227.151 410.709 226.811 410.709ZM227.382 409.433C227.609 409.433 227.811 409.401 227.989 409.336C228.168 409.263 228.318 409.17 228.439 409.057C228.561 408.935 228.654 408.789 228.719 408.619C228.791 408.449 228.828 408.267 228.828 408.072V407.72C228.374 407.72 227.969 407.752 227.613 407.817C227.256 407.874 226.973 407.975 226.762 408.121C226.56 408.267 226.458 408.469 226.458 408.729C226.458 408.874 226.495 409 226.568 409.105C226.641 409.211 226.746 409.292 226.884 409.348C227.021 409.405 227.187 409.433 227.382 409.433ZM232.171 410.564V404.172H233.568L233.702 405.168H233.787C233.868 404.958 233.973 404.767 234.103 404.597C234.232 404.419 234.394 404.277 234.589 404.172C234.783 404.066 235.01 404.014 235.269 404.014C235.407 404.014 235.533 404.03 235.646 404.062C235.759 404.087 235.844 404.111 235.901 404.135V405.666H235.379C235.128 405.666 234.905 405.703 234.71 405.776C234.524 405.841 234.366 405.946 234.236 406.092C234.107 406.238 234.01 406.416 233.945 406.626C233.888 406.837 233.86 407.084 233.86 407.368V410.564H232.171ZM236.787 410.564V401.766H238.476V406.833L240.712 404.172H242.693L240.505 406.675L242.802 410.564H240.87L239.4 407.866L238.476 408.765V410.564H236.787ZM246.206 410.709C245.501 410.709 244.91 410.592 244.432 410.357C243.954 410.114 243.594 409.745 243.35 409.251C243.107 408.757 242.986 408.129 242.986 407.368C242.986 406.598 243.107 405.97 243.35 405.484C243.594 404.99 243.95 404.625 244.42 404.39C244.898 404.147 245.481 404.026 246.17 404.026C246.818 404.026 247.365 404.143 247.81 404.378C248.256 404.605 248.592 404.962 248.819 405.448C249.046 405.926 249.159 406.545 249.159 407.307V407.744H244.699C244.716 408.117 244.772 408.433 244.869 408.692C244.975 408.951 245.133 409.146 245.343 409.276C245.562 409.397 245.85 409.458 246.206 409.458C246.401 409.458 246.575 409.433 246.729 409.385C246.891 409.336 247.028 409.263 247.142 409.166C247.255 409.069 247.344 408.947 247.409 408.802C247.474 408.656 247.506 408.49 247.506 408.303H249.159C249.159 408.708 249.086 409.061 248.94 409.361C248.795 409.66 248.592 409.911 248.333 410.114C248.073 410.308 247.762 410.458 247.397 410.564C247.041 410.661 246.644 410.709 246.206 410.709ZM244.724 406.675H247.421C247.421 406.432 247.389 406.221 247.324 406.043C247.267 405.865 247.186 405.719 247.081 405.606C246.976 405.492 246.846 405.411 246.692 405.363C246.546 405.306 246.38 405.278 246.194 405.278C245.886 405.278 245.627 405.33 245.416 405.436C245.214 405.533 245.056 405.687 244.942 405.897C244.837 406.1 244.764 406.359 244.724 406.675ZM252.306 410.709C251.901 410.709 251.573 410.637 251.322 410.491C251.071 410.345 250.888 410.15 250.775 409.907C250.662 409.656 250.605 409.381 250.605 409.081V405.472H249.815V404.172H250.666L250.982 402.349H252.294V404.172H253.461V405.472H252.294V408.802C252.294 408.996 252.339 409.146 252.428 409.251C252.517 409.348 252.663 409.397 252.865 409.397H253.461V410.515C253.363 410.547 253.25 410.576 253.12 410.6C252.991 410.632 252.853 410.657 252.707 410.673C252.561 410.697 252.428 410.709 252.306 410.709ZM257.083 410.564V402.227H261.652C262.268 402.227 262.778 402.337 263.183 402.556C263.596 402.774 263.904 403.082 264.107 403.479C264.309 403.868 264.41 404.318 264.41 404.828C264.41 405.371 264.289 405.853 264.046 406.274C263.803 406.687 263.45 407.003 262.989 407.222L264.69 410.564H262.685L261.215 407.526H258.894V410.564H257.083ZM258.894 406.092H261.409C261.774 406.092 262.057 405.982 262.26 405.764C262.462 405.537 262.563 405.233 262.563 404.852C262.563 404.609 262.519 404.403 262.43 404.232C262.341 404.054 262.211 403.921 262.041 403.831C261.871 403.742 261.66 403.698 261.409 403.698H258.894V406.092ZM268.576 410.709C267.871 410.709 267.279 410.592 266.801 410.357C266.323 410.114 265.963 409.745 265.72 409.251C265.477 408.757 265.355 408.129 265.355 407.368C265.355 406.598 265.477 405.97 265.72 405.484C265.963 404.99 266.319 404.625 266.789 404.39C267.267 404.147 267.85 404.026 268.539 404.026C269.187 404.026 269.734 404.143 270.18 404.378C270.625 404.605 270.961 404.962 271.188 405.448C271.415 405.926 271.528 406.545 271.528 407.307V407.744H267.069C267.085 408.117 267.142 408.433 267.239 408.692C267.344 408.951 267.502 409.146 267.713 409.276C267.931 409.397 268.219 409.458 268.576 409.458C268.77 409.458 268.944 409.433 269.098 409.385C269.26 409.336 269.398 409.263 269.511 409.166C269.625 409.069 269.714 408.947 269.779 408.802C269.843 408.656 269.876 408.49 269.876 408.303H271.528C271.528 408.708 271.456 409.061 271.31 409.361C271.164 409.66 270.961 409.911 270.702 410.114C270.443 410.308 270.131 410.458 269.766 410.564C269.41 410.661 269.013 410.709 268.576 410.709ZM267.093 406.675H269.791C269.791 406.432 269.758 406.221 269.694 406.043C269.637 405.865 269.556 405.719 269.45 405.606C269.345 405.492 269.216 405.411 269.062 405.363C268.916 405.306 268.75 405.278 268.563 405.278C268.256 405.278 267.996 405.33 267.786 405.436C267.583 405.533 267.425 405.687 267.312 405.897C267.206 406.1 267.134 406.359 267.093 406.675ZM275.575 410.709C274.894 410.709 274.323 410.592 273.861 410.357C273.4 410.114 273.047 409.745 272.804 409.251C272.569 408.749 272.452 408.121 272.452 407.368C272.452 406.598 272.569 405.97 272.804 405.484C273.047 404.99 273.4 404.621 273.861 404.378C274.331 404.135 274.902 404.014 275.575 404.014C276.012 404.014 276.405 404.066 276.754 404.172C277.11 404.277 277.418 404.439 277.677 404.658C277.936 404.877 278.131 405.148 278.26 405.472C278.398 405.788 278.467 406.165 278.467 406.602H276.778C276.778 406.31 276.733 406.071 276.644 405.885C276.555 405.699 276.417 405.557 276.231 405.46C276.053 405.363 275.826 405.314 275.551 405.314C275.226 405.314 274.963 405.387 274.761 405.533C274.558 405.679 274.408 405.893 274.311 406.177C274.214 406.46 274.165 406.813 274.165 407.234V407.513C274.165 407.927 274.214 408.275 274.311 408.559C274.416 408.842 274.574 409.057 274.785 409.203C274.996 409.34 275.271 409.409 275.611 409.409C275.887 409.409 276.114 409.361 276.292 409.263C276.478 409.166 276.62 409.02 276.717 408.826C276.814 408.631 276.863 408.397 276.863 408.121H278.467C278.467 408.534 278.398 408.903 278.26 409.227C278.131 409.551 277.936 409.822 277.677 410.041C277.426 410.26 277.122 410.426 276.766 410.539C276.409 410.653 276.012 410.709 275.575 410.709ZM281.423 410.709C281.212 410.709 280.985 410.685 280.742 410.637C280.507 410.588 280.285 410.503 280.074 410.381C279.863 410.252 279.689 410.069 279.551 409.834C279.422 409.591 279.357 409.284 279.357 408.911C279.357 408.465 279.454 408.097 279.649 407.805C279.843 407.513 280.118 407.287 280.475 407.125C280.839 406.954 281.273 406.837 281.775 406.772C282.277 406.707 282.832 406.675 283.44 406.675V406.201C283.44 406.015 283.408 405.853 283.343 405.715C283.286 405.577 283.181 405.468 283.027 405.387C282.881 405.306 282.674 405.265 282.407 405.265C282.14 405.265 281.921 405.298 281.751 405.363C281.589 405.427 281.471 405.512 281.398 405.618C281.334 405.715 281.301 405.824 281.301 405.946V406.092H279.661C279.653 406.051 279.649 406.015 279.649 405.982C279.649 405.942 279.649 405.893 279.649 405.837C279.649 405.464 279.762 405.144 279.989 404.877C280.216 404.601 280.536 404.39 280.949 404.245C281.362 404.099 281.844 404.026 282.395 404.026C282.986 404.026 283.481 404.103 283.877 404.257C284.283 404.411 284.59 404.638 284.801 404.937C285.02 405.237 285.129 405.614 285.129 406.067V408.972C285.129 409.118 285.17 409.227 285.251 409.3C285.34 409.365 285.437 409.397 285.542 409.397H285.943V410.503C285.862 410.543 285.737 410.584 285.567 410.624C285.396 410.673 285.19 410.697 284.947 410.697C284.712 410.697 284.501 410.661 284.315 410.588C284.137 410.523 283.987 410.43 283.865 410.308C283.744 410.179 283.659 410.025 283.61 409.847H283.525C283.387 410.017 283.217 410.167 283.015 410.296C282.82 410.426 282.589 410.527 282.322 410.6C282.063 410.673 281.763 410.709 281.423 410.709ZM281.994 409.433C282.221 409.433 282.423 409.401 282.602 409.336C282.78 409.263 282.93 409.17 283.051 409.057C283.173 408.935 283.266 408.789 283.331 408.619C283.404 408.449 283.44 408.267 283.44 408.072V407.72C282.986 407.72 282.581 407.752 282.225 407.817C281.868 407.874 281.585 407.975 281.374 408.121C281.172 408.267 281.07 408.469 281.07 408.729C281.07 408.874 281.107 409 281.18 409.105C281.253 409.211 281.358 409.292 281.496 409.348C281.633 409.405 281.799 409.433 281.994 409.433ZM286.783 412.727V404.172H288.168L288.314 405.035H288.399C288.61 404.686 288.885 404.431 289.225 404.269C289.565 404.107 289.942 404.026 290.355 404.026C290.89 404.026 291.348 404.143 291.729 404.378C292.117 404.613 292.413 404.978 292.616 405.472C292.826 405.966 292.932 406.602 292.932 407.38C292.932 408.133 292.826 408.757 292.616 409.251C292.405 409.745 292.109 410.114 291.729 410.357C291.356 410.592 290.918 410.709 290.416 410.709C290.141 410.709 289.885 410.677 289.651 410.612C289.416 410.555 289.205 410.462 289.019 410.333C288.832 410.203 288.674 410.045 288.545 409.859H288.472V412.727H286.783ZM289.833 409.324C290.173 409.324 290.44 409.259 290.635 409.13C290.837 408.992 290.983 408.789 291.072 408.522C291.161 408.247 291.206 407.91 291.206 407.513V407.234C291.206 406.829 291.161 406.493 291.072 406.225C290.983 405.95 290.837 405.747 290.635 405.618C290.44 405.48 290.173 405.411 289.833 405.411C289.517 405.411 289.258 405.484 289.055 405.63C288.853 405.776 288.703 405.986 288.605 406.262C288.508 406.537 288.46 406.869 288.46 407.258V407.465C288.46 407.748 288.488 408.008 288.545 408.243C288.601 408.469 288.682 408.664 288.788 408.826C288.901 408.988 289.043 409.113 289.213 409.203C289.383 409.284 289.59 409.324 289.833 409.324Z" fill="#111827"/>
<path d="M435.726 410.184C435.146 410.184 434.646 410.09 434.226 409.904C433.806 409.717 433.483 409.424 433.256 409.024C433.036 408.617 432.926 408.097 432.926 407.464V403.205H433.876V407.564C433.876 408.164 434.036 408.614 434.356 408.914C434.682 409.214 435.139 409.364 435.726 409.364C436.319 409.364 436.782 409.214 437.115 408.914C437.448 408.614 437.615 408.164 437.615 407.564V403.205H438.555V407.464C438.555 408.097 438.442 408.617 438.215 409.024C437.988 409.424 437.662 409.717 437.235 409.904C436.815 410.09 436.312 410.184 435.726 410.184ZM440.089 411.793V404.805H440.789L440.879 405.555H440.949C441.129 405.261 441.359 405.045 441.639 404.905C441.919 404.758 442.235 404.685 442.588 404.685C443.028 404.685 443.401 404.782 443.708 404.975C444.015 405.168 444.251 405.471 444.418 405.885C444.585 406.291 444.668 406.821 444.668 407.474C444.668 408.087 444.581 408.597 444.408 409.004C444.241 409.404 444.005 409.7 443.698 409.894C443.391 410.087 443.035 410.184 442.628 410.184C442.402 410.184 442.188 410.157 441.988 410.104C441.789 410.05 441.609 409.967 441.449 409.854C441.289 409.734 441.149 409.584 441.029 409.404H440.969V411.793H440.089ZM442.348 409.414C442.675 409.414 442.942 409.35 443.148 409.224C443.355 409.091 443.508 408.887 443.608 408.614C443.708 408.334 443.758 407.977 443.758 407.544V407.334C443.758 406.874 443.705 406.508 443.598 406.235C443.491 405.955 443.335 405.755 443.128 405.635C442.928 405.515 442.678 405.455 442.378 405.455C442.052 405.455 441.782 405.528 441.569 405.675C441.362 405.815 441.209 406.028 441.109 406.315C441.015 406.601 440.969 406.951 440.969 407.364V407.514C440.969 407.881 441.002 408.187 441.069 408.434C441.142 408.674 441.242 408.867 441.369 409.014C441.502 409.16 441.652 409.264 441.819 409.324C441.985 409.384 442.162 409.414 442.348 409.414ZM447.551 410.184C447.118 410.184 446.744 410.087 446.431 409.894C446.125 409.7 445.885 409.4 445.711 408.994C445.545 408.581 445.461 408.047 445.461 407.394C445.461 406.774 445.548 406.265 445.721 405.865C445.895 405.465 446.135 405.168 446.441 404.975C446.748 404.782 447.104 404.685 447.511 404.685C447.744 404.685 447.961 404.712 448.161 404.765C448.361 404.818 448.537 404.902 448.691 405.015C448.851 405.128 448.991 405.278 449.111 405.465H449.171V402.835H450.05V410.064H449.341L449.261 409.314H449.191C449.011 409.607 448.777 409.827 448.491 409.974C448.204 410.114 447.891 410.184 447.551 410.184ZM447.761 409.414C448.094 409.414 448.364 409.34 448.571 409.194C448.777 409.047 448.927 408.834 449.021 408.554C449.121 408.274 449.171 407.927 449.171 407.514V407.354C449.171 406.994 449.134 406.691 449.061 406.444C448.987 406.198 448.887 406.001 448.761 405.855C448.634 405.708 448.487 405.605 448.321 405.545C448.154 405.485 447.978 405.455 447.791 405.455C447.464 405.455 447.198 405.521 446.991 405.655C446.784 405.781 446.631 405.985 446.531 406.265C446.431 406.538 446.381 406.894 446.381 407.334V407.544C446.381 407.997 446.435 408.364 446.541 408.644C446.648 408.917 446.801 409.114 447.001 409.234C447.208 409.354 447.461 409.414 447.761 409.414ZM452.754 410.184C452.56 410.184 452.367 410.16 452.174 410.114C451.98 410.067 451.8 409.99 451.634 409.884C451.467 409.777 451.334 409.63 451.234 409.444C451.134 409.25 451.084 409.011 451.084 408.724C451.084 408.364 451.171 408.067 451.344 407.834C451.517 407.601 451.757 407.421 452.064 407.294C452.377 407.161 452.747 407.071 453.173 407.024C453.6 406.971 454.063 406.944 454.563 406.944V406.344C454.563 406.151 454.53 405.985 454.463 405.845C454.396 405.705 454.277 405.598 454.103 405.525C453.937 405.445 453.697 405.405 453.383 405.405C453.083 405.405 452.844 405.445 452.664 405.525C452.49 405.598 452.367 405.695 452.294 405.815C452.227 405.935 452.194 406.068 452.194 406.215V406.364H451.344C451.337 406.331 451.334 406.298 451.334 406.265C451.334 406.231 451.334 406.191 451.334 406.145C451.334 405.825 451.421 405.558 451.594 405.345C451.774 405.125 452.024 404.961 452.344 404.855C452.664 404.742 453.03 404.685 453.443 404.685C453.883 404.685 454.25 404.748 454.543 404.875C454.843 405.001 455.066 405.181 455.213 405.415C455.366 405.648 455.443 405.928 455.443 406.255V409.104C455.443 409.23 455.473 409.32 455.533 409.374C455.593 409.42 455.666 409.444 455.753 409.444H456.143V410.024C456.049 410.064 455.946 410.097 455.833 410.124C455.719 410.157 455.59 410.174 455.443 410.174C455.27 410.174 455.126 410.137 455.013 410.064C454.9 409.997 454.813 409.904 454.753 409.784C454.693 409.657 454.653 409.517 454.633 409.364H454.563C454.443 409.53 454.29 409.677 454.103 409.804C453.923 409.924 453.72 410.017 453.493 410.084C453.267 410.15 453.02 410.184 452.754 410.184ZM452.973 409.444C453.187 409.444 453.387 409.41 453.573 409.344C453.767 409.277 453.937 409.184 454.083 409.064C454.23 408.937 454.346 408.787 454.433 408.614C454.52 408.441 454.563 408.251 454.563 408.044V407.604C454.023 407.604 453.563 407.634 453.183 407.694C452.804 407.754 452.51 407.861 452.304 408.014C452.104 408.167 452.004 408.384 452.004 408.664C452.004 408.844 452.044 408.991 452.124 409.104C452.204 409.217 452.317 409.304 452.464 409.364C452.61 409.417 452.78 409.444 452.973 409.444ZM458.111 410.184C457.838 410.184 457.625 410.134 457.472 410.034C457.318 409.927 457.208 409.79 457.142 409.624C457.075 409.45 457.042 409.267 457.042 409.074V405.545H456.362V404.805H457.062L457.222 403.335H457.922V404.805H458.911V405.545H457.922V408.944C457.922 409.11 457.952 409.237 458.011 409.324C458.071 409.404 458.185 409.444 458.351 409.444H458.911V410.024C458.845 410.057 458.765 410.084 458.671 410.104C458.578 410.124 458.481 410.14 458.381 410.154C458.288 410.174 458.198 410.184 458.111 410.184ZM461.949 410.184C461.429 410.184 460.99 410.087 460.63 409.894C460.276 409.694 460.006 409.39 459.82 408.984C459.64 408.577 459.55 408.061 459.55 407.434C459.55 406.801 459.64 406.285 459.82 405.885C460.006 405.478 460.28 405.178 460.64 404.985C461 404.785 461.449 404.685 461.989 404.685C462.482 404.685 462.896 404.782 463.229 404.975C463.562 405.161 463.812 405.445 463.979 405.825C464.152 406.198 464.239 406.668 464.239 407.234V407.654H460.46C460.473 408.074 460.533 408.421 460.64 408.694C460.753 408.961 460.92 409.157 461.139 409.284C461.359 409.404 461.636 409.464 461.969 409.464C462.196 409.464 462.393 409.437 462.559 409.384C462.732 409.324 462.876 409.24 462.989 409.134C463.109 409.027 463.199 408.901 463.259 408.754C463.319 408.607 463.352 408.447 463.359 408.274H464.219C464.212 408.554 464.159 408.814 464.059 409.054C463.959 409.287 463.812 409.487 463.619 409.654C463.426 409.82 463.189 409.95 462.909 410.044C462.629 410.137 462.309 410.184 461.949 410.184ZM460.48 406.994H463.329C463.329 406.701 463.296 406.454 463.229 406.255C463.162 406.055 463.066 405.891 462.939 405.765C462.819 405.638 462.676 405.548 462.509 405.495C462.349 405.435 462.166 405.405 461.959 405.405C461.653 405.405 461.393 405.461 461.179 405.575C460.966 405.688 460.803 405.861 460.69 406.095C460.576 406.328 460.506 406.628 460.48 406.994ZM467.117 410.184C466.683 410.184 466.31 410.087 465.997 409.894C465.69 409.7 465.45 409.4 465.277 408.994C465.11 408.581 465.027 408.047 465.027 407.394C465.027 406.774 465.114 406.265 465.287 405.865C465.46 405.465 465.7 405.168 466.007 404.975C466.313 404.782 466.67 404.685 467.077 404.685C467.31 404.685 467.526 404.712 467.726 404.765C467.926 404.818 468.103 404.902 468.256 405.015C468.416 405.128 468.556 405.278 468.676 405.465H468.736V402.835H469.616V410.064H468.906L468.826 409.314H468.756C468.576 409.607 468.343 409.827 468.056 409.974C467.77 410.114 467.456 410.184 467.117 410.184ZM467.326 409.414C467.66 409.414 467.93 409.34 468.136 409.194C468.343 409.047 468.493 408.834 468.586 408.554C468.686 408.274 468.736 407.927 468.736 407.514V407.354C468.736 406.994 468.7 406.691 468.626 406.444C468.553 406.198 468.453 406.001 468.326 405.855C468.2 405.708 468.053 405.605 467.886 405.545C467.72 405.485 467.543 405.455 467.356 405.455C467.03 405.455 466.763 405.521 466.557 405.655C466.35 405.781 466.197 405.985 466.097 406.265C465.997 406.538 465.947 406.894 465.947 407.334V407.544C465.947 407.997 466 408.364 466.107 408.644C466.213 408.917 466.367 409.114 466.567 409.234C466.773 409.354 467.027 409.414 467.326 409.414ZM472.899 410.064V409.774C472.899 409.494 472.952 409.237 473.059 409.004C473.172 408.764 473.319 408.547 473.499 408.354C473.685 408.154 473.895 407.964 474.129 407.784C474.362 407.604 474.598 407.428 474.838 407.254C475.165 407.028 475.465 406.801 475.738 406.574C476.018 406.348 476.241 406.105 476.408 405.845C476.575 405.578 476.658 405.281 476.658 404.955C476.658 404.748 476.608 404.562 476.508 404.395C476.415 404.222 476.271 404.085 476.078 403.985C475.885 403.885 475.638 403.835 475.338 403.835C474.985 403.835 474.702 403.895 474.488 404.015C474.275 404.135 474.119 404.295 474.019 404.495C473.925 404.695 473.879 404.915 473.879 405.155V405.565H473.009C473.002 405.531 472.995 405.481 472.989 405.415C472.982 405.341 472.979 405.258 472.979 405.165C472.979 404.672 473.089 404.275 473.309 403.975C473.529 403.668 473.822 403.445 474.189 403.305C474.555 403.159 474.952 403.085 475.378 403.085C475.758 403.085 476.085 403.139 476.358 403.245C476.631 403.345 476.858 403.485 477.038 403.665C477.218 403.845 477.351 404.052 477.438 404.285C477.524 404.512 477.568 404.752 477.568 405.005C477.568 405.318 477.511 405.605 477.398 405.865C477.291 406.125 477.138 406.368 476.938 406.594C476.745 406.814 476.515 407.028 476.248 407.234C475.988 407.441 475.705 407.651 475.398 407.864C475.185 408.004 474.975 408.154 474.768 408.314C474.562 408.467 474.385 408.624 474.239 408.784C474.092 408.944 473.999 409.097 473.959 409.244H477.608V410.064H472.899ZM482.64 410.184C482.207 410.184 481.834 410.087 481.52 409.894C481.214 409.7 480.974 409.4 480.801 408.994C480.634 408.581 480.551 408.047 480.551 407.394C480.551 406.774 480.637 406.265 480.811 405.865C480.984 405.465 481.224 405.168 481.53 404.975C481.837 404.782 482.194 404.685 482.6 404.685C482.833 404.685 483.05 404.712 483.25 404.765C483.45 404.818 483.627 404.902 483.78 405.015C483.94 405.128 484.08 405.278 484.2 405.465H484.26V402.835H485.14V410.064H484.43L484.35 409.314H484.28C484.1 409.607 483.867 409.827 483.58 409.974C483.293 410.114 482.98 410.184 482.64 410.184ZM482.85 409.414C483.183 409.414 483.453 409.34 483.66 409.194C483.867 409.047 484.016 408.834 484.11 408.554C484.21 408.274 484.26 407.927 484.26 407.514V407.354C484.26 406.994 484.223 406.691 484.15 406.444C484.076 406.198 483.976 406.001 483.85 405.855C483.723 405.708 483.577 405.605 483.41 405.545C483.243 405.485 483.067 405.455 482.88 405.455C482.553 405.455 482.287 405.521 482.08 405.655C481.874 405.781 481.72 405.985 481.62 406.265C481.52 406.538 481.47 406.894 481.47 407.334V407.544C481.47 407.997 481.524 408.364 481.63 408.644C481.737 408.917 481.89 409.114 482.09 409.234C482.297 409.354 482.55 409.414 482.85 409.414ZM487.843 410.184C487.649 410.184 487.456 410.16 487.263 410.114C487.07 410.067 486.89 409.99 486.723 409.884C486.556 409.777 486.423 409.63 486.323 409.444C486.223 409.25 486.173 409.011 486.173 408.724C486.173 408.364 486.26 408.067 486.433 407.834C486.606 407.601 486.846 407.421 487.153 407.294C487.466 407.161 487.836 407.071 488.263 407.024C488.689 406.971 489.152 406.944 489.652 406.944V406.344C489.652 406.151 489.619 405.985 489.552 405.845C489.486 405.705 489.366 405.598 489.192 405.525C489.026 405.445 488.786 405.405 488.473 405.405C488.173 405.405 487.933 405.445 487.753 405.525C487.579 405.598 487.456 405.695 487.383 405.815C487.316 405.935 487.283 406.068 487.283 406.215V406.364H486.433C486.426 406.331 486.423 406.298 486.423 406.265C486.423 406.231 486.423 406.191 486.423 406.145C486.423 405.825 486.51 405.558 486.683 405.345C486.863 405.125 487.113 404.961 487.433 404.855C487.753 404.742 488.119 404.685 488.533 404.685C488.972 404.685 489.339 404.748 489.632 404.875C489.932 405.001 490.155 405.181 490.302 405.415C490.455 405.648 490.532 405.928 490.532 406.255V409.104C490.532 409.23 490.562 409.32 490.622 409.374C490.682 409.42 490.755 409.444 490.842 409.444H491.232V410.024C491.139 410.064 491.035 410.097 490.922 410.124C490.809 410.157 490.679 410.174 490.532 410.174C490.359 410.174 490.215 410.137 490.102 410.064C489.989 409.997 489.902 409.904 489.842 409.784C489.782 409.657 489.742 409.517 489.722 409.364H489.652C489.532 409.53 489.379 409.677 489.192 409.804C489.012 409.924 488.809 410.017 488.583 410.084C488.356 410.15 488.109 410.184 487.843 410.184ZM488.063 409.444C488.276 409.444 488.476 409.41 488.663 409.344C488.856 409.277 489.026 409.184 489.172 409.064C489.319 408.937 489.436 408.787 489.522 408.614C489.609 408.441 489.652 408.251 489.652 408.044V407.604C489.112 407.604 488.653 407.634 488.273 407.694C487.893 407.754 487.599 407.861 487.393 408.014C487.193 408.167 487.093 408.384 487.093 408.664C487.093 408.844 487.133 408.991 487.213 409.104C487.293 409.217 487.406 409.304 487.553 409.364C487.699 409.417 487.869 409.444 488.063 409.444ZM492.421 411.883C492.261 411.883 492.121 411.87 492.001 411.843C491.888 411.823 491.811 411.81 491.771 411.803V411.163H492.211C492.371 411.163 492.527 411.13 492.681 411.063C492.834 410.997 492.977 410.883 493.111 410.723C493.244 410.563 493.357 410.344 493.451 410.064L491.411 404.805H492.331L493.381 407.514C493.427 407.641 493.481 407.797 493.541 407.984C493.607 408.164 493.671 408.351 493.731 408.544C493.797 408.737 493.85 408.907 493.89 409.054H493.95C493.977 408.947 494.01 408.827 494.05 408.694C494.09 408.561 494.13 408.424 494.17 408.284C494.217 408.137 494.26 408.001 494.3 407.874C494.347 407.741 494.384 407.624 494.41 407.524L495.3 404.805H496.19L494.41 409.914C494.31 410.2 494.2 410.464 494.08 410.703C493.96 410.95 493.827 411.16 493.681 411.333C493.534 411.507 493.357 411.64 493.151 411.733C492.944 411.833 492.701 411.883 492.421 411.883ZM498.848 410.184C498.488 410.184 498.172 410.147 497.899 410.074C497.625 410 497.399 409.894 497.219 409.754C497.039 409.614 496.902 409.447 496.809 409.254C496.716 409.061 496.669 408.841 496.669 408.594C496.669 408.561 496.669 408.531 496.669 408.504C496.669 408.471 496.672 408.444 496.679 408.424H497.549C497.542 408.451 497.539 408.474 497.539 408.494C497.539 408.514 497.539 408.534 497.539 408.554C497.545 408.787 497.605 408.971 497.719 409.104C497.839 409.237 498.002 409.33 498.208 409.384C498.415 409.437 498.645 409.464 498.898 409.464C499.118 409.464 499.322 409.437 499.508 409.384C499.695 409.324 499.841 409.237 499.948 409.124C500.061 409.004 500.118 408.854 500.118 408.674C500.118 408.454 500.045 408.287 499.898 408.174C499.758 408.054 499.571 407.961 499.338 407.894C499.105 407.827 498.862 407.757 498.608 407.684C498.395 407.624 498.182 407.558 497.969 407.484C497.755 407.411 497.562 407.321 497.389 407.214C497.222 407.108 497.085 406.971 496.979 406.804C496.879 406.631 496.829 406.414 496.829 406.155C496.829 405.921 496.875 405.715 496.969 405.535C497.069 405.355 497.209 405.201 497.389 405.075C497.569 404.948 497.785 404.855 498.039 404.795C498.298 404.728 498.585 404.695 498.898 404.695C499.232 404.695 499.522 404.732 499.768 404.805C500.021 404.878 500.231 404.981 500.398 405.115C500.565 405.248 500.688 405.401 500.768 405.575C500.848 405.741 500.888 405.921 500.888 406.115C500.888 406.155 500.888 406.195 500.888 406.235C500.888 406.268 500.885 406.295 500.878 406.315H500.018V406.205C500.018 406.071 499.981 405.945 499.908 405.825C499.841 405.698 499.721 405.598 499.548 405.525C499.382 405.445 499.148 405.405 498.848 405.405C498.655 405.405 498.488 405.421 498.348 405.455C498.208 405.481 498.092 405.528 497.999 405.595C497.905 405.655 497.835 405.728 497.789 405.815C497.742 405.895 497.719 405.988 497.719 406.095C497.719 406.268 497.775 406.401 497.889 406.494C498.002 406.588 498.152 406.664 498.338 406.724C498.532 406.784 498.738 406.851 498.958 406.924C499.192 406.991 499.428 407.061 499.668 407.134C499.915 407.201 500.138 407.288 500.338 407.394C500.545 407.501 500.708 407.648 500.828 407.834C500.954 408.014 501.018 408.254 501.018 408.554C501.018 408.834 500.964 409.077 500.858 409.284C500.751 409.49 500.598 409.66 500.398 409.794C500.205 409.927 499.975 410.024 499.708 410.084C499.448 410.15 499.162 410.184 498.848 410.184ZM505.514 410.184C505.321 410.184 505.128 410.16 504.934 410.114C504.741 410.067 504.561 409.99 504.394 409.884C504.228 409.777 504.095 409.63 503.995 409.444C503.895 409.25 503.845 409.011 503.845 408.724C503.845 408.364 503.931 408.067 504.105 407.834C504.278 407.601 504.518 407.421 504.824 407.294C505.138 407.161 505.508 407.071 505.934 407.024C506.361 406.971 506.824 406.944 507.324 406.944V406.344C507.324 406.151 507.29 405.985 507.224 405.845C507.157 405.705 507.037 405.598 506.864 405.525C506.697 405.445 506.457 405.405 506.144 405.405C505.844 405.405 505.604 405.445 505.424 405.525C505.251 405.598 505.128 405.695 505.054 405.815C504.988 405.935 504.954 406.068 504.954 406.215V406.364H504.105C504.098 406.331 504.095 406.298 504.095 406.265C504.095 406.231 504.095 406.191 504.095 406.145C504.095 405.825 504.181 405.558 504.355 405.345C504.534 405.125 504.784 404.961 505.104 404.855C505.424 404.742 505.791 404.685 506.204 404.685C506.644 404.685 507.011 404.748 507.304 404.875C507.604 405.001 507.827 405.181 507.974 405.415C508.127 405.648 508.204 405.928 508.204 406.255V409.104C508.204 409.23 508.234 409.32 508.294 409.374C508.354 409.42 508.427 409.444 508.513 409.444H508.903V410.024C508.81 410.064 508.707 410.097 508.593 410.124C508.48 410.157 508.35 410.174 508.204 410.174C508.03 410.174 507.887 410.137 507.774 410.064C507.66 409.997 507.574 409.904 507.514 409.784C507.454 409.657 507.414 409.517 507.394 409.364H507.324C507.204 409.53 507.051 409.677 506.864 409.804C506.684 409.924 506.481 410.017 506.254 410.084C506.027 410.15 505.781 410.184 505.514 410.184ZM505.734 409.444C505.947 409.444 506.147 409.41 506.334 409.344C506.527 409.277 506.697 409.184 506.844 409.064C506.991 408.937 507.107 408.787 507.194 408.614C507.28 408.441 507.324 408.251 507.324 408.044V407.604C506.784 407.604 506.324 407.634 505.944 407.694C505.564 407.754 505.271 407.861 505.064 408.014C504.864 408.167 504.764 408.384 504.764 408.664C504.764 408.844 504.804 408.991 504.884 409.104C504.964 409.217 505.078 409.304 505.224 409.364C505.371 409.417 505.541 409.444 505.734 409.444ZM510.532 411.883C510.279 411.883 510.046 411.83 509.832 411.723C509.619 411.623 509.449 411.477 509.323 411.283C509.196 411.09 509.133 410.86 509.133 410.593C509.133 410.3 509.213 410.057 509.373 409.864C509.539 409.67 509.736 409.527 509.962 409.434C509.796 409.354 509.666 409.244 509.572 409.104C509.479 408.957 509.432 408.797 509.432 408.624C509.432 408.391 509.516 408.194 509.682 408.034C509.856 407.874 510.066 407.767 510.312 407.714C510.086 407.568 509.906 407.381 509.772 407.154C509.646 406.921 509.582 406.664 509.582 406.384C509.582 406.051 509.659 405.758 509.812 405.505C509.972 405.251 510.212 405.051 510.532 404.905C510.859 404.758 511.255 404.685 511.722 404.685C511.935 404.685 512.135 404.702 512.322 404.735C512.508 404.762 512.675 404.808 512.822 404.875C513.055 404.768 513.228 404.632 513.342 404.465C513.462 404.298 513.535 404.128 513.562 403.955H514.431C514.431 404.155 514.385 404.345 514.291 404.525C514.205 404.698 514.085 404.845 513.931 404.965C513.778 405.078 513.591 405.155 513.372 405.195C513.538 405.355 513.661 405.535 513.741 405.735C513.828 405.935 513.871 406.151 513.871 406.384C513.871 406.718 513.791 407.014 513.631 407.274C513.478 407.528 513.245 407.727 512.932 407.874C512.618 408.021 512.225 408.094 511.752 408.094H510.932C510.752 408.094 510.606 408.131 510.492 408.204C510.379 408.271 510.322 408.381 510.322 408.534C510.322 408.667 510.379 408.777 510.492 408.864C510.606 408.944 510.752 408.984 510.932 408.984H513.072C513.458 408.984 513.775 409.114 514.021 409.374C514.268 409.627 514.391 409.954 514.391 410.354C514.391 410.64 514.318 410.897 514.171 411.123C514.031 411.357 513.831 411.54 513.571 411.673C513.318 411.813 513.022 411.883 512.682 411.883H510.532ZM510.782 411.213H512.672C512.825 411.213 512.965 411.18 513.092 411.113C513.218 411.053 513.318 410.967 513.392 410.853C513.465 410.74 513.502 410.617 513.502 410.483C513.502 410.257 513.435 410.077 513.302 409.944C513.168 409.81 513.002 409.744 512.802 409.744H510.782C510.569 409.744 510.389 409.817 510.242 409.964C510.096 410.104 510.022 410.277 510.022 410.483C510.022 410.703 510.096 410.88 510.242 411.013C510.389 411.147 510.569 411.213 510.782 411.213ZM511.732 407.434C512.159 407.434 512.475 407.341 512.682 407.154C512.888 406.968 512.992 406.711 512.992 406.384C512.992 406.065 512.888 405.811 512.682 405.625C512.475 405.438 512.159 405.345 511.732 405.345C511.305 405.345 510.985 405.438 510.772 405.625C510.566 405.811 510.462 406.065 510.462 406.384C510.462 406.591 510.509 406.774 510.602 406.934C510.696 407.094 510.835 407.218 511.022 407.304C511.209 407.391 511.445 407.434 511.732 407.434ZM517.357 410.184C516.824 410.184 516.374 410.087 516.008 409.894C515.648 409.694 515.371 409.39 515.178 408.984C514.991 408.577 514.898 408.061 514.898 407.434C514.898 406.801 514.991 406.285 515.178 405.885C515.371 405.478 515.648 405.178 516.008 404.985C516.374 404.785 516.824 404.685 517.357 404.685C517.89 404.685 518.337 404.785 518.697 404.985C519.063 405.178 519.34 405.478 519.527 405.885C519.713 406.285 519.807 406.801 519.807 407.434C519.807 408.061 519.713 408.577 519.527 408.984C519.34 409.39 519.063 409.694 518.697 409.894C518.337 410.087 517.89 410.184 517.357 410.184ZM517.357 409.444C517.697 409.444 517.98 409.377 518.207 409.244C518.434 409.11 518.604 408.904 518.717 408.624C518.837 408.337 518.897 407.977 518.897 407.544V407.324C518.897 406.884 518.837 406.524 518.717 406.245C518.604 405.965 518.434 405.758 518.207 405.625C517.98 405.491 517.697 405.425 517.357 405.425C517.017 405.425 516.731 405.491 516.497 405.625C516.271 405.758 516.101 405.965 515.988 406.245C515.874 406.524 515.818 406.884 515.818 407.324V407.544C515.818 407.977 515.874 408.337 515.988 408.624C516.101 408.904 516.271 409.11 516.497 409.244C516.731 409.377 517.017 409.444 517.357 409.444Z" fill="#6B7280"/>
</g>
<defs>
<filter id="filter0_d_225_14334" x="0" y="0" width="734.833" height="632.894" filterUnits="userSpaceOnUse" color-interpolation-filters="sRGB">
<feFlood flood-opacity="0" result="BackgroundImageFix"/>
<feColorMatrix in="SourceAlpha" type="matrix" values="0 0 0 0 0 0 0 0 0 0 0 0 0 0 0 0 0 0 127 0" result="hardAlpha"/>
<feOffset dy="4"/>
<feGaussianBlur stdDeviation="100"/>
<feComposite in2="hardAlpha" operator="out"/>
<feColorMatrix type="matrix" values="0 0 0 0 0 0 0 0 0 0 0 0 0 0 0 0 0 0 0.1 0"/>
<feBlend mode="normal" in2="BackgroundImageFix" result="effect1_dropShadow_225_14334"/>
<feBlend mode="normal" in="SourceGraphic" in2="effect1_dropShadow_225_14334" result="shape"/>
</filter>
<filter id="filter1_d_225_14334" x="333.147" y="252.387" width="133.213" height="37.728" filterUnits="userSpaceOnUse" color-interpolation-filters="sRGB">
<feFlood flood-opacity="0" result="BackgroundImageFix"/>
<feColorMatrix in="SourceAlpha" type="matrix" values="0 0 0 0 0 0 0 0 0 0 0 0 0 0 0 0 0 0 127 0" result="hardAlpha"/>
<feOffset dy="1.40687"/>
<feGaussianBlur stdDeviation="1.40687"/>
<feComposite in2="hardAlpha" operator="out"/>
<feColorMatrix type="matrix" values="0 0 0 0 0 0 0 0 0 0 0 0 0 0 0 0 0 0 0.04 0"/>
<feBlend mode="normal" in2="BackgroundImageFix" result="effect1_dropShadow_225_14334"/>
<feBlend mode="normal" in="SourceGraphic" in2="effect1_dropShadow_225_14334" result="shape"/>
</filter>
<linearGradient id="paint0_linear_225_14334" x1="409.198" y1="294.938" x2="448.408" y2="411.53" gradientUnits="userSpaceOnUse">
<stop stop-color="#FBB1D2"/>
<stop offset="1" stop-color="#FEFDFF"/>
</linearGradient>
<linearGradient id="paint1_linear_225_14334" x1="409.329" y1="294.75" x2="447.602" y2="409.779" gradientUnits="userSpaceOnUse">
<stop stop-color="#FBB1D2"/>
<stop offset="1" stop-color="#FEFDFF"/>
</linearGradient>
<linearGradient id="paint2_linear_225_14334" x1="400.106" y1="296.304" x2="400.106" y2="381.65" gradientUnits="userSpaceOnUse">
<stop stop-color="#E7318F"/>
<stop offset="1" stop-color="#E7318F" stop-opacity="0"/>
</linearGradient>
<clipPath id="clip0_225_14334">
<rect width="334" height="156" fill="white" transform="translate(200.417 229.233)"/>
</clipPath>
</defs>
</svg>
