<svg width="703" height="601" viewBox="0 0 703 601" fill="none" xmlns="http://www.w3.org/2000/svg">
<g filter="url(#filter0_d_518_12152)">
<rect x="184.417" y="180.417" width="334" height="232" rx="12" fill="white" shape-rendering="crispEdges"/>
<rect x="184.208" y="180.208" width="334.417" height="232.417" rx="12.2083" stroke="#E5E7EB" stroke-width="0.416566" shape-rendering="crispEdges"/>
<rect x="201.632" y="192.568" width="51.3301" height="20.6651" rx="4.99879" fill="#FBE5EE"/>
<path d="M209.056 205.901V199.043H214.405V200.152H210.356V201.842H213.965V202.952H210.356V204.791H214.465V205.901H209.056ZM215.114 205.901L216.993 203.192L215.244 200.642H216.723L217.763 202.272H217.823L218.883 200.642H220.272L218.513 203.162L220.372 205.901H218.913L217.743 204.081H217.683L216.503 205.901H215.114ZM221.121 199.832V198.673H222.341V199.832H221.121ZM221.121 205.901V200.642H222.341V205.901H221.121ZM225.69 206.021C225.31 206.021 224.977 205.981 224.69 205.901C224.403 205.814 224.163 205.698 223.97 205.551C223.777 205.404 223.63 205.234 223.53 205.041C223.437 204.841 223.39 204.625 223.39 204.391C223.39 204.358 223.39 204.328 223.39 204.301C223.397 204.275 223.4 204.255 223.4 204.241H224.6C224.6 204.255 224.6 204.268 224.6 204.281C224.6 204.295 224.6 204.308 224.6 204.321C224.607 204.501 224.663 204.648 224.77 204.761C224.877 204.868 225.017 204.945 225.19 204.991C225.363 205.038 225.546 205.061 225.74 205.061C225.913 205.061 226.076 205.045 226.23 205.011C226.39 204.971 226.519 204.911 226.619 204.831C226.726 204.745 226.779 204.635 226.779 204.501C226.779 204.328 226.713 204.195 226.579 204.101C226.446 204.008 226.27 203.931 226.05 203.871C225.836 203.812 225.606 203.748 225.36 203.682C225.14 203.622 224.92 203.555 224.7 203.482C224.48 203.408 224.28 203.315 224.1 203.202C223.927 203.088 223.783 202.942 223.67 202.762C223.564 202.582 223.51 202.359 223.51 202.092C223.51 201.832 223.567 201.605 223.68 201.412C223.793 201.219 223.95 201.059 224.15 200.932C224.35 200.799 224.587 200.699 224.86 200.632C225.133 200.566 225.43 200.532 225.75 200.532C226.063 200.532 226.346 200.566 226.599 200.632C226.859 200.699 227.083 200.796 227.269 200.922C227.463 201.042 227.609 201.192 227.709 201.372C227.816 201.545 227.869 201.739 227.869 201.952C227.869 201.999 227.866 202.045 227.859 202.092C227.859 202.139 227.859 202.165 227.859 202.172H226.669V202.102C226.669 201.975 226.629 201.869 226.549 201.782C226.476 201.689 226.366 201.615 226.22 201.562C226.08 201.509 225.903 201.482 225.69 201.482C225.53 201.482 225.39 201.495 225.27 201.522C225.15 201.549 225.05 201.585 224.97 201.632C224.897 201.679 224.84 201.732 224.8 201.792C224.76 201.852 224.74 201.919 224.74 201.992C224.74 202.119 224.79 202.219 224.89 202.292C224.99 202.365 225.123 202.429 225.29 202.482C225.463 202.535 225.65 202.592 225.85 202.652C226.09 202.718 226.336 202.788 226.589 202.862C226.843 202.928 227.076 203.015 227.289 203.122C227.509 203.228 227.686 203.378 227.819 203.572C227.952 203.765 228.019 204.021 228.019 204.341C228.019 204.648 227.959 204.911 227.839 205.131C227.726 205.344 227.563 205.518 227.349 205.651C227.143 205.778 226.896 205.871 226.609 205.931C226.33 205.991 226.023 206.021 225.69 206.021ZM230.439 206.021C230.112 206.021 229.856 205.958 229.669 205.831C229.482 205.698 229.349 205.531 229.269 205.331C229.196 205.125 229.159 204.915 229.159 204.701V201.642H228.529V200.642H229.189L229.409 199.173H230.379V200.642H231.288V201.642H230.379V204.581C230.379 204.721 230.415 204.831 230.489 204.911C230.562 204.985 230.672 205.021 230.819 205.021H231.288V205.861C231.222 205.888 231.139 205.911 231.039 205.931C230.945 205.958 230.845 205.978 230.739 205.991C230.632 206.011 230.532 206.021 230.439 206.021ZM232.193 199.832V198.673H233.413V199.832H232.193ZM232.193 205.901V200.642H233.413V205.901H232.193ZM234.712 205.901V200.642H235.731L235.831 201.342H235.901C236.021 201.182 236.161 201.042 236.321 200.922C236.488 200.796 236.675 200.699 236.881 200.632C237.094 200.559 237.328 200.522 237.581 200.522C237.914 200.522 238.208 200.582 238.461 200.702C238.721 200.822 238.924 201.016 239.071 201.282C239.217 201.549 239.291 201.905 239.291 202.352V205.901H238.061V202.572C238.061 202.385 238.038 202.232 237.991 202.112C237.951 201.985 237.888 201.885 237.801 201.812C237.721 201.732 237.621 201.675 237.501 201.642C237.381 201.609 237.248 201.592 237.101 201.592C236.881 201.592 236.681 201.645 236.501 201.752C236.328 201.859 236.188 202.005 236.081 202.192C235.981 202.379 235.931 202.595 235.931 202.842V205.901H234.712ZM241.42 207.721C241.187 207.721 240.967 207.674 240.76 207.581C240.553 207.487 240.387 207.347 240.26 207.161C240.134 206.981 240.07 206.757 240.07 206.491C240.07 206.198 240.154 205.968 240.32 205.801C240.494 205.628 240.683 205.498 240.89 205.411C240.737 205.331 240.61 205.224 240.51 205.091C240.417 204.958 240.37 204.798 240.37 204.611C240.37 204.358 240.464 204.158 240.65 204.011C240.837 203.858 241.05 203.758 241.29 203.712C241.043 203.558 240.853 203.362 240.72 203.122C240.593 202.882 240.53 202.608 240.53 202.302C240.53 201.935 240.617 201.622 240.79 201.362C240.97 201.095 241.23 200.889 241.57 200.742C241.91 200.596 242.32 200.522 242.8 200.522C242.993 200.522 243.18 200.536 243.359 200.562C243.539 200.589 243.703 200.629 243.849 200.682C244.083 200.542 244.243 200.386 244.329 200.212C244.416 200.032 244.463 199.886 244.469 199.772H245.659C245.659 200.006 245.612 200.212 245.519 200.392C245.432 200.572 245.309 200.722 245.149 200.842C244.989 200.956 244.796 201.039 244.569 201.092C244.736 201.239 244.862 201.415 244.949 201.622C245.036 201.829 245.079 202.055 245.079 202.302C245.079 202.668 244.992 202.985 244.819 203.252C244.653 203.518 244.403 203.725 244.069 203.871C243.743 204.018 243.339 204.091 242.86 204.091H242.05C241.91 204.091 241.8 204.121 241.72 204.181C241.647 204.241 241.61 204.325 241.61 204.431C241.61 204.518 241.643 204.595 241.71 204.661C241.783 204.728 241.883 204.761 242.01 204.761H244.309C244.702 204.761 245.026 204.891 245.279 205.151C245.539 205.404 245.669 205.731 245.669 206.131C245.669 206.431 245.589 206.701 245.429 206.941C245.276 207.181 245.059 207.371 244.779 207.511C244.499 207.651 244.173 207.721 243.799 207.721H241.42ZM241.86 206.841H243.789C243.916 206.841 244.026 206.817 244.119 206.771C244.219 206.731 244.296 206.671 244.349 206.591C244.409 206.511 244.439 206.421 244.439 206.321C244.439 206.148 244.383 206.018 244.269 205.931C244.163 205.844 244.029 205.801 243.869 205.801H241.86C241.7 205.801 241.567 205.848 241.46 205.941C241.353 206.041 241.3 206.168 241.3 206.321C241.3 206.474 241.35 206.597 241.45 206.691C241.557 206.791 241.693 206.841 241.86 206.841ZM242.81 203.232C243.163 203.232 243.426 203.152 243.599 202.992C243.779 202.825 243.869 202.595 243.869 202.302C243.869 202.009 243.779 201.782 243.599 201.622C243.426 201.462 243.163 201.382 242.81 201.382C242.456 201.382 242.19 201.462 242.01 201.622C241.837 201.782 241.75 202.009 241.75 202.302C241.75 202.495 241.787 202.662 241.86 202.802C241.94 202.942 242.056 203.048 242.21 203.122C242.37 203.195 242.57 203.232 242.81 203.232Z" fill="#791142"/>
<g clip-path="url(#clip0_518_12152)">
<rect x="184.476" y="232.72" width="334.176" height="139.902" rx="11.2748" fill="white"/>
<path d="M204.592 258.016V257.391L206.807 253.892H207.3V254.813H206.987L205.403 257.32V257.36H208.439V258.016H204.592ZM207.022 259.017V257.826L207.027 257.541V253.892H207.76V259.017H207.022Z" fill="#464646"/>
<path d="M206.484 289.523C206.141 289.523 205.834 289.464 205.563 289.345C205.295 289.227 205.082 289.062 204.925 288.852C204.77 288.64 204.687 288.395 204.675 288.116H205.461C205.471 288.268 205.522 288.4 205.613 288.512C205.707 288.622 205.829 288.707 205.979 288.767C206.129 288.827 206.296 288.857 206.479 288.857C206.681 288.857 206.86 288.822 207.015 288.752C207.172 288.682 207.294 288.584 207.383 288.459C207.471 288.333 207.515 288.187 207.515 288.021C207.515 287.85 207.471 287.699 207.383 287.568C207.296 287.437 207.168 287.333 207 287.258C206.833 287.183 206.631 287.146 206.394 287.146H205.961V286.515H206.394C206.584 286.515 206.751 286.481 206.895 286.412C207.04 286.344 207.153 286.249 207.235 286.127C207.317 286.004 207.358 285.859 207.358 285.694C207.358 285.536 207.322 285.398 207.25 285.281C207.18 285.163 207.08 285.07 206.95 285.003C206.821 284.937 206.669 284.903 206.494 284.903C206.327 284.903 206.171 284.934 206.026 284.996C205.883 285.056 205.766 285.143 205.676 285.256C205.586 285.368 205.537 285.502 205.531 285.659H204.783C204.791 285.382 204.873 285.139 205.028 284.928C205.185 284.718 205.392 284.554 205.648 284.435C205.905 284.317 206.191 284.258 206.504 284.258C206.833 284.258 207.116 284.322 207.355 284.45C207.595 284.577 207.78 284.747 207.911 284.958C208.042 285.17 208.107 285.402 208.106 285.654C208.107 285.941 208.027 286.185 207.866 286.385C207.705 286.585 207.492 286.719 207.225 286.788V286.828C207.565 286.879 207.829 287.015 208.016 287.233C208.204 287.452 208.298 287.723 208.296 288.046C208.298 288.328 208.219 288.581 208.061 288.805C207.904 289.028 207.69 289.204 207.418 289.333C207.146 289.459 206.835 289.523 206.484 289.523Z" fill="#464646"/>
<path d="M204.7 319.888V319.328L206.434 317.531C206.619 317.336 206.772 317.165 206.892 317.018C207.014 316.87 207.105 316.729 207.165 316.595C207.225 316.462 207.255 316.32 207.255 316.17C207.255 316 207.215 315.853 207.135 315.729C207.055 315.604 206.945 315.508 206.807 315.442C206.669 315.373 206.513 315.339 206.339 315.339C206.156 315.339 205.995 315.377 205.859 315.452C205.722 315.527 205.617 315.633 205.543 315.769C205.47 315.906 205.433 316.066 205.433 316.25H204.695C204.695 315.938 204.767 315.665 204.91 315.432C205.054 315.198 205.251 315.017 205.501 314.889C205.751 314.758 206.035 314.693 206.354 314.693C206.676 314.693 206.96 314.758 207.205 314.886C207.452 315.013 207.645 315.186 207.783 315.407C207.921 315.625 207.991 315.872 207.991 316.147C207.991 316.338 207.955 316.524 207.883 316.705C207.813 316.887 207.69 317.09 207.515 317.313C207.34 317.535 207.096 317.805 206.785 318.122L205.766 319.188V319.225H208.073V319.888H204.7Z" fill="#464646"/>
<path d="M206.644 345.199V350.324H205.869V345.975H205.839L204.612 346.776V346.035L205.891 345.199H206.644Z" fill="#464646"/>
<line opacity="0.4" x1="215.019" y1="257.395" x2="513.449" y2="256.691" stroke="#BEBEBE" stroke-width="0.352339" stroke-linecap="round" stroke-dasharray="7.05 5.64"/>
<line opacity="0.4" x1="215.019" y1="287.696" x2="513.449" y2="286.992" stroke="#BEBEBE" stroke-width="0.352339" stroke-linecap="round" stroke-dasharray="7.05 5.64"/>
<line opacity="0.4" x1="215.019" y1="317.997" x2="513.449" y2="317.293" stroke="#BEBEBE" stroke-width="0.352339" stroke-linecap="round" stroke-dasharray="7.05 5.64"/>
<line opacity="0.4" x1="215.019" y1="348.298" x2="513.449" y2="347.594" stroke="#BEBEBE" stroke-width="0.352339" stroke-linecap="round" stroke-dasharray="7.05 5.64"/>
<rect x="230.417" y="294.417" width="71" height="55" rx="2.81871" fill="url(#paint0_linear_518_12152)"/>
<rect x="315.51" y="268.417" width="74" height="81" rx="2.81871" fill="url(#paint1_linear_518_12152)"/>
<rect x="402.604" y="320.417" width="73" height="29" rx="2.81871" fill="url(#paint2_linear_518_12152)"/>
</g>
<path d="M202.279 394.709C201.518 394.709 200.862 394.588 200.311 394.345C199.768 394.102 199.351 393.737 199.059 393.251C198.767 392.757 198.622 392.145 198.622 391.416V386.227H200.444V391.368C200.444 391.967 200.602 392.429 200.918 392.753C201.234 393.069 201.688 393.227 202.279 393.227C202.871 393.227 203.324 393.069 203.64 392.753C203.964 392.429 204.126 391.967 204.126 391.368V386.227H205.949V391.416C205.949 392.145 205.803 392.757 205.512 393.251C205.22 393.737 204.799 394.102 204.248 394.345C203.705 394.588 203.049 394.709 202.279 394.709ZM211.005 394.709C210.519 394.709 210.057 394.661 209.62 394.564C209.182 394.466 208.793 394.312 208.453 394.102C208.121 393.883 207.857 393.612 207.663 393.288C207.477 392.956 207.384 392.554 207.384 392.085C207.384 392.044 207.384 392.004 207.384 391.963C207.384 391.914 207.388 391.878 207.396 391.854H209.194C209.186 391.878 209.182 391.91 209.182 391.951C209.182 391.991 209.182 392.028 209.182 392.06C209.182 392.32 209.251 392.538 209.389 392.717C209.534 392.895 209.745 393.028 210.021 393.118C210.296 393.207 210.616 393.251 210.981 393.251C211.215 393.251 211.422 393.239 211.6 393.215C211.787 393.182 211.949 393.142 212.086 393.093C212.232 393.037 212.35 392.972 212.439 392.899C212.536 392.826 212.605 392.741 212.645 392.644C212.694 392.546 212.718 392.437 212.718 392.316C212.718 392.097 212.645 391.919 212.499 391.781C212.362 391.643 212.167 391.526 211.916 391.428C211.673 391.331 211.398 391.242 211.09 391.161C210.782 391.08 210.466 390.999 210.142 390.918C209.818 390.829 209.502 390.724 209.194 390.602C208.886 390.472 208.611 390.319 208.368 390.14C208.125 389.962 207.93 389.735 207.785 389.46C207.639 389.184 207.566 388.852 207.566 388.463C207.566 388.05 207.651 387.694 207.821 387.394C207.999 387.094 208.246 386.847 208.562 386.653C208.878 386.458 209.243 386.317 209.656 386.227C210.069 386.13 210.519 386.082 211.005 386.082C211.458 386.082 211.888 386.13 212.293 386.227C212.698 386.317 213.054 386.462 213.362 386.665C213.67 386.867 213.909 387.123 214.079 387.43C214.257 387.738 214.347 388.103 214.347 388.524V388.67H212.585V388.573C212.585 388.354 212.52 388.168 212.39 388.014C212.261 387.86 212.078 387.738 211.843 387.649C211.608 387.56 211.333 387.516 211.017 387.516C210.677 387.516 210.385 387.548 210.142 387.613C209.907 387.678 209.725 387.775 209.595 387.904C209.474 388.026 209.413 388.172 209.413 388.342C209.413 388.536 209.482 388.698 209.62 388.828C209.765 388.949 209.96 389.059 210.203 389.156C210.454 389.245 210.733 389.326 211.041 389.399C211.349 389.472 211.665 389.553 211.989 389.642C212.313 389.731 212.629 389.837 212.937 389.958C213.245 390.08 213.52 390.233 213.763 390.42C214.006 390.598 214.201 390.821 214.347 391.088C214.492 391.356 214.565 391.676 214.565 392.048C214.565 392.688 214.411 393.203 214.104 393.591C213.796 393.98 213.374 394.264 212.84 394.442C212.305 394.62 211.693 394.709 211.005 394.709ZM218.393 394.564V386.227H220.204V393.02H224.408V394.564H218.393ZM227.116 394.709C226.905 394.709 226.679 394.685 226.435 394.637C226.201 394.588 225.978 394.503 225.767 394.381C225.557 394.252 225.382 394.069 225.245 393.834C225.115 393.591 225.05 393.284 225.05 392.911C225.05 392.465 225.147 392.097 225.342 391.805C225.536 391.513 225.812 391.287 226.168 391.125C226.533 390.954 226.966 390.837 227.468 390.772C227.971 390.707 228.526 390.675 229.133 390.675V390.201C229.133 390.015 229.101 389.853 229.036 389.715C228.979 389.577 228.874 389.468 228.72 389.387C228.574 389.306 228.368 389.265 228.1 389.265C227.833 389.265 227.614 389.298 227.444 389.363C227.282 389.427 227.165 389.512 227.092 389.618C227.027 389.715 226.994 389.824 226.994 389.946V390.092H225.354C225.346 390.051 225.342 390.015 225.342 389.982C225.342 389.942 225.342 389.893 225.342 389.837C225.342 389.464 225.455 389.144 225.682 388.877C225.909 388.601 226.229 388.39 226.642 388.245C227.055 388.099 227.537 388.026 228.088 388.026C228.68 388.026 229.174 388.103 229.571 388.257C229.976 388.411 230.284 388.638 230.494 388.937C230.713 389.237 230.822 389.614 230.822 390.067V392.972C230.822 393.118 230.863 393.227 230.944 393.3C231.033 393.365 231.13 393.397 231.235 393.397H231.636V394.503C231.555 394.543 231.43 394.584 231.26 394.624C231.09 394.673 230.883 394.697 230.64 394.697C230.405 394.697 230.194 394.661 230.008 394.588C229.83 394.523 229.68 394.43 229.559 394.308C229.437 394.179 229.352 394.025 229.303 393.847H229.218C229.081 394.017 228.91 394.167 228.708 394.296C228.513 394.426 228.283 394.527 228.015 394.6C227.756 394.673 227.456 394.709 227.116 394.709ZM227.687 393.433C227.914 393.433 228.116 393.401 228.295 393.336C228.473 393.263 228.623 393.17 228.744 393.057C228.866 392.935 228.959 392.789 229.024 392.619C229.097 392.449 229.133 392.267 229.133 392.072V391.72C228.68 391.72 228.274 391.752 227.918 391.817C227.562 391.874 227.278 391.975 227.067 392.121C226.865 392.267 226.764 392.469 226.764 392.729C226.764 392.874 226.8 393 226.873 393.105C226.946 393.211 227.051 393.292 227.189 393.348C227.327 393.405 227.493 393.433 227.687 393.433ZM232.476 394.564V388.172H233.873L234.007 389.168H234.092C234.173 388.958 234.278 388.767 234.408 388.597C234.538 388.419 234.7 388.277 234.894 388.172C235.089 388.066 235.315 388.014 235.575 388.014C235.712 388.014 235.838 388.03 235.951 388.062C236.065 388.087 236.15 388.111 236.207 388.135V389.666H235.684C235.433 389.666 235.21 389.703 235.016 389.776C234.829 389.841 234.671 389.946 234.542 390.092C234.412 390.238 234.315 390.416 234.25 390.626C234.193 390.837 234.165 391.084 234.165 391.368V394.564H232.476ZM238.137 396.848C237.854 396.848 237.586 396.787 237.335 396.666C237.084 396.552 236.882 396.382 236.728 396.155C236.574 395.929 236.497 395.657 236.497 395.341C236.497 394.985 236.598 394.701 236.801 394.491C237.011 394.272 237.246 394.11 237.505 394.005C237.319 393.899 237.165 393.762 237.044 393.591C236.93 393.421 236.873 393.223 236.873 392.996C236.873 392.68 236.987 392.425 237.214 392.23C237.449 392.028 237.716 391.898 238.016 391.842C237.716 391.655 237.481 391.42 237.311 391.137C237.149 390.845 237.068 390.521 237.068 390.165C237.068 389.703 237.181 389.314 237.408 388.998C237.643 388.682 237.975 388.443 238.405 388.281C238.842 388.111 239.356 388.026 239.948 388.026C240.183 388.026 240.402 388.038 240.604 388.062C240.815 388.087 241.005 388.127 241.175 388.184C241.475 388.006 241.677 387.811 241.783 387.601C241.896 387.382 241.957 387.208 241.965 387.078H243.533C243.533 387.378 243.476 387.637 243.363 387.856C243.257 388.075 243.103 388.257 242.901 388.403C242.698 388.54 242.455 388.642 242.172 388.706C242.382 388.885 242.544 389.099 242.658 389.35C242.771 389.602 242.828 389.873 242.828 390.165C242.828 390.618 242.718 391.007 242.5 391.331C242.281 391.647 241.969 391.89 241.564 392.06C241.167 392.23 240.689 392.316 240.13 392.316H239.158C238.964 392.316 238.818 392.352 238.721 392.425C238.623 392.49 238.575 392.587 238.575 392.717C238.575 392.822 238.615 392.915 238.696 392.996C238.785 393.069 238.927 393.105 239.122 393.105H241.783C242.317 393.105 242.743 393.271 243.059 393.604C243.383 393.928 243.545 394.345 243.545 394.855C243.545 395.244 243.444 395.588 243.241 395.888C243.038 396.188 242.759 396.423 242.403 396.593C242.046 396.763 241.637 396.848 241.175 396.848H238.137ZM238.842 395.718H241.09C241.236 395.718 241.366 395.69 241.479 395.633C241.592 395.584 241.682 395.511 241.746 395.414C241.811 395.325 241.844 395.22 241.844 395.098C241.844 394.888 241.779 394.73 241.649 394.624C241.52 394.519 241.357 394.466 241.163 394.466H238.842C238.648 394.466 238.486 394.523 238.356 394.637C238.234 394.75 238.174 394.9 238.174 395.086C238.174 395.272 238.234 395.422 238.356 395.536C238.486 395.657 238.648 395.718 238.842 395.718ZM239.948 391.222C240.345 391.222 240.645 391.133 240.847 390.954C241.058 390.768 241.163 390.505 241.163 390.165C241.163 389.824 241.058 389.565 240.847 389.387C240.645 389.201 240.345 389.107 239.948 389.107C239.559 389.107 239.259 389.201 239.049 389.387C238.846 389.565 238.745 389.824 238.745 390.165C238.745 390.383 238.789 390.574 238.879 390.736C238.968 390.898 239.101 391.019 239.28 391.1C239.458 391.181 239.681 391.222 239.948 391.222ZM247.378 394.709C246.673 394.709 246.082 394.592 245.604 394.357C245.126 394.114 244.765 393.745 244.522 393.251C244.279 392.757 244.158 392.129 244.158 391.368C244.158 390.598 244.279 389.97 244.522 389.484C244.765 388.99 245.122 388.625 245.591 388.39C246.069 388.147 246.653 388.026 247.341 388.026C247.989 388.026 248.536 388.143 248.982 388.378C249.427 388.605 249.764 388.962 249.99 389.448C250.217 389.926 250.331 390.545 250.331 391.307V391.744H245.871C245.887 392.117 245.944 392.433 246.041 392.692C246.146 392.951 246.304 393.146 246.515 393.276C246.734 393.397 247.021 393.458 247.378 393.458C247.572 393.458 247.746 393.433 247.9 393.385C248.062 393.336 248.2 393.263 248.313 393.166C248.427 393.069 248.516 392.947 248.581 392.802C248.646 392.656 248.678 392.49 248.678 392.303H250.331C250.331 392.708 250.258 393.061 250.112 393.361C249.966 393.66 249.764 393.911 249.504 394.114C249.245 394.308 248.933 394.458 248.569 394.564C248.212 394.661 247.815 394.709 247.378 394.709ZM245.895 390.675H248.593C248.593 390.432 248.561 390.221 248.496 390.043C248.439 389.865 248.358 389.719 248.253 389.606C248.147 389.492 248.018 389.411 247.864 389.363C247.718 389.306 247.552 389.278 247.366 389.278C247.058 389.278 246.799 389.33 246.588 389.436C246.385 389.533 246.227 389.687 246.114 389.897C246.009 390.1 245.936 390.359 245.895 390.675ZM256.762 394.709C256.082 394.709 255.511 394.592 255.049 394.357C254.587 394.114 254.235 393.745 253.992 393.251C253.757 392.749 253.639 392.121 253.639 391.368C253.639 390.598 253.757 389.97 253.992 389.484C254.235 388.99 254.587 388.621 255.049 388.378C255.519 388.135 256.09 388.014 256.762 388.014C257.2 388.014 257.593 388.066 257.941 388.172C258.298 388.277 258.605 388.439 258.865 388.658C259.124 388.877 259.318 389.148 259.448 389.472C259.586 389.788 259.654 390.165 259.654 390.602H257.965C257.965 390.31 257.921 390.071 257.832 389.885C257.743 389.699 257.605 389.557 257.419 389.46C257.24 389.363 257.013 389.314 256.738 389.314C256.414 389.314 256.151 389.387 255.948 389.533C255.746 389.679 255.596 389.893 255.499 390.177C255.401 390.46 255.353 390.813 255.353 391.234V391.513C255.353 391.927 255.401 392.275 255.499 392.559C255.604 392.842 255.762 393.057 255.972 393.203C256.183 393.34 256.459 393.409 256.799 393.409C257.074 393.409 257.301 393.361 257.479 393.263C257.666 393.166 257.807 393.02 257.905 392.826C258.002 392.631 258.05 392.397 258.05 392.121H259.654C259.654 392.534 259.586 392.903 259.448 393.227C259.318 393.551 259.124 393.822 258.865 394.041C258.613 394.26 258.31 394.426 257.953 394.539C257.597 394.653 257.2 394.709 256.762 394.709ZM262.61 394.709C262.4 394.709 262.173 394.685 261.93 394.637C261.695 394.588 261.472 394.503 261.261 394.381C261.051 394.252 260.877 394.069 260.739 393.834C260.609 393.591 260.544 393.284 260.544 392.911C260.544 392.465 260.642 392.097 260.836 391.805C261.031 391.513 261.306 391.287 261.662 391.125C262.027 390.954 262.46 390.837 262.963 390.772C263.465 390.707 264.02 390.675 264.628 390.675V390.201C264.628 390.015 264.595 389.853 264.53 389.715C264.474 389.577 264.368 389.468 264.214 389.387C264.069 389.306 263.862 389.265 263.595 389.265C263.327 389.265 263.109 389.298 262.938 389.363C262.776 389.427 262.659 389.512 262.586 389.618C262.521 389.715 262.489 389.824 262.489 389.946V390.092H260.848C260.84 390.051 260.836 390.015 260.836 389.982C260.836 389.942 260.836 389.893 260.836 389.837C260.836 389.464 260.95 389.144 261.176 388.877C261.403 388.601 261.723 388.39 262.136 388.245C262.55 388.099 263.032 388.026 263.582 388.026C264.174 388.026 264.668 388.103 265.065 388.257C265.47 388.411 265.778 388.638 265.989 388.937C266.207 389.237 266.317 389.614 266.317 390.067V392.972C266.317 393.118 266.357 393.227 266.438 393.3C266.527 393.365 266.624 393.397 266.73 393.397H267.131V394.503C267.05 394.543 266.924 394.584 266.754 394.624C266.584 394.673 266.377 394.697 266.134 394.697C265.899 394.697 265.689 394.661 265.502 394.588C265.324 394.523 265.174 394.43 265.053 394.308C264.931 394.179 264.846 394.025 264.798 393.847H264.713C264.575 394.017 264.405 394.167 264.202 394.296C264.008 394.426 263.777 394.527 263.51 394.6C263.25 394.673 262.951 394.709 262.61 394.709ZM263.181 393.433C263.408 393.433 263.611 393.401 263.789 393.336C263.967 393.263 264.117 393.17 264.239 393.057C264.36 392.935 264.453 392.789 264.518 392.619C264.591 392.449 264.628 392.267 264.628 392.072V391.72C264.174 391.72 263.769 391.752 263.412 391.817C263.056 391.874 262.772 391.975 262.562 392.121C262.359 392.267 262.258 392.469 262.258 392.729C262.258 392.874 262.294 393 262.367 393.105C262.44 393.211 262.545 393.292 262.683 393.348C262.821 393.405 262.987 393.433 263.181 393.433ZM267.97 396.727V388.172H269.356L269.501 389.035H269.586C269.797 388.686 270.072 388.431 270.413 388.269C270.753 388.107 271.13 388.026 271.543 388.026C272.078 388.026 272.535 388.143 272.916 388.378C273.305 388.613 273.601 388.978 273.803 389.472C274.014 389.966 274.119 390.602 274.119 391.38C274.119 392.133 274.014 392.757 273.803 393.251C273.592 393.745 273.297 394.114 272.916 394.357C272.543 394.592 272.106 394.709 271.604 394.709C271.328 394.709 271.073 394.677 270.838 394.612C270.603 394.555 270.392 394.462 270.206 394.333C270.02 394.203 269.862 394.045 269.732 393.859H269.659V396.727H267.97ZM271.02 393.324C271.361 393.324 271.628 393.259 271.822 393.13C272.025 392.992 272.171 392.789 272.26 392.522C272.349 392.247 272.393 391.91 272.393 391.513V391.234C272.393 390.829 272.349 390.493 272.26 390.225C272.171 389.95 272.025 389.747 271.822 389.618C271.628 389.48 271.361 389.411 271.02 389.411C270.704 389.411 270.445 389.484 270.243 389.63C270.04 389.776 269.89 389.986 269.793 390.262C269.696 390.537 269.647 390.869 269.647 391.258V391.465C269.647 391.748 269.676 392.008 269.732 392.243C269.789 392.469 269.87 392.664 269.975 392.826C270.089 392.988 270.23 393.113 270.401 393.203C270.571 393.284 270.777 393.324 271.02 393.324ZM279.401 394.564L277.02 388.172H278.806L279.742 390.869C279.79 391.007 279.847 391.189 279.912 391.416C279.985 391.643 280.058 391.882 280.13 392.133C280.203 392.384 280.264 392.611 280.313 392.814H280.373C280.43 392.627 280.491 392.413 280.556 392.17C280.621 391.919 280.685 391.68 280.75 391.453C280.823 391.218 280.884 391.023 280.932 390.869L281.868 388.172H283.569L281.175 394.564H279.401ZM286.983 394.709C286.537 394.709 286.136 394.661 285.78 394.564C285.423 394.466 285.119 394.333 284.868 394.163C284.617 393.984 284.423 393.774 284.285 393.531C284.155 393.288 284.09 393.012 284.09 392.704C284.09 392.672 284.09 392.64 284.09 392.607C284.09 392.575 284.094 392.55 284.103 392.534H285.731C285.731 392.55 285.731 392.567 285.731 392.583C285.731 392.599 285.731 392.615 285.731 392.631C285.739 392.834 285.804 393 285.925 393.13C286.047 393.251 286.205 393.34 286.399 393.397C286.602 393.454 286.812 393.482 287.031 393.482C287.226 393.482 287.412 393.466 287.59 393.433C287.776 393.393 287.93 393.324 288.052 393.227C288.182 393.13 288.246 393.004 288.246 392.85C288.246 392.656 288.165 392.506 288.003 392.401C287.849 392.295 287.643 392.21 287.384 392.145C287.132 392.081 286.857 392.008 286.557 391.927C286.282 391.862 286.006 391.789 285.731 391.708C285.455 391.619 285.204 391.505 284.977 391.368C284.759 391.23 284.581 391.052 284.443 390.833C284.305 390.606 284.236 390.323 284.236 389.982C284.236 389.65 284.309 389.363 284.455 389.12C284.601 388.868 284.799 388.662 285.05 388.5C285.31 388.338 285.609 388.22 285.95 388.147C286.298 388.066 286.671 388.026 287.068 388.026C287.44 388.026 287.789 388.066 288.113 388.147C288.437 388.22 288.72 388.334 288.963 388.488C289.206 388.633 289.397 388.82 289.534 389.047C289.672 389.265 289.741 389.512 289.741 389.788C289.741 389.845 289.741 389.897 289.741 389.946C289.741 389.995 289.737 390.027 289.729 390.043H288.113V389.946C288.113 389.8 288.068 389.679 287.979 389.581C287.89 389.476 287.76 389.395 287.59 389.338C287.428 389.282 287.23 389.253 286.995 389.253C286.833 389.253 286.683 389.265 286.545 389.29C286.415 389.314 286.302 389.35 286.205 389.399C286.108 389.448 286.031 389.508 285.974 389.581C285.925 389.646 285.901 389.727 285.901 389.824C285.901 389.962 285.958 390.076 286.071 390.165C286.193 390.246 286.351 390.315 286.545 390.371C286.74 390.428 286.954 390.489 287.189 390.553C287.481 390.635 287.785 390.716 288.101 390.797C288.425 390.869 288.724 390.971 289 391.1C289.275 391.23 289.498 391.416 289.668 391.659C289.838 391.894 289.923 392.214 289.923 392.619C289.923 393.008 289.846 393.336 289.692 393.604C289.547 393.871 289.34 394.086 289.073 394.248C288.805 394.41 288.493 394.527 288.137 394.6C287.781 394.673 287.396 394.709 286.983 394.709ZM296.922 394.709C296.436 394.709 295.974 394.661 295.537 394.564C295.099 394.466 294.711 394.312 294.37 394.102C294.038 393.883 293.775 393.612 293.58 393.288C293.394 392.956 293.301 392.554 293.301 392.085C293.301 392.044 293.301 392.004 293.301 391.963C293.301 391.914 293.305 391.878 293.313 391.854H295.112C295.103 391.878 295.099 391.91 295.099 391.951C295.099 391.991 295.099 392.028 295.099 392.06C295.099 392.32 295.168 392.538 295.306 392.717C295.452 392.895 295.662 393.028 295.938 393.118C296.213 393.207 296.533 393.251 296.898 393.251C297.133 393.251 297.339 393.239 297.518 393.215C297.704 393.182 297.866 393.142 298.004 393.093C298.15 393.037 298.267 392.972 298.356 392.899C298.453 392.826 298.522 392.741 298.563 392.644C298.611 392.546 298.636 392.437 298.636 392.316C298.636 392.097 298.563 391.919 298.417 391.781C298.279 391.643 298.085 391.526 297.834 391.428C297.591 391.331 297.315 391.242 297.007 391.161C296.699 391.08 296.383 390.999 296.059 390.918C295.735 390.829 295.419 390.724 295.112 390.602C294.804 390.472 294.528 390.319 294.285 390.14C294.042 389.962 293.848 389.735 293.702 389.46C293.556 389.184 293.483 388.852 293.483 388.463C293.483 388.05 293.568 387.694 293.738 387.394C293.917 387.094 294.164 386.847 294.48 386.653C294.796 386.458 295.16 386.317 295.573 386.227C295.986 386.13 296.436 386.082 296.922 386.082C297.376 386.082 297.805 386.13 298.21 386.227C298.615 386.317 298.972 386.462 299.28 386.665C299.587 386.867 299.826 387.123 299.997 387.43C300.175 387.738 300.264 388.103 300.264 388.524V388.67H298.502V388.573C298.502 388.354 298.437 388.168 298.307 388.014C298.178 387.86 297.996 387.738 297.761 387.649C297.526 387.56 297.25 387.516 296.934 387.516C296.594 387.516 296.302 387.548 296.059 387.613C295.824 387.678 295.642 387.775 295.513 387.904C295.391 388.026 295.33 388.172 295.33 388.342C295.33 388.536 295.399 388.698 295.537 388.828C295.683 388.949 295.877 389.059 296.12 389.156C296.371 389.245 296.651 389.326 296.959 389.399C297.266 389.472 297.582 389.553 297.906 389.642C298.231 389.731 298.546 389.837 298.854 389.958C299.162 390.08 299.438 390.233 299.681 390.42C299.924 390.598 300.118 390.821 300.264 391.088C300.41 391.356 300.483 391.676 300.483 392.048C300.483 392.688 300.329 393.203 300.021 393.591C299.713 393.98 299.292 394.264 298.757 394.442C298.222 394.62 297.611 394.709 296.922 394.709ZM301.779 394.564V388.172H303.177L303.311 389.047H303.396C303.533 388.836 303.695 388.654 303.882 388.5C304.076 388.346 304.291 388.228 304.526 388.147C304.769 388.066 305.028 388.026 305.303 388.026C305.709 388.026 306.057 388.107 306.349 388.269C306.648 388.431 306.879 388.69 307.041 389.047H307.126C307.264 388.836 307.43 388.654 307.624 388.5C307.819 388.346 308.042 388.228 308.293 388.147C308.544 388.066 308.811 388.026 309.095 388.026C309.5 388.026 309.848 388.099 310.14 388.245C310.44 388.39 310.675 388.629 310.845 388.962C311.015 389.286 311.1 389.707 311.1 390.225V394.564H309.411V390.529C309.411 390.327 309.386 390.157 309.338 390.019C309.297 389.873 309.237 389.76 309.156 389.679C309.075 389.589 308.973 389.525 308.852 389.484C308.73 389.444 308.601 389.423 308.463 389.423C308.236 389.423 308.034 389.484 307.855 389.606C307.677 389.727 307.535 389.893 307.43 390.104C307.333 390.315 307.284 390.558 307.284 390.833V394.564H305.595V390.529C305.595 390.327 305.571 390.157 305.522 390.019C305.482 389.873 305.421 389.76 305.34 389.679C305.259 389.589 305.158 389.525 305.036 389.484C304.923 389.444 304.793 389.423 304.647 389.423C304.429 389.423 304.226 389.484 304.04 389.606C303.861 389.727 303.72 389.893 303.614 390.104C303.517 390.315 303.469 390.558 303.469 390.833V394.564H301.779ZM314.291 394.709C314.081 394.709 313.854 394.685 313.611 394.637C313.376 394.588 313.153 394.503 312.942 394.381C312.732 394.252 312.558 394.069 312.42 393.834C312.29 393.591 312.225 393.284 312.225 392.911C312.225 392.465 312.323 392.097 312.517 391.805C312.712 391.513 312.987 391.287 313.343 391.125C313.708 390.954 314.141 390.837 314.644 390.772C315.146 390.707 315.701 390.675 316.308 390.675V390.201C316.308 390.015 316.276 389.853 316.211 389.715C316.155 389.577 316.049 389.468 315.895 389.387C315.749 389.306 315.543 389.265 315.276 389.265C315.008 389.265 314.789 389.298 314.619 389.363C314.457 389.427 314.34 389.512 314.267 389.618C314.202 389.715 314.17 389.824 314.17 389.946V390.092H312.529C312.521 390.051 312.517 390.015 312.517 389.982C312.517 389.942 312.517 389.893 312.517 389.837C312.517 389.464 312.631 389.144 312.857 388.877C313.084 388.601 313.404 388.39 313.817 388.245C314.231 388.099 314.713 388.026 315.263 388.026C315.855 388.026 316.349 388.103 316.746 388.257C317.151 388.411 317.459 388.638 317.669 388.937C317.888 389.237 317.998 389.614 317.998 390.067V392.972C317.998 393.118 318.038 393.227 318.119 393.3C318.208 393.365 318.305 393.397 318.411 393.397H318.812V394.503C318.731 394.543 318.605 394.584 318.435 394.624C318.265 394.673 318.058 394.697 317.815 394.697C317.58 394.697 317.37 394.661 317.183 394.588C317.005 394.523 316.855 394.43 316.734 394.308C316.612 394.179 316.527 394.025 316.479 393.847H316.394C316.256 394.017 316.086 394.167 315.883 394.296C315.689 394.426 315.458 394.527 315.191 394.6C314.931 394.673 314.632 394.709 314.291 394.709ZM314.862 393.433C315.089 393.433 315.292 393.401 315.47 393.336C315.648 393.263 315.798 393.17 315.92 393.057C316.041 392.935 316.134 392.789 316.199 392.619C316.272 392.449 316.308 392.267 316.308 392.072V391.72C315.855 391.72 315.45 391.752 315.093 391.817C314.737 391.874 314.453 391.975 314.243 392.121C314.04 392.267 313.939 392.469 313.939 392.729C313.939 392.874 313.975 393 314.048 393.105C314.121 393.211 314.226 393.292 314.364 393.348C314.502 393.405 314.668 393.433 314.862 393.433ZM319.651 394.564V385.778H321.34V394.564H319.651ZM322.891 394.564V385.778H324.58V394.564H322.891ZM331.323 394.709C330.642 394.709 330.071 394.592 329.61 394.357C329.148 394.114 328.795 393.745 328.552 393.251C328.317 392.749 328.2 392.121 328.2 391.368C328.2 390.598 328.317 389.97 328.552 389.484C328.795 388.99 329.148 388.621 329.61 388.378C330.079 388.135 330.651 388.014 331.323 388.014C331.76 388.014 332.153 388.066 332.502 388.172C332.858 388.277 333.166 388.439 333.425 388.658C333.684 388.877 333.879 389.148 334.008 389.472C334.146 389.788 334.215 390.165 334.215 390.602H332.526C332.526 390.31 332.481 390.071 332.392 389.885C332.303 389.699 332.165 389.557 331.979 389.46C331.801 389.363 331.574 389.314 331.299 389.314C330.975 389.314 330.711 389.387 330.509 389.533C330.306 389.679 330.156 389.893 330.059 390.177C329.962 390.46 329.913 390.813 329.913 391.234V391.513C329.913 391.927 329.962 392.275 330.059 392.559C330.164 392.842 330.322 393.057 330.533 393.203C330.744 393.34 331.019 393.409 331.359 393.409C331.635 393.409 331.862 393.361 332.04 393.263C332.226 393.166 332.368 393.02 332.465 392.826C332.562 392.631 332.611 392.397 332.611 392.121H334.215C334.215 392.534 334.146 392.903 334.008 393.227C333.879 393.551 333.684 393.822 333.425 394.041C333.174 394.26 332.87 394.426 332.514 394.539C332.157 394.653 331.76 394.709 331.323 394.709ZM337.171 394.709C336.96 394.709 336.733 394.685 336.49 394.637C336.255 394.588 336.033 394.503 335.822 394.381C335.611 394.252 335.437 394.069 335.3 393.834C335.17 393.591 335.105 393.284 335.105 392.911C335.105 392.465 335.202 392.097 335.397 391.805C335.591 391.513 335.867 391.287 336.223 391.125C336.588 390.954 337.021 390.837 337.523 390.772C338.026 390.707 338.581 390.675 339.188 390.675V390.201C339.188 390.015 339.156 389.853 339.091 389.715C339.034 389.577 338.929 389.468 338.775 389.387C338.629 389.306 338.423 389.265 338.155 389.265C337.888 389.265 337.669 389.298 337.499 389.363C337.337 389.427 337.22 389.512 337.147 389.618C337.082 389.715 337.049 389.824 337.049 389.946V390.092H335.409C335.401 390.051 335.397 390.015 335.397 389.982C335.397 389.942 335.397 389.893 335.397 389.837C335.397 389.464 335.51 389.144 335.737 388.877C335.964 388.601 336.284 388.39 336.697 388.245C337.11 388.099 337.592 388.026 338.143 388.026C338.734 388.026 339.229 388.103 339.626 388.257C340.031 388.411 340.338 388.638 340.549 388.937C340.768 389.237 340.877 389.614 340.877 390.067V392.972C340.877 393.118 340.918 393.227 340.999 393.3C341.088 393.365 341.185 393.397 341.29 393.397H341.691V394.503C341.61 394.543 341.485 394.584 341.315 394.624C341.145 394.673 340.938 394.697 340.695 394.697C340.46 394.697 340.249 394.661 340.063 394.588C339.885 394.523 339.735 394.43 339.613 394.308C339.492 394.179 339.407 394.025 339.358 393.847H339.273C339.135 394.017 338.965 394.167 338.763 394.296C338.568 394.426 338.337 394.527 338.07 394.6C337.811 394.673 337.511 394.709 337.171 394.709ZM337.742 393.433C337.969 393.433 338.171 393.401 338.35 393.336C338.528 393.263 338.678 393.17 338.799 393.057C338.921 392.935 339.014 392.789 339.079 392.619C339.152 392.449 339.188 392.267 339.188 392.072V391.72C338.734 391.72 338.329 391.752 337.973 391.817C337.616 391.874 337.333 391.975 337.122 392.121C336.92 392.267 336.819 392.469 336.819 392.729C336.819 392.874 336.855 393 336.928 393.105C337.001 393.211 337.106 393.292 337.244 393.348C337.382 393.405 337.548 393.433 337.742 393.433ZM342.531 396.727V388.172H343.916L344.062 389.035H344.147C344.358 388.686 344.633 388.431 344.973 388.269C345.314 388.107 345.69 388.026 346.103 388.026C346.638 388.026 347.096 388.143 347.477 388.378C347.865 388.613 348.161 388.978 348.364 389.472C348.574 389.966 348.68 390.602 348.68 391.38C348.68 392.133 348.574 392.757 348.364 393.251C348.153 393.745 347.857 394.114 347.477 394.357C347.104 394.592 346.667 394.709 346.164 394.709C345.889 394.709 345.634 394.677 345.399 394.612C345.164 394.555 344.953 394.462 344.767 394.333C344.58 394.203 344.422 394.045 344.293 393.859H344.22V396.727H342.531ZM345.581 393.324C345.921 393.324 346.189 393.259 346.383 393.13C346.585 392.992 346.731 392.789 346.82 392.522C346.91 392.247 346.954 391.91 346.954 391.513V391.234C346.954 390.829 346.91 390.493 346.82 390.225C346.731 389.95 346.585 389.747 346.383 389.618C346.189 389.48 345.921 389.411 345.581 389.411C345.265 389.411 345.006 389.484 344.803 389.63C344.601 389.776 344.451 389.986 344.354 390.262C344.256 390.537 344.208 390.869 344.208 391.258V391.465C344.208 391.748 344.236 392.008 344.293 392.243C344.35 392.469 344.431 392.664 344.536 392.826C344.649 392.988 344.791 393.113 344.961 393.203C345.131 393.284 345.338 393.324 345.581 393.324Z" fill="#111827"/>
<path d="M419.726 394.184C419.146 394.184 418.646 394.09 418.226 393.904C417.806 393.717 417.483 393.424 417.256 393.024C417.036 392.617 416.926 392.097 416.926 391.464V387.205H417.876V391.564C417.876 392.164 418.036 392.614 418.356 392.914C418.682 393.214 419.139 393.364 419.726 393.364C420.319 393.364 420.782 393.214 421.115 392.914C421.448 392.614 421.615 392.164 421.615 391.564V387.205H422.555V391.464C422.555 392.097 422.442 392.617 422.215 393.024C421.988 393.424 421.662 393.717 421.235 393.904C420.815 394.09 420.312 394.184 419.726 394.184ZM424.089 395.793V388.805H424.789L424.879 389.555H424.949C425.129 389.261 425.359 389.045 425.639 388.905C425.919 388.758 426.235 388.685 426.588 388.685C427.028 388.685 427.401 388.782 427.708 388.975C428.015 389.168 428.251 389.471 428.418 389.885C428.585 390.291 428.668 390.821 428.668 391.474C428.668 392.087 428.581 392.597 428.408 393.004C428.241 393.404 428.005 393.7 427.698 393.894C427.391 394.087 427.035 394.184 426.628 394.184C426.402 394.184 426.188 394.157 425.988 394.104C425.789 394.05 425.609 393.967 425.449 393.854C425.289 393.734 425.149 393.584 425.029 393.404H424.969V395.793H424.089ZM426.348 393.414C426.675 393.414 426.942 393.35 427.148 393.224C427.355 393.091 427.508 392.887 427.608 392.614C427.708 392.334 427.758 391.977 427.758 391.544V391.334C427.758 390.874 427.705 390.508 427.598 390.235C427.491 389.955 427.335 389.755 427.128 389.635C426.928 389.515 426.678 389.455 426.378 389.455C426.052 389.455 425.782 389.528 425.569 389.675C425.362 389.815 425.209 390.028 425.109 390.315C425.015 390.601 424.969 390.951 424.969 391.364V391.514C424.969 391.881 425.002 392.187 425.069 392.434C425.142 392.674 425.242 392.867 425.369 393.014C425.502 393.16 425.652 393.264 425.819 393.324C425.985 393.384 426.162 393.414 426.348 393.414ZM431.551 394.184C431.118 394.184 430.744 394.087 430.431 393.894C430.125 393.7 429.885 393.4 429.711 392.994C429.545 392.581 429.461 392.047 429.461 391.394C429.461 390.774 429.548 390.265 429.721 389.865C429.895 389.465 430.135 389.168 430.441 388.975C430.748 388.782 431.104 388.685 431.511 388.685C431.744 388.685 431.961 388.712 432.161 388.765C432.361 388.818 432.537 388.902 432.691 389.015C432.851 389.128 432.991 389.278 433.111 389.465H433.171V386.835H434.05V394.064H433.341L433.261 393.314H433.191C433.011 393.607 432.777 393.827 432.491 393.974C432.204 394.114 431.891 394.184 431.551 394.184ZM431.761 393.414C432.094 393.414 432.364 393.34 432.571 393.194C432.777 393.047 432.927 392.834 433.021 392.554C433.121 392.274 433.171 391.927 433.171 391.514V391.354C433.171 390.994 433.134 390.691 433.061 390.444C432.987 390.198 432.887 390.001 432.761 389.855C432.634 389.708 432.487 389.605 432.321 389.545C432.154 389.485 431.978 389.455 431.791 389.455C431.464 389.455 431.198 389.521 430.991 389.655C430.784 389.781 430.631 389.985 430.531 390.265C430.431 390.538 430.381 390.894 430.381 391.334V391.544C430.381 391.997 430.435 392.364 430.541 392.644C430.648 392.917 430.801 393.114 431.001 393.234C431.208 393.354 431.461 393.414 431.761 393.414ZM436.754 394.184C436.56 394.184 436.367 394.16 436.174 394.114C435.98 394.067 435.8 393.99 435.634 393.884C435.467 393.777 435.334 393.63 435.234 393.444C435.134 393.25 435.084 393.011 435.084 392.724C435.084 392.364 435.171 392.067 435.344 391.834C435.517 391.601 435.757 391.421 436.064 391.294C436.377 391.161 436.747 391.071 437.173 391.024C437.6 390.971 438.063 390.944 438.563 390.944V390.344C438.563 390.151 438.53 389.985 438.463 389.845C438.396 389.705 438.277 389.598 438.103 389.525C437.937 389.445 437.697 389.405 437.383 389.405C437.083 389.405 436.844 389.445 436.664 389.525C436.49 389.598 436.367 389.695 436.294 389.815C436.227 389.935 436.194 390.068 436.194 390.215V390.364H435.344C435.337 390.331 435.334 390.298 435.334 390.265C435.334 390.231 435.334 390.191 435.334 390.145C435.334 389.825 435.421 389.558 435.594 389.345C435.774 389.125 436.024 388.961 436.344 388.855C436.664 388.742 437.03 388.685 437.443 388.685C437.883 388.685 438.25 388.748 438.543 388.875C438.843 389.001 439.066 389.181 439.213 389.415C439.366 389.648 439.443 389.928 439.443 390.255V393.104C439.443 393.23 439.473 393.32 439.533 393.374C439.593 393.42 439.666 393.444 439.753 393.444H440.143V394.024C440.049 394.064 439.946 394.097 439.833 394.124C439.719 394.157 439.59 394.174 439.443 394.174C439.27 394.174 439.126 394.137 439.013 394.064C438.9 393.997 438.813 393.904 438.753 393.784C438.693 393.657 438.653 393.517 438.633 393.364H438.563C438.443 393.53 438.29 393.677 438.103 393.804C437.923 393.924 437.72 394.017 437.493 394.084C437.267 394.15 437.02 394.184 436.754 394.184ZM436.973 393.444C437.187 393.444 437.387 393.41 437.573 393.344C437.767 393.277 437.937 393.184 438.083 393.064C438.23 392.937 438.346 392.787 438.433 392.614C438.52 392.441 438.563 392.251 438.563 392.044V391.604C438.023 391.604 437.563 391.634 437.183 391.694C436.804 391.754 436.51 391.861 436.304 392.014C436.104 392.167 436.004 392.384 436.004 392.664C436.004 392.844 436.044 392.991 436.124 393.104C436.204 393.217 436.317 393.304 436.464 393.364C436.61 393.417 436.78 393.444 436.973 393.444ZM442.111 394.184C441.838 394.184 441.625 394.134 441.472 394.034C441.318 393.927 441.208 393.79 441.142 393.624C441.075 393.45 441.042 393.267 441.042 393.074V389.545H440.362V388.805H441.062L441.222 387.335H441.922V388.805H442.911V389.545H441.922V392.944C441.922 393.11 441.952 393.237 442.011 393.324C442.071 393.404 442.185 393.444 442.351 393.444H442.911V394.024C442.845 394.057 442.765 394.084 442.671 394.104C442.578 394.124 442.481 394.14 442.381 394.154C442.288 394.174 442.198 394.184 442.111 394.184ZM445.949 394.184C445.429 394.184 444.99 394.087 444.63 393.894C444.276 393.694 444.006 393.39 443.82 392.984C443.64 392.577 443.55 392.061 443.55 391.434C443.55 390.801 443.64 390.285 443.82 389.885C444.006 389.478 444.28 389.178 444.64 388.985C445 388.785 445.449 388.685 445.989 388.685C446.482 388.685 446.896 388.782 447.229 388.975C447.562 389.161 447.812 389.445 447.979 389.825C448.152 390.198 448.239 390.668 448.239 391.234V391.654H444.46C444.473 392.074 444.533 392.421 444.64 392.694C444.753 392.961 444.92 393.157 445.139 393.284C445.359 393.404 445.636 393.464 445.969 393.464C446.196 393.464 446.393 393.437 446.559 393.384C446.732 393.324 446.876 393.24 446.989 393.134C447.109 393.027 447.199 392.901 447.259 392.754C447.319 392.607 447.352 392.447 447.359 392.274H448.219C448.212 392.554 448.159 392.814 448.059 393.054C447.959 393.287 447.812 393.487 447.619 393.654C447.426 393.82 447.189 393.95 446.909 394.044C446.629 394.137 446.309 394.184 445.949 394.184ZM444.48 390.994H447.329C447.329 390.701 447.296 390.454 447.229 390.255C447.162 390.055 447.066 389.891 446.939 389.765C446.819 389.638 446.676 389.548 446.509 389.495C446.349 389.435 446.166 389.405 445.959 389.405C445.653 389.405 445.393 389.461 445.179 389.575C444.966 389.688 444.803 389.861 444.69 390.095C444.576 390.328 444.506 390.628 444.48 390.994ZM451.117 394.184C450.683 394.184 450.31 394.087 449.997 393.894C449.69 393.7 449.45 393.4 449.277 392.994C449.11 392.581 449.027 392.047 449.027 391.394C449.027 390.774 449.114 390.265 449.287 389.865C449.46 389.465 449.7 389.168 450.007 388.975C450.313 388.782 450.67 388.685 451.077 388.685C451.31 388.685 451.526 388.712 451.726 388.765C451.926 388.818 452.103 388.902 452.256 389.015C452.416 389.128 452.556 389.278 452.676 389.465H452.736V386.835H453.616V394.064H452.906L452.826 393.314H452.756C452.576 393.607 452.343 393.827 452.056 393.974C451.77 394.114 451.456 394.184 451.117 394.184ZM451.326 393.414C451.66 393.414 451.93 393.34 452.136 393.194C452.343 393.047 452.493 392.834 452.586 392.554C452.686 392.274 452.736 391.927 452.736 391.514V391.354C452.736 390.994 452.7 390.691 452.626 390.444C452.553 390.198 452.453 390.001 452.326 389.855C452.2 389.708 452.053 389.605 451.886 389.545C451.72 389.485 451.543 389.455 451.356 389.455C451.03 389.455 450.763 389.521 450.557 389.655C450.35 389.781 450.197 389.985 450.097 390.265C449.997 390.538 449.947 390.894 449.947 391.334V391.544C449.947 391.997 450 392.364 450.107 392.644C450.213 392.917 450.367 393.114 450.567 393.234C450.773 393.354 451.027 393.414 451.326 393.414ZM459.298 394.184C458.818 394.184 458.398 394.094 458.039 393.914C457.679 393.734 457.399 393.477 457.199 393.144C456.999 392.804 456.899 392.401 456.899 391.934H457.789C457.789 392.247 457.855 392.517 457.989 392.744C458.122 392.971 458.302 393.144 458.528 393.264C458.762 393.384 459.018 393.444 459.298 393.444C459.585 393.444 459.838 393.387 460.058 393.274C460.278 393.154 460.448 392.974 460.568 392.734C460.695 392.494 460.758 392.191 460.758 391.824C460.758 391.491 460.701 391.218 460.588 391.004C460.475 390.784 460.311 390.621 460.098 390.514C459.891 390.408 459.651 390.354 459.378 390.354C459.178 390.354 458.988 390.388 458.808 390.454C458.628 390.514 458.465 390.601 458.318 390.714C458.179 390.828 458.062 390.968 457.969 391.134L457.139 391.004L457.429 387.205H461.318V388.025H458.199L458.039 390.165C458.152 390.065 458.278 389.975 458.418 389.895C458.565 389.808 458.732 389.741 458.918 389.695C459.105 389.641 459.318 389.615 459.558 389.615C459.951 389.615 460.308 389.691 460.628 389.845C460.948 389.998 461.201 390.235 461.388 390.554C461.574 390.874 461.668 391.288 461.668 391.794C461.668 392.294 461.571 392.724 461.378 393.084C461.191 393.444 460.921 393.717 460.568 393.904C460.215 394.09 459.791 394.184 459.298 394.184ZM466.679 394.184C466.246 394.184 465.873 394.087 465.559 393.894C465.253 393.7 465.013 393.4 464.84 392.994C464.673 392.581 464.59 392.047 464.59 391.394C464.59 390.774 464.676 390.265 464.85 389.865C465.023 389.465 465.263 389.168 465.569 388.975C465.876 388.782 466.233 388.685 466.639 388.685C466.872 388.685 467.089 388.712 467.289 388.765C467.489 388.818 467.666 388.902 467.819 389.015C467.979 389.128 468.119 389.278 468.239 389.465H468.299V386.835H469.179V394.064H468.469L468.389 393.314H468.319C468.139 393.607 467.906 393.827 467.619 393.974C467.332 394.114 467.019 394.184 466.679 394.184ZM466.889 393.414C467.222 393.414 467.492 393.34 467.699 393.194C467.906 393.047 468.056 392.834 468.149 392.554C468.249 392.274 468.299 391.927 468.299 391.514V391.354C468.299 390.994 468.262 390.691 468.189 390.444C468.116 390.198 468.016 390.001 467.889 389.855C467.762 389.708 467.616 389.605 467.449 389.545C467.282 389.485 467.106 389.455 466.919 389.455C466.593 389.455 466.326 389.521 466.119 389.655C465.913 389.781 465.759 389.985 465.659 390.265C465.559 390.538 465.509 390.894 465.509 391.334V391.544C465.509 391.997 465.563 392.364 465.669 392.644C465.776 392.917 465.929 393.114 466.129 393.234C466.336 393.354 466.589 393.414 466.889 393.414ZM471.882 394.184C471.688 394.184 471.495 394.16 471.302 394.114C471.109 394.067 470.929 393.99 470.762 393.884C470.595 393.777 470.462 393.63 470.362 393.444C470.262 393.25 470.212 393.011 470.212 392.724C470.212 392.364 470.299 392.067 470.472 391.834C470.645 391.601 470.885 391.421 471.192 391.294C471.505 391.161 471.875 391.071 472.302 391.024C472.728 390.971 473.191 390.944 473.691 390.944V390.344C473.691 390.151 473.658 389.985 473.591 389.845C473.525 389.705 473.405 389.598 473.231 389.525C473.065 389.445 472.825 389.405 472.512 389.405C472.212 389.405 471.972 389.445 471.792 389.525C471.618 389.598 471.495 389.695 471.422 389.815C471.355 389.935 471.322 390.068 471.322 390.215V390.364H470.472C470.465 390.331 470.462 390.298 470.462 390.265C470.462 390.231 470.462 390.191 470.462 390.145C470.462 389.825 470.549 389.558 470.722 389.345C470.902 389.125 471.152 388.961 471.472 388.855C471.792 388.742 472.158 388.685 472.572 388.685C473.011 388.685 473.378 388.748 473.671 388.875C473.971 389.001 474.195 389.181 474.341 389.415C474.494 389.648 474.571 389.928 474.571 390.255V393.104C474.571 393.23 474.601 393.32 474.661 393.374C474.721 393.42 474.794 393.444 474.881 393.444H475.271V394.024C475.178 394.064 475.074 394.097 474.961 394.124C474.848 394.157 474.718 394.174 474.571 394.174C474.398 394.174 474.255 394.137 474.141 394.064C474.028 393.997 473.941 393.904 473.881 393.784C473.821 393.657 473.781 393.517 473.761 393.364H473.691C473.571 393.53 473.418 393.677 473.231 393.804C473.051 393.924 472.848 394.017 472.622 394.084C472.395 394.15 472.148 394.184 471.882 394.184ZM472.102 393.444C472.315 393.444 472.515 393.41 472.702 393.344C472.895 393.277 473.065 393.184 473.211 393.064C473.358 392.937 473.475 392.787 473.561 392.614C473.648 392.441 473.691 392.251 473.691 392.044V391.604C473.151 391.604 472.692 391.634 472.312 391.694C471.932 391.754 471.638 391.861 471.432 392.014C471.232 392.167 471.132 392.384 471.132 392.664C471.132 392.844 471.172 392.991 471.252 393.104C471.332 393.217 471.445 393.304 471.592 393.364C471.738 393.417 471.908 393.444 472.102 393.444ZM476.46 395.883C476.3 395.883 476.16 395.87 476.04 395.843C475.927 395.823 475.85 395.81 475.81 395.803V395.163H476.25C476.41 395.163 476.567 395.13 476.72 395.063C476.873 394.997 477.016 394.883 477.15 394.723C477.283 394.563 477.396 394.344 477.49 394.064L475.45 388.805H476.37L477.42 391.514C477.466 391.641 477.52 391.797 477.58 391.984C477.646 392.164 477.71 392.351 477.77 392.544C477.836 392.737 477.89 392.907 477.93 393.054H477.99C478.016 392.947 478.049 392.827 478.089 392.694C478.129 392.561 478.169 392.424 478.209 392.284C478.256 392.137 478.299 392.001 478.339 391.874C478.386 391.741 478.423 391.624 478.449 391.524L479.339 388.805H480.229L478.449 393.914C478.349 394.2 478.239 394.464 478.119 394.703C478 394.95 477.866 395.16 477.72 395.333C477.573 395.507 477.396 395.64 477.19 395.733C476.983 395.833 476.74 395.883 476.46 395.883ZM482.887 394.184C482.527 394.184 482.211 394.147 481.938 394.074C481.664 394 481.438 393.894 481.258 393.754C481.078 393.614 480.941 393.447 480.848 393.254C480.755 393.061 480.708 392.841 480.708 392.594C480.708 392.561 480.708 392.531 480.708 392.504C480.708 392.471 480.711 392.444 480.718 392.424H481.588C481.581 392.451 481.578 392.474 481.578 392.494C481.578 392.514 481.578 392.534 481.578 392.554C481.584 392.787 481.644 392.971 481.758 393.104C481.878 393.237 482.041 393.33 482.248 393.384C482.454 393.437 482.684 393.464 482.937 393.464C483.157 393.464 483.361 393.437 483.547 393.384C483.734 393.324 483.88 393.237 483.987 393.124C484.1 393.004 484.157 392.854 484.157 392.674C484.157 392.454 484.084 392.287 483.937 392.174C483.797 392.054 483.611 391.961 483.377 391.894C483.144 391.827 482.901 391.757 482.647 391.684C482.434 391.624 482.221 391.558 482.008 391.484C481.794 391.411 481.601 391.321 481.428 391.214C481.261 391.108 481.124 390.971 481.018 390.804C480.918 390.631 480.868 390.414 480.868 390.155C480.868 389.921 480.915 389.715 481.008 389.535C481.108 389.355 481.248 389.201 481.428 389.075C481.608 388.948 481.824 388.855 482.078 388.795C482.338 388.728 482.624 388.695 482.937 388.695C483.271 388.695 483.561 388.732 483.807 388.805C484.06 388.878 484.27 388.981 484.437 389.115C484.604 389.248 484.727 389.401 484.807 389.575C484.887 389.741 484.927 389.921 484.927 390.115C484.927 390.155 484.927 390.195 484.927 390.235C484.927 390.268 484.924 390.295 484.917 390.315H484.057V390.205C484.057 390.071 484.02 389.945 483.947 389.825C483.88 389.698 483.761 389.598 483.587 389.525C483.421 389.445 483.187 389.405 482.887 389.405C482.694 389.405 482.527 389.421 482.388 389.455C482.248 389.481 482.131 389.528 482.038 389.595C481.944 389.655 481.874 389.728 481.828 389.815C481.781 389.895 481.758 389.988 481.758 390.095C481.758 390.268 481.814 390.401 481.928 390.494C482.041 390.588 482.191 390.664 482.378 390.724C482.571 390.784 482.777 390.851 482.997 390.924C483.231 390.991 483.467 391.061 483.707 391.134C483.954 391.201 484.177 391.288 484.377 391.394C484.584 391.501 484.747 391.648 484.867 391.834C484.994 392.014 485.057 392.254 485.057 392.554C485.057 392.834 485.004 393.077 484.897 393.284C484.79 393.49 484.637 393.66 484.437 393.794C484.244 393.927 484.014 394.024 483.747 394.084C483.487 394.15 483.201 394.184 482.887 394.184ZM489.553 394.184C489.36 394.184 489.167 394.16 488.973 394.114C488.78 394.067 488.6 393.99 488.434 393.884C488.267 393.777 488.134 393.63 488.034 393.444C487.934 393.25 487.884 393.011 487.884 392.724C487.884 392.364 487.97 392.067 488.144 391.834C488.317 391.601 488.557 391.421 488.863 391.294C489.177 391.161 489.547 391.071 489.973 391.024C490.4 390.971 490.863 390.944 491.363 390.944V390.344C491.363 390.151 491.33 389.985 491.263 389.845C491.196 389.705 491.076 389.598 490.903 389.525C490.736 389.445 490.496 389.405 490.183 389.405C489.883 389.405 489.643 389.445 489.463 389.525C489.29 389.598 489.167 389.695 489.093 389.815C489.027 389.935 488.993 390.068 488.993 390.215V390.364H488.144C488.137 390.331 488.134 390.298 488.134 390.265C488.134 390.231 488.134 390.191 488.134 390.145C488.134 389.825 488.22 389.558 488.394 389.345C488.574 389.125 488.823 388.961 489.143 388.855C489.463 388.742 489.83 388.685 490.243 388.685C490.683 388.685 491.05 388.748 491.343 388.875C491.643 389.001 491.866 389.181 492.013 389.415C492.166 389.648 492.243 389.928 492.243 390.255V393.104C492.243 393.23 492.273 393.32 492.333 393.374C492.393 393.42 492.466 393.444 492.553 393.444H492.942V394.024C492.849 394.064 492.746 394.097 492.633 394.124C492.519 394.157 492.389 394.174 492.243 394.174C492.069 394.174 491.926 394.137 491.813 394.064C491.699 393.997 491.613 393.904 491.553 393.784C491.493 393.657 491.453 393.517 491.433 393.364H491.363C491.243 393.53 491.09 393.677 490.903 393.804C490.723 393.924 490.52 394.017 490.293 394.084C490.066 394.15 489.82 394.184 489.553 394.184ZM489.773 393.444C489.987 393.444 490.186 393.41 490.373 393.344C490.566 393.277 490.736 393.184 490.883 393.064C491.03 392.937 491.146 392.787 491.233 392.614C491.32 392.441 491.363 392.251 491.363 392.044V391.604C490.823 391.604 490.363 391.634 489.983 391.694C489.603 391.754 489.31 391.861 489.103 392.014C488.903 392.167 488.803 392.384 488.803 392.664C488.803 392.844 488.843 392.991 488.923 393.104C489.003 393.217 489.117 393.304 489.263 393.364C489.41 393.417 489.58 393.444 489.773 393.444ZM494.571 395.883C494.318 395.883 494.085 395.83 493.871 395.723C493.658 395.623 493.488 395.477 493.362 395.283C493.235 395.09 493.172 394.86 493.172 394.593C493.172 394.3 493.252 394.057 493.412 393.864C493.578 393.67 493.775 393.527 494.001 393.434C493.835 393.354 493.705 393.244 493.612 393.104C493.518 392.957 493.472 392.797 493.472 392.624C493.472 392.391 493.555 392.194 493.721 392.034C493.895 391.874 494.105 391.767 494.351 391.714C494.125 391.568 493.945 391.381 493.811 391.154C493.685 390.921 493.622 390.664 493.622 390.384C493.622 390.051 493.698 389.758 493.851 389.505C494.011 389.251 494.251 389.051 494.571 388.905C494.898 388.758 495.294 388.685 495.761 388.685C495.974 388.685 496.174 388.702 496.361 388.735C496.547 388.762 496.714 388.808 496.861 388.875C497.094 388.768 497.267 388.632 497.381 388.465C497.501 388.298 497.574 388.128 497.601 387.955H498.47C498.47 388.155 498.424 388.345 498.33 388.525C498.244 388.698 498.124 388.845 497.97 388.965C497.817 389.078 497.631 389.155 497.411 389.195C497.577 389.355 497.701 389.535 497.781 389.735C497.867 389.935 497.91 390.151 497.91 390.384C497.91 390.718 497.83 391.014 497.671 391.274C497.517 391.528 497.284 391.727 496.971 391.874C496.657 392.021 496.264 392.094 495.791 392.094H494.971C494.791 392.094 494.645 392.131 494.531 392.204C494.418 392.271 494.361 392.381 494.361 392.534C494.361 392.667 494.418 392.777 494.531 392.864C494.645 392.944 494.791 392.984 494.971 392.984H497.111C497.497 392.984 497.814 393.114 498.06 393.374C498.307 393.627 498.43 393.954 498.43 394.354C498.43 394.64 498.357 394.897 498.21 395.123C498.07 395.357 497.87 395.54 497.611 395.673C497.357 395.813 497.061 395.883 496.721 395.883H494.571ZM494.821 395.213H496.711C496.864 395.213 497.004 395.18 497.131 395.113C497.257 395.053 497.357 394.967 497.431 394.853C497.504 394.74 497.541 394.617 497.541 394.483C497.541 394.257 497.474 394.077 497.341 393.944C497.207 393.81 497.041 393.744 496.841 393.744H494.821C494.608 393.744 494.428 393.817 494.281 393.964C494.135 394.104 494.061 394.277 494.061 394.483C494.061 394.703 494.135 394.88 494.281 395.013C494.428 395.147 494.608 395.213 494.821 395.213ZM495.771 391.434C496.198 391.434 496.514 391.341 496.721 391.154C496.927 390.968 497.031 390.711 497.031 390.384C497.031 390.065 496.927 389.811 496.721 389.625C496.514 389.438 496.198 389.345 495.771 389.345C495.344 389.345 495.025 389.438 494.811 389.625C494.605 389.811 494.501 390.065 494.501 390.384C494.501 390.591 494.548 390.774 494.641 390.934C494.735 391.094 494.875 391.218 495.061 391.304C495.248 391.391 495.484 391.434 495.771 391.434ZM501.396 394.184C500.863 394.184 500.413 394.087 500.047 393.894C499.687 393.694 499.41 393.39 499.217 392.984C499.03 392.577 498.937 392.061 498.937 391.434C498.937 390.801 499.03 390.285 499.217 389.885C499.41 389.478 499.687 389.178 500.047 388.985C500.413 388.785 500.863 388.685 501.396 388.685C501.929 388.685 502.376 388.785 502.736 388.985C503.103 389.178 503.379 389.478 503.566 389.885C503.752 390.285 503.846 390.801 503.846 391.434C503.846 392.061 503.752 392.577 503.566 392.984C503.379 393.39 503.103 393.694 502.736 393.894C502.376 394.087 501.929 394.184 501.396 394.184ZM501.396 393.444C501.736 393.444 502.019 393.377 502.246 393.244C502.473 393.11 502.643 392.904 502.756 392.624C502.876 392.337 502.936 391.977 502.936 391.544V391.324C502.936 390.884 502.876 390.524 502.756 390.245C502.643 389.965 502.473 389.758 502.246 389.625C502.019 389.491 501.736 389.425 501.396 389.425C501.056 389.425 500.77 389.491 500.536 389.625C500.31 389.758 500.14 389.965 500.027 390.245C499.913 390.524 499.857 390.884 499.857 391.324V391.544C499.857 391.977 499.913 392.337 500.027 392.624C500.14 392.904 500.31 393.11 500.536 393.244C500.77 393.377 501.056 393.444 501.396 393.444Z" fill="#6B7280"/>
</g>
<defs>
<filter id="filter0_d_518_12152" x="0" y="0" width="702.833" height="600.894" filterUnits="userSpaceOnUse" color-interpolation-filters="sRGB">
<feFlood flood-opacity="0" result="BackgroundImageFix"/>
<feColorMatrix in="SourceAlpha" type="matrix" values="0 0 0 0 0 0 0 0 0 0 0 0 0 0 0 0 0 0 127 0" result="hardAlpha"/>
<feOffset dy="4"/>
<feGaussianBlur stdDeviation="92"/>
<feComposite in2="hardAlpha" operator="out"/>
<feColorMatrix type="matrix" values="0 0 0 0 0 0 0 0 0 0 0 0 0 0 0 0 0 0 0.25 0"/>
<feBlend mode="normal" in2="BackgroundImageFix" result="effect1_dropShadow_518_12152"/>
<feBlend mode="normal" in="SourceGraphic" in2="effect1_dropShadow_518_12152" result="shape"/>
</filter>
<linearGradient id="paint0_linear_518_12152" x1="265.917" y1="294.417" x2="266.027" y2="335.863" gradientUnits="userSpaceOnUse">
<stop stop-color="#E10175" stop-opacity="0.38"/>
<stop offset="1" stop-color="#E10175"/>
</linearGradient>
<linearGradient id="paint1_linear_518_12152" x1="352.51" y1="268.417" x2="352.74" y2="329.456" gradientUnits="userSpaceOnUse">
<stop stop-color="#E10175" stop-opacity="0.38"/>
<stop offset="1" stop-color="#E10175"/>
</linearGradient>
<linearGradient id="paint2_linear_518_12152" x1="439.104" y1="320.417" x2="439.133" y2="342.271" gradientUnits="userSpaceOnUse">
<stop stop-color="#E10175" stop-opacity="0.38"/>
<stop offset="1" stop-color="#E10175"/>
</linearGradient>
<clipPath id="clip0_518_12152">
<rect width="334" height="156" fill="white" transform="translate(184.417 213.234)"/>
</clipPath>
</defs>
</svg>
