<svg width="706" height="481" viewBox="0 0 706 481" fill="none" xmlns="http://www.w3.org/2000/svg">
<g filter="url(#filter0_d_225_14295)">
<rect x="171.355" y="196.417" width="334" height="232" rx="4" fill="white" shape-rendering="crispEdges"/>
<rect x="171.147" y="196.208" width="334.417" height="232.417" rx="4.20828" stroke="#E5E7EB" stroke-width="0.416566" shape-rendering="crispEdges"/>
<rect x="188.571" y="208.568" width="69.3301" height="20.6651" rx="4.99879" fill="#FBE5EE"/>
<path d="M195.996 221.901V215.043H199.435C199.941 215.043 200.358 215.133 200.685 215.313C201.018 215.492 201.268 215.746 201.434 216.072C201.601 216.399 201.684 216.789 201.684 217.242C201.684 217.689 201.598 218.079 201.424 218.412C201.251 218.745 200.991 219.005 200.645 219.192C200.305 219.372 199.878 219.462 199.365 219.462H197.295V221.901H195.996ZM197.295 218.352H199.325C199.658 218.352 199.915 218.255 200.095 218.062C200.281 217.862 200.375 217.589 200.375 217.242C200.375 217.009 200.335 216.812 200.255 216.652C200.175 216.492 200.058 216.369 199.905 216.282C199.751 216.196 199.558 216.152 199.325 216.152H197.295V218.352ZM202.583 221.901V216.642H203.603L203.703 217.472H203.773C203.84 217.305 203.92 217.152 204.013 217.012C204.113 216.865 204.24 216.749 204.393 216.662C204.546 216.569 204.733 216.522 204.953 216.522C205.059 216.522 205.156 216.532 205.243 216.552C205.336 216.572 205.406 216.592 205.453 216.612V217.762H205.083C204.876 217.762 204.693 217.792 204.533 217.852C204.373 217.905 204.236 217.992 204.123 218.112C204.016 218.232 203.936 218.382 203.883 218.562C203.83 218.742 203.803 218.952 203.803 219.192V221.901H202.583ZM208.447 222.021C207.874 222.021 207.394 221.924 207.008 221.731C206.621 221.531 206.331 221.228 206.138 220.821C205.945 220.415 205.848 219.898 205.848 219.272C205.848 218.638 205.945 218.122 206.138 217.722C206.331 217.315 206.621 217.015 207.008 216.822C207.394 216.622 207.874 216.522 208.447 216.522C209.027 216.522 209.507 216.622 209.887 216.822C210.273 217.015 210.563 217.315 210.757 217.722C210.95 218.122 211.047 218.638 211.047 219.272C211.047 219.898 210.95 220.415 210.757 220.821C210.563 221.228 210.273 221.531 209.887 221.731C209.507 221.924 209.027 222.021 208.447 222.021ZM208.447 221.021C208.767 221.021 209.024 220.961 209.217 220.841C209.417 220.715 209.56 220.528 209.647 220.281C209.74 220.028 209.787 219.715 209.787 219.342V219.202C209.787 218.828 209.74 218.518 209.647 218.272C209.56 218.019 209.417 217.832 209.217 217.712C209.024 217.585 208.767 217.522 208.447 217.522C208.127 217.522 207.867 217.585 207.667 217.712C207.474 217.832 207.331 218.019 207.238 218.272C207.151 218.518 207.108 218.828 207.108 219.202V219.342C207.108 219.715 207.151 220.028 207.238 220.281C207.331 220.528 207.474 220.715 207.667 220.841C207.867 220.961 208.127 221.021 208.447 221.021ZM214.132 222.021C213.753 222.021 213.419 221.981 213.133 221.901C212.846 221.814 212.606 221.698 212.413 221.551C212.22 221.404 212.073 221.234 211.973 221.041C211.88 220.841 211.833 220.625 211.833 220.391C211.833 220.358 211.833 220.328 211.833 220.301C211.84 220.275 211.843 220.255 211.843 220.241H213.043C213.043 220.255 213.043 220.268 213.043 220.281C213.043 220.295 213.043 220.308 213.043 220.321C213.049 220.501 213.106 220.648 213.213 220.761C213.319 220.868 213.459 220.945 213.633 220.991C213.806 221.038 213.989 221.061 214.182 221.061C214.356 221.061 214.519 221.044 214.672 221.011C214.832 220.971 214.962 220.911 215.062 220.831C215.169 220.745 215.222 220.635 215.222 220.501C215.222 220.328 215.156 220.195 215.022 220.101C214.889 220.008 214.712 219.931 214.492 219.871C214.279 219.811 214.049 219.748 213.803 219.681C213.583 219.621 213.363 219.555 213.143 219.482C212.923 219.408 212.723 219.315 212.543 219.202C212.37 219.088 212.226 218.942 212.113 218.762C212.006 218.582 211.953 218.358 211.953 218.092C211.953 217.832 212.01 217.605 212.123 217.412C212.236 217.219 212.393 217.059 212.593 216.932C212.793 216.799 213.029 216.699 213.303 216.632C213.576 216.566 213.873 216.532 214.192 216.532C214.506 216.532 214.789 216.566 215.042 216.632C215.302 216.699 215.525 216.796 215.712 216.922C215.905 217.042 216.052 217.192 216.152 217.372C216.259 217.545 216.312 217.739 216.312 217.952C216.312 217.999 216.309 218.045 216.302 218.092C216.302 218.139 216.302 218.165 216.302 218.172H215.112V218.102C215.112 217.975 215.072 217.869 214.992 217.782C214.919 217.689 214.809 217.615 214.662 217.562C214.522 217.509 214.346 217.482 214.132 217.482C213.972 217.482 213.833 217.495 213.713 217.522C213.593 217.549 213.493 217.585 213.413 217.632C213.339 217.679 213.283 217.732 213.243 217.792C213.203 217.852 213.183 217.919 213.183 217.992C213.183 218.119 213.233 218.218 213.333 218.292C213.433 218.365 213.566 218.428 213.733 218.482C213.906 218.535 214.092 218.592 214.292 218.652C214.532 218.718 214.779 218.788 215.032 218.862C215.286 218.928 215.519 219.015 215.732 219.122C215.952 219.228 216.129 219.378 216.262 219.572C216.395 219.765 216.462 220.021 216.462 220.341C216.462 220.648 216.402 220.911 216.282 221.131C216.169 221.344 216.005 221.518 215.792 221.651C215.585 221.778 215.339 221.871 215.052 221.931C214.772 221.991 214.466 222.021 214.132 222.021ZM217.492 223.631V216.642H218.502L218.602 217.342H218.672C218.845 217.069 219.071 216.865 219.351 216.732C219.631 216.592 219.941 216.522 220.281 216.522C220.714 216.522 221.084 216.619 221.391 216.812C221.704 217.005 221.944 217.305 222.111 217.712C222.284 218.119 222.371 218.642 222.371 219.282C222.371 219.908 222.284 220.425 222.111 220.831C221.937 221.238 221.697 221.538 221.391 221.731C221.091 221.924 220.744 222.021 220.351 222.021C220.111 222.021 219.891 221.994 219.691 221.941C219.491 221.888 219.315 221.808 219.161 221.701C219.008 221.588 218.878 221.451 218.771 221.291H218.711V223.631H217.492ZM219.901 220.971C220.201 220.971 220.438 220.915 220.611 220.801C220.791 220.681 220.918 220.501 220.991 220.261C221.071 220.021 221.111 219.718 221.111 219.352V219.212C221.111 218.838 221.071 218.532 220.991 218.292C220.918 218.045 220.791 217.865 220.611 217.752C220.438 217.632 220.201 217.572 219.901 217.572C219.628 217.572 219.401 217.635 219.221 217.762C219.048 217.889 218.918 218.075 218.831 218.322C218.751 218.562 218.711 218.858 218.711 219.212V219.332C218.711 219.591 218.735 219.825 218.781 220.031C218.828 220.231 218.898 220.401 218.991 220.541C219.091 220.681 219.215 220.788 219.361 220.861C219.515 220.935 219.695 220.971 219.901 220.971ZM225.668 222.021C225.108 222.021 224.641 221.924 224.268 221.731C223.895 221.531 223.615 221.228 223.428 220.821C223.242 220.415 223.148 219.898 223.148 219.272C223.148 218.638 223.242 218.122 223.428 217.722C223.615 217.315 223.895 217.015 224.268 216.822C224.641 216.622 225.108 216.522 225.668 216.522C226.174 216.522 226.598 216.619 226.937 216.812C227.284 216.999 227.544 217.289 227.717 217.682C227.891 218.075 227.977 218.585 227.977 219.212V219.572H224.398C224.411 219.898 224.461 220.175 224.548 220.401C224.635 220.621 224.768 220.788 224.948 220.901C225.135 221.008 225.378 221.061 225.678 221.061C225.831 221.061 225.974 221.041 226.108 221.001C226.241 220.961 226.358 220.901 226.458 220.821C226.558 220.735 226.634 220.628 226.688 220.501C226.748 220.375 226.778 220.228 226.778 220.061H227.977C227.977 220.395 227.917 220.685 227.797 220.931C227.684 221.178 227.521 221.381 227.307 221.541C227.101 221.701 226.857 221.821 226.578 221.901C226.298 221.981 225.994 222.021 225.668 222.021ZM224.418 218.712H226.708C226.708 218.492 226.681 218.305 226.628 218.152C226.581 217.999 226.511 217.872 226.418 217.772C226.331 217.672 226.224 217.602 226.098 217.562C225.971 217.515 225.828 217.492 225.668 217.492C225.408 217.492 225.188 217.535 225.008 217.622C224.835 217.709 224.701 217.842 224.608 218.022C224.515 218.202 224.451 218.432 224.418 218.712ZM231.202 222.021C230.655 222.021 230.199 221.924 229.832 221.731C229.472 221.531 229.202 221.228 229.022 220.821C228.842 220.415 228.753 219.898 228.753 219.272C228.753 218.638 228.842 218.122 229.022 217.722C229.209 217.315 229.482 217.015 229.842 216.822C230.209 216.622 230.662 216.522 231.202 216.522C231.555 216.522 231.868 216.566 232.142 216.652C232.415 216.739 232.648 216.872 232.842 217.052C233.041 217.225 233.191 217.442 233.291 217.702C233.391 217.962 233.441 218.265 233.441 218.612H232.202C232.202 218.365 232.165 218.162 232.092 218.002C232.018 217.842 231.905 217.722 231.752 217.642C231.605 217.555 231.415 217.512 231.182 217.512C230.909 217.512 230.685 217.575 230.512 217.702C230.339 217.829 230.209 218.019 230.122 218.272C230.042 218.518 230.002 218.832 230.002 219.212V219.342C230.002 219.715 230.042 220.028 230.122 220.281C230.209 220.535 230.342 220.725 230.522 220.851C230.702 220.971 230.939 221.031 231.232 221.031C231.459 221.031 231.645 220.991 231.792 220.911C231.945 220.825 232.062 220.698 232.142 220.531C232.222 220.365 232.262 220.165 232.262 219.931H233.441C233.441 220.258 233.391 220.551 233.291 220.811C233.191 221.071 233.045 221.291 232.852 221.471C232.658 221.651 232.422 221.788 232.142 221.881C231.868 221.974 231.555 222.021 231.202 222.021ZM235.87 222.021C235.543 222.021 235.286 221.958 235.1 221.831C234.913 221.698 234.78 221.531 234.7 221.331C234.627 221.124 234.59 220.915 234.59 220.701V217.642H233.96V216.642H234.62L234.84 215.173H235.81V216.642H236.719V217.642H235.81V220.581C235.81 220.721 235.846 220.831 235.92 220.911C235.993 220.984 236.103 221.021 236.249 221.021H236.719V221.861C236.653 221.888 236.569 221.911 236.469 221.931C236.376 221.958 236.276 221.978 236.169 221.991C236.063 222.011 235.963 222.021 235.87 222.021ZM237.624 215.832V214.673H238.843V215.832H237.624ZM237.624 221.901V216.642H238.843V221.901H237.624ZM241.492 221.901L239.543 216.642H240.822L241.672 219.012C241.712 219.125 241.759 219.278 241.812 219.472C241.872 219.658 241.932 219.855 241.992 220.061C242.052 220.261 242.102 220.445 242.142 220.611H242.192C242.232 220.458 242.279 220.281 242.332 220.081C242.385 219.881 242.439 219.685 242.492 219.492C242.552 219.298 242.605 219.138 242.652 219.012L243.492 216.642H244.731L242.772 221.901H241.492ZM247.694 222.021C247.134 222.021 246.667 221.924 246.294 221.731C245.921 221.531 245.641 221.228 245.454 220.821C245.268 220.415 245.174 219.898 245.174 219.272C245.174 218.638 245.268 218.122 245.454 217.722C245.641 217.315 245.921 217.015 246.294 216.822C246.667 216.622 247.134 216.522 247.694 216.522C248.2 216.522 248.623 216.619 248.963 216.812C249.31 216.999 249.57 217.289 249.743 217.682C249.917 218.075 250.003 218.585 250.003 219.212V219.572H246.424C246.437 219.898 246.487 220.175 246.574 220.401C246.661 220.621 246.794 220.788 246.974 220.901C247.161 221.008 247.404 221.061 247.704 221.061C247.857 221.061 248 221.041 248.134 221.001C248.267 220.961 248.384 220.901 248.484 220.821C248.583 220.735 248.66 220.628 248.713 220.501C248.773 220.375 248.803 220.228 248.803 220.061H250.003C250.003 220.395 249.943 220.685 249.823 220.931C249.71 221.178 249.547 221.381 249.333 221.541C249.127 221.701 248.883 221.821 248.603 221.901C248.324 221.981 248.02 222.021 247.694 222.021ZM246.444 218.712H248.733C248.733 218.492 248.707 218.305 248.653 218.152C248.607 217.999 248.537 217.872 248.444 217.772C248.357 217.672 248.25 217.602 248.124 217.562C247.997 217.515 247.854 217.492 247.694 217.492C247.434 217.492 247.214 217.535 247.034 217.622C246.861 217.709 246.727 217.842 246.634 218.022C246.541 218.202 246.477 218.432 246.444 218.712Z" fill="#791142"/>
<g clip-path="url(#clip0_225_14295)">
<rect x="171.415" y="248.719" width="334.176" height="139.902" rx="11.2748" fill="white"/>
<path d="M193.22 275.658V269.251H193.631V275.658H193.22ZM194.504 271.238C194.478 271.001 194.367 270.818 194.174 270.688C193.98 270.556 193.737 270.49 193.443 270.49C193.233 270.49 193.051 270.523 192.898 270.59C192.744 270.655 192.625 270.745 192.54 270.86C192.456 270.974 192.415 271.103 192.415 271.248C192.415 271.37 192.443 271.475 192.5 271.564C192.558 271.652 192.634 271.726 192.728 271.786C192.823 271.845 192.924 271.894 193.033 271.934C193.141 271.972 193.246 272.004 193.346 272.029L193.846 272.159C194.01 272.199 194.177 272.253 194.349 272.322C194.521 272.39 194.68 272.48 194.827 272.592C194.974 272.704 195.092 272.842 195.182 273.008C195.274 273.173 195.32 273.37 195.32 273.601C195.32 273.891 195.245 274.149 195.095 274.374C194.946 274.599 194.73 274.777 194.447 274.907C194.165 275.037 193.824 275.102 193.423 275.102C193.039 275.102 192.707 275.041 192.427 274.919C192.147 274.798 191.928 274.625 191.769 274.401C191.611 274.176 191.523 273.909 191.506 273.601H192.282C192.297 273.786 192.357 273.94 192.462 274.064C192.569 274.185 192.705 274.276 192.87 274.336C193.037 274.395 193.22 274.424 193.418 274.424C193.637 274.424 193.831 274.39 194.001 274.321C194.173 274.251 194.308 274.154 194.407 274.031C194.505 273.906 194.554 273.76 194.554 273.593C194.554 273.441 194.511 273.317 194.424 273.22C194.339 273.123 194.223 273.043 194.076 272.98C193.931 272.917 193.767 272.861 193.583 272.812L192.978 272.647C192.567 272.535 192.242 272.371 192.002 272.154C191.763 271.937 191.644 271.65 191.644 271.293C191.644 270.998 191.724 270.74 191.884 270.52C192.044 270.3 192.261 270.129 192.535 270.007C192.808 269.884 193.117 269.822 193.461 269.822C193.808 269.822 194.114 269.883 194.379 270.005C194.646 270.126 194.856 270.294 195.01 270.508C195.163 270.72 195.243 270.963 195.25 271.238H194.504ZM197.766 269.892V275.017H196.99V270.668H196.96L195.734 271.469V270.728L197.013 269.892H197.766ZM200.584 275.102C200.189 275.1 199.851 274.996 199.571 274.789C199.29 274.582 199.076 274.281 198.928 273.886C198.779 273.491 198.705 273.014 198.705 272.457C198.705 271.901 198.779 271.427 198.928 271.033C199.078 270.639 199.293 270.339 199.573 270.132C199.855 269.925 200.192 269.822 200.584 269.822C200.976 269.822 201.312 269.926 201.593 270.135C201.873 270.342 202.087 270.642 202.236 271.036C202.386 271.428 202.461 271.901 202.461 272.457C202.461 273.016 202.387 273.493 202.238 273.888C202.09 274.282 201.875 274.583 201.595 274.792C201.315 274.999 200.978 275.102 200.584 275.102ZM200.584 274.434C200.931 274.434 201.202 274.265 201.397 273.926C201.594 273.587 201.693 273.098 201.693 272.457C201.693 272.032 201.648 271.672 201.558 271.378C201.469 271.083 201.342 270.86 201.175 270.708C201.01 270.554 200.813 270.478 200.584 270.478C200.239 270.478 199.968 270.648 199.771 270.988C199.574 271.328 199.475 271.818 199.473 272.457C199.473 272.884 199.517 273.245 199.606 273.541C199.696 273.834 199.823 274.057 199.989 274.209C200.154 274.359 200.352 274.434 200.584 274.434ZM204.781 275.102C204.385 275.1 204.047 274.996 203.767 274.789C203.487 274.582 203.272 274.281 203.124 273.886C202.976 273.491 202.901 273.014 202.901 272.457C202.901 271.901 202.976 271.427 203.124 271.033C203.274 270.639 203.489 270.339 203.77 270.132C204.052 269.925 204.389 269.822 204.781 269.822C205.173 269.822 205.509 269.926 205.789 270.135C206.069 270.342 206.284 270.642 206.432 271.036C206.582 271.428 206.657 271.901 206.657 272.457C206.657 273.016 206.583 273.493 206.435 273.888C206.286 274.282 206.072 274.583 205.792 274.792C205.511 274.999 205.174 275.102 204.781 275.102ZM204.781 274.434C205.128 274.434 205.399 274.265 205.594 273.926C205.791 273.587 205.889 273.098 205.889 272.457C205.889 272.032 205.844 271.672 205.754 271.378C205.666 271.083 205.538 270.86 205.371 270.708C205.206 270.554 205.009 270.478 204.781 270.478C204.435 270.478 204.164 270.648 203.967 270.988C203.77 271.328 203.671 271.818 203.67 272.457C203.67 272.884 203.714 273.245 203.802 273.541C203.892 273.834 204.02 274.057 204.185 274.209C204.35 274.359 204.549 274.434 204.781 274.434ZM208.977 275.102C208.582 275.1 208.244 274.996 207.964 274.789C207.683 274.582 207.469 274.281 207.32 273.886C207.172 273.491 207.098 273.014 207.098 272.457C207.098 271.901 207.172 271.427 207.32 271.033C207.471 270.639 207.686 270.339 207.966 270.132C208.248 269.925 208.585 269.822 208.977 269.822C209.369 269.822 209.705 269.926 209.985 270.135C210.266 270.342 210.48 270.642 210.629 271.036C210.779 271.428 210.854 271.901 210.854 272.457C210.854 273.016 210.78 273.493 210.631 273.888C210.483 274.282 210.268 274.583 209.988 274.792C209.708 274.999 209.371 275.102 208.977 275.102ZM208.977 274.434C209.324 274.434 209.595 274.265 209.79 273.926C209.987 273.587 210.086 273.098 210.086 272.457C210.086 272.032 210.041 271.672 209.95 271.378C209.862 271.083 209.734 270.86 209.568 270.708C209.402 270.554 209.206 270.478 208.977 270.478C208.632 270.478 208.361 270.648 208.164 270.988C207.967 271.328 207.868 271.818 207.866 272.457C207.866 272.884 207.91 273.245 207.999 273.541C208.089 273.834 208.216 274.057 208.381 274.209C208.547 274.359 208.745 274.434 208.977 274.434Z" fill="#464646"/>
<path d="M193.22 306.093V299.687H193.631V306.093H193.22ZM194.504 301.674C194.478 301.437 194.367 301.254 194.174 301.123C193.98 300.992 193.737 300.926 193.443 300.926C193.233 300.926 193.051 300.959 192.898 301.026C192.744 301.091 192.625 301.181 192.54 301.296C192.456 301.41 192.415 301.539 192.415 301.684C192.415 301.806 192.443 301.911 192.5 301.999C192.558 302.088 192.634 302.162 192.728 302.222C192.823 302.28 192.924 302.33 193.033 302.37C193.141 302.408 193.246 302.44 193.346 302.465L193.846 302.595C194.01 302.635 194.177 302.689 194.349 302.758C194.521 302.826 194.68 302.916 194.827 303.028C194.974 303.14 195.092 303.278 195.182 303.443C195.274 303.608 195.32 303.806 195.32 304.036C195.32 304.327 195.245 304.584 195.095 304.81C194.946 305.035 194.73 305.212 194.447 305.343C194.165 305.473 193.824 305.538 193.423 305.538C193.039 305.538 192.707 305.477 192.427 305.355C192.147 305.233 191.928 305.061 191.769 304.837C191.611 304.612 191.523 304.345 191.506 304.036H192.282C192.297 304.221 192.357 304.376 192.462 304.499C192.569 304.621 192.705 304.712 192.87 304.772C193.037 304.83 193.22 304.86 193.418 304.86C193.637 304.86 193.831 304.825 194.001 304.757C194.173 304.687 194.308 304.59 194.407 304.467C194.505 304.342 194.554 304.196 194.554 304.029C194.554 303.877 194.511 303.753 194.424 303.656C194.339 303.559 194.223 303.479 194.076 303.416C193.931 303.352 193.767 303.296 193.583 303.248L192.978 303.083C192.567 302.971 192.242 302.807 192.002 302.59C191.763 302.373 191.644 302.086 191.644 301.729C191.644 301.434 191.724 301.176 191.884 300.956C192.044 300.736 192.261 300.565 192.535 300.443C192.808 300.319 193.117 300.258 193.461 300.258C193.808 300.258 194.114 300.319 194.379 300.44C194.646 300.562 194.856 300.73 195.01 300.943C195.163 301.155 195.243 301.399 195.25 301.674H194.504ZM197.513 305.523C197.2 305.523 196.918 305.463 196.667 305.343C196.419 305.221 196.22 305.054 196.072 304.842C195.923 304.63 195.844 304.388 195.834 304.116H196.585C196.603 304.337 196.701 304.518 196.878 304.659C197.054 304.801 197.266 304.872 197.513 304.872C197.71 304.872 197.884 304.827 198.036 304.737C198.19 304.645 198.31 304.519 198.397 304.359C198.485 304.199 198.529 304.016 198.529 303.811C198.529 303.603 198.484 303.417 198.394 303.253C198.304 303.09 198.18 302.961 198.021 302.868C197.864 302.774 197.684 302.727 197.481 302.725C197.326 302.725 197.17 302.752 197.013 302.805C196.856 302.858 196.729 302.929 196.632 303.015L195.924 302.91L196.212 300.328H199.03V300.991H196.855L196.692 302.425H196.722C196.823 302.328 196.955 302.247 197.12 302.182C197.287 302.117 197.466 302.084 197.656 302.084C197.968 302.084 198.246 302.159 198.489 302.307C198.734 302.456 198.927 302.658 199.067 302.915C199.209 303.17 199.279 303.464 199.277 303.796C199.279 304.128 199.204 304.424 199.052 304.684C198.902 304.945 198.694 305.15 198.427 305.3C198.161 305.448 197.857 305.523 197.513 305.523ZM201.623 305.538C201.228 305.536 200.89 305.432 200.61 305.225C200.33 305.018 200.115 304.717 199.967 304.322C199.818 303.926 199.744 303.45 199.744 302.893C199.744 302.337 199.818 301.863 199.967 301.469C200.117 301.075 200.332 300.775 200.612 300.568C200.894 300.361 201.231 300.258 201.623 300.258C202.015 300.258 202.352 300.362 202.632 300.57C202.912 300.777 203.126 301.078 203.275 301.471C203.425 301.863 203.5 302.337 203.5 302.893C203.5 303.452 203.426 303.929 203.277 304.324C203.129 304.718 202.915 305.019 202.634 305.227C202.354 305.434 202.017 305.538 201.623 305.538ZM201.623 304.87C201.97 304.87 202.241 304.7 202.437 304.362C202.633 304.023 202.732 303.533 202.732 302.893C202.732 302.467 202.687 302.108 202.597 301.814C202.508 301.519 202.381 301.295 202.214 301.143C202.049 300.99 201.852 300.913 201.623 300.913C201.278 300.913 201.007 301.083 200.81 301.424C200.613 301.764 200.514 302.254 200.512 302.893C200.512 303.32 200.556 303.681 200.645 303.976C200.735 304.27 200.863 304.493 201.028 304.644C201.193 304.795 201.391 304.87 201.623 304.87ZM205.82 305.538C205.424 305.536 205.087 305.432 204.806 305.225C204.526 305.018 204.312 304.717 204.163 304.322C204.015 303.926 203.94 303.45 203.94 302.893C203.94 302.337 204.015 301.863 204.163 301.469C204.313 301.075 204.528 300.775 204.809 300.568C205.091 300.361 205.428 300.258 205.82 300.258C206.212 300.258 206.548 300.362 206.828 300.57C207.108 300.777 207.323 301.078 207.471 301.471C207.621 301.863 207.697 302.337 207.697 302.893C207.697 303.452 207.622 303.929 207.474 304.324C207.325 304.718 207.111 305.019 206.831 305.227C206.55 305.434 206.213 305.538 205.82 305.538ZM205.82 304.87C206.167 304.87 206.438 304.7 206.633 304.362C206.83 304.023 206.928 303.533 206.928 302.893C206.928 302.467 206.883 302.108 206.793 301.814C206.705 301.519 206.577 301.295 206.41 301.143C206.245 300.99 206.048 300.913 205.82 300.913C205.474 300.913 205.203 301.083 205.006 301.424C204.81 301.764 204.71 302.254 204.709 302.893C204.709 303.32 204.753 303.681 204.841 303.976C204.931 304.27 205.059 304.493 205.224 304.644C205.389 304.795 205.588 304.87 205.82 304.87Z" fill="#464646"/>
<path d="M193.22 336.529V330.123H193.631V336.529H193.22ZM194.504 332.11C194.478 331.873 194.367 331.689 194.174 331.559C193.98 331.427 193.737 331.361 193.443 331.361C193.233 331.361 193.051 331.395 192.898 331.461C192.744 331.527 192.625 331.617 192.54 331.732C192.456 331.845 192.415 331.974 192.415 332.12C192.415 332.241 192.443 332.347 192.5 332.435C192.558 332.523 192.634 332.598 192.728 332.658C192.823 332.716 192.924 332.765 193.033 332.805C193.141 332.844 193.246 332.875 193.346 332.9L193.846 333.03C194.01 333.071 194.177 333.125 194.349 333.193C194.521 333.262 194.68 333.352 194.827 333.463C194.974 333.575 195.092 333.714 195.182 333.879C195.274 334.044 195.32 334.242 195.32 334.472C195.32 334.762 195.245 335.02 195.095 335.245C194.946 335.47 194.73 335.648 194.447 335.778C194.165 335.908 193.824 335.973 193.423 335.973C193.039 335.973 192.707 335.912 192.427 335.791C192.147 335.669 191.928 335.496 191.769 335.273C191.611 335.047 191.523 334.781 191.506 334.472H192.282C192.297 334.657 192.357 334.811 192.462 334.935C192.569 335.057 192.705 335.148 192.87 335.208C193.037 335.266 193.22 335.295 193.418 335.295C193.637 335.295 193.831 335.261 194.001 335.193C194.173 335.123 194.308 335.026 194.407 334.902C194.505 334.777 194.554 334.631 194.554 334.464C194.554 334.313 194.511 334.188 194.424 334.092C194.339 333.995 194.223 333.915 194.076 333.851C193.931 333.788 193.767 333.732 193.583 333.684L192.978 333.518C192.567 333.407 192.242 333.242 192.002 333.025C191.763 332.809 191.644 332.522 191.644 332.165C191.644 331.869 191.724 331.612 191.884 331.391C192.044 331.171 192.261 331 192.535 330.878C192.808 330.755 193.117 330.693 193.461 330.693C193.808 330.693 194.114 330.754 194.379 330.876C194.646 330.998 194.856 331.165 195.01 331.379C195.163 331.591 195.243 331.834 195.25 332.11H194.504ZM195.822 335.888V335.328L197.556 333.531C197.741 333.336 197.894 333.165 198.014 333.018C198.136 332.87 198.226 332.729 198.286 332.595C198.347 332.462 198.377 332.32 198.377 332.17C198.377 332 198.337 331.853 198.256 331.729C198.176 331.604 198.067 331.508 197.929 331.441C197.79 331.373 197.634 331.339 197.461 331.339C197.277 331.339 197.117 331.376 196.98 331.451C196.843 331.527 196.738 331.632 196.665 331.769C196.592 331.906 196.555 332.066 196.555 332.25H195.817C195.817 331.938 195.888 331.665 196.032 331.431C196.175 331.198 196.372 331.017 196.622 330.888C196.873 330.758 197.157 330.693 197.476 330.693C197.798 330.693 198.081 330.757 198.327 330.886C198.573 331.013 198.766 331.186 198.905 331.406C199.043 331.625 199.112 331.872 199.112 332.147C199.112 332.337 199.076 332.523 199.005 332.705C198.935 332.887 198.812 333.09 198.637 333.313C198.462 333.535 198.218 333.805 197.906 334.122L196.888 335.188V335.225H199.195V335.888H195.822ZM201.575 335.973C201.18 335.972 200.842 335.867 200.562 335.661C200.281 335.454 200.067 335.153 199.919 334.757C199.77 334.362 199.696 333.885 199.696 333.328C199.696 332.773 199.77 332.298 199.919 331.904C200.069 331.511 200.284 331.21 200.564 331.004C200.846 330.797 201.183 330.693 201.575 330.693C201.967 330.693 202.303 330.798 202.584 331.006C202.864 331.213 203.078 331.513 203.227 331.907C203.377 332.299 203.452 332.773 203.452 333.328C203.452 333.887 203.378 334.364 203.229 334.76C203.081 335.153 202.866 335.454 202.586 335.663C202.306 335.87 201.969 335.973 201.575 335.973ZM201.575 335.305C201.922 335.305 202.193 335.136 202.388 334.797C202.585 334.459 202.684 333.969 202.684 333.328C202.684 332.903 202.639 332.543 202.549 332.25C202.46 331.954 202.333 331.731 202.166 331.579C202.001 331.426 201.804 331.349 201.575 331.349C201.23 331.349 200.959 331.519 200.762 331.859C200.565 332.2 200.466 332.689 200.464 333.328C200.464 333.755 200.508 334.117 200.597 334.412C200.687 334.705 200.814 334.928 200.98 335.08C201.145 335.23 201.343 335.305 201.575 335.305ZM205.772 335.973C205.376 335.972 205.038 335.867 204.758 335.661C204.478 335.454 204.263 335.153 204.115 334.757C203.966 334.362 203.892 333.885 203.892 333.328C203.892 332.773 203.966 332.298 204.115 331.904C204.265 331.511 204.48 331.21 204.761 331.004C205.043 330.797 205.38 330.693 205.772 330.693C206.164 330.693 206.5 330.798 206.78 331.006C207.06 331.213 207.275 331.513 207.423 331.907C207.573 332.299 207.648 332.773 207.648 333.328C207.648 333.887 207.574 334.364 207.426 334.76C207.277 335.153 207.063 335.454 206.783 335.663C206.502 335.87 206.165 335.973 205.772 335.973ZM205.772 335.305C206.119 335.305 206.39 335.136 206.585 334.797C206.782 334.459 206.88 333.969 206.88 333.328C206.88 332.903 206.835 332.543 206.745 332.25C206.657 331.954 206.529 331.731 206.362 331.579C206.197 331.426 206 331.349 205.772 331.349C205.426 331.349 205.155 331.519 204.958 331.859C204.761 332.2 204.662 332.689 204.66 333.328C204.66 333.755 204.705 334.117 204.793 334.412C204.883 334.705 205.011 334.928 205.176 335.08C205.341 335.23 205.54 335.305 205.772 335.305Z" fill="#464646"/>
<path d="M193.22 366.965V360.558H193.631V366.965H193.22ZM194.504 362.545C194.478 362.308 194.367 362.125 194.174 361.995C193.98 361.863 193.737 361.797 193.443 361.797C193.233 361.797 193.051 361.83 192.898 361.897C192.744 361.962 192.625 362.052 192.54 362.167C192.456 362.281 192.415 362.41 192.415 362.555C192.415 362.677 192.443 362.782 192.5 362.871C192.558 362.959 192.634 363.033 192.728 363.093C192.823 363.152 192.924 363.201 193.033 363.241C193.141 363.279 193.246 363.311 193.346 363.336L193.846 363.466C194.01 363.506 194.177 363.56 194.349 363.629C194.521 363.697 194.68 363.787 194.827 363.899C194.974 364.011 195.092 364.149 195.182 364.314C195.274 364.48 195.32 364.677 195.32 364.908C195.32 365.198 195.245 365.456 195.095 365.681C194.946 365.906 194.73 366.084 194.447 366.214C194.165 366.344 193.824 366.409 193.423 366.409C193.039 366.409 192.707 366.348 192.427 366.226C192.147 366.105 191.928 365.932 191.769 365.708C191.611 365.483 191.523 365.216 191.506 364.908H192.282C192.297 365.093 192.357 365.247 192.462 365.37C192.569 365.492 192.705 365.583 192.87 365.643C193.037 365.702 193.22 365.731 193.418 365.731C193.637 365.731 193.831 365.697 194.001 365.628C194.173 365.558 194.308 365.461 194.407 365.338C194.505 365.213 194.554 365.067 194.554 364.9C194.554 364.748 194.511 364.624 194.424 364.527C194.339 364.43 194.223 364.35 194.076 364.287C193.931 364.224 193.767 364.168 193.583 364.119L192.978 363.954C192.567 363.842 192.242 363.678 192.002 363.461C191.763 363.244 191.644 362.957 191.644 362.6C191.644 362.305 191.724 362.047 191.884 361.827C192.044 361.607 192.261 361.436 192.535 361.314C192.808 361.191 193.117 361.129 193.461 361.129C193.808 361.129 194.114 361.19 194.379 361.312C194.646 361.433 194.856 361.601 195.01 361.815C195.163 362.026 195.243 362.27 195.25 362.545H194.504ZM197.606 366.409C197.21 366.407 196.873 366.303 196.592 366.096C196.312 365.889 196.098 365.588 195.949 365.193C195.801 364.797 195.727 364.321 195.727 363.764C195.727 363.208 195.801 362.734 195.949 362.34C196.099 361.946 196.315 361.646 196.595 361.439C196.877 361.232 197.214 361.129 197.606 361.129C197.998 361.129 198.334 361.233 198.614 361.442C198.895 361.649 199.109 361.949 199.257 362.343C199.408 362.735 199.483 363.208 199.483 363.764C199.483 364.323 199.408 364.8 199.26 365.195C199.111 365.589 198.897 365.89 198.617 366.099C198.337 366.306 198 366.409 197.606 366.409ZM197.606 365.741C197.953 365.741 198.224 365.572 198.419 365.233C198.616 364.894 198.714 364.405 198.714 363.764C198.714 363.339 198.669 362.979 198.579 362.685C198.491 362.39 198.363 362.167 198.196 362.015C198.031 361.861 197.834 361.785 197.606 361.785C197.26 361.785 196.989 361.955 196.793 362.295C196.596 362.635 196.496 363.125 196.495 363.764C196.495 364.191 196.539 364.552 196.627 364.847C196.717 365.141 196.845 365.364 197.01 365.516C197.175 365.666 197.374 365.741 197.606 365.741Z" fill="#464646"/>
<line opacity="0.4" x1="217.957" y1="273.395" x2="516.388" y2="272.691" stroke="#BEBEBE" stroke-width="0.352339" stroke-linecap="round" stroke-dasharray="7.05 5.64"/>
<line opacity="0.4" x1="217.957" y1="303.696" x2="516.388" y2="302.992" stroke="#BEBEBE" stroke-width="0.352339" stroke-linecap="round" stroke-dasharray="7.05 5.64"/>
<line opacity="0.4" x1="217.957" y1="333.997" x2="516.388" y2="333.293" stroke="#BEBEBE" stroke-width="0.352339" stroke-linecap="round" stroke-dasharray="7.05 5.64"/>
<line opacity="0.4" x1="217.957" y1="364.298" x2="516.388" y2="363.594" stroke="#BEBEBE" stroke-width="0.352339" stroke-linecap="round" stroke-dasharray="7.05 5.64"/>
<rect x="234.181" y="309.878" width="18.36" height="55.08" rx="2.81871" fill="url(#paint0_linear_225_14295)"/>
<rect x="266.582" y="296.917" width="19.44" height="68.04" rx="2.81871" fill="url(#paint1_linear_225_14295)"/>
<rect x="299.913" y="314.926" width="19.0263" height="50.0321" rx="2.81871" fill="url(#paint2_linear_225_14295)"/>
<rect x="333.54" y="328.237" width="18.36" height="36.72" rx="2.81871" fill="url(#paint3_linear_225_14295)"/>
<rect x="366.152" y="342.407" width="19.0263" height="22.5497" rx="2.81871" fill="url(#paint4_linear_225_14295)"/>
<rect x="399.272" y="283.92" width="19.0263" height="81.0379" rx="2.81871" fill="url(#paint5_linear_225_14295)"/>
<rect x="432.392" y="305.061" width="19.0263" height="59.8976" rx="2.81871" fill="url(#paint6_linear_225_14295)"/>
</g>
<path d="M185.609 410.564V402.227H187.42V410.564H185.609ZM189.118 410.564V404.172H190.516L190.649 405.047H190.735C190.88 404.836 191.055 404.654 191.257 404.5C191.468 404.346 191.703 404.228 191.962 404.147C192.221 404.066 192.505 404.026 192.812 404.026C193.234 404.026 193.602 404.103 193.918 404.257C194.234 404.411 194.477 404.654 194.647 404.986C194.826 405.318 194.915 405.751 194.915 406.286V410.564H193.226V406.553C193.226 406.351 193.201 406.181 193.153 406.043C193.104 405.897 193.031 405.78 192.934 405.691C192.845 405.593 192.731 405.525 192.594 405.484C192.456 405.444 192.302 405.423 192.132 405.423C191.881 405.423 191.654 405.484 191.451 405.606C191.249 405.727 191.091 405.893 190.978 406.104C190.864 406.315 190.807 406.558 190.807 406.833V410.564H189.118ZM198.081 410.564L195.699 404.172H197.486L198.421 406.869C198.47 407.007 198.527 407.189 198.591 407.416C198.664 407.643 198.737 407.882 198.81 408.133C198.883 408.384 198.944 408.611 198.992 408.814H199.053C199.11 408.627 199.171 408.413 199.235 408.17C199.3 407.919 199.365 407.68 199.43 407.453C199.503 407.218 199.564 407.023 199.612 406.869L200.548 404.172H202.249L199.855 410.564H198.081ZM205.978 410.709C205.273 410.709 204.682 410.592 204.204 410.357C203.726 410.114 203.366 409.745 203.123 409.251C202.88 408.757 202.758 408.129 202.758 407.368C202.758 406.598 202.88 405.97 203.123 405.484C203.366 404.99 203.722 404.625 204.192 404.39C204.67 404.147 205.253 404.026 205.942 404.026C206.59 404.026 207.137 404.143 207.582 404.378C208.028 404.605 208.364 404.962 208.591 405.448C208.818 405.926 208.931 406.545 208.931 407.307V407.744H204.471C204.488 408.117 204.544 408.433 204.642 408.692C204.747 408.951 204.905 409.146 205.115 409.276C205.334 409.397 205.622 409.458 205.978 409.458C206.173 409.458 206.347 409.433 206.501 409.385C206.663 409.336 206.801 409.263 206.914 409.166C207.027 409.069 207.116 408.947 207.181 408.802C207.246 408.656 207.278 408.49 207.278 408.303H208.931C208.931 408.708 208.858 409.061 208.712 409.361C208.567 409.66 208.364 409.911 208.105 410.114C207.846 410.308 207.534 410.458 207.169 410.564C206.813 410.661 206.416 410.709 205.978 410.709ZM204.496 406.675H207.193C207.193 406.432 207.161 406.221 207.096 406.043C207.04 405.865 206.958 405.719 206.853 405.606C206.748 405.492 206.618 405.411 206.464 405.363C206.318 405.306 206.152 405.278 205.966 405.278C205.658 405.278 205.399 405.33 205.188 405.436C204.986 405.533 204.828 405.687 204.714 405.897C204.609 406.1 204.536 406.359 204.496 406.675ZM212.759 410.709C212.313 410.709 211.912 410.661 211.556 410.564C211.199 410.466 210.896 410.333 210.644 410.163C210.393 409.984 210.199 409.774 210.061 409.531C209.931 409.288 209.867 409.012 209.867 408.704C209.867 408.672 209.867 408.64 209.867 408.607C209.867 408.575 209.871 408.55 209.879 408.534H211.507C211.507 408.55 211.507 408.567 211.507 408.583C211.507 408.599 211.507 408.615 211.507 408.631C211.515 408.834 211.58 409 211.702 409.13C211.823 409.251 211.981 409.34 212.175 409.397C212.378 409.454 212.589 409.482 212.807 409.482C213.002 409.482 213.188 409.466 213.366 409.433C213.553 409.393 213.707 409.324 213.828 409.227C213.958 409.13 214.023 409.004 214.023 408.85C214.023 408.656 213.942 408.506 213.78 408.401C213.626 408.295 213.419 408.21 213.16 408.145C212.909 408.081 212.633 408.008 212.333 407.927C212.058 407.862 211.783 407.789 211.507 407.708C211.232 407.619 210.981 407.505 210.754 407.368C210.535 407.23 210.357 407.052 210.219 406.833C210.081 406.606 210.012 406.323 210.012 405.982C210.012 405.65 210.085 405.363 210.231 405.12C210.377 404.868 210.576 404.662 210.827 404.5C211.086 404.338 211.386 404.22 211.726 404.147C212.074 404.066 212.447 404.026 212.844 404.026C213.217 404.026 213.565 404.066 213.889 404.147C214.213 404.22 214.496 404.334 214.74 404.488C214.983 404.633 215.173 404.82 215.311 405.047C215.448 405.265 215.517 405.512 215.517 405.788C215.517 405.845 215.517 405.897 215.517 405.946C215.517 405.995 215.513 406.027 215.505 406.043H213.889V405.946C213.889 405.8 213.844 405.679 213.755 405.581C213.666 405.476 213.537 405.395 213.366 405.338C213.204 405.282 213.006 405.253 212.771 405.253C212.609 405.253 212.459 405.265 212.321 405.29C212.192 405.314 212.078 405.35 211.981 405.399C211.884 405.448 211.807 405.508 211.75 405.581C211.702 405.646 211.677 405.727 211.677 405.824C211.677 405.962 211.734 406.076 211.847 406.165C211.969 406.246 212.127 406.315 212.321 406.371C212.516 406.428 212.73 406.489 212.965 406.553C213.257 406.635 213.561 406.716 213.877 406.797C214.201 406.869 214.501 406.971 214.776 407.1C215.051 407.23 215.274 407.416 215.444 407.659C215.614 407.894 215.7 408.214 215.7 408.619C215.7 409.008 215.623 409.336 215.469 409.604C215.323 409.871 215.116 410.086 214.849 410.248C214.582 410.41 214.27 410.527 213.913 410.6C213.557 410.673 213.172 410.709 212.759 410.709ZM218.831 410.709C218.426 410.709 218.097 410.637 217.846 410.491C217.595 410.345 217.413 410.15 217.299 409.907C217.186 409.656 217.129 409.381 217.129 409.081V405.472H216.339V404.172H217.19L217.506 402.349H218.818V404.172H219.985V405.472H218.818V408.802C218.818 408.996 218.863 409.146 218.952 409.251C219.041 409.348 219.187 409.397 219.39 409.397H219.985V410.515C219.888 410.547 219.774 410.576 219.645 410.6C219.515 410.632 219.377 410.657 219.232 410.673C219.086 410.697 218.952 410.709 218.831 410.709ZM221.076 410.564V404.172H222.474L222.607 405.047H222.692C222.83 404.836 222.992 404.654 223.179 404.5C223.373 404.346 223.588 404.228 223.823 404.147C224.066 404.066 224.325 404.026 224.6 404.026C225.005 404.026 225.354 404.107 225.645 404.269C225.945 404.431 226.176 404.69 226.338 405.047H226.423C226.561 404.836 226.727 404.654 226.921 404.5C227.116 404.346 227.339 404.228 227.59 404.147C227.841 404.066 228.108 404.026 228.392 404.026C228.797 404.026 229.145 404.099 229.437 404.245C229.736 404.39 229.971 404.629 230.142 404.962C230.312 405.286 230.397 405.707 230.397 406.225V410.564H228.708V406.529C228.708 406.327 228.683 406.157 228.635 406.019C228.594 405.873 228.533 405.76 228.452 405.679C228.371 405.589 228.27 405.525 228.149 405.484C228.027 405.444 227.897 405.423 227.76 405.423C227.533 405.423 227.33 405.484 227.152 405.606C226.974 405.727 226.832 405.893 226.727 406.104C226.63 406.315 226.581 406.558 226.581 406.833V410.564H224.892V406.529C224.892 406.327 224.868 406.157 224.819 406.019C224.779 405.873 224.718 405.76 224.637 405.679C224.556 405.589 224.454 405.525 224.333 405.484C224.22 405.444 224.09 405.423 223.944 405.423C223.725 405.423 223.523 405.484 223.336 405.606C223.158 405.727 223.016 405.893 222.911 406.104C222.814 406.315 222.765 406.558 222.765 406.833V410.564H221.076ZM234.803 410.709C234.098 410.709 233.507 410.592 233.029 410.357C232.551 410.114 232.191 409.745 231.948 409.251C231.705 408.757 231.583 408.129 231.583 407.368C231.583 406.598 231.705 405.97 231.948 405.484C232.191 404.99 232.547 404.625 233.017 404.39C233.495 404.147 234.078 404.026 234.767 404.026C235.415 404.026 235.962 404.143 236.407 404.378C236.853 404.605 237.189 404.962 237.416 405.448C237.643 405.926 237.756 406.545 237.756 407.307V407.744H233.296C233.313 408.117 233.369 408.433 233.467 408.692C233.572 408.951 233.73 409.146 233.941 409.276C234.159 409.397 234.447 409.458 234.803 409.458C234.998 409.458 235.172 409.433 235.326 409.385C235.488 409.336 235.626 409.263 235.739 409.166C235.852 409.069 235.942 408.947 236.006 408.802C236.071 408.656 236.104 408.49 236.104 408.303H237.756C237.756 408.708 237.683 409.061 237.537 409.361C237.392 409.66 237.189 409.911 236.93 410.114C236.671 410.308 236.359 410.458 235.994 410.564C235.638 410.661 235.241 410.709 234.803 410.709ZM233.321 406.675H236.018C236.018 406.432 235.986 406.221 235.921 406.043C235.865 405.865 235.784 405.719 235.678 405.606C235.573 405.492 235.443 405.411 235.289 405.363C235.144 405.306 234.977 405.278 234.791 405.278C234.483 405.278 234.224 405.33 234.013 405.436C233.811 405.533 233.653 405.687 233.539 405.897C233.434 406.1 233.361 406.359 233.321 406.675ZM238.995 410.564V404.172H240.393L240.527 405.047H240.612C240.758 404.836 240.932 404.654 241.134 404.5C241.345 404.346 241.58 404.228 241.839 404.147C242.098 404.066 242.382 404.026 242.69 404.026C243.111 404.026 243.48 404.103 243.795 404.257C244.111 404.411 244.354 404.654 244.525 404.986C244.703 405.318 244.792 405.751 244.792 406.286V410.564H243.103V406.553C243.103 406.351 243.079 406.181 243.03 406.043C242.981 405.897 242.908 405.78 242.811 405.691C242.722 405.593 242.609 405.525 242.471 405.484C242.333 405.444 242.179 405.423 242.009 405.423C241.758 405.423 241.531 405.484 241.329 405.606C241.126 405.727 240.968 405.893 240.855 406.104C240.741 406.315 240.685 406.558 240.685 406.833V410.564H238.995ZM248.213 410.709C247.808 410.709 247.48 410.637 247.229 410.491C246.978 410.345 246.796 410.15 246.682 409.907C246.569 409.656 246.512 409.381 246.512 409.081V405.472H245.722V404.172H246.573L246.889 402.349H248.201V404.172H249.368V405.472H248.201V408.802C248.201 408.996 248.246 409.146 248.335 409.251C248.424 409.348 248.57 409.397 248.772 409.397H249.368V410.515C249.271 410.547 249.157 410.576 249.028 410.6C248.898 410.632 248.76 410.657 248.614 410.673C248.469 410.697 248.335 410.709 248.213 410.709ZM252.99 410.564V402.227H257.328C257.928 402.227 258.426 402.341 258.823 402.568C259.228 402.786 259.532 403.098 259.734 403.503C259.945 403.9 260.05 404.374 260.05 404.925C260.05 405.476 259.941 405.958 259.722 406.371C259.512 406.776 259.2 407.092 258.787 407.319C258.373 407.546 257.867 407.659 257.268 407.659H254.801V410.564H252.99ZM254.801 406.177H257.025C257.405 406.177 257.697 406.067 257.899 405.849C258.11 405.63 258.215 405.326 258.215 404.937C258.215 404.67 258.171 404.447 258.082 404.269C257.993 404.091 257.859 403.953 257.681 403.856C257.511 403.759 257.292 403.71 257.025 403.71H254.801V406.177ZM261.116 410.564V401.778H262.805V404.877H262.89C263.028 404.706 263.19 404.561 263.376 404.439C263.57 404.309 263.785 404.208 264.02 404.135C264.263 404.062 264.526 404.026 264.81 404.026C265.231 404.026 265.6 404.103 265.916 404.257C266.232 404.411 266.475 404.654 266.645 404.986C266.823 405.318 266.912 405.751 266.912 406.286V410.564H265.223V406.553C265.223 406.351 265.199 406.181 265.15 406.043C265.101 405.897 265.029 405.78 264.931 405.691C264.842 405.593 264.729 405.525 264.591 405.484C264.453 405.444 264.299 405.423 264.129 405.423C263.878 405.423 263.651 405.484 263.449 405.606C263.246 405.727 263.088 405.893 262.975 406.104C262.861 406.315 262.805 406.558 262.805 406.833V410.564H261.116ZM268.426 403.236V401.778H270.115V403.236H268.426ZM268.426 410.564V404.172H270.115V410.564H268.426ZM271.665 410.564V401.778H273.355V410.564H271.665ZM277.846 410.709C277.149 410.709 276.558 410.592 276.072 410.357C275.586 410.114 275.217 409.745 274.966 409.251C274.715 408.749 274.589 408.121 274.589 407.368C274.589 406.598 274.715 405.97 274.966 405.484C275.217 404.99 275.586 404.625 276.072 404.39C276.558 404.147 277.149 404.026 277.846 404.026C278.559 404.026 279.154 404.147 279.632 404.39C280.118 404.625 280.487 404.99 280.738 405.484C280.989 405.97 281.115 406.598 281.115 407.368C281.115 408.121 280.989 408.749 280.738 409.251C280.487 409.745 280.118 410.114 279.632 410.357C279.154 410.592 278.559 410.709 277.846 410.709ZM277.846 409.397C278.219 409.397 278.514 409.328 278.733 409.19C278.96 409.053 279.126 408.842 279.231 408.559C279.337 408.275 279.389 407.927 279.389 407.513V407.222C279.389 406.809 279.337 406.46 279.231 406.177C279.126 405.893 278.96 405.683 278.733 405.545C278.514 405.399 278.219 405.326 277.846 405.326C277.481 405.326 277.186 405.399 276.959 405.545C276.74 405.683 276.578 405.893 276.473 406.177C276.367 406.46 276.315 406.809 276.315 407.222V407.513C276.315 407.927 276.367 408.275 276.473 408.559C276.578 408.842 276.74 409.053 276.959 409.19C277.186 409.328 277.481 409.397 277.846 409.397ZM284.946 410.709C284.5 410.709 284.099 410.661 283.743 410.564C283.387 410.466 283.083 410.333 282.832 410.163C282.58 409.984 282.386 409.774 282.248 409.531C282.119 409.288 282.054 409.012 282.054 408.704C282.054 408.672 282.054 408.64 282.054 408.607C282.054 408.575 282.058 408.55 282.066 408.534H283.694C283.694 408.55 283.694 408.567 283.694 408.583C283.694 408.599 283.694 408.615 283.694 408.631C283.702 408.834 283.767 409 283.889 409.13C284.01 409.251 284.168 409.34 284.363 409.397C284.565 409.454 284.776 409.482 284.995 409.482C285.189 409.482 285.375 409.466 285.554 409.433C285.74 409.393 285.894 409.324 286.015 409.227C286.145 409.13 286.21 409.004 286.21 408.85C286.21 408.656 286.129 408.506 285.967 408.401C285.813 408.295 285.606 408.21 285.347 408.145C285.096 408.081 284.82 408.008 284.521 407.927C284.245 407.862 283.97 407.789 283.694 407.708C283.419 407.619 283.168 407.505 282.941 407.368C282.722 407.23 282.544 407.052 282.406 406.833C282.269 406.606 282.2 406.323 282.2 405.982C282.2 405.65 282.273 405.363 282.418 405.12C282.564 404.868 282.763 404.662 283.014 404.5C283.273 404.338 283.573 404.22 283.913 404.147C284.261 404.066 284.634 404.026 285.031 404.026C285.404 404.026 285.752 404.066 286.076 404.147C286.4 404.22 286.684 404.334 286.927 404.488C287.17 404.633 287.36 404.82 287.498 405.047C287.636 405.265 287.704 405.512 287.704 405.788C287.704 405.845 287.704 405.897 287.704 405.946C287.704 405.995 287.7 406.027 287.692 406.043H286.076V405.946C286.076 405.8 286.032 405.679 285.942 405.581C285.853 405.476 285.724 405.395 285.554 405.338C285.392 405.282 285.193 405.253 284.958 405.253C284.796 405.253 284.646 405.265 284.509 405.29C284.379 405.314 284.265 405.35 284.168 405.399C284.071 405.448 283.994 405.508 283.937 405.581C283.889 405.646 283.864 405.727 283.864 405.824C283.864 405.962 283.921 406.076 284.035 406.165C284.156 406.246 284.314 406.315 284.509 406.371C284.703 406.428 284.918 406.489 285.153 406.553C285.444 406.635 285.748 406.716 286.064 406.797C286.388 406.869 286.688 406.971 286.963 407.1C287.239 407.23 287.461 407.416 287.632 407.659C287.802 407.894 287.887 408.214 287.887 408.619C287.887 409.008 287.81 409.336 287.656 409.604C287.51 409.871 287.303 410.086 287.036 410.248C286.769 410.41 286.457 410.527 286.1 410.6C285.744 410.673 285.359 410.709 284.946 410.709ZM292.051 410.709C291.354 410.709 290.763 410.592 290.277 410.357C289.79 410.114 289.422 409.745 289.171 409.251C288.92 408.749 288.794 408.121 288.794 407.368C288.794 406.598 288.92 405.97 289.171 405.484C289.422 404.99 289.79 404.625 290.277 404.39C290.763 404.147 291.354 404.026 292.051 404.026C292.764 404.026 293.359 404.147 293.837 404.39C294.323 404.625 294.692 404.99 294.943 405.484C295.194 405.97 295.32 406.598 295.32 407.368C295.32 408.121 295.194 408.749 294.943 409.251C294.692 409.745 294.323 410.114 293.837 410.357C293.359 410.592 292.764 410.709 292.051 410.709ZM292.051 409.397C292.423 409.397 292.719 409.328 292.938 409.19C293.165 409.053 293.331 408.842 293.436 408.559C293.541 408.275 293.594 407.927 293.594 407.513V407.222C293.594 406.809 293.541 406.46 293.436 406.177C293.331 405.893 293.165 405.683 292.938 405.545C292.719 405.399 292.423 405.326 292.051 405.326C291.686 405.326 291.39 405.399 291.164 405.545C290.945 405.683 290.783 405.893 290.678 406.177C290.572 406.46 290.52 406.809 290.52 407.222V407.513C290.52 407.927 290.572 408.275 290.678 408.559C290.783 408.842 290.945 409.053 291.164 409.19C291.39 409.328 291.686 409.397 292.051 409.397ZM296.562 412.727V404.172H297.948L298.094 405.035H298.179C298.389 404.686 298.665 404.431 299.005 404.269C299.345 404.107 299.722 404.026 300.135 404.026C300.67 404.026 301.128 404.143 301.508 404.378C301.897 404.613 302.193 404.978 302.395 405.472C302.606 405.966 302.711 406.602 302.711 407.38C302.711 408.133 302.606 408.757 302.395 409.251C302.185 409.745 301.889 410.114 301.508 410.357C301.136 410.592 300.698 410.709 300.196 410.709C299.92 410.709 299.665 410.677 299.43 410.612C299.195 410.555 298.985 410.462 298.798 410.333C298.612 410.203 298.454 410.045 298.325 409.859H298.252V412.727H296.562ZM299.613 409.324C299.953 409.324 300.22 409.259 300.415 409.13C300.617 408.992 300.763 408.789 300.852 408.522C300.941 408.247 300.986 407.91 300.986 407.513V407.234C300.986 406.829 300.941 406.493 300.852 406.225C300.763 405.95 300.617 405.747 300.415 405.618C300.22 405.48 299.953 405.411 299.613 405.411C299.297 405.411 299.037 405.484 298.835 405.63C298.632 405.776 298.482 405.986 298.385 406.262C298.288 406.537 298.239 406.869 298.239 407.258V407.465C298.239 407.748 298.268 408.008 298.325 408.243C298.381 408.469 298.462 408.664 298.568 408.826C298.681 408.988 298.823 409.113 298.993 409.203C299.163 409.284 299.37 409.324 299.613 409.324ZM303.956 410.564V401.778H305.645V404.877H305.73C305.868 404.706 306.03 404.561 306.216 404.439C306.41 404.309 306.625 404.208 306.86 404.135C307.103 404.062 307.366 404.026 307.65 404.026C308.071 404.026 308.44 404.103 308.756 404.257C309.072 404.411 309.315 404.654 309.485 404.986C309.663 405.318 309.752 405.751 309.752 406.286V410.564H308.063V406.553C308.063 406.351 308.039 406.181 307.99 406.043C307.941 405.897 307.869 405.78 307.771 405.691C307.682 405.593 307.569 405.525 307.431 405.484C307.293 405.444 307.139 405.423 306.969 405.423C306.718 405.423 306.491 405.484 306.289 405.606C306.086 405.727 305.928 405.893 305.815 406.104C305.701 406.315 305.645 406.558 305.645 406.833V410.564H303.956ZM312.189 412.848C311.89 412.848 311.638 412.824 311.436 412.775C311.241 412.735 311.116 412.706 311.059 412.69V411.548H311.8C312.003 411.548 312.185 411.499 312.347 411.402C312.509 411.313 312.651 411.191 312.773 411.038C312.894 410.892 312.983 410.734 313.04 410.564L310.537 404.172H312.323L313.417 407.125C313.465 407.262 313.518 407.437 313.575 407.647C313.639 407.85 313.704 408.064 313.769 408.291C313.834 408.51 313.887 408.704 313.927 408.874H313.988C314.02 408.761 314.057 408.627 314.097 408.473C314.138 408.32 314.178 408.162 314.219 408C314.267 407.838 314.312 407.684 314.352 407.538C314.401 407.384 314.441 407.25 314.474 407.137L315.385 404.172H317.086L314.911 410.26C314.79 410.616 314.648 410.948 314.486 411.256C314.332 411.572 314.15 411.848 313.939 412.083C313.729 412.326 313.477 412.512 313.186 412.642C312.902 412.779 312.57 412.848 312.189 412.848Z" fill="#111827"/>
<path d="M406.665 410.184C406.085 410.184 405.585 410.09 405.165 409.904C404.745 409.717 404.422 409.424 404.195 409.024C403.975 408.617 403.865 408.097 403.865 407.464V403.205H404.815V407.564C404.815 408.164 404.975 408.614 405.295 408.914C405.621 409.214 406.078 409.364 406.665 409.364C407.258 409.364 407.721 409.214 408.054 408.914C408.387 408.614 408.554 408.164 408.554 407.564V403.205H409.494V407.464C409.494 408.097 409.381 408.617 409.154 409.024C408.927 409.424 408.601 409.717 408.174 409.904C407.754 410.09 407.251 410.184 406.665 410.184ZM411.028 411.793V404.805H411.728L411.818 405.555H411.888C412.068 405.261 412.298 405.045 412.578 404.905C412.857 404.758 413.174 404.685 413.527 404.685C413.967 404.685 414.34 404.782 414.647 404.975C414.954 405.168 415.19 405.471 415.357 405.885C415.523 406.291 415.607 406.821 415.607 407.474C415.607 408.087 415.52 408.597 415.347 409.004C415.18 409.404 414.944 409.7 414.637 409.894C414.33 410.087 413.974 410.184 413.567 410.184C413.341 410.184 413.127 410.157 412.927 410.104C412.727 410.05 412.548 409.967 412.388 409.854C412.228 409.734 412.088 409.584 411.968 409.404H411.908V411.793H411.028ZM413.287 409.414C413.614 409.414 413.881 409.35 414.087 409.224C414.294 409.091 414.447 408.887 414.547 408.614C414.647 408.334 414.697 407.977 414.697 407.544V407.334C414.697 406.874 414.644 406.508 414.537 406.235C414.43 405.955 414.274 405.755 414.067 405.635C413.867 405.515 413.617 405.455 413.317 405.455C412.991 405.455 412.721 405.528 412.508 405.675C412.301 405.815 412.148 406.028 412.048 406.315C411.954 406.601 411.908 406.951 411.908 407.364V407.514C411.908 407.881 411.941 408.187 412.008 408.434C412.081 408.674 412.181 408.867 412.308 409.014C412.441 409.16 412.591 409.264 412.757 409.324C412.924 409.384 413.101 409.414 413.287 409.414ZM418.49 410.184C418.057 410.184 417.683 410.087 417.37 409.894C417.064 409.7 416.824 409.4 416.65 408.994C416.484 408.581 416.4 408.047 416.4 407.394C416.4 406.774 416.487 406.265 416.66 405.865C416.834 405.465 417.074 405.168 417.38 404.975C417.687 404.782 418.043 404.685 418.45 404.685C418.683 404.685 418.9 404.712 419.1 404.765C419.3 404.818 419.476 404.902 419.63 405.015C419.79 405.128 419.93 405.278 420.05 405.465H420.11V402.835H420.989V410.064H420.28L420.2 409.314H420.13C419.95 409.607 419.716 409.827 419.43 409.974C419.143 410.114 418.83 410.184 418.49 410.184ZM418.7 409.414C419.033 409.414 419.303 409.34 419.51 409.194C419.716 409.047 419.866 408.834 419.96 408.554C420.06 408.274 420.11 407.927 420.11 407.514V407.354C420.11 406.994 420.073 406.691 420 406.444C419.926 406.198 419.826 406.001 419.7 405.855C419.573 405.708 419.426 405.605 419.26 405.545C419.093 405.485 418.916 405.455 418.73 405.455C418.403 405.455 418.137 405.521 417.93 405.655C417.723 405.781 417.57 405.985 417.47 406.265C417.37 406.538 417.32 406.894 417.32 407.334V407.544C417.32 407.997 417.374 408.364 417.48 408.644C417.587 408.917 417.74 409.114 417.94 409.234C418.147 409.354 418.4 409.414 418.7 409.414ZM423.693 410.184C423.499 410.184 423.306 410.16 423.113 410.114C422.919 410.067 422.739 409.99 422.573 409.884C422.406 409.777 422.273 409.63 422.173 409.444C422.073 409.25 422.023 409.011 422.023 408.724C422.023 408.364 422.11 408.067 422.283 407.834C422.456 407.601 422.696 407.421 423.003 407.294C423.316 407.161 423.686 407.071 424.112 407.024C424.539 406.971 425.002 406.944 425.502 406.944V406.344C425.502 406.151 425.469 405.985 425.402 405.845C425.335 405.705 425.215 405.598 425.042 405.525C424.876 405.445 424.636 405.405 424.322 405.405C424.022 405.405 423.782 405.445 423.603 405.525C423.429 405.598 423.306 405.695 423.233 405.815C423.166 405.935 423.133 406.068 423.133 406.215V406.364H422.283C422.276 406.331 422.273 406.298 422.273 406.265C422.273 406.231 422.273 406.191 422.273 406.145C422.273 405.825 422.359 405.558 422.533 405.345C422.713 405.125 422.963 404.961 423.283 404.855C423.603 404.742 423.969 404.685 424.382 404.685C424.822 404.685 425.189 404.748 425.482 404.875C425.782 405.001 426.005 405.181 426.152 405.415C426.305 405.648 426.382 405.928 426.382 406.255V409.104C426.382 409.23 426.412 409.32 426.472 409.374C426.532 409.42 426.605 409.444 426.692 409.444H427.082V410.024C426.988 410.064 426.885 410.097 426.772 410.124C426.658 410.157 426.528 410.174 426.382 410.174C426.209 410.174 426.065 410.137 425.952 410.064C425.839 409.997 425.752 409.904 425.692 409.784C425.632 409.657 425.592 409.517 425.572 409.364H425.502C425.382 409.53 425.229 409.677 425.042 409.804C424.862 409.924 424.659 410.017 424.432 410.084C424.206 410.15 423.959 410.184 423.693 410.184ZM423.912 409.444C424.126 409.444 424.326 409.41 424.512 409.344C424.706 409.277 424.876 409.184 425.022 409.064C425.169 408.937 425.285 408.787 425.372 408.614C425.459 408.441 425.502 408.251 425.502 408.044V407.604C424.962 407.604 424.502 407.634 424.122 407.694C423.742 407.754 423.449 407.861 423.243 408.014C423.043 408.167 422.943 408.384 422.943 408.664C422.943 408.844 422.983 408.991 423.063 409.104C423.143 409.217 423.256 409.304 423.403 409.364C423.549 409.417 423.719 409.444 423.912 409.444ZM429.05 410.184C428.777 410.184 428.564 410.134 428.411 410.034C428.257 409.927 428.147 409.79 428.081 409.624C428.014 409.45 427.981 409.267 427.981 409.074V405.545H427.301V404.805H428.001L428.161 403.335H428.86V404.805H429.85V405.545H428.86V408.944C428.86 409.11 428.89 409.237 428.95 409.324C429.01 409.404 429.124 409.444 429.29 409.444H429.85V410.024C429.784 410.057 429.704 410.084 429.61 410.104C429.517 410.124 429.42 410.14 429.32 410.154C429.227 410.174 429.137 410.184 429.05 410.184ZM432.888 410.184C432.368 410.184 431.928 410.087 431.569 409.894C431.215 409.694 430.945 409.39 430.759 408.984C430.579 408.577 430.489 408.061 430.489 407.434C430.489 406.801 430.579 406.285 430.759 405.885C430.945 405.478 431.219 405.178 431.579 404.985C431.938 404.785 432.388 404.685 432.928 404.685C433.421 404.685 433.835 404.782 434.168 404.975C434.501 405.161 434.751 405.445 434.918 405.825C435.091 406.198 435.178 406.668 435.178 407.234V407.654H431.399C431.412 408.074 431.472 408.421 431.579 408.694C431.692 408.961 431.858 409.157 432.078 409.284C432.298 409.404 432.575 409.464 432.908 409.464C433.135 409.464 433.331 409.437 433.498 409.384C433.671 409.324 433.815 409.24 433.928 409.134C434.048 409.027 434.138 408.901 434.198 408.754C434.258 408.607 434.291 408.447 434.298 408.274H435.158C435.151 408.554 435.098 408.814 434.998 409.054C434.898 409.287 434.751 409.487 434.558 409.654C434.365 409.82 434.128 409.95 433.848 410.044C433.568 410.137 433.248 410.184 432.888 410.184ZM431.419 406.994H434.268C434.268 406.701 434.235 406.454 434.168 406.255C434.101 406.055 434.005 405.891 433.878 405.765C433.758 405.638 433.615 405.548 433.448 405.495C433.288 405.435 433.105 405.405 432.898 405.405C432.592 405.405 432.332 405.461 432.118 405.575C431.905 405.688 431.742 405.861 431.629 406.095C431.515 406.328 431.445 406.628 431.419 406.994ZM438.056 410.184C437.622 410.184 437.249 410.087 436.936 409.894C436.629 409.7 436.389 409.4 436.216 408.994C436.049 408.581 435.966 408.047 435.966 407.394C435.966 406.774 436.053 406.265 436.226 405.865C436.399 405.465 436.639 405.168 436.946 404.975C437.252 404.782 437.609 404.685 438.016 404.685C438.249 404.685 438.465 404.712 438.665 404.765C438.865 404.818 439.042 404.902 439.195 405.015C439.355 405.128 439.495 405.278 439.615 405.465H439.675V402.835H440.555V410.064H439.845L439.765 409.314H439.695C439.515 409.607 439.282 409.827 438.995 409.974C438.709 410.114 438.395 410.184 438.056 410.184ZM438.265 409.414C438.599 409.414 438.869 409.34 439.075 409.194C439.282 409.047 439.432 408.834 439.525 408.554C439.625 408.274 439.675 407.927 439.675 407.514V407.354C439.675 406.994 439.638 406.691 439.565 406.444C439.492 406.198 439.392 406.001 439.265 405.855C439.139 405.708 438.992 405.605 438.825 405.545C438.659 405.485 438.482 405.455 438.295 405.455C437.969 405.455 437.702 405.521 437.496 405.655C437.289 405.781 437.136 405.985 437.036 406.265C436.936 406.538 436.886 406.894 436.886 407.334V407.544C436.886 407.997 436.939 408.364 437.046 408.644C437.152 408.917 437.306 409.114 437.506 409.234C437.712 409.354 437.966 409.414 438.265 409.414ZM446.237 410.184C445.757 410.184 445.337 410.094 444.978 409.914C444.618 409.734 444.338 409.477 444.138 409.144C443.938 408.804 443.838 408.401 443.838 407.934H444.728C444.728 408.247 444.794 408.517 444.928 408.744C445.061 408.971 445.241 409.144 445.467 409.264C445.701 409.384 445.957 409.444 446.237 409.444C446.524 409.444 446.777 409.387 446.997 409.274C447.217 409.154 447.387 408.974 447.507 408.734C447.634 408.494 447.697 408.191 447.697 407.824C447.697 407.491 447.64 407.218 447.527 407.004C447.414 406.784 447.25 406.621 447.037 406.514C446.83 406.408 446.59 406.354 446.317 406.354C446.117 406.354 445.927 406.388 445.747 406.454C445.567 406.514 445.404 406.601 445.257 406.714C445.117 406.828 445.001 406.968 444.908 407.134L444.078 407.004L444.368 403.205H448.257V404.025H445.137L444.978 406.165C445.091 406.065 445.217 405.975 445.357 405.895C445.504 405.808 445.671 405.741 445.857 405.695C446.044 405.641 446.257 405.615 446.497 405.615C446.89 405.615 447.247 405.691 447.567 405.845C447.887 405.998 448.14 406.235 448.327 406.554C448.513 406.874 448.607 407.288 448.607 407.794C448.607 408.294 448.51 408.724 448.317 409.084C448.13 409.444 447.86 409.717 447.507 409.904C447.154 410.09 446.73 410.184 446.237 410.184ZM453.618 410.184C453.185 410.184 452.812 410.087 452.498 409.894C452.192 409.7 451.952 409.4 451.779 408.994C451.612 408.581 451.529 408.047 451.529 407.394C451.529 406.774 451.615 406.265 451.789 405.865C451.962 405.465 452.202 405.168 452.508 404.975C452.815 404.782 453.172 404.685 453.578 404.685C453.811 404.685 454.028 404.712 454.228 404.765C454.428 404.818 454.605 404.902 454.758 405.015C454.918 405.128 455.058 405.278 455.178 405.465H455.238V402.835H456.118V410.064H455.408L455.328 409.314H455.258C455.078 409.607 454.845 409.827 454.558 409.974C454.271 410.114 453.958 410.184 453.618 410.184ZM453.828 409.414C454.161 409.414 454.431 409.34 454.638 409.194C454.845 409.047 454.994 408.834 455.088 408.554C455.188 408.274 455.238 407.927 455.238 407.514V407.354C455.238 406.994 455.201 406.691 455.128 406.444C455.054 406.198 454.955 406.001 454.828 405.855C454.701 405.708 454.555 405.605 454.388 405.545C454.221 405.485 454.045 405.455 453.858 405.455C453.532 405.455 453.265 405.521 453.058 405.655C452.852 405.781 452.698 405.985 452.598 406.265C452.498 406.538 452.448 406.894 452.448 407.334V407.544C452.448 407.997 452.502 408.364 452.608 408.644C452.715 408.917 452.868 409.114 453.068 409.234C453.275 409.354 453.528 409.414 453.828 409.414ZM458.821 410.184C458.627 410.184 458.434 410.16 458.241 410.114C458.048 410.067 457.868 409.99 457.701 409.884C457.534 409.777 457.401 409.63 457.301 409.444C457.201 409.25 457.151 409.011 457.151 408.724C457.151 408.364 457.238 408.067 457.411 407.834C457.584 407.601 457.824 407.421 458.131 407.294C458.444 407.161 458.814 407.071 459.241 407.024C459.667 406.971 460.13 406.944 460.63 406.944V406.344C460.63 406.151 460.597 405.985 460.53 405.845C460.464 405.705 460.344 405.598 460.17 405.525C460.004 405.445 459.764 405.405 459.451 405.405C459.151 405.405 458.911 405.445 458.731 405.525C458.557 405.598 458.434 405.695 458.361 405.815C458.294 405.935 458.261 406.068 458.261 406.215V406.364H457.411C457.404 406.331 457.401 406.298 457.401 406.265C457.401 406.231 457.401 406.191 457.401 406.145C457.401 405.825 457.488 405.558 457.661 405.345C457.841 405.125 458.091 404.961 458.411 404.855C458.731 404.742 459.097 404.685 459.511 404.685C459.95 404.685 460.317 404.748 460.61 404.875C460.91 405.001 461.134 405.181 461.28 405.415C461.433 405.648 461.51 405.928 461.51 406.255V409.104C461.51 409.23 461.54 409.32 461.6 409.374C461.66 409.42 461.733 409.444 461.82 409.444H462.21V410.024C462.117 410.064 462.013 410.097 461.9 410.124C461.787 410.157 461.657 410.174 461.51 410.174C461.337 410.174 461.193 410.137 461.08 410.064C460.967 409.997 460.88 409.904 460.82 409.784C460.76 409.657 460.72 409.517 460.7 409.364H460.63C460.51 409.53 460.357 409.677 460.17 409.804C459.99 409.924 459.787 410.017 459.561 410.084C459.334 410.15 459.087 410.184 458.821 410.184ZM459.041 409.444C459.254 409.444 459.454 409.41 459.641 409.344C459.834 409.277 460.004 409.184 460.15 409.064C460.297 408.937 460.414 408.787 460.5 408.614C460.587 408.441 460.63 408.251 460.63 408.044V407.604C460.09 407.604 459.631 407.634 459.251 407.694C458.871 407.754 458.577 407.861 458.371 408.014C458.171 408.167 458.071 408.384 458.071 408.664C458.071 408.844 458.111 408.991 458.191 409.104C458.271 409.217 458.384 409.304 458.531 409.364C458.677 409.417 458.847 409.444 459.041 409.444ZM463.399 411.883C463.239 411.883 463.099 411.87 462.979 411.843C462.866 411.823 462.789 411.81 462.749 411.803V411.163H463.189C463.349 411.163 463.505 411.13 463.659 411.063C463.812 410.997 463.955 410.883 464.089 410.723C464.222 410.563 464.335 410.344 464.429 410.064L462.389 404.805H463.309L464.359 407.514C464.405 407.641 464.459 407.797 464.519 407.984C464.585 408.164 464.649 408.351 464.709 408.544C464.775 408.737 464.829 408.907 464.868 409.054H464.928C464.955 408.947 464.988 408.827 465.028 408.694C465.068 408.561 465.108 408.424 465.148 408.284C465.195 408.137 465.238 408.001 465.278 407.874C465.325 407.741 465.362 407.624 465.388 407.524L466.278 404.805H467.168L465.388 409.914C465.288 410.2 465.178 410.464 465.058 410.703C464.938 410.95 464.805 411.16 464.659 411.333C464.512 411.507 464.335 411.64 464.129 411.733C463.922 411.833 463.679 411.883 463.399 411.883ZM469.826 410.184C469.466 410.184 469.15 410.147 468.877 410.074C468.603 410 468.377 409.894 468.197 409.754C468.017 409.614 467.88 409.447 467.787 409.254C467.694 409.061 467.647 408.841 467.647 408.594C467.647 408.561 467.647 408.531 467.647 408.504C467.647 408.471 467.65 408.444 467.657 408.424H468.527C468.52 408.451 468.517 408.474 468.517 408.494C468.517 408.514 468.517 408.534 468.517 408.554C468.523 408.787 468.583 408.971 468.697 409.104C468.817 409.237 468.98 409.33 469.187 409.384C469.393 409.437 469.623 409.464 469.876 409.464C470.096 409.464 470.3 409.437 470.486 409.384C470.673 409.324 470.819 409.237 470.926 409.124C471.039 409.004 471.096 408.854 471.096 408.674C471.096 408.454 471.023 408.287 470.876 408.174C470.736 408.054 470.55 407.961 470.316 407.894C470.083 407.827 469.84 407.757 469.586 407.684C469.373 407.624 469.16 407.558 468.947 407.484C468.733 407.411 468.54 407.321 468.367 407.214C468.2 407.108 468.063 406.971 467.957 406.804C467.857 406.631 467.807 406.414 467.807 406.155C467.807 405.921 467.853 405.715 467.947 405.535C468.047 405.355 468.187 405.201 468.367 405.075C468.547 404.948 468.763 404.855 469.017 404.795C469.276 404.728 469.563 404.695 469.876 404.695C470.21 404.695 470.5 404.732 470.746 404.805C470.999 404.878 471.209 404.981 471.376 405.115C471.543 405.248 471.666 405.401 471.746 405.575C471.826 405.741 471.866 405.921 471.866 406.115C471.866 406.155 471.866 406.195 471.866 406.235C471.866 406.268 471.863 406.295 471.856 406.315H470.996V406.205C470.996 406.071 470.959 405.945 470.886 405.825C470.819 405.698 470.699 405.598 470.526 405.525C470.36 405.445 470.126 405.405 469.826 405.405C469.633 405.405 469.466 405.421 469.326 405.455C469.187 405.481 469.07 405.528 468.977 405.595C468.883 405.655 468.813 405.728 468.767 405.815C468.72 405.895 468.697 405.988 468.697 406.095C468.697 406.268 468.753 406.401 468.867 406.494C468.98 406.588 469.13 406.664 469.316 406.724C469.51 406.784 469.716 406.851 469.936 406.924C470.17 406.991 470.406 407.061 470.646 407.134C470.893 407.201 471.116 407.288 471.316 407.394C471.523 407.501 471.686 407.648 471.806 407.834C471.933 408.014 471.996 408.254 471.996 408.554C471.996 408.834 471.943 409.077 471.836 409.284C471.729 409.49 471.576 409.66 471.376 409.794C471.183 409.927 470.953 410.024 470.686 410.084C470.426 410.15 470.14 410.184 469.826 410.184ZM476.492 410.184C476.299 410.184 476.106 410.16 475.912 410.114C475.719 410.067 475.539 409.99 475.373 409.884C475.206 409.777 475.073 409.63 474.973 409.444C474.873 409.25 474.823 409.011 474.823 408.724C474.823 408.364 474.909 408.067 475.083 407.834C475.256 407.601 475.496 407.421 475.802 407.294C476.116 407.161 476.486 407.071 476.912 407.024C477.339 406.971 477.802 406.944 478.302 406.944V406.344C478.302 406.151 478.268 405.985 478.202 405.845C478.135 405.705 478.015 405.598 477.842 405.525C477.675 405.445 477.435 405.405 477.122 405.405C476.822 405.405 476.582 405.445 476.402 405.525C476.229 405.598 476.106 405.695 476.032 405.815C475.966 405.935 475.932 406.068 475.932 406.215V406.364H475.083C475.076 406.331 475.073 406.298 475.073 406.265C475.073 406.231 475.073 406.191 475.073 406.145C475.073 405.825 475.159 405.558 475.333 405.345C475.512 405.125 475.762 404.961 476.082 404.855C476.402 404.742 476.769 404.685 477.182 404.685C477.622 404.685 477.989 404.748 478.282 404.875C478.582 405.001 478.805 405.181 478.952 405.415C479.105 405.648 479.182 405.928 479.182 406.255V409.104C479.182 409.23 479.212 409.32 479.272 409.374C479.332 409.42 479.405 409.444 479.492 409.444H479.881V410.024C479.788 410.064 479.685 410.097 479.571 410.124C479.458 410.157 479.328 410.174 479.182 410.174C479.008 410.174 478.865 410.137 478.752 410.064C478.638 409.997 478.552 409.904 478.492 409.784C478.432 409.657 478.392 409.517 478.372 409.364H478.302C478.182 409.53 478.029 409.677 477.842 409.804C477.662 409.924 477.459 410.017 477.232 410.084C477.005 410.15 476.759 410.184 476.492 410.184ZM476.712 409.444C476.925 409.444 477.125 409.41 477.312 409.344C477.505 409.277 477.675 409.184 477.822 409.064C477.969 408.937 478.085 408.787 478.172 408.614C478.258 408.441 478.302 408.251 478.302 408.044V407.604C477.762 407.604 477.302 407.634 476.922 407.694C476.542 407.754 476.249 407.861 476.042 408.014C475.842 408.167 475.742 408.384 475.742 408.664C475.742 408.844 475.782 408.991 475.862 409.104C475.942 409.217 476.056 409.304 476.202 409.364C476.349 409.417 476.519 409.444 476.712 409.444ZM481.51 411.883C481.257 411.883 481.024 411.83 480.81 411.723C480.597 411.623 480.427 411.477 480.301 411.283C480.174 411.09 480.111 410.86 480.111 410.593C480.111 410.3 480.191 410.057 480.351 409.864C480.517 409.67 480.714 409.527 480.94 409.434C480.774 409.354 480.644 409.244 480.55 409.104C480.457 408.957 480.411 408.797 480.411 408.624C480.411 408.391 480.494 408.194 480.66 408.034C480.834 407.874 481.044 407.767 481.29 407.714C481.064 407.568 480.884 407.381 480.75 407.154C480.624 406.921 480.56 406.664 480.56 406.384C480.56 406.051 480.637 405.758 480.79 405.505C480.95 405.251 481.19 405.051 481.51 404.905C481.837 404.758 482.233 404.685 482.7 404.685C482.913 404.685 483.113 404.702 483.3 404.735C483.486 404.762 483.653 404.808 483.8 404.875C484.033 404.768 484.206 404.632 484.32 404.465C484.44 404.298 484.513 404.128 484.54 403.955H485.409C485.409 404.155 485.363 404.345 485.269 404.525C485.183 404.698 485.063 404.845 484.909 404.965C484.756 405.078 484.57 405.155 484.35 405.195C484.516 405.355 484.639 405.535 484.719 405.735C484.806 405.935 484.849 406.151 484.849 406.384C484.849 406.718 484.769 407.014 484.61 407.274C484.456 407.528 484.223 407.727 483.91 407.874C483.596 408.021 483.203 408.094 482.73 408.094H481.91C481.73 408.094 481.584 408.131 481.47 408.204C481.357 408.271 481.3 408.381 481.3 408.534C481.3 408.667 481.357 408.777 481.47 408.864C481.584 408.944 481.73 408.984 481.91 408.984H484.05C484.436 408.984 484.753 409.114 484.999 409.374C485.246 409.627 485.369 409.954 485.369 410.354C485.369 410.64 485.296 410.897 485.149 411.123C485.009 411.357 484.809 411.54 484.55 411.673C484.296 411.813 484 411.883 483.66 411.883H481.51ZM481.76 411.213H483.65C483.803 411.213 483.943 411.18 484.07 411.113C484.196 411.053 484.296 410.967 484.37 410.853C484.443 410.74 484.48 410.617 484.48 410.483C484.48 410.257 484.413 410.077 484.28 409.944C484.146 409.81 483.98 409.744 483.78 409.744H481.76C481.547 409.744 481.367 409.817 481.22 409.964C481.074 410.104 481 410.277 481 410.483C481 410.703 481.074 410.88 481.22 411.013C481.367 411.147 481.547 411.213 481.76 411.213ZM482.71 407.434C483.137 407.434 483.453 407.341 483.66 407.154C483.866 406.968 483.97 406.711 483.97 406.384C483.97 406.065 483.866 405.811 483.66 405.625C483.453 405.438 483.137 405.345 482.71 405.345C482.283 405.345 481.963 405.438 481.75 405.625C481.544 405.811 481.44 406.065 481.44 406.384C481.44 406.591 481.487 406.774 481.58 406.934C481.674 407.094 481.814 407.218 482 407.304C482.187 407.391 482.423 407.434 482.71 407.434ZM488.335 410.184C487.802 410.184 487.352 410.087 486.986 409.894C486.626 409.694 486.349 409.39 486.156 408.984C485.969 408.577 485.876 408.061 485.876 407.434C485.876 406.801 485.969 406.285 486.156 405.885C486.349 405.478 486.626 405.178 486.986 404.985C487.352 404.785 487.802 404.685 488.335 404.685C488.868 404.685 489.315 404.785 489.675 404.985C490.041 405.178 490.318 405.478 490.505 405.885C490.691 406.285 490.785 406.801 490.785 407.434C490.785 408.061 490.691 408.577 490.505 408.984C490.318 409.39 490.041 409.694 489.675 409.894C489.315 410.087 488.868 410.184 488.335 410.184ZM488.335 409.444C488.675 409.444 488.958 409.377 489.185 409.244C489.412 409.11 489.582 408.904 489.695 408.624C489.815 408.337 489.875 407.977 489.875 407.544V407.324C489.875 406.884 489.815 406.524 489.695 406.245C489.582 405.965 489.412 405.758 489.185 405.625C488.958 405.491 488.675 405.425 488.335 405.425C487.995 405.425 487.709 405.491 487.475 405.625C487.249 405.758 487.079 405.965 486.966 406.245C486.852 406.524 486.796 406.884 486.796 407.324V407.544C486.796 407.977 486.852 408.337 486.966 408.624C487.079 408.904 487.249 409.11 487.475 409.244C487.709 409.377 487.995 409.444 488.335 409.444Z" fill="#6B7280"/>
</g>
<defs>
<filter id="filter0_d_225_14295" x="-29.061" y="0" width="734.833" height="632.894" filterUnits="userSpaceOnUse" color-interpolation-filters="sRGB">
<feFlood flood-opacity="0" result="BackgroundImageFix"/>
<feColorMatrix in="SourceAlpha" type="matrix" values="0 0 0 0 0 0 0 0 0 0 0 0 0 0 0 0 0 0 127 0" result="hardAlpha"/>
<feOffset dy="4"/>
<feGaussianBlur stdDeviation="100"/>
<feComposite in2="hardAlpha" operator="out"/>
<feColorMatrix type="matrix" values="0 0 0 0 0 0 0 0 0 0 0 0 0 0 0 0 0 0 0.1 0"/>
<feBlend mode="normal" in2="BackgroundImageFix" result="effect1_dropShadow_225_14295"/>
<feBlend mode="normal" in="SourceGraphic" in2="effect1_dropShadow_225_14295" result="shape"/>
</filter>
<linearGradient id="paint0_linear_225_14295" x1="243.361" y1="309.878" x2="243.789" y2="351.381" gradientUnits="userSpaceOnUse">
<stop stop-color="#E10175" stop-opacity="0.38"/>
<stop offset="1" stop-color="#E10175"/>
</linearGradient>
<linearGradient id="paint1_linear_225_14295" x1="276.302" y1="296.917" x2="276.919" y2="348.184" gradientUnits="userSpaceOnUse">
<stop stop-color="#E10175" stop-opacity="0.38"/>
<stop offset="1" stop-color="#E10175"/>
</linearGradient>
<linearGradient id="paint2_linear_225_14295" x1="309.426" y1="314.926" x2="309.767" y2="352.626" gradientUnits="userSpaceOnUse">
<stop stop-color="#E10175" stop-opacity="0.38"/>
<stop offset="1" stop-color="#E10175"/>
</linearGradient>
<linearGradient id="paint3_linear_225_14295" x1="342.72" y1="328.237" x2="342.91" y2="355.907" gradientUnits="userSpaceOnUse">
<stop stop-color="#E10175" stop-opacity="0.38"/>
<stop offset="1" stop-color="#E10175"/>
</linearGradient>
<linearGradient id="paint4_linear_225_14295" x1="375.665" y1="342.407" x2="375.735" y2="359.4" gradientUnits="userSpaceOnUse">
<stop stop-color="#E10175" stop-opacity="0.38"/>
<stop offset="1" stop-color="#E10175"/>
</linearGradient>
<linearGradient id="paint5_linear_225_14295" x1="408.785" y1="283.92" x2="409.68" y2="344.975" gradientUnits="userSpaceOnUse">
<stop stop-color="#E10175" stop-opacity="0.38"/>
<stop offset="1" stop-color="#E10175"/>
</linearGradient>
<linearGradient id="paint6_linear_225_14295" x1="441.905" y1="305.061" x2="442.394" y2="350.194" gradientUnits="userSpaceOnUse">
<stop stop-color="#E10175" stop-opacity="0.38"/>
<stop offset="1" stop-color="#E10175"/>
</linearGradient>
<clipPath id="clip0_225_14295">
<rect width="334" height="156" fill="white" transform="translate(171.355 229.233)"/>
</clipPath>
</defs>
</svg>
