<svg width="703" height="601" viewBox="0 0 703 601" fill="none" xmlns="http://www.w3.org/2000/svg">
<g filter="url(#filter0_d_518_12183)">
<rect x="184.417" y="180.417" width="334" height="232" rx="12" fill="white" shape-rendering="crispEdges"/>
<rect x="184.208" y="180.208" width="334.417" height="232.417" rx="12.2083" stroke="#E5E7EB" stroke-width="0.416566" shape-rendering="crispEdges"/>
<rect x="201.632" y="192.568" width="51.3301" height="20.6651" rx="4.99879" fill="#FBE5EE"/>
<path d="M209.056 205.901V199.043H214.405V200.152H210.356V201.842H213.965V202.952H210.356V204.791H214.465V205.901H209.056ZM215.114 205.901L216.993 203.192L215.244 200.642H216.723L217.763 202.272H217.823L218.883 200.642H220.272L218.513 203.162L220.372 205.901H218.913L217.743 204.081H217.683L216.503 205.901H215.114ZM221.121 199.832V198.673H222.341V199.832H221.121ZM221.121 205.901V200.642H222.341V205.901H221.121ZM225.69 206.021C225.31 206.021 224.977 205.981 224.69 205.901C224.403 205.814 224.163 205.698 223.97 205.551C223.777 205.404 223.63 205.234 223.53 205.041C223.437 204.841 223.39 204.625 223.39 204.391C223.39 204.358 223.39 204.328 223.39 204.301C223.397 204.275 223.4 204.255 223.4 204.241H224.6C224.6 204.255 224.6 204.268 224.6 204.281C224.6 204.295 224.6 204.308 224.6 204.321C224.607 204.501 224.663 204.648 224.77 204.761C224.877 204.868 225.017 204.945 225.19 204.991C225.363 205.038 225.546 205.061 225.74 205.061C225.913 205.061 226.076 205.045 226.23 205.011C226.39 204.971 226.519 204.911 226.619 204.831C226.726 204.745 226.779 204.635 226.779 204.501C226.779 204.328 226.713 204.195 226.579 204.101C226.446 204.008 226.27 203.931 226.05 203.871C225.836 203.812 225.606 203.748 225.36 203.682C225.14 203.622 224.92 203.555 224.7 203.482C224.48 203.408 224.28 203.315 224.1 203.202C223.927 203.088 223.783 202.942 223.67 202.762C223.564 202.582 223.51 202.359 223.51 202.092C223.51 201.832 223.567 201.605 223.68 201.412C223.793 201.219 223.95 201.059 224.15 200.932C224.35 200.799 224.587 200.699 224.86 200.632C225.133 200.566 225.43 200.532 225.75 200.532C226.063 200.532 226.346 200.566 226.599 200.632C226.859 200.699 227.083 200.796 227.269 200.922C227.463 201.042 227.609 201.192 227.709 201.372C227.816 201.545 227.869 201.739 227.869 201.952C227.869 201.999 227.866 202.045 227.859 202.092C227.859 202.139 227.859 202.165 227.859 202.172H226.669V202.102C226.669 201.975 226.629 201.869 226.549 201.782C226.476 201.689 226.366 201.615 226.22 201.562C226.08 201.509 225.903 201.482 225.69 201.482C225.53 201.482 225.39 201.495 225.27 201.522C225.15 201.549 225.05 201.585 224.97 201.632C224.897 201.679 224.84 201.732 224.8 201.792C224.76 201.852 224.74 201.919 224.74 201.992C224.74 202.119 224.79 202.219 224.89 202.292C224.99 202.365 225.123 202.429 225.29 202.482C225.463 202.535 225.65 202.592 225.85 202.652C226.09 202.718 226.336 202.788 226.589 202.862C226.843 202.928 227.076 203.015 227.289 203.122C227.509 203.228 227.686 203.378 227.819 203.572C227.952 203.765 228.019 204.021 228.019 204.341C228.019 204.648 227.959 204.911 227.839 205.131C227.726 205.344 227.563 205.518 227.349 205.651C227.143 205.778 226.896 205.871 226.609 205.931C226.33 205.991 226.023 206.021 225.69 206.021ZM230.439 206.021C230.112 206.021 229.856 205.958 229.669 205.831C229.482 205.698 229.349 205.531 229.269 205.331C229.196 205.125 229.159 204.915 229.159 204.701V201.642H228.529V200.642H229.189L229.409 199.173H230.379V200.642H231.288V201.642H230.379V204.581C230.379 204.721 230.415 204.831 230.489 204.911C230.562 204.985 230.672 205.021 230.819 205.021H231.288V205.861C231.222 205.888 231.139 205.911 231.039 205.931C230.945 205.958 230.845 205.978 230.739 205.991C230.632 206.011 230.532 206.021 230.439 206.021ZM232.193 199.832V198.673H233.413V199.832H232.193ZM232.193 205.901V200.642H233.413V205.901H232.193ZM234.712 205.901V200.642H235.731L235.831 201.342H235.901C236.021 201.182 236.161 201.042 236.321 200.922C236.488 200.796 236.675 200.699 236.881 200.632C237.094 200.559 237.328 200.522 237.581 200.522C237.914 200.522 238.208 200.582 238.461 200.702C238.721 200.822 238.924 201.016 239.071 201.282C239.217 201.549 239.291 201.905 239.291 202.352V205.901H238.061V202.572C238.061 202.385 238.038 202.232 237.991 202.112C237.951 201.985 237.888 201.885 237.801 201.812C237.721 201.732 237.621 201.675 237.501 201.642C237.381 201.609 237.248 201.592 237.101 201.592C236.881 201.592 236.681 201.645 236.501 201.752C236.328 201.859 236.188 202.005 236.081 202.192C235.981 202.379 235.931 202.595 235.931 202.842V205.901H234.712ZM241.42 207.721C241.187 207.721 240.967 207.674 240.76 207.581C240.553 207.487 240.387 207.347 240.26 207.161C240.134 206.981 240.07 206.757 240.07 206.491C240.07 206.198 240.154 205.968 240.32 205.801C240.494 205.628 240.683 205.498 240.89 205.411C240.737 205.331 240.61 205.224 240.51 205.091C240.417 204.958 240.37 204.798 240.37 204.611C240.37 204.358 240.464 204.158 240.65 204.011C240.837 203.858 241.05 203.758 241.29 203.712C241.043 203.558 240.853 203.362 240.72 203.122C240.593 202.882 240.53 202.608 240.53 202.302C240.53 201.935 240.617 201.622 240.79 201.362C240.97 201.095 241.23 200.889 241.57 200.742C241.91 200.596 242.32 200.522 242.8 200.522C242.993 200.522 243.18 200.536 243.359 200.562C243.539 200.589 243.703 200.629 243.849 200.682C244.083 200.542 244.243 200.386 244.329 200.212C244.416 200.032 244.463 199.886 244.469 199.772H245.659C245.659 200.006 245.612 200.212 245.519 200.392C245.432 200.572 245.309 200.722 245.149 200.842C244.989 200.956 244.796 201.039 244.569 201.092C244.736 201.239 244.862 201.415 244.949 201.622C245.036 201.829 245.079 202.055 245.079 202.302C245.079 202.668 244.992 202.985 244.819 203.252C244.653 203.518 244.403 203.725 244.069 203.871C243.743 204.018 243.339 204.091 242.86 204.091H242.05C241.91 204.091 241.8 204.121 241.72 204.181C241.647 204.241 241.61 204.325 241.61 204.431C241.61 204.518 241.643 204.595 241.71 204.661C241.783 204.728 241.883 204.761 242.01 204.761H244.309C244.702 204.761 245.026 204.891 245.279 205.151C245.539 205.404 245.669 205.731 245.669 206.131C245.669 206.431 245.589 206.701 245.429 206.941C245.276 207.181 245.059 207.371 244.779 207.511C244.499 207.651 244.173 207.721 243.799 207.721H241.42ZM241.86 206.841H243.789C243.916 206.841 244.026 206.817 244.119 206.771C244.219 206.731 244.296 206.671 244.349 206.591C244.409 206.511 244.439 206.421 244.439 206.321C244.439 206.148 244.383 206.018 244.269 205.931C244.163 205.844 244.029 205.801 243.869 205.801H241.86C241.7 205.801 241.567 205.848 241.46 205.941C241.353 206.041 241.3 206.168 241.3 206.321C241.3 206.474 241.35 206.597 241.45 206.691C241.557 206.791 241.693 206.841 241.86 206.841ZM242.81 203.232C243.163 203.232 243.426 203.152 243.599 202.992C243.779 202.825 243.869 202.595 243.869 202.302C243.869 202.009 243.779 201.782 243.599 201.622C243.426 201.462 243.163 201.382 242.81 201.382C242.456 201.382 242.19 201.462 242.01 201.622C241.837 201.782 241.75 202.009 241.75 202.302C241.75 202.495 241.787 202.662 241.86 202.802C241.94 202.942 242.056 203.048 242.21 203.122C242.37 203.195 242.57 203.232 242.81 203.232Z" fill="#791142"/>
<g clip-path="url(#clip0_518_12183)">
<mask id="mask0_518_12183" style="mask-type:alpha" maskUnits="userSpaceOnUse" x="186" y="165" width="327" height="275">
<line x1="187.462" y1="165.92" x2="187.462" y2="439.422" stroke="black" stroke-width="1.10879"/>
<path d="M189.864 165.92L189.864 439.422" stroke="black" stroke-width="1.10879"/>
<path d="M192.821 165.92L192.821 439.422" stroke="black" stroke-width="1.10879"/>
<path d="M195.778 165.92L195.778 439.422" stroke="black" stroke-width="1.10879"/>
<path d="M198.735 165.92L198.735 439.422" stroke="black" stroke-width="1.10879"/>
<path d="M201.691 165.92L201.691 439.422" stroke="black" stroke-width="1.10879"/>
<path d="M204.648 165.92L204.648 439.422" stroke="black" stroke-width="1.10879"/>
<path d="M207.605 165.92L207.605 439.422" stroke="black" stroke-width="1.10879"/>
<path d="M210.562 165.92L210.562 439.422" stroke="black" stroke-width="1.10879"/>
<path d="M213.518 165.92L213.518 439.422" stroke="black" stroke-width="1.10879"/>
<path d="M216.475 165.92L216.475 439.422" stroke="black" stroke-width="1.10879"/>
<path d="M219.432 165.92L219.432 439.422" stroke="black" stroke-width="1.10879"/>
<path d="M222.389 165.92L222.389 439.422" stroke="black" stroke-width="1.10879"/>
<path d="M225.346 165.92L225.346 439.422" stroke="black" stroke-width="1.10879"/>
<path d="M228.302 165.92L228.302 439.422" stroke="black" stroke-width="1.10879"/>
<path d="M231.259 165.92L231.259 439.422" stroke="black" stroke-width="1.10879"/>
<path d="M234.216 165.92L234.216 439.422" stroke="black" stroke-width="1.10879"/>
<path d="M237.173 165.92L237.173 439.422" stroke="black" stroke-width="1.10879"/>
<path d="M240.129 165.92L240.129 439.422" stroke="black" stroke-width="1.10879"/>
<path d="M243.086 165.92L243.086 439.422" stroke="black" stroke-width="1.10879"/>
<path d="M246.043 165.92L246.043 439.422" stroke="black" stroke-width="1.10879"/>
<path d="M249 165.92L249 439.422" stroke="black" stroke-width="1.10879"/>
<path d="M251.956 165.92L251.956 439.422" stroke="black" stroke-width="1.10879"/>
<path d="M254.913 165.92L254.913 439.422" stroke="black" stroke-width="1.10879"/>
<path d="M257.87 165.92V439.422" stroke="black" stroke-width="1.10879"/>
<path d="M260.827 165.92V439.422" stroke="black" stroke-width="1.10879"/>
<path d="M263.784 165.92V439.422" stroke="black" stroke-width="1.10879"/>
<path d="M266.74 165.92V439.422" stroke="black" stroke-width="1.10879"/>
<path d="M269.697 165.92V439.422" stroke="black" stroke-width="1.10879"/>
<path d="M272.654 165.92V439.422" stroke="black" stroke-width="1.10879"/>
<path d="M275.611 165.92V439.422" stroke="black" stroke-width="1.10879"/>
<path d="M278.568 165.92V439.422" stroke="black" stroke-width="1.10879"/>
<path d="M281.524 165.92V439.422" stroke="black" stroke-width="1.10879"/>
<path d="M284.481 165.92V439.422" stroke="black" stroke-width="1.10879"/>
<path d="M287.438 165.92V439.422" stroke="black" stroke-width="1.10879"/>
<path d="M290.395 165.92V439.422" stroke="black" stroke-width="1.10879"/>
<path d="M293.351 165.92V439.422" stroke="black" stroke-width="1.10879"/>
<path d="M296.308 165.92V439.422" stroke="black" stroke-width="1.10879"/>
<path d="M299.265 165.92V439.422" stroke="black" stroke-width="1.10879"/>
<path d="M302.222 165.92V439.422" stroke="black" stroke-width="1.10879"/>
<path d="M305.179 165.92V439.422" stroke="black" stroke-width="1.10879"/>
<path d="M308.135 165.92V439.422" stroke="black" stroke-width="1.10879"/>
<path d="M311.092 165.92V439.422" stroke="black" stroke-width="1.10879"/>
<path d="M314.049 165.92V439.422" stroke="black" stroke-width="1.10879"/>
<path d="M317.006 165.92V439.422" stroke="black" stroke-width="1.10879"/>
<path d="M319.963 165.92V439.422" stroke="black" stroke-width="1.10879"/>
<path d="M322.919 165.92V439.422" stroke="black" stroke-width="1.10879"/>
<path d="M325.876 165.92V439.422" stroke="black" stroke-width="1.10879"/>
<path d="M328.833 165.92V439.422" stroke="black" stroke-width="1.10879"/>
<path d="M331.79 165.92V439.422" stroke="black" stroke-width="1.10879"/>
<path d="M334.746 165.92V439.422" stroke="black" stroke-width="1.10879"/>
<path d="M337.703 165.92V439.422" stroke="black" stroke-width="1.10879"/>
<path d="M340.66 165.92V439.422" stroke="black" stroke-width="1.10879"/>
<path d="M343.617 165.92V439.422" stroke="black" stroke-width="1.10879"/>
<path d="M346.573 165.92V439.422" stroke="black" stroke-width="1.10879"/>
<path d="M349.53 165.92V439.422" stroke="black" stroke-width="1.10879"/>
<path d="M352.487 165.92V439.422" stroke="black" stroke-width="1.10879"/>
<path d="M355.444 165.92V439.422" stroke="black" stroke-width="1.10879"/>
<path d="M358.401 165.92V439.422" stroke="black" stroke-width="1.10879"/>
<path d="M361.357 165.92V439.422" stroke="black" stroke-width="1.10879"/>
<path d="M364.314 165.92V439.422" stroke="black" stroke-width="1.10879"/>
<path d="M367.271 165.92V439.422" stroke="black" stroke-width="1.10879"/>
<path d="M370.228 165.92V439.422" stroke="black" stroke-width="1.10879"/>
<path d="M373.184 165.92V439.422" stroke="black" stroke-width="1.10879"/>
<path d="M376.141 165.92V439.422" stroke="black" stroke-width="1.10879"/>
<path d="M379.098 165.92V439.422" stroke="black" stroke-width="1.10879"/>
<path d="M382.055 165.92V439.422" stroke="black" stroke-width="1.10879"/>
<path d="M385.011 165.92V439.422" stroke="black" stroke-width="1.10879"/>
<path d="M387.968 165.92V439.422" stroke="black" stroke-width="1.10879"/>
<path d="M390.925 165.92V439.422" stroke="black" stroke-width="1.10879"/>
<path d="M393.882 165.92V439.422" stroke="black" stroke-width="1.10879"/>
<path d="M396.839 165.92V439.422" stroke="black" stroke-width="1.10879"/>
<path d="M399.795 165.92V439.422" stroke="black" stroke-width="1.10879"/>
<path d="M402.752 165.92V439.422" stroke="black" stroke-width="1.10879"/>
<path d="M405.709 165.92V439.422" stroke="black" stroke-width="1.10879"/>
<path d="M408.666 165.92V439.422" stroke="black" stroke-width="1.10879"/>
<path d="M411.622 165.92V439.422" stroke="black" stroke-width="1.10879"/>
<path d="M414.579 165.92V439.422" stroke="black" stroke-width="1.10879"/>
<path d="M417.536 165.92V439.422" stroke="black" stroke-width="1.10879"/>
<path d="M420.493 165.92V439.422" stroke="black" stroke-width="1.10879"/>
<path d="M423.45 165.92V439.422" stroke="black" stroke-width="1.10879"/>
<path d="M426.406 165.92V439.422" stroke="black" stroke-width="1.10879"/>
<path d="M429.363 165.92V439.422" stroke="black" stroke-width="1.10879"/>
<path d="M432.32 165.92V439.422" stroke="black" stroke-width="1.10879"/>
<path d="M435.277 165.92V439.422" stroke="black" stroke-width="1.10879"/>
<path d="M438.233 165.92V439.422" stroke="black" stroke-width="1.10879"/>
<path d="M441.19 165.92V439.422" stroke="black" stroke-width="1.10879"/>
<path d="M444.147 165.92V439.422" stroke="black" stroke-width="1.10879"/>
<path d="M447.104 165.92V439.422" stroke="black" stroke-width="1.10879"/>
<path d="M450.06 165.92V439.422" stroke="black" stroke-width="1.10879"/>
<path d="M453.017 165.92V439.422" stroke="black" stroke-width="1.10879"/>
<path d="M455.974 165.92V439.422" stroke="black" stroke-width="1.10879"/>
<path d="M458.931 165.92V439.422" stroke="black" stroke-width="1.10879"/>
<path d="M461.888 165.92V439.422" stroke="black" stroke-width="1.10879"/>
<path d="M464.844 165.92V439.422" stroke="black" stroke-width="1.10879"/>
<path d="M467.801 165.92V439.422" stroke="black" stroke-width="1.10879"/>
<path d="M470.758 165.92V439.422" stroke="black" stroke-width="1.10879"/>
<path d="M473.715 165.92V439.422" stroke="black" stroke-width="1.10879"/>
<path d="M476.672 165.92V439.422" stroke="black" stroke-width="1.10879"/>
<path d="M479.628 165.92V439.422" stroke="black" stroke-width="1.10879"/>
<path d="M482.585 165.92V439.422" stroke="black" stroke-width="1.10879"/>
<path d="M485.542 165.92V439.422" stroke="black" stroke-width="1.10879"/>
<path d="M488.499 165.92V439.422" stroke="black" stroke-width="1.10879"/>
<path d="M491.455 165.92V439.422" stroke="black" stroke-width="1.10879"/>
<path d="M494.412 165.92V439.422" stroke="black" stroke-width="1.10879"/>
<path d="M497.369 165.92V439.422" stroke="black" stroke-width="1.10879"/>
<path d="M500.326 165.92V439.422" stroke="black" stroke-width="1.10879"/>
<path d="M503.283 165.92V439.422" stroke="black" stroke-width="1.10879"/>
<path d="M506.239 165.92V439.422" stroke="black" stroke-width="1.10879"/>
<path d="M509.196 165.92V439.422" stroke="black" stroke-width="1.10879"/>
<path d="M512.153 165.92V439.422" stroke="black" stroke-width="1.10879"/>
</mask>
<g mask="url(#mask0_518_12183)">
<path d="M278.077 325.547C267.358 325.273 200.609 343.68 200.609 343.68V358.113H504.795V253.626C504.795 253.626 437.996 302.568 432.452 303.934C426.909 305.301 392.681 285.988 383.441 287.354C374.201 288.721 340.716 326.103 331.476 326.704C322.236 327.306 304.441 304.342 300.006 304.342C295.571 304.342 288.795 325.82 278.077 325.547Z" fill="url(#paint0_linear_518_12183)"/>
<path d="M504.375 299.32C504.375 299.32 504.345 254.365 503.998 254.418C503.651 254.471 438.933 300.099 432.498 303.724L382.951 286.646L330.986 327.473L312.699 303.184L295.138 284.161L276.163 324.593L201.691 341.997V350.781C201.691 354.047 204.339 356.695 207.605 356.695L498.462 356.695C501.728 356.695 504.375 354.047 504.375 350.781V299.32Z" fill="url(#paint1_linear_518_12183)"/>
</g>
<mask id="mask1_518_12183" style="mask-type:alpha" maskUnits="userSpaceOnUse" x="186" y="165" width="327" height="275">
<line x1="187.462" y1="165.92" x2="187.462" y2="439.422" stroke="black" stroke-width="1.10879"/>
<path d="M189.864 165.92L189.864 439.422" stroke="black" stroke-width="1.10879"/>
<path d="M192.821 165.92L192.821 439.422" stroke="black" stroke-width="1.10879"/>
<path d="M195.778 165.92L195.778 439.422" stroke="black" stroke-width="1.10879"/>
<path d="M198.735 165.92L198.735 439.422" stroke="black" stroke-width="1.10879"/>
<path d="M201.691 165.92L201.691 439.422" stroke="black" stroke-width="1.10879"/>
<path d="M204.648 165.92L204.648 439.422" stroke="black" stroke-width="1.10879"/>
<path d="M207.605 165.92L207.605 439.422" stroke="black" stroke-width="1.10879"/>
<path d="M210.562 165.92L210.562 439.422" stroke="black" stroke-width="1.10879"/>
<path d="M213.518 165.92L213.518 439.422" stroke="black" stroke-width="1.10879"/>
<path d="M216.475 165.92L216.475 439.422" stroke="black" stroke-width="1.10879"/>
<path d="M219.432 165.92L219.432 439.422" stroke="black" stroke-width="1.10879"/>
<path d="M222.389 165.92L222.389 439.422" stroke="black" stroke-width="1.10879"/>
<path d="M225.346 165.92L225.346 439.422" stroke="black" stroke-width="1.10879"/>
<path d="M228.302 165.92L228.302 439.422" stroke="black" stroke-width="1.10879"/>
<path d="M231.259 165.92L231.259 439.422" stroke="black" stroke-width="1.10879"/>
<path d="M234.216 165.92L234.216 439.422" stroke="black" stroke-width="1.10879"/>
<path d="M237.173 165.92L237.173 439.422" stroke="black" stroke-width="1.10879"/>
<path d="M240.129 165.92L240.129 439.422" stroke="black" stroke-width="1.10879"/>
<path d="M243.086 165.92L243.086 439.422" stroke="black" stroke-width="1.10879"/>
<path d="M246.043 165.92L246.043 439.422" stroke="black" stroke-width="1.10879"/>
<path d="M249 165.92L249 439.422" stroke="black" stroke-width="1.10879"/>
<path d="M251.956 165.92L251.956 439.422" stroke="black" stroke-width="1.10879"/>
<path d="M254.913 165.92L254.913 439.422" stroke="black" stroke-width="1.10879"/>
<path d="M257.87 165.92V439.422" stroke="black" stroke-width="1.10879"/>
<path d="M260.827 165.92V439.422" stroke="black" stroke-width="1.10879"/>
<path d="M263.784 165.92V439.422" stroke="black" stroke-width="1.10879"/>
<path d="M266.74 165.92V439.422" stroke="black" stroke-width="1.10879"/>
<path d="M269.697 165.92V439.422" stroke="black" stroke-width="1.10879"/>
<path d="M272.654 165.92V439.422" stroke="black" stroke-width="1.10879"/>
<path d="M275.611 165.92V439.422" stroke="black" stroke-width="1.10879"/>
<path d="M278.568 165.92V439.422" stroke="black" stroke-width="1.10879"/>
<path d="M281.524 165.92V439.422" stroke="black" stroke-width="1.10879"/>
<path d="M284.481 165.92V439.422" stroke="black" stroke-width="1.10879"/>
<path d="M287.438 165.92V439.422" stroke="black" stroke-width="1.10879"/>
<path d="M290.395 165.92V439.422" stroke="black" stroke-width="1.10879"/>
<path d="M293.351 165.92V439.422" stroke="black" stroke-width="1.10879"/>
<path d="M296.308 165.92V439.422" stroke="black" stroke-width="1.10879"/>
<path d="M299.265 165.92V439.422" stroke="black" stroke-width="1.10879"/>
<path d="M302.222 165.92V439.422" stroke="black" stroke-width="1.10879"/>
<path d="M305.179 165.92V439.422" stroke="black" stroke-width="1.10879"/>
<path d="M308.135 165.92V439.422" stroke="black" stroke-width="1.10879"/>
<path d="M311.092 165.92V439.422" stroke="black" stroke-width="1.10879"/>
<path d="M314.049 165.92V439.422" stroke="black" stroke-width="1.10879"/>
<path d="M317.006 165.92V439.422" stroke="black" stroke-width="1.10879"/>
<path d="M319.963 165.92V439.422" stroke="black" stroke-width="1.10879"/>
<path d="M322.919 165.92V439.422" stroke="black" stroke-width="1.10879"/>
<path d="M325.876 165.92V439.422" stroke="black" stroke-width="1.10879"/>
<path d="M328.833 165.92V439.422" stroke="black" stroke-width="1.10879"/>
<path d="M331.79 165.92V439.422" stroke="black" stroke-width="1.10879"/>
<path d="M334.746 165.92V439.422" stroke="black" stroke-width="1.10879"/>
<path d="M337.703 165.92V439.422" stroke="black" stroke-width="1.10879"/>
<path d="M340.66 165.92V439.422" stroke="black" stroke-width="1.10879"/>
<path d="M343.617 165.92V439.422" stroke="black" stroke-width="1.10879"/>
<path d="M346.573 165.92V439.422" stroke="black" stroke-width="1.10879"/>
<path d="M349.53 165.92V439.422" stroke="black" stroke-width="1.10879"/>
<path d="M352.487 165.92V439.422" stroke="black" stroke-width="1.10879"/>
<path d="M355.444 165.92V439.422" stroke="black" stroke-width="1.10879"/>
<path d="M358.401 165.92V439.422" stroke="black" stroke-width="1.10879"/>
<path d="M361.357 165.92V439.422" stroke="black" stroke-width="1.10879"/>
<path d="M364.314 165.92V439.422" stroke="black" stroke-width="1.10879"/>
<path d="M367.271 165.92V439.422" stroke="black" stroke-width="1.10879"/>
<path d="M370.228 165.92V439.422" stroke="black" stroke-width="1.10879"/>
<path d="M373.184 165.92V439.422" stroke="black" stroke-width="1.10879"/>
<path d="M376.141 165.92V439.422" stroke="black" stroke-width="1.10879"/>
<path d="M379.098 165.92V439.422" stroke="black" stroke-width="1.10879"/>
<path d="M382.055 165.92V439.422" stroke="black" stroke-width="1.10879"/>
<path d="M385.011 165.92V439.422" stroke="black" stroke-width="1.10879"/>
<path d="M387.968 165.92V439.422" stroke="black" stroke-width="1.10879"/>
<path d="M390.925 165.92V439.422" stroke="black" stroke-width="1.10879"/>
<path d="M393.882 165.92V439.422" stroke="black" stroke-width="1.10879"/>
<path d="M396.839 165.92V439.422" stroke="black" stroke-width="1.10879"/>
<path d="M399.795 165.92V439.422" stroke="black" stroke-width="1.10879"/>
<path d="M402.752 165.92V439.422" stroke="black" stroke-width="1.10879"/>
<path d="M405.709 165.92V439.422" stroke="black" stroke-width="1.10879"/>
<path d="M408.666 165.92V439.422" stroke="black" stroke-width="1.10879"/>
<path d="M411.622 165.92V439.422" stroke="black" stroke-width="1.10879"/>
<path d="M414.579 165.92V439.422" stroke="black" stroke-width="1.10879"/>
<path d="M417.536 165.92V439.422" stroke="black" stroke-width="1.10879"/>
<path d="M420.493 165.92V439.422" stroke="black" stroke-width="1.10879"/>
<path d="M423.45 165.92V439.422" stroke="black" stroke-width="1.10879"/>
<path d="M426.406 165.92V439.422" stroke="black" stroke-width="1.10879"/>
<path d="M429.363 165.92V439.422" stroke="black" stroke-width="1.10879"/>
<path d="M432.32 165.92V439.422" stroke="black" stroke-width="1.10879"/>
<path d="M435.277 165.92V439.422" stroke="black" stroke-width="1.10879"/>
<path d="M438.233 165.92V439.422" stroke="black" stroke-width="1.10879"/>
<path d="M441.19 165.92V439.422" stroke="black" stroke-width="1.10879"/>
<path d="M444.147 165.92V439.422" stroke="black" stroke-width="1.10879"/>
<path d="M447.104 165.92V439.422" stroke="black" stroke-width="1.10879"/>
<path d="M450.06 165.92V439.422" stroke="black" stroke-width="1.10879"/>
<path d="M453.017 165.92V439.422" stroke="black" stroke-width="1.10879"/>
<path d="M455.974 165.92V439.422" stroke="black" stroke-width="1.10879"/>
<path d="M458.931 165.92V439.422" stroke="black" stroke-width="1.10879"/>
<path d="M461.888 165.92V439.422" stroke="black" stroke-width="1.10879"/>
<path d="M464.844 165.92V439.422" stroke="black" stroke-width="1.10879"/>
<path d="M467.801 165.92V439.422" stroke="black" stroke-width="1.10879"/>
<path d="M470.758 165.92V439.422" stroke="black" stroke-width="1.10879"/>
<path d="M473.715 165.92V439.422" stroke="black" stroke-width="1.10879"/>
<path d="M476.672 165.92V439.422" stroke="black" stroke-width="1.10879"/>
<path d="M479.628 165.92V439.422" stroke="black" stroke-width="1.10879"/>
<path d="M482.585 165.92V439.422" stroke="black" stroke-width="1.10879"/>
<path d="M485.542 165.92V439.422" stroke="black" stroke-width="1.10879"/>
<path d="M488.499 165.92V439.422" stroke="black" stroke-width="1.10879"/>
<path d="M491.455 165.92V439.422" stroke="black" stroke-width="1.10879"/>
<path d="M494.412 165.92V439.422" stroke="black" stroke-width="1.10879"/>
<path d="M497.369 165.92V439.422" stroke="black" stroke-width="1.10879"/>
<path d="M500.326 165.92V439.422" stroke="black" stroke-width="1.10879"/>
<path d="M503.283 165.92V439.422" stroke="black" stroke-width="1.10879"/>
<path d="M506.239 165.92V439.422" stroke="black" stroke-width="1.10879"/>
<path d="M509.196 165.92V439.422" stroke="black" stroke-width="1.10879"/>
<path d="M512.153 165.92V439.422" stroke="black" stroke-width="1.10879"/>
</mask>
<g mask="url(#mask1_518_12183)">
<path d="M278.077 325.547C276.866 327.578 200.609 343.68 200.609 343.68L276.443 325.608L283.022 311.034C287.053 299.058 292.462 284.065 295.197 284.065C296.79 284.065 300.727 289.644 305.547 296.766L329.656 326.35L368.436 297.581C373.487 293.24 377.988 289.7 381.144 288.154L383.441 286.45L386.111 287.402C391.643 288.122 400.985 292.039 409.898 295.888L432.452 303.934L504.795 253.626C504.795 253.626 437.996 302.568 432.452 303.934C429.731 304.605 420.095 300.292 409.898 295.888L386.111 287.402C385.079 287.268 384.18 287.245 383.441 287.354C382.79 287.451 382.019 287.726 381.144 288.154L368.436 297.581C355.016 309.115 337.716 326.298 331.476 326.704C330.916 326.741 330.307 326.616 329.656 326.35C323.422 323.801 313.333 308.27 305.547 296.766L295.197 284.065L283.022 311.034C280.515 318.484 278.541 324.767 278.077 325.547Z" fill="url(#paint2_linear_518_12183)"/>
<path d="M503.911 230.818C503.911 230.818 508.514 230.025 503.355 230.819C498.196 231.612 435.072 285.135 428.636 288.759L373.817 280.565L317.632 255.984L269.835 304.107L235.11 282.907L201.691 341.998L275.944 324.26L288.678 294.134L295.44 283.852L313.318 304.107L331.111 327.316L343.724 317.904L382.977 286.644L431.233 303.716L501.336 255.772C502.948 254.67 503.911 252.843 503.911 250.891V230.818Z" fill="url(#paint3_linear_518_12183)"/>
</g>
<path d="M201.691 342.996L274.49 325.496C275.804 325.18 276.863 324.24 277.326 322.97C280.324 314.743 291.715 284.19 295.553 284.19C299.221 284.19 320.774 314.766 328.123 325.348C329.458 327.269 332.133 327.636 333.948 326.161L381.782 287.282C382.882 286.388 384.373 286.143 385.702 286.638L430.212 303.229C431.437 303.685 432.809 303.514 433.884 302.77L504.392 254.01" stroke="#E10175" stroke-width="2.21758" stroke-linecap="round"/>
<path d="M201.15 342.728L233.814 284.375C235.012 282.234 237.84 281.662 239.787 283.157C247.938 289.415 267.025 303.779 270.494 303.779C274.351 303.779 307.005 266.347 315.46 256.581C316.644 255.212 318.586 254.818 320.218 255.601L372.035 280.481C372.409 280.66 372.808 280.781 373.219 280.837L428.243 288.439C429.322 288.588 430.414 288.291 431.269 287.617L503.266 230.804" stroke="#860B4B" stroke-width="2.21758" stroke-linecap="round"/>
<path d="M199.821 250.256V249.6L202.144 245.93H202.661V246.896H202.333L200.671 249.526V249.568H203.855V250.256H199.821ZM202.37 251.306V250.056L202.375 249.757V245.93H203.144V251.306H202.37Z" fill="#464646"/>
<path d="M201.805 280.12C201.445 280.12 201.123 280.058 200.839 279.934C200.557 279.809 200.334 279.637 200.17 279.417C200.007 279.194 199.92 278.937 199.907 278.645H200.732C200.742 278.804 200.795 278.942 200.892 279.06C200.99 279.175 201.117 279.264 201.275 279.327C201.432 279.39 201.607 279.422 201.8 279.422C202.012 279.422 202.199 279.385 202.362 279.312C202.526 279.238 202.655 279.136 202.748 279.004C202.84 278.871 202.887 278.718 202.887 278.545C202.887 278.365 202.84 278.206 202.748 278.07C202.657 277.932 202.523 277.823 202.346 277.744C202.171 277.666 201.959 277.626 201.711 277.626H201.257V276.965H201.711C201.91 276.965 202.085 276.929 202.236 276.857C202.388 276.785 202.507 276.686 202.593 276.558C202.678 276.428 202.721 276.277 202.721 276.104C202.721 275.938 202.684 275.793 202.608 275.671C202.535 275.546 202.43 275.449 202.293 275.379C202.159 275.309 201.999 275.274 201.816 275.274C201.641 275.274 201.477 275.307 201.325 275.371C201.174 275.434 201.052 275.525 200.957 275.644C200.863 275.762 200.812 275.903 200.805 276.067H200.02C200.029 275.777 200.115 275.521 200.277 275.301C200.442 275.08 200.659 274.908 200.928 274.783C201.198 274.659 201.497 274.597 201.826 274.597C202.171 274.597 202.468 274.664 202.719 274.799C202.971 274.932 203.165 275.11 203.301 275.332C203.44 275.554 203.508 275.798 203.506 276.062C203.508 276.363 203.424 276.618 203.254 276.828C203.086 277.038 202.862 277.179 202.582 277.251V277.293C202.939 277.347 203.216 277.489 203.412 277.718C203.609 277.947 203.707 278.232 203.706 278.571C203.707 278.867 203.625 279.132 203.459 279.367C203.294 279.601 203.07 279.786 202.784 279.921C202.499 280.054 202.173 280.12 201.805 280.12Z" fill="#464646"/>
<path d="M199.934 308.787V308.199L201.753 306.314C201.947 306.11 202.107 305.93 202.233 305.776C202.361 305.621 202.456 305.473 202.519 305.333C202.582 305.193 202.614 305.044 202.614 304.886C202.614 304.708 202.572 304.554 202.488 304.424C202.404 304.293 202.289 304.193 202.144 304.123C201.999 304.051 201.835 304.015 201.653 304.015C201.46 304.015 201.292 304.054 201.149 304.133C201.005 304.212 200.895 304.323 200.818 304.466C200.741 304.61 200.703 304.778 200.703 304.97H199.928C199.928 304.643 200.004 304.357 200.154 304.112C200.305 303.867 200.511 303.677 200.774 303.542C201.036 303.406 201.334 303.338 201.669 303.338C202.006 303.338 202.304 303.405 202.561 303.54C202.82 303.673 203.022 303.855 203.168 304.086C203.313 304.315 203.385 304.574 203.385 304.863C203.385 305.062 203.348 305.257 203.273 305.448C203.199 305.639 203.07 305.852 202.887 306.086C202.703 306.319 202.447 306.601 202.12 306.934L201.052 308.052V308.091H203.472V308.787H199.934Z" fill="#464646"/>
<path d="M201.973 332.152V337.528H201.159V332.966H201.128L199.842 333.806V333.029L201.183 332.152H201.973Z" fill="#464646"/>
<line x1="207.558" y1="249.598" x2="485.865" y2="249.598" stroke="#F2F2F2" stroke-width="0.369597" stroke-linecap="round" stroke-dasharray="7.39 5.91"/>
<line x1="207.558" y1="277.687" x2="485.865" y2="277.687" stroke="#F2F2F2" stroke-width="0.369597" stroke-linecap="round" stroke-dasharray="7.39 5.91"/>
<line x1="207.558" y1="305.777" x2="485.865" y2="305.777" stroke="#F2F2F2" stroke-width="0.369597" stroke-linecap="round" stroke-dasharray="7.39 5.91"/>
<line x1="207.558" y1="333.866" x2="485.865" y2="333.866" stroke="#F2F2F2" stroke-width="0.369597" stroke-linecap="round" stroke-dasharray="7.39 5.91"/>
</g>
<path d="M198.67 394.564V386.227H203.008C203.608 386.227 204.106 386.341 204.503 386.568C204.908 386.786 205.212 387.098 205.414 387.503C205.625 387.9 205.73 388.374 205.73 388.925C205.73 389.476 205.621 389.958 205.402 390.371C205.192 390.776 204.88 391.092 204.467 391.319C204.053 391.546 203.547 391.659 202.948 391.659H200.481V394.564H198.67ZM200.481 390.177H202.705C203.085 390.177 203.377 390.067 203.579 389.849C203.79 389.63 203.895 389.326 203.895 388.937C203.895 388.67 203.851 388.447 203.762 388.269C203.673 388.091 203.539 387.953 203.361 387.856C203.191 387.759 202.972 387.71 202.705 387.71H200.481V390.177ZM209.594 394.709C208.897 394.709 208.306 394.592 207.82 394.357C207.334 394.114 206.965 393.745 206.714 393.251C206.463 392.749 206.337 392.121 206.337 391.368C206.337 390.598 206.463 389.97 206.714 389.484C206.965 388.99 207.334 388.625 207.82 388.39C208.306 388.147 208.897 388.026 209.594 388.026C210.307 388.026 210.902 388.147 211.38 388.39C211.866 388.625 212.235 388.99 212.486 389.484C212.737 389.97 212.863 390.598 212.863 391.368C212.863 392.121 212.737 392.749 212.486 393.251C212.235 393.745 211.866 394.114 211.38 394.357C210.902 394.592 210.307 394.709 209.594 394.709ZM209.594 393.397C209.967 393.397 210.262 393.328 210.481 393.19C210.708 393.053 210.874 392.842 210.979 392.559C211.085 392.275 211.137 391.927 211.137 391.513V391.222C211.137 390.809 211.085 390.46 210.979 390.177C210.874 389.893 210.708 389.683 210.481 389.545C210.262 389.399 209.967 389.326 209.594 389.326C209.229 389.326 208.934 389.399 208.707 389.545C208.488 389.683 208.326 389.893 208.221 390.177C208.115 390.46 208.063 390.809 208.063 391.222V391.513C208.063 391.927 208.115 392.275 208.221 392.559C208.326 392.842 208.488 393.053 208.707 393.19C208.934 393.328 209.229 393.397 209.594 393.397ZM214.106 394.564V388.172H215.503L215.637 389.168H215.722C215.803 388.958 215.908 388.767 216.038 388.597C216.167 388.419 216.33 388.277 216.524 388.172C216.718 388.066 216.945 388.014 217.204 388.014C217.342 388.014 217.468 388.03 217.581 388.062C217.695 388.087 217.78 388.111 217.836 388.135V389.666H217.314C217.063 389.666 216.84 389.703 216.645 389.776C216.459 389.841 216.301 389.946 216.172 390.092C216.042 390.238 215.945 390.416 215.88 390.626C215.823 390.837 215.795 391.084 215.795 391.368V394.564H214.106ZM220.63 394.709C220.225 394.709 219.897 394.637 219.646 394.491C219.394 394.345 219.212 394.15 219.099 393.907C218.985 393.656 218.929 393.381 218.929 393.081V389.472H218.139V388.172H218.989L219.305 386.349H220.618V388.172H221.784V389.472H220.618V392.802C220.618 392.996 220.662 393.146 220.751 393.251C220.84 393.348 220.986 393.397 221.189 393.397H221.784V394.515C221.687 394.547 221.574 394.576 221.444 394.6C221.314 394.632 221.177 394.657 221.031 394.673C220.885 394.697 220.751 394.709 220.63 394.709ZM223.167 394.564V389.472H222.256V388.172H223.167V387.467C223.167 387.119 223.224 386.811 223.337 386.543C223.459 386.268 223.649 386.053 223.908 385.899C224.168 385.745 224.512 385.668 224.941 385.668C225.063 385.668 225.188 385.677 225.318 385.693C225.456 385.709 225.585 385.733 225.707 385.766C225.836 385.79 225.946 385.818 226.035 385.851V386.969H225.427C225.233 386.969 225.087 387.017 224.99 387.115C224.901 387.212 224.856 387.354 224.856 387.54V388.172H226.035V389.472H224.856V394.564H223.167ZM229.709 394.709C229.012 394.709 228.421 394.592 227.934 394.357C227.448 394.114 227.08 393.745 226.829 393.251C226.577 392.749 226.452 392.121 226.452 391.368C226.452 390.598 226.577 389.97 226.829 389.484C227.08 388.99 227.448 388.625 227.934 388.39C228.421 388.147 229.012 388.026 229.709 388.026C230.422 388.026 231.017 388.147 231.495 388.39C231.981 388.625 232.35 388.99 232.601 389.484C232.852 389.97 232.977 390.598 232.977 391.368C232.977 392.121 232.852 392.749 232.601 393.251C232.35 393.745 231.981 394.114 231.495 394.357C231.017 394.592 230.422 394.709 229.709 394.709ZM229.709 393.397C230.081 393.397 230.377 393.328 230.596 393.19C230.823 393.053 230.989 392.842 231.094 392.559C231.199 392.275 231.252 391.927 231.252 391.513V391.222C231.252 390.809 231.199 390.46 231.094 390.177C230.989 389.893 230.823 389.683 230.596 389.545C230.377 389.399 230.081 389.326 229.709 389.326C229.344 389.326 229.048 389.399 228.822 389.545C228.603 389.683 228.441 389.893 228.335 390.177C228.23 390.46 228.177 390.809 228.177 391.222V391.513C228.177 391.927 228.23 392.275 228.335 392.559C228.441 392.842 228.603 393.053 228.822 393.19C229.048 393.328 229.344 393.397 229.709 393.397ZM234.22 394.564V385.778H235.909V394.564H234.22ZM237.46 387.236V385.778H239.149V387.236H237.46ZM237.46 394.564V388.172H239.149V394.564H237.46ZM243.641 394.709C242.944 394.709 242.352 394.592 241.866 394.357C241.38 394.114 241.012 393.745 240.761 393.251C240.509 392.749 240.384 392.121 240.384 391.368C240.384 390.598 240.509 389.97 240.761 389.484C241.012 388.99 241.38 388.625 241.866 388.39C242.352 388.147 242.944 388.026 243.641 388.026C244.353 388.026 244.949 388.147 245.427 388.39C245.913 388.625 246.282 388.99 246.533 389.484C246.784 389.97 246.909 390.598 246.909 391.368C246.909 392.121 246.784 392.749 246.533 393.251C246.282 393.745 245.913 394.114 245.427 394.357C244.949 394.592 244.353 394.709 243.641 394.709ZM243.641 393.397C244.013 393.397 244.309 393.328 244.528 393.19C244.754 393.053 244.921 392.842 245.026 392.559C245.131 392.275 245.184 391.927 245.184 391.513V391.222C245.184 390.809 245.131 390.46 245.026 390.177C244.921 389.893 244.754 389.683 244.528 389.545C244.309 389.399 244.013 389.326 243.641 389.326C243.276 389.326 242.98 389.399 242.753 389.545C242.535 389.683 242.373 389.893 242.267 390.177C242.162 390.46 242.109 390.809 242.109 391.222V391.513C242.109 391.927 242.162 392.275 242.267 392.559C242.373 392.842 242.535 393.053 242.753 393.19C242.98 393.328 243.276 393.397 243.641 393.397ZM250.683 394.564V386.227H255.022C255.621 386.227 256.119 386.341 256.516 386.568C256.921 386.786 257.225 387.098 257.428 387.503C257.638 387.9 257.744 388.374 257.744 388.925C257.744 389.476 257.634 389.958 257.415 390.371C257.205 390.776 256.893 391.092 256.48 391.319C256.067 391.546 255.56 391.659 254.961 391.659H252.494V394.564H250.683ZM252.494 390.177H254.718C255.099 390.177 255.39 390.067 255.593 389.849C255.803 389.63 255.909 389.326 255.909 388.937C255.909 388.67 255.864 388.447 255.775 388.269C255.686 388.091 255.552 387.953 255.374 387.856C255.204 387.759 254.985 387.71 254.718 387.71H252.494V390.177ZM261.571 394.709C260.866 394.709 260.275 394.592 259.797 394.357C259.319 394.114 258.958 393.745 258.715 393.251C258.472 392.757 258.351 392.129 258.351 391.368C258.351 390.598 258.472 389.97 258.715 389.484C258.958 388.99 259.315 388.625 259.784 388.39C260.262 388.147 260.846 388.026 261.534 388.026C262.182 388.026 262.729 388.143 263.175 388.378C263.62 388.605 263.957 388.962 264.183 389.448C264.41 389.926 264.524 390.545 264.524 391.307V391.744H260.064C260.08 392.117 260.137 392.433 260.234 392.692C260.339 392.951 260.497 393.146 260.708 393.276C260.927 393.397 261.214 393.458 261.571 393.458C261.765 393.458 261.939 393.433 262.093 393.385C262.255 393.336 262.393 393.263 262.506 393.166C262.62 393.069 262.709 392.947 262.774 392.802C262.839 392.656 262.871 392.49 262.871 392.303H264.524C264.524 392.708 264.451 393.061 264.305 393.361C264.159 393.66 263.957 393.911 263.697 394.114C263.438 394.308 263.126 394.458 262.762 394.564C262.405 394.661 262.008 394.709 261.571 394.709ZM260.088 390.675H262.786C262.786 390.432 262.754 390.221 262.689 390.043C262.632 389.865 262.551 389.719 262.446 389.606C262.34 389.492 262.211 389.411 262.057 389.363C261.911 389.306 261.745 389.278 261.559 389.278C261.251 389.278 260.992 389.33 260.781 389.436C260.578 389.533 260.42 389.687 260.307 389.897C260.202 390.1 260.129 390.359 260.088 390.675ZM265.763 394.564V388.172H267.16L267.294 389.168H267.379C267.46 388.958 267.565 388.767 267.695 388.597C267.825 388.419 267.987 388.277 268.181 388.172C268.376 388.066 268.602 388.014 268.862 388.014C268.999 388.014 269.125 388.03 269.238 388.062C269.352 388.087 269.437 388.111 269.494 388.135V389.666H268.971C268.72 389.666 268.497 389.703 268.303 389.776C268.116 389.841 267.958 389.946 267.829 390.092C267.699 390.238 267.602 390.416 267.537 390.626C267.48 390.837 267.452 391.084 267.452 391.368V394.564H265.763ZM270.671 394.564V389.472H269.759V388.172H270.671V387.467C270.671 387.119 270.728 386.811 270.841 386.543C270.963 386.268 271.153 386.053 271.412 385.899C271.671 385.745 272.016 385.668 272.445 385.668C272.567 385.668 272.692 385.677 272.822 385.693C272.959 385.709 273.089 385.733 273.211 385.766C273.34 385.79 273.45 385.818 273.539 385.851V386.969H272.931C272.737 386.969 272.591 387.017 272.494 387.115C272.405 387.212 272.36 387.354 272.36 387.54V388.172H273.539V389.472H272.36V394.564H270.671ZM277.212 394.709C276.516 394.709 275.924 394.592 275.438 394.357C274.952 394.114 274.584 393.745 274.332 393.251C274.081 392.749 273.956 392.121 273.956 391.368C273.956 390.598 274.081 389.97 274.332 389.484C274.584 388.99 274.952 388.625 275.438 388.39C275.924 388.147 276.516 388.026 277.212 388.026C277.925 388.026 278.521 388.147 278.999 388.39C279.485 388.625 279.853 388.99 280.105 389.484C280.356 389.97 280.481 390.598 280.481 391.368C280.481 392.121 280.356 392.749 280.105 393.251C279.853 393.745 279.485 394.114 278.999 394.357C278.521 394.592 277.925 394.709 277.212 394.709ZM277.212 393.397C277.585 393.397 277.881 393.328 278.099 393.19C278.326 393.053 278.492 392.842 278.598 392.559C278.703 392.275 278.756 391.927 278.756 391.513V391.222C278.756 390.809 278.703 390.46 278.598 390.177C278.492 389.893 278.326 389.683 278.099 389.545C277.881 389.399 277.585 389.326 277.212 389.326C276.848 389.326 276.552 389.399 276.325 389.545C276.107 389.683 275.945 389.893 275.839 390.177C275.734 390.46 275.681 390.809 275.681 391.222V391.513C275.681 391.927 275.734 392.275 275.839 392.559C275.945 392.842 276.107 393.053 276.325 393.19C276.552 393.328 276.848 393.397 277.212 393.397ZM281.724 394.564V388.172H283.122L283.255 389.168H283.34C283.421 388.958 283.527 388.767 283.656 388.597C283.786 388.419 283.948 388.277 284.142 388.172C284.337 388.066 284.564 388.014 284.823 388.014C284.961 388.014 285.086 388.03 285.2 388.062C285.313 388.087 285.398 388.111 285.455 388.135V389.666H284.932C284.681 389.666 284.458 389.703 284.264 389.776C284.078 389.841 283.92 389.946 283.79 390.092C283.66 390.238 283.563 390.416 283.498 390.626C283.442 390.837 283.413 391.084 283.413 391.368V394.564H281.724ZM286.34 394.564V388.172H287.738L287.872 389.047H287.957C288.094 388.836 288.256 388.654 288.443 388.5C288.637 388.346 288.852 388.228 289.087 388.147C289.33 388.066 289.589 388.026 289.864 388.026C290.269 388.026 290.618 388.107 290.909 388.269C291.209 388.431 291.44 388.69 291.602 389.047H291.687C291.825 388.836 291.991 388.654 292.185 388.5C292.38 388.346 292.603 388.228 292.854 388.147C293.105 388.066 293.372 388.026 293.656 388.026C294.061 388.026 294.409 388.099 294.701 388.245C295.001 388.39 295.236 388.629 295.406 388.962C295.576 389.286 295.661 389.707 295.661 390.225V394.564H293.972V390.529C293.972 390.327 293.947 390.157 293.899 390.019C293.858 389.873 293.798 389.76 293.717 389.679C293.636 389.589 293.534 389.525 293.413 389.484C293.291 389.444 293.162 389.423 293.024 389.423C292.797 389.423 292.595 389.484 292.416 389.606C292.238 389.727 292.096 389.893 291.991 390.104C291.894 390.315 291.845 390.558 291.845 390.833V394.564H290.156V390.529C290.156 390.327 290.132 390.157 290.083 390.019C290.043 389.873 289.982 389.76 289.901 389.679C289.82 389.589 289.719 389.525 289.597 389.484C289.484 389.444 289.354 389.423 289.208 389.423C288.989 389.423 288.787 389.484 288.601 389.606C288.422 389.727 288.281 389.893 288.175 390.104C288.078 390.315 288.03 390.558 288.03 390.833V394.564H286.34ZM298.852 394.709C298.642 394.709 298.415 394.685 298.172 394.637C297.937 394.588 297.714 394.503 297.503 394.381C297.293 394.252 297.119 394.069 296.981 393.834C296.851 393.591 296.786 393.284 296.786 392.911C296.786 392.465 296.884 392.097 297.078 391.805C297.272 391.513 297.548 391.287 297.904 391.125C298.269 390.954 298.702 390.837 299.205 390.772C299.707 390.707 300.262 390.675 300.869 390.675V390.201C300.869 390.015 300.837 389.853 300.772 389.715C300.716 389.577 300.61 389.468 300.456 389.387C300.31 389.306 300.104 389.265 299.837 389.265C299.569 389.265 299.35 389.298 299.18 389.363C299.018 389.427 298.901 389.512 298.828 389.618C298.763 389.715 298.731 389.824 298.731 389.946V390.092H297.09C297.082 390.051 297.078 390.015 297.078 389.982C297.078 389.942 297.078 389.893 297.078 389.837C297.078 389.464 297.191 389.144 297.418 388.877C297.645 388.601 297.965 388.39 298.378 388.245C298.791 388.099 299.274 388.026 299.824 388.026C300.416 388.026 300.91 388.103 301.307 388.257C301.712 388.411 302.02 388.638 302.23 388.937C302.449 389.237 302.559 389.614 302.559 390.067V392.972C302.559 393.118 302.599 393.227 302.68 393.3C302.769 393.365 302.866 393.397 302.972 393.397H303.373V394.503C303.292 394.543 303.166 394.584 302.996 394.624C302.826 394.673 302.619 394.697 302.376 394.697C302.141 394.697 301.931 394.661 301.744 394.588C301.566 394.523 301.416 394.43 301.295 394.308C301.173 394.179 301.088 394.025 301.04 393.847H300.955C300.817 394.017 300.647 394.167 300.444 394.296C300.25 394.426 300.019 394.527 299.751 394.6C299.492 394.673 299.192 394.709 298.852 394.709ZM299.423 393.433C299.65 393.433 299.853 393.401 300.031 393.336C300.209 393.263 300.359 393.17 300.481 393.057C300.602 392.935 300.695 392.789 300.76 392.619C300.833 392.449 300.869 392.267 300.869 392.072V391.72C300.416 391.72 300.011 391.752 299.654 391.817C299.298 391.874 299.014 391.975 298.804 392.121C298.601 392.267 298.5 392.469 298.5 392.729C298.5 392.874 298.536 393 298.609 393.105C298.682 393.211 298.787 393.292 298.925 393.348C299.063 393.405 299.229 393.433 299.423 393.433ZM304.212 394.564V388.172H305.61L305.743 389.047H305.828C305.974 388.836 306.148 388.654 306.351 388.5C306.562 388.346 306.796 388.228 307.056 388.147C307.315 388.066 307.598 388.026 307.906 388.026C308.328 388.026 308.696 388.103 309.012 388.257C309.328 388.411 309.571 388.654 309.741 388.986C309.919 389.318 310.009 389.751 310.009 390.286V394.564H308.319V390.553C308.319 390.351 308.295 390.181 308.247 390.043C308.198 389.897 308.125 389.78 308.028 389.691C307.939 389.593 307.825 389.525 307.688 389.484C307.55 389.444 307.396 389.423 307.226 389.423C306.975 389.423 306.748 389.484 306.545 389.606C306.343 389.727 306.185 389.893 306.071 390.104C305.958 390.315 305.901 390.558 305.901 390.833V394.564H304.212ZM314.329 394.709C313.649 394.709 313.078 394.592 312.616 394.357C312.154 394.114 311.802 393.745 311.559 393.251C311.324 392.749 311.206 392.121 311.206 391.368C311.206 390.598 311.324 389.97 311.559 389.484C311.802 388.99 312.154 388.621 312.616 388.378C313.086 388.135 313.657 388.014 314.329 388.014C314.767 388.014 315.16 388.066 315.508 388.172C315.865 388.277 316.172 388.439 316.432 388.658C316.691 388.877 316.885 389.148 317.015 389.472C317.153 389.788 317.221 390.165 317.221 390.602H315.532C315.532 390.31 315.488 390.071 315.399 389.885C315.31 389.699 315.172 389.557 314.986 389.46C314.807 389.363 314.58 389.314 314.305 389.314C313.981 389.314 313.718 389.387 313.515 389.533C313.313 389.679 313.163 389.893 313.066 390.177C312.968 390.46 312.92 390.813 312.92 391.234V391.513C312.92 391.927 312.968 392.275 313.066 392.559C313.171 392.842 313.329 393.057 313.539 393.203C313.75 393.34 314.026 393.409 314.366 393.409C314.641 393.409 314.868 393.361 315.046 393.263C315.233 393.166 315.374 393.02 315.472 392.826C315.569 392.631 315.617 392.397 315.617 392.121H317.221C317.221 392.534 317.153 392.903 317.015 393.227C316.885 393.551 316.691 393.822 316.432 394.041C316.18 394.26 315.877 394.426 315.52 394.539C315.164 394.653 314.767 394.709 314.329 394.709ZM321.392 394.709C320.688 394.709 320.096 394.592 319.618 394.357C319.14 394.114 318.78 393.745 318.537 393.251C318.294 392.757 318.172 392.129 318.172 391.368C318.172 390.598 318.294 389.97 318.537 389.484C318.78 388.99 319.136 388.625 319.606 388.39C320.084 388.147 320.667 388.026 321.356 388.026C322.004 388.026 322.551 388.143 322.997 388.378C323.442 388.605 323.778 388.962 324.005 389.448C324.232 389.926 324.345 390.545 324.345 391.307V391.744H319.886C319.902 392.117 319.959 392.433 320.056 392.692C320.161 392.951 320.319 393.146 320.53 393.276C320.748 393.397 321.036 393.458 321.392 393.458C321.587 393.458 321.761 393.433 321.915 393.385C322.077 393.336 322.215 393.263 322.328 393.166C322.442 393.069 322.531 392.947 322.596 392.802C322.66 392.656 322.693 392.49 322.693 392.303H324.345C324.345 392.708 324.272 393.061 324.127 393.361C323.981 393.66 323.778 393.911 323.519 394.114C323.26 394.308 322.948 394.458 322.583 394.564C322.227 394.661 321.83 394.709 321.392 394.709ZM319.91 390.675H322.608C322.608 390.432 322.575 390.221 322.51 390.043C322.454 389.865 322.373 389.719 322.267 389.606C322.162 389.492 322.032 389.411 321.879 389.363C321.733 389.306 321.567 389.278 321.38 389.278C321.072 389.278 320.813 389.33 320.603 389.436C320.4 389.533 320.242 389.687 320.129 389.897C320.023 390.1 319.95 390.359 319.91 390.675ZM333.657 396.143L332.296 394.685C332.239 394.693 332.179 394.697 332.114 394.697C332.049 394.705 331.988 394.709 331.931 394.709C331.065 394.709 330.315 394.551 329.683 394.235C329.06 393.911 328.578 393.429 328.237 392.789C327.905 392.149 327.739 391.351 327.739 390.396C327.739 389.415 327.909 388.609 328.249 387.977C328.59 387.337 329.08 386.863 329.72 386.556C330.36 386.24 331.121 386.082 332.004 386.082C332.904 386.082 333.669 386.24 334.301 386.556C334.941 386.863 335.431 387.337 335.771 387.977C336.112 388.609 336.282 389.415 336.282 390.396C336.282 391.408 336.096 392.239 335.723 392.887C335.35 393.535 334.824 394.013 334.143 394.321L336.015 396.143H333.657ZM332.004 393.227C332.401 393.227 332.75 393.17 333.049 393.057C333.349 392.943 333.6 392.773 333.803 392.546C334.005 392.32 334.159 392.044 334.265 391.72C334.37 391.388 334.423 391.011 334.423 390.59V390.213C334.423 389.784 334.37 389.403 334.265 389.071C334.159 388.739 334.005 388.463 333.803 388.245C333.6 388.018 333.349 387.848 333.049 387.734C332.75 387.621 332.401 387.564 332.004 387.564C331.616 387.564 331.271 387.621 330.971 387.734C330.672 387.848 330.421 388.018 330.218 388.245C330.016 388.463 329.862 388.739 329.756 389.071C329.659 389.403 329.61 389.784 329.61 390.213V390.59C329.61 391.011 329.659 391.388 329.756 391.72C329.862 392.044 330.016 392.32 330.218 392.546C330.421 392.773 330.672 392.943 330.971 393.057C331.271 393.17 331.616 393.227 332.004 393.227ZM340.936 394.564V392.741H337.181V391.392C337.497 390.89 337.792 390.359 338.068 389.8C338.343 389.241 338.598 388.65 338.833 388.026C339.076 387.402 339.279 386.754 339.441 386.082H341.179C341.09 386.47 340.964 386.88 340.802 387.309C340.648 387.738 340.47 388.164 340.267 388.585C340.065 389.006 339.858 389.403 339.648 389.776C339.445 390.14 339.251 390.464 339.064 390.748C338.878 391.031 338.72 391.246 338.59 391.392H340.936V389.375C341.017 389.221 341.098 389.055 341.179 388.877C341.268 388.69 341.353 388.504 341.434 388.318C341.515 388.123 341.588 387.933 341.653 387.746C341.725 387.56 341.782 387.386 341.823 387.224H342.6V391.392H343.67V392.741H342.6V394.564H340.936Z" fill="#111827"/>
<path d="M419.726 394.184C419.146 394.184 418.646 394.09 418.226 393.904C417.806 393.717 417.483 393.424 417.256 393.024C417.036 392.617 416.926 392.097 416.926 391.464V387.205H417.876V391.564C417.876 392.164 418.036 392.614 418.356 392.914C418.682 393.214 419.139 393.364 419.726 393.364C420.319 393.364 420.782 393.214 421.115 392.914C421.448 392.614 421.615 392.164 421.615 391.564V387.205H422.555V391.464C422.555 392.097 422.442 392.617 422.215 393.024C421.988 393.424 421.662 393.717 421.235 393.904C420.815 394.09 420.312 394.184 419.726 394.184ZM424.089 395.793V388.805H424.789L424.879 389.555H424.949C425.129 389.261 425.359 389.045 425.639 388.905C425.919 388.758 426.235 388.685 426.588 388.685C427.028 388.685 427.401 388.782 427.708 388.975C428.015 389.168 428.251 389.471 428.418 389.885C428.585 390.291 428.668 390.821 428.668 391.474C428.668 392.087 428.581 392.597 428.408 393.004C428.241 393.404 428.005 393.7 427.698 393.894C427.391 394.087 427.035 394.184 426.628 394.184C426.402 394.184 426.188 394.157 425.988 394.104C425.789 394.05 425.609 393.967 425.449 393.854C425.289 393.734 425.149 393.584 425.029 393.404H424.969V395.793H424.089ZM426.348 393.414C426.675 393.414 426.942 393.35 427.148 393.224C427.355 393.091 427.508 392.887 427.608 392.614C427.708 392.334 427.758 391.977 427.758 391.544V391.334C427.758 390.874 427.705 390.508 427.598 390.235C427.491 389.955 427.335 389.755 427.128 389.635C426.928 389.515 426.678 389.455 426.378 389.455C426.052 389.455 425.782 389.528 425.569 389.675C425.362 389.815 425.209 390.028 425.109 390.315C425.015 390.601 424.969 390.951 424.969 391.364V391.514C424.969 391.881 425.002 392.187 425.069 392.434C425.142 392.674 425.242 392.867 425.369 393.014C425.502 393.16 425.652 393.264 425.819 393.324C425.985 393.384 426.162 393.414 426.348 393.414ZM431.551 394.184C431.118 394.184 430.744 394.087 430.431 393.894C430.125 393.7 429.885 393.4 429.711 392.994C429.545 392.581 429.461 392.047 429.461 391.394C429.461 390.774 429.548 390.265 429.721 389.865C429.895 389.465 430.135 389.168 430.441 388.975C430.748 388.782 431.104 388.685 431.511 388.685C431.744 388.685 431.961 388.712 432.161 388.765C432.361 388.818 432.537 388.902 432.691 389.015C432.851 389.128 432.991 389.278 433.111 389.465H433.171V386.835H434.05V394.064H433.341L433.261 393.314H433.191C433.011 393.607 432.777 393.827 432.491 393.974C432.204 394.114 431.891 394.184 431.551 394.184ZM431.761 393.414C432.094 393.414 432.364 393.34 432.571 393.194C432.777 393.047 432.927 392.834 433.021 392.554C433.121 392.274 433.171 391.927 433.171 391.514V391.354C433.171 390.994 433.134 390.691 433.061 390.444C432.987 390.198 432.887 390.001 432.761 389.855C432.634 389.708 432.487 389.605 432.321 389.545C432.154 389.485 431.978 389.455 431.791 389.455C431.464 389.455 431.198 389.521 430.991 389.655C430.784 389.781 430.631 389.985 430.531 390.265C430.431 390.538 430.381 390.894 430.381 391.334V391.544C430.381 391.997 430.435 392.364 430.541 392.644C430.648 392.917 430.801 393.114 431.001 393.234C431.208 393.354 431.461 393.414 431.761 393.414ZM436.754 394.184C436.56 394.184 436.367 394.16 436.174 394.114C435.98 394.067 435.8 393.99 435.634 393.884C435.467 393.777 435.334 393.63 435.234 393.444C435.134 393.25 435.084 393.011 435.084 392.724C435.084 392.364 435.171 392.067 435.344 391.834C435.517 391.601 435.757 391.421 436.064 391.294C436.377 391.161 436.747 391.071 437.173 391.024C437.6 390.971 438.063 390.944 438.563 390.944V390.344C438.563 390.151 438.53 389.985 438.463 389.845C438.396 389.705 438.277 389.598 438.103 389.525C437.937 389.445 437.697 389.405 437.383 389.405C437.083 389.405 436.844 389.445 436.664 389.525C436.49 389.598 436.367 389.695 436.294 389.815C436.227 389.935 436.194 390.068 436.194 390.215V390.364H435.344C435.337 390.331 435.334 390.298 435.334 390.265C435.334 390.231 435.334 390.191 435.334 390.145C435.334 389.825 435.421 389.558 435.594 389.345C435.774 389.125 436.024 388.961 436.344 388.855C436.664 388.742 437.03 388.685 437.443 388.685C437.883 388.685 438.25 388.748 438.543 388.875C438.843 389.001 439.066 389.181 439.213 389.415C439.366 389.648 439.443 389.928 439.443 390.255V393.104C439.443 393.23 439.473 393.32 439.533 393.374C439.593 393.42 439.666 393.444 439.753 393.444H440.143V394.024C440.049 394.064 439.946 394.097 439.833 394.124C439.719 394.157 439.59 394.174 439.443 394.174C439.27 394.174 439.126 394.137 439.013 394.064C438.9 393.997 438.813 393.904 438.753 393.784C438.693 393.657 438.653 393.517 438.633 393.364H438.563C438.443 393.53 438.29 393.677 438.103 393.804C437.923 393.924 437.72 394.017 437.493 394.084C437.267 394.15 437.02 394.184 436.754 394.184ZM436.973 393.444C437.187 393.444 437.387 393.41 437.573 393.344C437.767 393.277 437.937 393.184 438.083 393.064C438.23 392.937 438.346 392.787 438.433 392.614C438.52 392.441 438.563 392.251 438.563 392.044V391.604C438.023 391.604 437.563 391.634 437.183 391.694C436.804 391.754 436.51 391.861 436.304 392.014C436.104 392.167 436.004 392.384 436.004 392.664C436.004 392.844 436.044 392.991 436.124 393.104C436.204 393.217 436.317 393.304 436.464 393.364C436.61 393.417 436.78 393.444 436.973 393.444ZM442.111 394.184C441.838 394.184 441.625 394.134 441.472 394.034C441.318 393.927 441.208 393.79 441.142 393.624C441.075 393.45 441.042 393.267 441.042 393.074V389.545H440.362V388.805H441.062L441.222 387.335H441.922V388.805H442.911V389.545H441.922V392.944C441.922 393.11 441.952 393.237 442.011 393.324C442.071 393.404 442.185 393.444 442.351 393.444H442.911V394.024C442.845 394.057 442.765 394.084 442.671 394.104C442.578 394.124 442.481 394.14 442.381 394.154C442.288 394.174 442.198 394.184 442.111 394.184ZM445.949 394.184C445.429 394.184 444.99 394.087 444.63 393.894C444.276 393.694 444.006 393.39 443.82 392.984C443.64 392.577 443.55 392.061 443.55 391.434C443.55 390.801 443.64 390.285 443.82 389.885C444.006 389.478 444.28 389.178 444.64 388.985C445 388.785 445.449 388.685 445.989 388.685C446.482 388.685 446.896 388.782 447.229 388.975C447.562 389.161 447.812 389.445 447.979 389.825C448.152 390.198 448.239 390.668 448.239 391.234V391.654H444.46C444.473 392.074 444.533 392.421 444.64 392.694C444.753 392.961 444.92 393.157 445.139 393.284C445.359 393.404 445.636 393.464 445.969 393.464C446.196 393.464 446.393 393.437 446.559 393.384C446.732 393.324 446.876 393.24 446.989 393.134C447.109 393.027 447.199 392.901 447.259 392.754C447.319 392.607 447.352 392.447 447.359 392.274H448.219C448.212 392.554 448.159 392.814 448.059 393.054C447.959 393.287 447.812 393.487 447.619 393.654C447.426 393.82 447.189 393.95 446.909 394.044C446.629 394.137 446.309 394.184 445.949 394.184ZM444.48 390.994H447.329C447.329 390.701 447.296 390.454 447.229 390.255C447.162 390.055 447.066 389.891 446.939 389.765C446.819 389.638 446.676 389.548 446.509 389.495C446.349 389.435 446.166 389.405 445.959 389.405C445.653 389.405 445.393 389.461 445.179 389.575C444.966 389.688 444.803 389.861 444.69 390.095C444.576 390.328 444.506 390.628 444.48 390.994ZM451.117 394.184C450.683 394.184 450.31 394.087 449.997 393.894C449.69 393.7 449.45 393.4 449.277 392.994C449.11 392.581 449.027 392.047 449.027 391.394C449.027 390.774 449.114 390.265 449.287 389.865C449.46 389.465 449.7 389.168 450.007 388.975C450.313 388.782 450.67 388.685 451.077 388.685C451.31 388.685 451.526 388.712 451.726 388.765C451.926 388.818 452.103 388.902 452.256 389.015C452.416 389.128 452.556 389.278 452.676 389.465H452.736V386.835H453.616V394.064H452.906L452.826 393.314H452.756C452.576 393.607 452.343 393.827 452.056 393.974C451.77 394.114 451.456 394.184 451.117 394.184ZM451.326 393.414C451.66 393.414 451.93 393.34 452.136 393.194C452.343 393.047 452.493 392.834 452.586 392.554C452.686 392.274 452.736 391.927 452.736 391.514V391.354C452.736 390.994 452.7 390.691 452.626 390.444C452.553 390.198 452.453 390.001 452.326 389.855C452.2 389.708 452.053 389.605 451.886 389.545C451.72 389.485 451.543 389.455 451.356 389.455C451.03 389.455 450.763 389.521 450.557 389.655C450.35 389.781 450.197 389.985 450.097 390.265C449.997 390.538 449.947 390.894 449.947 391.334V391.544C449.947 391.997 450 392.364 450.107 392.644C450.213 392.917 450.367 393.114 450.567 393.234C450.773 393.354 451.027 393.414 451.326 393.414ZM459.268 394.184C458.702 394.184 458.242 394.094 457.889 393.914C457.535 393.734 457.275 393.494 457.109 393.194C456.949 392.894 456.869 392.561 456.869 392.194C456.869 391.821 456.962 391.491 457.149 391.204C457.335 390.918 457.629 390.698 458.029 390.544C457.709 390.378 457.465 390.158 457.299 389.885C457.139 389.611 457.059 389.308 457.059 388.975C457.059 388.622 457.139 388.305 457.299 388.025C457.465 387.738 457.712 387.512 458.039 387.345C458.372 387.172 458.782 387.085 459.268 387.085C459.755 387.085 460.161 387.172 460.488 387.345C460.815 387.512 461.061 387.738 461.228 388.025C461.394 388.305 461.478 388.622 461.478 388.975C461.478 389.308 461.394 389.611 461.228 389.885C461.061 390.158 460.818 390.378 460.498 390.544C460.905 390.698 461.198 390.918 461.378 391.204C461.564 391.491 461.658 391.821 461.658 392.194C461.658 392.561 461.574 392.894 461.408 393.194C461.248 393.494 460.991 393.734 460.638 393.914C460.291 394.094 459.835 394.184 459.268 394.184ZM459.268 393.454C459.755 393.454 460.121 393.34 460.368 393.114C460.615 392.887 460.738 392.577 460.738 392.184C460.738 391.797 460.615 391.491 460.368 391.264C460.121 391.038 459.755 390.924 459.268 390.924C458.782 390.924 458.412 391.038 458.159 391.264C457.912 391.491 457.789 391.797 457.789 392.184C457.789 392.577 457.912 392.887 458.159 393.114C458.412 393.34 458.782 393.454 459.268 393.454ZM459.268 390.195C459.675 390.195 459.995 390.091 460.228 389.885C460.461 389.671 460.578 389.375 460.578 388.995C460.578 388.622 460.461 388.332 460.228 388.125C459.995 387.918 459.675 387.815 459.268 387.815C458.862 387.815 458.542 387.918 458.308 388.125C458.075 388.332 457.959 388.622 457.959 388.995C457.959 389.375 458.075 389.671 458.308 389.885C458.542 390.091 458.862 390.195 459.268 390.195ZM466.708 394.184C466.275 394.184 465.902 394.087 465.589 393.894C465.282 393.7 465.042 393.4 464.869 392.994C464.702 392.581 464.619 392.047 464.619 391.394C464.619 390.774 464.706 390.265 464.879 389.865C465.052 389.465 465.292 389.168 465.599 388.975C465.905 388.782 466.262 388.685 466.668 388.685C466.902 388.685 467.118 388.712 467.318 388.765C467.518 388.818 467.695 388.902 467.848 389.015C468.008 389.128 468.148 389.278 468.268 389.465H468.328V386.835H469.208V394.064H468.498L468.418 393.314H468.348C468.168 393.607 467.935 393.827 467.648 393.974C467.362 394.114 467.048 394.184 466.708 394.184ZM466.918 393.414C467.252 393.414 467.522 393.34 467.728 393.194C467.935 393.047 468.085 392.834 468.178 392.554C468.278 392.274 468.328 391.927 468.328 391.514V391.354C468.328 390.994 468.291 390.691 468.218 390.444C468.145 390.198 468.045 390.001 467.918 389.855C467.792 389.708 467.645 389.605 467.478 389.545C467.312 389.485 467.135 389.455 466.948 389.455C466.622 389.455 466.355 389.521 466.149 389.655C465.942 389.781 465.789 389.985 465.689 390.265C465.589 390.538 465.539 390.894 465.539 391.334V391.544C465.539 391.997 465.592 392.364 465.699 392.644C465.805 392.917 465.959 393.114 466.159 393.234C466.365 393.354 466.619 393.414 466.918 393.414ZM471.911 394.184C471.718 394.184 471.524 394.16 471.331 394.114C471.138 394.067 470.958 393.99 470.791 393.884C470.625 393.777 470.491 393.63 470.391 393.444C470.291 393.25 470.241 393.011 470.241 392.724C470.241 392.364 470.328 392.067 470.501 391.834C470.675 391.601 470.915 391.421 471.221 391.294C471.534 391.161 471.904 391.071 472.331 391.024C472.758 390.971 473.221 390.944 473.721 390.944V390.344C473.721 390.151 473.687 389.985 473.621 389.845C473.554 389.705 473.434 389.598 473.261 389.525C473.094 389.445 472.854 389.405 472.541 389.405C472.241 389.405 472.001 389.445 471.821 389.525C471.648 389.598 471.524 389.695 471.451 389.815C471.385 389.935 471.351 390.068 471.351 390.215V390.364H470.501C470.495 390.331 470.491 390.298 470.491 390.265C470.491 390.231 470.491 390.191 470.491 390.145C470.491 389.825 470.578 389.558 470.751 389.345C470.931 389.125 471.181 388.961 471.501 388.855C471.821 388.742 472.188 388.685 472.601 388.685C473.041 388.685 473.407 388.748 473.701 388.875C474.001 389.001 474.224 389.181 474.37 389.415C474.524 389.648 474.6 389.928 474.6 390.255V393.104C474.6 393.23 474.63 393.32 474.69 393.374C474.75 393.42 474.824 393.444 474.91 393.444H475.3V394.024C475.207 394.064 475.104 394.097 474.99 394.124C474.877 394.157 474.747 394.174 474.6 394.174C474.427 394.174 474.284 394.137 474.171 394.064C474.057 393.997 473.971 393.904 473.911 393.784C473.851 393.657 473.811 393.517 473.791 393.364H473.721C473.601 393.53 473.447 393.677 473.261 393.804C473.081 393.924 472.877 394.017 472.651 394.084C472.424 394.15 472.178 394.184 471.911 394.184ZM472.131 393.444C472.344 393.444 472.544 393.41 472.731 393.344C472.924 393.277 473.094 393.184 473.241 393.064C473.387 392.937 473.504 392.787 473.591 392.614C473.677 392.441 473.721 392.251 473.721 392.044V391.604C473.181 391.604 472.721 391.634 472.341 391.694C471.961 391.754 471.668 391.861 471.461 392.014C471.261 392.167 471.161 392.384 471.161 392.664C471.161 392.844 471.201 392.991 471.281 393.104C471.361 393.217 471.474 393.304 471.621 393.364C471.768 393.417 471.938 393.444 472.131 393.444ZM476.489 395.883C476.329 395.883 476.189 395.87 476.069 395.843C475.956 395.823 475.879 395.81 475.839 395.803V395.163H476.279C476.439 395.163 476.596 395.13 476.749 395.063C476.902 394.997 477.046 394.883 477.179 394.723C477.312 394.563 477.426 394.344 477.519 394.064L475.479 388.805H476.399L477.449 391.514C477.496 391.641 477.549 391.797 477.609 391.984C477.676 392.164 477.739 392.351 477.799 392.544C477.866 392.737 477.919 392.907 477.959 393.054H478.019C478.045 392.947 478.079 392.827 478.119 392.694C478.159 392.561 478.199 392.424 478.239 392.284C478.285 392.137 478.329 392.001 478.369 391.874C478.415 391.741 478.452 391.624 478.479 391.524L479.368 388.805H480.258L478.479 393.914C478.379 394.2 478.269 394.464 478.149 394.703C478.029 394.95 477.895 395.16 477.749 395.333C477.602 395.507 477.426 395.64 477.219 395.733C477.012 395.833 476.769 395.883 476.489 395.883ZM482.917 394.184C482.557 394.184 482.24 394.147 481.967 394.074C481.694 394 481.467 393.894 481.287 393.754C481.107 393.614 480.97 393.447 480.877 393.254C480.784 393.061 480.737 392.841 480.737 392.594C480.737 392.561 480.737 392.531 480.737 392.504C480.737 392.471 480.741 392.444 480.747 392.424H481.617C481.61 392.451 481.607 392.474 481.607 392.494C481.607 392.514 481.607 392.534 481.607 392.554C481.614 392.787 481.674 392.971 481.787 393.104C481.907 393.237 482.07 393.33 482.277 393.384C482.483 393.437 482.713 393.464 482.967 393.464C483.187 393.464 483.39 393.437 483.577 393.384C483.763 393.324 483.91 393.237 484.016 393.124C484.13 393.004 484.186 392.854 484.186 392.674C484.186 392.454 484.113 392.287 483.966 392.174C483.826 392.054 483.64 391.961 483.407 391.894C483.173 391.827 482.93 391.757 482.677 391.684C482.463 391.624 482.25 391.558 482.037 391.484C481.824 391.411 481.63 391.321 481.457 391.214C481.29 391.108 481.154 390.971 481.047 390.804C480.947 390.631 480.897 390.414 480.897 390.155C480.897 389.921 480.944 389.715 481.037 389.535C481.137 389.355 481.277 389.201 481.457 389.075C481.637 388.948 481.854 388.855 482.107 388.795C482.367 388.728 482.653 388.695 482.967 388.695C483.3 388.695 483.59 388.732 483.836 388.805C484.09 388.878 484.3 388.981 484.466 389.115C484.633 389.248 484.756 389.401 484.836 389.575C484.916 389.741 484.956 389.921 484.956 390.115C484.956 390.155 484.956 390.195 484.956 390.235C484.956 390.268 484.953 390.295 484.946 390.315H484.086V390.205C484.086 390.071 484.05 389.945 483.976 389.825C483.91 389.698 483.79 389.598 483.617 389.525C483.45 389.445 483.217 389.405 482.917 389.405C482.723 389.405 482.557 389.421 482.417 389.455C482.277 389.481 482.16 389.528 482.067 389.595C481.974 389.655 481.904 389.728 481.857 389.815C481.81 389.895 481.787 389.988 481.787 390.095C481.787 390.268 481.844 390.401 481.957 390.494C482.07 390.588 482.22 390.664 482.407 390.724C482.6 390.784 482.807 390.851 483.027 390.924C483.26 390.991 483.497 391.061 483.736 391.134C483.983 391.201 484.206 391.288 484.406 391.394C484.613 391.501 484.776 391.648 484.896 391.834C485.023 392.014 485.086 392.254 485.086 392.554C485.086 392.834 485.033 393.077 484.926 393.284C484.82 393.49 484.666 393.66 484.466 393.794C484.273 393.927 484.043 394.024 483.776 394.084C483.517 394.15 483.23 394.184 482.917 394.184ZM489.583 394.184C489.389 394.184 489.196 394.16 489.003 394.114C488.809 394.067 488.629 393.99 488.463 393.884C488.296 393.777 488.163 393.63 488.063 393.444C487.963 393.25 487.913 393.011 487.913 392.724C487.913 392.364 488 392.067 488.173 391.834C488.346 391.601 488.586 391.421 488.893 391.294C489.206 391.161 489.576 391.071 490.002 391.024C490.429 390.971 490.892 390.944 491.392 390.944V390.344C491.392 390.151 491.359 389.985 491.292 389.845C491.226 389.705 491.106 389.598 490.932 389.525C490.766 389.445 490.526 389.405 490.212 389.405C489.912 389.405 489.673 389.445 489.493 389.525C489.319 389.598 489.196 389.695 489.123 389.815C489.056 389.935 489.023 390.068 489.023 390.215V390.364H488.173C488.166 390.331 488.163 390.298 488.163 390.265C488.163 390.231 488.163 390.191 488.163 390.145C488.163 389.825 488.25 389.558 488.423 389.345C488.603 389.125 488.853 388.961 489.173 388.855C489.493 388.742 489.859 388.685 490.272 388.685C490.712 388.685 491.079 388.748 491.372 388.875C491.672 389.001 491.895 389.181 492.042 389.415C492.195 389.648 492.272 389.928 492.272 390.255V393.104C492.272 393.23 492.302 393.32 492.362 393.374C492.422 393.42 492.495 393.444 492.582 393.444H492.972V394.024C492.878 394.064 492.775 394.097 492.662 394.124C492.549 394.157 492.419 394.174 492.272 394.174C492.099 394.174 491.955 394.137 491.842 394.064C491.729 393.997 491.642 393.904 491.582 393.784C491.522 393.657 491.482 393.517 491.462 393.364H491.392C491.272 393.53 491.119 393.677 490.932 393.804C490.752 393.924 490.549 394.017 490.322 394.084C490.096 394.15 489.849 394.184 489.583 394.184ZM489.803 393.444C490.016 393.444 490.216 393.41 490.402 393.344C490.596 393.277 490.766 393.184 490.912 393.064C491.059 392.937 491.176 392.787 491.262 392.614C491.349 392.441 491.392 392.251 491.392 392.044V391.604C490.852 391.604 490.392 391.634 490.012 391.694C489.633 391.754 489.339 391.861 489.133 392.014C488.933 392.167 488.833 392.384 488.833 392.664C488.833 392.844 488.873 392.991 488.953 393.104C489.033 393.217 489.146 393.304 489.293 393.364C489.439 393.417 489.609 393.444 489.803 393.444ZM494.601 395.883C494.347 395.883 494.114 395.83 493.901 395.723C493.687 395.623 493.518 395.477 493.391 395.283C493.264 395.09 493.201 394.86 493.201 394.593C493.201 394.3 493.281 394.057 493.441 393.864C493.607 393.67 493.804 393.527 494.031 393.434C493.864 393.354 493.734 393.244 493.641 393.104C493.547 392.957 493.501 392.797 493.501 392.624C493.501 392.391 493.584 392.194 493.751 392.034C493.924 391.874 494.134 391.767 494.381 391.714C494.154 391.568 493.974 391.381 493.841 391.154C493.714 390.921 493.651 390.664 493.651 390.384C493.651 390.051 493.727 389.758 493.881 389.505C494.041 389.251 494.281 389.051 494.601 388.905C494.927 388.758 495.324 388.685 495.79 388.685C496.004 388.685 496.204 388.702 496.39 388.735C496.577 388.762 496.743 388.808 496.89 388.875C497.123 388.768 497.297 388.632 497.41 388.465C497.53 388.298 497.603 388.128 497.63 387.955H498.5C498.5 388.155 498.453 388.345 498.36 388.525C498.273 388.698 498.153 388.845 498 388.965C497.846 389.078 497.66 389.155 497.44 389.195C497.607 389.355 497.73 389.535 497.81 389.735C497.896 389.935 497.94 390.151 497.94 390.384C497.94 390.718 497.86 391.014 497.7 391.274C497.547 391.528 497.313 391.727 497 391.874C496.687 392.021 496.294 392.094 495.82 392.094H495C494.821 392.094 494.674 392.131 494.561 392.204C494.447 392.271 494.391 392.381 494.391 392.534C494.391 392.667 494.447 392.777 494.561 392.864C494.674 392.944 494.821 392.984 495 392.984H497.14C497.527 392.984 497.843 393.114 498.09 393.374C498.336 393.627 498.46 393.954 498.46 394.354C498.46 394.64 498.386 394.897 498.24 395.123C498.1 395.357 497.9 395.54 497.64 395.673C497.387 395.813 497.09 395.883 496.75 395.883H494.601ZM494.851 395.213H496.74C496.893 395.213 497.033 395.18 497.16 395.113C497.287 395.053 497.387 394.967 497.46 394.853C497.533 394.74 497.57 394.617 497.57 394.483C497.57 394.257 497.503 394.077 497.37 393.944C497.237 393.81 497.07 393.744 496.87 393.744H494.851C494.637 393.744 494.457 393.817 494.311 393.964C494.164 394.104 494.091 394.277 494.091 394.483C494.091 394.703 494.164 394.88 494.311 395.013C494.457 395.147 494.637 395.213 494.851 395.213ZM495.8 391.434C496.227 391.434 496.543 391.341 496.75 391.154C496.957 390.968 497.06 390.711 497.06 390.384C497.06 390.065 496.957 389.811 496.75 389.625C496.543 389.438 496.227 389.345 495.8 389.345C495.374 389.345 495.054 389.438 494.841 389.625C494.634 389.811 494.531 390.065 494.531 390.384C494.531 390.591 494.577 390.774 494.671 390.934C494.764 391.094 494.904 391.218 495.09 391.304C495.277 391.391 495.514 391.434 495.8 391.434ZM501.426 394.184C500.892 394.184 500.442 394.087 500.076 393.894C499.716 393.694 499.439 393.39 499.246 392.984C499.059 392.577 498.966 392.061 498.966 391.434C498.966 390.801 499.059 390.285 499.246 389.885C499.439 389.478 499.716 389.178 500.076 388.985C500.442 388.785 500.892 388.685 501.426 388.685C501.959 388.685 502.405 388.785 502.765 388.985C503.132 389.178 503.408 389.478 503.595 389.885C503.782 390.285 503.875 390.801 503.875 391.434C503.875 392.061 503.782 392.577 503.595 392.984C503.408 393.39 503.132 393.694 502.765 393.894C502.405 394.087 501.959 394.184 501.426 394.184ZM501.426 393.444C501.765 393.444 502.049 393.377 502.275 393.244C502.502 393.11 502.672 392.904 502.785 392.624C502.905 392.337 502.965 391.977 502.965 391.544V391.324C502.965 390.884 502.905 390.524 502.785 390.245C502.672 389.965 502.502 389.758 502.275 389.625C502.049 389.491 501.765 389.425 501.426 389.425C501.086 389.425 500.799 389.491 500.566 389.625C500.339 389.758 500.169 389.965 500.056 390.245C499.943 390.524 499.886 390.884 499.886 391.324V391.544C499.886 391.977 499.943 392.337 500.056 392.624C500.169 392.904 500.339 393.11 500.566 393.244C500.799 393.377 501.086 393.444 501.426 393.444Z" fill="#6B7280"/>
</g>
<defs>
<filter id="filter0_d_518_12183" x="0" y="0" width="702.833" height="600.894" filterUnits="userSpaceOnUse" color-interpolation-filters="sRGB">
<feFlood flood-opacity="0" result="BackgroundImageFix"/>
<feColorMatrix in="SourceAlpha" type="matrix" values="0 0 0 0 0 0 0 0 0 0 0 0 0 0 0 0 0 0 127 0" result="hardAlpha"/>
<feOffset dy="4"/>
<feGaussianBlur stdDeviation="92"/>
<feComposite in2="hardAlpha" operator="out"/>
<feColorMatrix type="matrix" values="0 0 0 0 0 0 0 0 0 0 0 0 0 0 0 0 0 0 0.25 0"/>
<feBlend mode="normal" in2="BackgroundImageFix" result="effect1_dropShadow_518_12183"/>
<feBlend mode="normal" in="SourceGraphic" in2="effect1_dropShadow_518_12183" result="shape"/>
</filter>
<linearGradient id="paint0_linear_518_12183" x1="393.198" y1="278.938" x2="432.408" y2="395.53" gradientUnits="userSpaceOnUse">
<stop stop-color="#FBB1D2"/>
<stop offset="1" stop-color="#FEFDFF"/>
</linearGradient>
<linearGradient id="paint1_linear_518_12183" x1="393.329" y1="278.75" x2="431.602" y2="393.779" gradientUnits="userSpaceOnUse">
<stop stop-color="#FBB1D2"/>
<stop offset="1" stop-color="#FEFDFF"/>
</linearGradient>
<linearGradient id="paint2_linear_518_12183" x1="393.198" y1="278.938" x2="432.408" y2="395.53" gradientUnits="userSpaceOnUse">
<stop stop-color="#E71171"/>
<stop offset="1" stop-color="#FEFDFF"/>
</linearGradient>
<linearGradient id="paint3_linear_518_12183" x1="393.329" y1="278.75" x2="431.602" y2="393.779" gradientUnits="userSpaceOnUse">
<stop stop-color="#C1165E"/>
<stop offset="1" stop-color="#FEFDFF"/>
</linearGradient>
<clipPath id="clip0_518_12183">
<rect width="334" height="156" fill="white" transform="translate(184.417 213.234)"/>
</clipPath>
</defs>
</svg>
