<svg width="335" height="233" viewBox="0 0 335 233" fill="none" xmlns="http://www.w3.org/2000/svg">
<rect x="0.25" y="0.25" width="334.5" height="232.5" rx="8.25" fill="white"/>
<rect x="0.25" y="0.25" width="334.5" height="232.5" rx="8.25" stroke="#CFD2D8" stroke-width="0.5"/>
<rect x="17.7151" y="12.6519" width="69.3301" height="20.6651" rx="4.99879" fill="#FBE5EE"/>
<path d="M25.1399 25.9844V19.126H28.5791C29.0857 19.126 29.5022 19.216 29.8288 19.396C30.1621 19.5759 30.412 19.8292 30.5786 20.1558C30.7453 20.4824 30.8286 20.8723 30.8286 21.3255C30.8286 21.7721 30.7419 22.162 30.5686 22.4952C30.3953 22.8285 30.1354 23.0884 29.7888 23.275C29.4489 23.455 29.0223 23.545 28.5091 23.545H26.4396V25.9844H25.1399ZM26.4396 22.4352H28.4691C28.8024 22.4352 29.059 22.3386 29.239 22.1453C29.4256 21.9454 29.5189 21.6721 29.5189 21.3255C29.5189 21.0922 29.4789 20.8956 29.3989 20.7356C29.3189 20.5757 29.2023 20.4524 29.049 20.3657C28.8957 20.2791 28.7024 20.2358 28.4691 20.2358H26.4396V22.4352ZM31.7276 25.9844V20.7256H32.7473L32.8473 21.5554H32.9173C32.9839 21.3888 33.0639 21.2355 33.1572 21.0956C33.2572 20.9489 33.3838 20.8323 33.5371 20.7456C33.6904 20.6523 33.8771 20.6057 34.097 20.6057C34.2036 20.6057 34.3003 20.6157 34.3869 20.6357C34.4802 20.6557 34.5502 20.6757 34.5969 20.6957V21.8454H34.227C34.0203 21.8454 33.8371 21.8754 33.6771 21.9354C33.5171 21.9887 33.3805 22.0753 33.2672 22.1953C33.1606 22.3153 33.0806 22.4652 33.0273 22.6452C32.9739 22.8251 32.9473 23.0351 32.9473 23.275V25.9844H31.7276ZM37.5915 26.1043C37.0183 26.1043 36.5385 26.0077 36.1519 25.8144C35.7653 25.6145 35.4754 25.3112 35.2821 24.9046C35.0888 24.4981 34.9922 23.9815 34.9922 23.355C34.9922 22.7218 35.0888 22.2053 35.2821 21.8054C35.4754 21.3988 35.7653 21.0989 36.1519 20.9056C36.5385 20.7057 37.0183 20.6057 37.5915 20.6057C38.1714 20.6057 38.6513 20.7057 39.0312 20.9056C39.4178 21.0989 39.7077 21.3988 39.901 21.8054C40.0943 22.2053 40.1909 22.7218 40.1909 23.355C40.1909 23.9815 40.0943 24.4981 39.901 24.9046C39.7077 25.3112 39.4178 25.6145 39.0312 25.8144C38.6513 26.0077 38.1714 26.1043 37.5915 26.1043ZM37.5915 25.1046C37.9115 25.1046 38.1681 25.0446 38.3614 24.9246C38.5613 24.798 38.7046 24.6114 38.7913 24.3648C38.8846 24.1115 38.9312 23.7982 38.9312 23.425V23.285C38.9312 22.9118 38.8846 22.6019 38.7913 22.3553C38.7046 22.102 38.5613 21.9154 38.3614 21.7954C38.1681 21.6688 37.9115 21.6054 37.5915 21.6054C37.2716 21.6054 37.0117 21.6688 36.8117 21.7954C36.6184 21.9154 36.4751 22.102 36.3818 22.3553C36.2952 22.6019 36.2519 22.9118 36.2519 23.285V23.425C36.2519 23.7982 36.2952 24.1115 36.3818 24.3648C36.4751 24.6114 36.6184 24.798 36.8117 24.9246C37.0117 25.0446 37.2716 25.1046 37.5915 25.1046ZM43.2767 26.1043C42.8968 26.1043 42.5636 26.0644 42.277 25.9844C41.9904 25.8977 41.7504 25.7811 41.5571 25.6345C41.3639 25.4878 41.2172 25.3179 41.1173 25.1246C41.0239 24.9246 40.9773 24.708 40.9773 24.4747C40.9773 24.4414 40.9773 24.4114 40.9773 24.3848C40.984 24.3581 40.9873 24.3381 40.9873 24.3248H42.187C42.187 24.3381 42.187 24.3514 42.187 24.3648C42.187 24.3781 42.187 24.3914 42.187 24.4048C42.1937 24.5847 42.2503 24.7313 42.357 24.8447C42.4636 24.9513 42.6036 25.0279 42.7769 25.0746C42.9501 25.1213 43.1334 25.1446 43.3267 25.1446C43.5 25.1446 43.6633 25.1279 43.8166 25.0946C43.9766 25.0546 44.1065 24.9946 44.2065 24.9146C44.3131 24.828 44.3665 24.718 44.3665 24.5847C44.3665 24.4114 44.2998 24.2781 44.1665 24.1848C44.0332 24.0915 43.8566 24.0149 43.6366 23.9549C43.4234 23.8949 43.1934 23.8316 42.9468 23.7649C42.7269 23.7049 42.5069 23.6383 42.287 23.565C42.067 23.4916 41.8671 23.3983 41.6871 23.285C41.5138 23.1717 41.3705 23.0251 41.2572 22.8451C41.1506 22.6652 41.0973 22.4419 41.0973 22.1753C41.0973 21.9154 41.1539 21.6887 41.2672 21.4955C41.3805 21.3022 41.5372 21.1422 41.7371 21.0156C41.9371 20.8823 42.1737 20.7823 42.4469 20.7156C42.7202 20.649 43.0168 20.6157 43.3367 20.6157C43.65 20.6157 43.9332 20.649 44.1865 20.7156C44.4465 20.7823 44.6697 20.8789 44.8564 21.0056C45.0496 21.1255 45.1963 21.2755 45.2962 21.4555C45.4029 21.6288 45.4562 21.822 45.4562 22.0353C45.4562 22.082 45.4529 22.1286 45.4462 22.1753C45.4462 22.222 45.4462 22.2486 45.4462 22.2553H44.2565V22.1853C44.2565 22.0587 44.2165 21.952 44.1365 21.8654C44.0632 21.7721 43.9532 21.6987 43.8066 21.6454C43.6666 21.5921 43.49 21.5654 43.2767 21.5654C43.1168 21.5654 42.9768 21.5788 42.8568 21.6054C42.7369 21.6321 42.6369 21.6688 42.5569 21.7154C42.4836 21.7621 42.4269 21.8154 42.3869 21.8754C42.347 21.9354 42.327 22.002 42.327 22.0753C42.327 22.202 42.377 22.3019 42.4769 22.3752C42.5769 22.4486 42.7102 22.5119 42.8768 22.5652C43.0501 22.6185 43.2367 22.6752 43.4367 22.7352C43.6766 22.8018 43.9232 22.8718 44.1765 22.9451C44.4298 23.0118 44.6631 23.0984 44.8763 23.205C45.0963 23.3117 45.2729 23.4617 45.4062 23.6549C45.5395 23.8482 45.6062 24.1048 45.6062 24.4248C45.6062 24.7313 45.5462 24.9946 45.4262 25.2146C45.3129 25.4278 45.1496 25.6011 44.9363 25.7344C44.7297 25.8611 44.4831 25.9544 44.1965 26.0144C43.9166 26.0744 43.61 26.1043 43.2767 26.1043ZM46.6361 27.714V20.7256H47.6458L47.7458 21.4255H47.8158C47.9891 21.1522 48.2157 20.9489 48.4956 20.8156C48.7756 20.6757 49.0855 20.6057 49.4254 20.6057C49.8586 20.6057 50.2285 20.7023 50.5351 20.8956C50.8484 21.0889 51.0883 21.3888 51.255 21.7954C51.4283 22.202 51.5149 22.7252 51.5149 23.365C51.5149 23.9915 51.4283 24.5081 51.255 24.9146C51.0817 25.3212 50.8417 25.6211 50.5351 25.8144C50.2352 26.0077 49.8886 26.1043 49.4954 26.1043C49.2554 26.1043 49.0355 26.0777 48.8355 26.0244C48.6356 25.971 48.459 25.8911 48.3057 25.7844C48.1524 25.6711 48.0224 25.5345 47.9158 25.3745H47.8558V27.714H46.6361ZM49.0455 25.0546C49.3454 25.0546 49.582 24.9979 49.7553 24.8846C49.9353 24.7647 50.0619 24.5847 50.1352 24.3448C50.2152 24.1048 50.2552 23.8016 50.2552 23.435V23.295C50.2552 22.9218 50.2152 22.6152 50.1352 22.3752C50.0619 22.1286 49.9353 21.9487 49.7553 21.8354C49.582 21.7154 49.3454 21.6554 49.0455 21.6554C48.7722 21.6554 48.5456 21.7187 48.3657 21.8454C48.1924 21.972 48.0624 22.1586 47.9758 22.4052C47.8958 22.6452 47.8558 22.9418 47.8558 23.295V23.415C47.8558 23.6749 47.8791 23.9082 47.9258 24.1148C47.9724 24.3148 48.0424 24.4847 48.1357 24.6247C48.2357 24.7647 48.359 24.8713 48.5056 24.9446C48.6589 25.0179 48.8389 25.0546 49.0455 25.0546ZM54.8121 26.1043C54.2522 26.1043 53.7857 26.0077 53.4124 25.8144C53.0392 25.6145 52.7592 25.3112 52.5726 24.9046C52.386 24.4981 52.2927 23.9815 52.2927 23.355C52.2927 22.7218 52.386 22.2053 52.5726 21.8054C52.7592 21.3988 53.0392 21.0989 53.4124 20.9056C53.7857 20.7057 54.2522 20.6057 54.8121 20.6057C55.3186 20.6057 55.7418 20.7023 56.0818 20.8956C56.4283 21.0822 56.6883 21.3722 56.8616 21.7654C57.0349 22.1586 57.1215 22.6685 57.1215 23.295V23.6549H53.5424C53.5557 23.9815 53.6057 24.2581 53.6923 24.4847C53.779 24.7047 53.9123 24.8713 54.0922 24.9846C54.2789 25.0913 54.5221 25.1446 54.8221 25.1446C54.9754 25.1446 55.1187 25.1246 55.252 25.0846C55.3853 25.0446 55.5019 24.9846 55.6019 24.9046C55.7019 24.818 55.7785 24.7113 55.8318 24.5847C55.8918 24.4581 55.9218 24.3114 55.9218 24.1448H57.1215C57.1215 24.4781 57.0615 24.768 56.9416 25.0146C56.8282 25.2612 56.665 25.4645 56.4517 25.6245C56.2451 25.7844 56.0018 25.9044 55.7219 25.9844C55.4419 26.0644 55.1387 26.1043 54.8121 26.1043ZM53.5624 22.7951H55.8518C55.8518 22.5752 55.8252 22.3886 55.7718 22.2353C55.7252 22.082 55.6552 21.9553 55.5619 21.8554C55.4752 21.7554 55.3686 21.6854 55.242 21.6454C55.1153 21.5988 54.972 21.5754 54.8121 21.5754C54.5521 21.5754 54.3322 21.6188 54.1522 21.7054C53.9789 21.7921 53.8456 21.9254 53.7523 22.1053C53.659 22.2853 53.5957 22.5152 53.5624 22.7951ZM60.3462 26.1043C59.7997 26.1043 59.3431 26.0077 58.9765 25.8144C58.6166 25.6145 58.3467 25.3112 58.1667 24.9046C57.9868 24.4981 57.8968 23.9815 57.8968 23.355C57.8968 22.7218 57.9868 22.2053 58.1667 21.8054C58.3534 21.3988 58.6266 21.0989 58.9865 20.9056C59.3531 20.7057 59.8063 20.6057 60.3462 20.6057C60.6995 20.6057 61.0127 20.649 61.286 20.7356C61.5592 20.8223 61.7925 20.9556 61.9858 21.1355C62.1858 21.3088 62.3357 21.5255 62.4357 21.7854C62.5357 22.0453 62.5857 22.3486 62.5857 22.6952H61.346C61.346 22.4486 61.3093 22.2453 61.236 22.0853C61.1627 21.9254 61.0494 21.8054 60.8961 21.7254C60.7494 21.6388 60.5595 21.5954 60.3262 21.5954C60.0529 21.5954 59.8297 21.6588 59.6564 21.7854C59.4831 21.912 59.3531 22.102 59.2665 22.3553C59.1865 22.6019 59.1465 22.9151 59.1465 23.295V23.425C59.1465 23.7982 59.1865 24.1115 59.2665 24.3648C59.3531 24.618 59.4864 24.808 59.6664 24.9346C59.8463 25.0546 60.0829 25.1146 60.3762 25.1146C60.6028 25.1146 60.7894 25.0746 60.9361 24.9946C61.0894 24.908 61.206 24.7813 61.286 24.6147C61.366 24.4481 61.4059 24.2481 61.4059 24.0149H62.5857C62.5857 24.3414 62.5357 24.6347 62.4357 24.8946C62.3357 25.1546 62.1891 25.3745 61.9958 25.5545C61.8025 25.7344 61.5659 25.8711 61.286 25.9644C61.0127 26.0577 60.6995 26.1043 60.3462 26.1043ZM65.0138 26.1043C64.6872 26.1043 64.4306 26.041 64.244 25.9144C64.0574 25.7811 63.9241 25.6145 63.8441 25.4145C63.7708 25.2079 63.7341 24.9979 63.7341 24.7847V21.7254H63.1043V20.7256H63.7641L63.9841 19.256H64.9538V20.7256H65.8636V21.7254H64.9538V24.6647C64.9538 24.8047 64.9905 24.9146 65.0638 24.9946C65.1371 25.0679 65.2471 25.1046 65.3937 25.1046H65.8636V25.9444C65.797 25.971 65.7137 25.9944 65.6137 26.0144C65.5204 26.041 65.4204 26.061 65.3138 26.0744C65.2071 26.0943 65.1071 26.1043 65.0138 26.1043ZM66.7679 19.9158V18.7561H67.9876V19.9158H66.7679ZM66.7679 25.9844V20.7256H67.9876V25.9844H66.7679ZM70.6365 25.9844L68.687 20.7256H69.9667L70.8165 23.0951C70.8565 23.2084 70.9031 23.3617 70.9565 23.555C71.0164 23.7416 71.0764 23.9382 71.1364 24.1448C71.1964 24.3448 71.2464 24.5281 71.2864 24.6947H71.3364C71.3764 24.5414 71.423 24.3648 71.4763 24.1648C71.5296 23.9649 71.583 23.7682 71.6363 23.575C71.6963 23.3817 71.7496 23.2217 71.7962 23.0951L72.636 20.7256H73.8757L71.9162 25.9844H70.6365ZM76.838 26.1043C76.2781 26.1043 75.8116 26.0077 75.4383 25.8144C75.0651 25.6145 74.7852 25.3112 74.5985 24.9046C74.4119 24.4981 74.3186 23.9815 74.3186 23.355C74.3186 22.7218 74.4119 22.2053 74.5985 21.8054C74.7852 21.3988 75.0651 21.0989 75.4383 20.9056C75.8116 20.7057 76.2781 20.6057 76.838 20.6057C77.3445 20.6057 77.7678 20.7023 78.1077 20.8956C78.4543 21.0822 78.7142 21.3722 78.8875 21.7654C79.0608 22.1586 79.1474 22.6685 79.1474 23.295V23.6549H75.5683C75.5816 23.9815 75.6316 24.2581 75.7183 24.4847C75.8049 24.7047 75.9382 24.8713 76.1182 24.9846C76.3048 25.0913 76.5481 25.1446 76.848 25.1446C77.0013 25.1446 77.1446 25.1246 77.2779 25.0846C77.4112 25.0446 77.5278 24.9846 77.6278 24.9046C77.7278 24.818 77.8044 24.7113 77.8578 24.5847C77.9177 24.4581 77.9477 24.3114 77.9477 24.1448H79.1474C79.1474 24.4781 79.0875 24.768 78.9675 25.0146C78.8542 25.2612 78.6909 25.4645 78.4776 25.6245C78.271 25.7844 78.0277 25.9044 77.7478 25.9844C77.4678 26.0644 77.1646 26.1043 76.838 26.1043ZM75.5883 22.7951H77.8777C77.8777 22.5752 77.8511 22.3886 77.7978 22.2353C77.7511 22.082 77.6811 21.9553 77.5878 21.8554C77.5012 21.7554 77.3945 21.6854 77.2679 21.6454C77.1413 21.5988 76.998 21.5754 76.838 21.5754C76.5781 21.5754 76.3581 21.6188 76.1782 21.7054C76.0049 21.7921 75.8716 21.9254 75.7783 22.1053C75.6849 22.2853 75.6216 22.5152 75.5883 22.7951Z" fill="#791142"/>
<g clip-path="url(#clip0_518_12127)">
<rect x="0.55957" y="52.803" width="334.176" height="139.902" rx="11.2748" fill="white"/>
<path d="M22.365 79.7411V73.3349H22.7754V79.7411H22.365ZM23.6488 75.3218C23.6221 75.0849 23.512 74.9014 23.3184 74.7713C23.1249 74.6395 22.8814 74.5736 22.5877 74.5736C22.3775 74.5736 22.1957 74.607 22.0422 74.6737C21.8887 74.7388 21.7694 74.8289 21.6844 74.944C21.601 75.0574 21.5592 75.1867 21.5592 75.3318C21.5592 75.4536 21.5876 75.5587 21.6443 75.6471C21.7027 75.7356 21.7786 75.8098 21.872 75.8699C21.9671 75.9282 22.0689 75.9775 22.1773 76.0175C22.2858 76.0559 22.39 76.0876 22.4901 76.1126L22.9906 76.2427C23.1541 76.2828 23.3218 76.337 23.4936 76.4054C23.6654 76.4738 23.8248 76.5639 23.9716 76.6756C24.1184 76.7874 24.2368 76.9259 24.3269 77.091C24.4187 77.2562 24.4645 77.4539 24.4645 77.6841C24.4645 77.9744 24.3895 78.2321 24.2393 78.4573C24.0908 78.6826 23.8748 78.8602 23.5912 78.9904C23.3093 79.1205 22.9681 79.1855 22.5677 79.1855C22.184 79.1855 21.852 79.1247 21.5718 79.0029C21.2915 78.8811 21.0721 78.7084 20.9136 78.4849C20.7551 78.2597 20.6676 77.9927 20.6509 77.6841H21.4266C21.4416 77.8693 21.5017 78.0236 21.6068 78.147C21.7136 78.2688 21.8495 78.3598 22.0147 78.4198C22.1815 78.4782 22.3642 78.5074 22.5627 78.5074C22.7813 78.5074 22.9756 78.4732 23.1458 78.4048C23.3176 78.3347 23.4527 78.238 23.5512 78.1145C23.6496 77.9894 23.6988 77.8434 23.6988 77.6766C23.6988 77.5248 23.6554 77.4005 23.5687 77.3037C23.4836 77.207 23.3677 77.1269 23.2208 77.0635C23.0757 77.0001 22.9114 76.9442 22.7279 76.8958L22.1223 76.7307C21.7119 76.6189 21.3866 76.4546 21.1463 76.2377C20.9078 76.0208 20.7885 75.7339 20.7885 75.3769C20.7885 75.0816 20.8686 74.8239 21.0287 74.6036C21.1889 74.3834 21.4058 74.2124 21.6794 74.0906C21.953 73.9672 22.2616 73.9055 22.6053 73.9055C22.9523 73.9055 23.2584 73.9664 23.5236 74.0881C23.7906 74.2099 24.0008 74.3776 24.1542 74.5911C24.3077 74.803 24.3878 75.0466 24.3945 75.3218H23.6488ZM26.9105 73.9755V79.1005H26.1348V74.7513H26.1047L24.8786 75.5521V74.8113L26.1573 73.9755H26.9105ZM29.7287 79.1855C29.3333 79.1839 28.9955 79.0796 28.7153 78.8727C28.435 78.6659 28.2206 78.3648 28.0721 77.9694C27.9237 77.574 27.8494 77.0977 27.8494 76.5405C27.8494 75.985 27.9237 75.5103 28.0721 75.1166C28.2223 74.7229 28.4375 74.4226 28.7178 74.2158C28.9997 74.0089 29.3367 73.9055 29.7287 73.9055C30.1208 73.9055 30.4569 74.0097 30.7372 74.2183C31.0175 74.4251 31.2318 74.7254 31.3803 75.1191C31.5305 75.5112 31.6055 75.985 31.6055 76.5405C31.6055 77.0994 31.5313 77.5765 31.3828 77.9719C31.2343 78.3656 31.02 78.6667 30.7397 78.8752C30.4594 79.0821 30.1224 79.1855 29.7287 79.1855ZM29.7287 78.5174C30.0757 78.5174 30.3468 78.3481 30.542 78.0094C30.7389 77.6708 30.8373 77.1811 30.8373 76.5405C30.8373 76.1151 30.7922 75.7556 30.7022 75.462C30.6137 75.1667 30.4861 74.9431 30.3193 74.7913C30.1541 74.6378 29.9573 74.5611 29.7287 74.5611C29.3834 74.5611 29.1123 74.7313 28.9154 75.0716C28.7186 75.4119 28.6193 75.9016 28.6177 76.5405C28.6177 76.9676 28.6619 77.3288 28.7503 77.624C28.8404 77.9177 28.968 78.1404 29.1332 78.2922C29.2983 78.4423 29.4968 78.5174 29.7287 78.5174ZM33.9251 79.1855C33.5298 79.1839 33.1919 79.0796 32.9117 78.8727C32.6314 78.6659 32.417 78.3648 32.2685 77.9694C32.1201 77.574 32.0458 77.0977 32.0458 76.5405C32.0458 75.985 32.1201 75.5103 32.2685 75.1166C32.4187 74.7229 32.6339 74.4226 32.9142 74.2158C33.1961 74.0089 33.5331 73.9055 33.9251 73.9055C34.3172 73.9055 34.6533 74.0097 34.9336 74.2183C35.2139 74.4251 35.4282 74.7254 35.5767 75.1191C35.7269 75.5112 35.8019 75.985 35.8019 76.5405C35.8019 77.0994 35.7277 77.5765 35.5792 77.9719C35.4307 78.3656 35.2164 78.6667 34.9361 78.8752C34.6558 79.0821 34.3188 79.1855 33.9251 79.1855ZM33.9251 78.5174C34.2721 78.5174 34.5432 78.3481 34.7384 78.0094C34.9353 77.6708 35.0337 77.1811 35.0337 76.5405C35.0337 76.1151 34.9887 75.7556 34.8986 75.462C34.8102 75.1667 34.6825 74.9431 34.5157 74.7913C34.3505 74.6378 34.1537 74.5611 33.9251 74.5611C33.5798 74.5611 33.3087 74.7313 33.1119 75.0716C32.915 75.4119 32.8157 75.9016 32.8141 76.5405C32.8141 76.9676 32.8583 77.3288 32.9467 77.624C33.0368 77.9177 33.1644 78.1404 33.3296 78.2922C33.4947 78.4423 33.6932 78.5174 33.9251 78.5174ZM38.1215 79.1855C37.7262 79.1839 37.3883 79.0796 37.1081 78.8727C36.8278 78.6659 36.6134 78.3648 36.465 77.9694C36.3165 77.574 36.2422 77.0977 36.2422 76.5405C36.2422 75.985 36.3165 75.5103 36.465 75.1166C36.6151 74.7229 36.8303 74.4226 37.1106 74.2158C37.3925 74.0089 37.7295 73.9055 38.1215 73.9055C38.5136 73.9055 38.8497 74.0097 39.13 74.2183C39.4103 74.4251 39.6247 74.7254 39.7731 75.1191C39.9233 75.5112 39.9983 75.985 39.9983 76.5405C39.9983 77.0994 39.9241 77.5765 39.7756 77.9719C39.6272 78.3656 39.4128 78.6667 39.1325 78.8752C38.8522 79.0821 38.5153 79.1855 38.1215 79.1855ZM38.1215 78.5174C38.4685 78.5174 38.7396 78.3481 38.9348 78.0094C39.1317 77.6708 39.2301 77.1811 39.2301 76.5405C39.2301 76.1151 39.1851 75.7556 39.095 75.462C39.0066 75.1667 38.8789 74.9431 38.7121 74.7913C38.547 74.6378 38.3501 74.5611 38.1215 74.5611C37.7762 74.5611 37.5051 74.7313 37.3083 75.0716C37.1114 75.4119 37.0121 75.9016 37.0105 76.5405C37.0105 76.9676 37.0547 77.3288 37.1431 77.624C37.2332 77.9177 37.3608 78.1404 37.526 78.2922C37.6911 78.4423 37.8897 78.5174 38.1215 78.5174Z" fill="#464646"/>
<path d="M22.365 110.177V103.771H22.7754V110.177H22.365ZM23.6488 105.758C23.6221 105.521 23.512 105.337 23.3184 105.207C23.1249 105.075 22.8814 105.009 22.5877 105.009C22.3775 105.009 22.1957 105.043 22.0422 105.109C21.8887 105.174 21.7694 105.265 21.6844 105.38C21.601 105.493 21.5592 105.622 21.5592 105.768C21.5592 105.889 21.5876 105.994 21.6443 106.083C21.7027 106.171 21.7786 106.245 21.872 106.306C21.9671 106.364 22.0689 106.413 22.1773 106.453C22.2858 106.492 22.39 106.523 22.4901 106.548L22.9906 106.678C23.1541 106.718 23.3218 106.773 23.4936 106.841C23.6654 106.909 23.8248 107 23.9716 107.111C24.1184 107.223 24.2368 107.362 24.3269 107.527C24.4187 107.692 24.4645 107.89 24.4645 108.12C24.4645 108.41 24.3895 108.668 24.2393 108.893C24.0908 109.118 23.8748 109.296 23.5912 109.426C23.3093 109.556 22.9681 109.621 22.5677 109.621C22.184 109.621 21.852 109.56 21.5718 109.439C21.2915 109.317 21.0721 109.144 20.9136 108.921C20.7551 108.695 20.6676 108.428 20.6509 108.12H21.4266C21.4416 108.305 21.5017 108.459 21.6068 108.583C21.7136 108.705 21.8495 108.795 22.0147 108.855C22.1815 108.914 22.3642 108.943 22.5627 108.943C22.7813 108.943 22.9756 108.909 23.1458 108.84C23.3176 108.77 23.4527 108.674 23.5512 108.55C23.6496 108.425 23.6988 108.279 23.6988 108.112C23.6988 107.96 23.6554 107.836 23.5687 107.739C23.4836 107.643 23.3677 107.563 23.2208 107.499C23.0757 107.436 22.9114 107.38 22.7279 107.332L22.1223 107.166C21.7119 107.055 21.3866 106.89 21.1463 106.673C20.9078 106.457 20.7885 106.17 20.7885 105.813C20.7885 105.517 20.8686 105.26 21.0287 105.039C21.1889 104.819 21.4058 104.648 21.6794 104.526C21.953 104.403 22.2616 104.341 22.6053 104.341C22.9523 104.341 23.2584 104.402 23.5236 104.524C23.7906 104.646 24.0008 104.813 24.1542 105.027C24.3077 105.239 24.3878 105.482 24.3945 105.758H23.6488ZM26.6578 109.606C26.3441 109.606 26.0622 109.546 25.812 109.426C25.5634 109.304 25.3649 109.137 25.2164 108.926C25.0679 108.714 24.9887 108.472 24.9787 108.2H25.7294C25.7477 108.42 25.8453 108.601 26.0222 108.743C26.199 108.885 26.4109 108.956 26.6578 108.956C26.8546 108.956 27.029 108.911 27.1808 108.82C27.3343 108.729 27.4544 108.603 27.5411 108.443C27.6295 108.282 27.6737 108.1 27.6737 107.895C27.6737 107.686 27.6287 107.5 27.5386 107.337C27.4485 107.173 27.3242 107.045 27.1658 106.951C27.0089 106.858 26.8288 106.81 26.6252 106.809C26.4701 106.809 26.3141 106.835 26.1573 106.889C26.0005 106.942 25.8737 107.012 25.7769 107.099L25.0687 106.994L25.3565 104.411H28.1742V105.074H25.9996L25.837 106.508H25.867C25.9671 106.411 26.0997 106.331 26.2649 106.265C26.4317 106.2 26.6102 106.168 26.8004 106.168C27.1124 106.168 27.3901 106.242 27.6337 106.391C27.8789 106.539 28.0716 106.742 28.2118 106.999C28.3536 107.254 28.4236 107.548 28.422 107.88C28.4236 108.212 28.3486 108.508 28.1968 108.768C28.0466 109.028 27.8381 109.233 27.5712 109.383C27.3059 109.532 27.0014 109.606 26.6578 109.606ZM30.7678 109.621C30.3725 109.62 30.0346 109.515 29.7544 109.308C29.4741 109.102 29.2597 108.8 29.1113 108.405C28.9628 108.01 28.8885 107.533 28.8885 106.976C28.8885 106.421 28.9628 105.946 29.1113 105.552C29.2614 105.159 29.4766 104.858 29.7569 104.651C30.0388 104.445 30.3758 104.341 30.7678 104.341C31.1599 104.341 31.496 104.445 31.7763 104.654C32.0566 104.861 32.271 105.161 32.4194 105.555C32.5696 105.947 32.6447 106.421 32.6447 106.976C32.6447 107.535 32.5704 108.012 32.4219 108.408C32.2735 108.801 32.0591 109.102 31.7788 109.311C31.4986 109.518 31.1616 109.621 30.7678 109.621ZM30.7678 108.953C31.1148 108.953 31.3859 108.784 31.5811 108.445C31.778 108.106 31.8764 107.617 31.8764 106.976C31.8764 106.551 31.8314 106.191 31.7413 105.898C31.6529 105.602 31.5252 105.379 31.3584 105.227C31.1933 105.074 30.9964 104.997 30.7678 104.997C30.4225 104.997 30.1514 105.167 29.9546 105.507C29.7577 105.848 29.6584 106.337 29.6568 106.976C29.6568 107.403 29.701 107.764 29.7894 108.06C29.8795 108.353 30.0071 108.576 30.1723 108.728C30.3374 108.878 30.536 108.953 30.7678 108.953ZM34.9643 109.621C34.5689 109.62 34.2311 109.515 33.9508 109.308C33.6705 109.102 33.4561 108.8 33.3077 108.405C33.1592 108.01 33.085 107.533 33.085 106.976C33.085 106.421 33.1592 105.946 33.3077 105.552C33.4578 105.159 33.673 104.858 33.9533 104.651C34.2352 104.445 34.5722 104.341 34.9643 104.341C35.3563 104.341 35.6925 104.445 35.9727 104.654C36.253 104.861 36.4674 105.161 36.6158 105.555C36.766 105.947 36.8411 106.421 36.8411 106.976C36.8411 107.535 36.7668 108.012 36.6183 108.408C36.4699 108.801 36.2555 109.102 35.9752 109.311C35.695 109.518 35.358 109.621 34.9643 109.621ZM34.9643 108.953C35.3113 108.953 35.5824 108.784 35.7775 108.445C35.9744 108.106 36.0728 107.617 36.0728 106.976C36.0728 106.551 36.0278 106.191 35.9377 105.898C35.8493 105.602 35.7217 105.379 35.5548 105.227C35.3897 105.074 35.1928 104.997 34.9643 104.997C34.6189 104.997 34.3478 105.167 34.151 105.507C33.9541 105.848 33.8549 106.337 33.8532 106.976C33.8532 107.403 33.8974 107.764 33.9858 108.06C34.0759 108.353 34.2035 108.576 34.3687 108.728C34.5338 108.878 34.7324 108.953 34.9643 108.953Z" fill="#464646"/>
<path d="M22.365 140.612V134.206H22.7754V140.612H22.365ZM23.6488 136.193C23.6221 135.956 23.512 135.773 23.3184 135.643C23.1249 135.511 22.8814 135.445 22.5877 135.445C22.3775 135.445 22.1957 135.478 22.0422 135.545C21.8887 135.61 21.7694 135.7 21.6844 135.815C21.601 135.929 21.5592 136.058 21.5592 136.203C21.5592 136.325 21.5876 136.43 21.6443 136.518C21.7027 136.607 21.7786 136.681 21.872 136.741C21.9671 136.8 22.0689 136.849 22.1773 136.889C22.2858 136.927 22.39 136.959 22.4901 136.984L22.9906 137.114C23.1541 137.154 23.3218 137.208 23.4936 137.277C23.6654 137.345 23.8248 137.435 23.9716 137.547C24.1184 137.659 24.2368 137.797 24.3269 137.962C24.4187 138.128 24.4645 138.325 24.4645 138.555C24.4645 138.846 24.3895 139.103 24.2393 139.329C24.0908 139.554 23.8748 139.732 23.5912 139.862C23.3093 139.992 22.9681 140.057 22.5677 140.057C22.184 140.057 21.852 139.996 21.5718 139.874C21.2915 139.752 21.0721 139.58 20.9136 139.356C20.7551 139.131 20.6676 138.864 20.6509 138.555H21.4266C21.4416 138.741 21.5017 138.895 21.6068 139.018C21.7136 139.14 21.8495 139.231 22.0147 139.291C22.1815 139.35 22.3642 139.379 22.5627 139.379C22.7813 139.379 22.9756 139.345 23.1458 139.276C23.3176 139.206 23.4527 139.109 23.5512 138.986C23.6496 138.861 23.6988 138.715 23.6988 138.548C23.6988 138.396 23.6554 138.272 23.5687 138.175C23.4836 138.078 23.3677 137.998 23.2208 137.935C23.0757 137.871 22.9114 137.816 22.7279 137.767L22.1223 137.602C21.7119 137.49 21.3866 137.326 21.1463 137.109C20.9078 136.892 20.7885 136.605 20.7885 136.248C20.7885 135.953 20.8686 135.695 21.0287 135.475C21.1889 135.255 21.4058 135.084 21.6794 134.962C21.953 134.839 22.2616 134.777 22.6053 134.777C22.9523 134.777 23.2584 134.838 23.5236 134.959C23.7906 135.081 24.0008 135.249 24.1542 135.462C24.3077 135.674 24.3878 135.918 24.3945 136.193H23.6488ZM24.9661 139.972V139.411L26.7003 137.615C26.8855 137.419 27.0381 137.248 27.1583 137.102C27.28 136.953 27.371 136.812 27.431 136.679C27.4911 136.545 27.5211 136.403 27.5211 136.253C27.5211 136.083 27.4811 135.936 27.401 135.813C27.3209 135.688 27.2116 135.592 27.0732 135.525C26.9347 135.457 26.7787 135.422 26.6052 135.422C26.4217 135.422 26.2616 135.46 26.1248 135.535C25.988 135.61 25.8829 135.716 25.8095 135.853C25.7361 135.99 25.6994 136.15 25.6994 136.333H24.9611C24.9611 136.021 25.0329 135.749 25.1763 135.515C25.3198 135.281 25.5167 135.1 25.7669 134.972C26.0172 134.842 26.3016 134.777 26.6202 134.777C26.9422 134.777 27.2258 134.841 27.4711 134.969C27.718 135.096 27.9106 135.27 28.0491 135.49C28.1876 135.709 28.2568 135.955 28.2568 136.231C28.2568 136.421 28.2209 136.607 28.1492 136.789C28.0791 136.971 27.9565 137.173 27.7814 137.397C27.6062 137.619 27.3626 137.888 27.0507 138.205L26.0322 139.271V139.309H28.3394V139.972H24.9661ZM30.7197 140.057C30.3243 140.055 29.9865 139.951 29.7062 139.744C29.4259 139.537 29.2116 139.236 29.0631 138.841C28.9146 138.445 28.8404 137.969 28.8404 137.412C28.8404 136.856 28.9146 136.382 29.0631 135.988C29.2132 135.594 29.4284 135.294 29.7087 135.087C29.9906 134.88 30.3276 134.777 30.7197 134.777C31.1117 134.777 31.4479 134.881 31.7281 135.09C32.0084 135.296 32.2228 135.597 32.3713 135.99C32.5214 136.383 32.5965 136.856 32.5965 137.412C32.5965 137.971 32.5222 138.448 32.3738 138.843C32.2253 139.237 32.0109 139.538 31.7306 139.747C31.4504 139.953 31.1134 140.057 30.7197 140.057ZM30.7197 139.389C31.0667 139.389 31.3378 139.219 31.533 138.881C31.7298 138.542 31.8282 138.052 31.8282 137.412C31.8282 136.986 31.7832 136.627 31.6931 136.333C31.6047 136.038 31.4771 135.814 31.3102 135.663C31.1451 135.509 30.9482 135.432 30.7197 135.432C30.3743 135.432 30.1033 135.603 29.9064 135.943C29.7095 136.283 29.6103 136.773 29.6086 137.412C29.6086 137.839 29.6528 138.2 29.7412 138.495C29.8313 138.789 29.9589 139.012 30.1241 139.164C30.2893 139.314 30.4878 139.389 30.7197 139.389ZM34.9161 140.057C34.5207 140.055 34.1829 139.951 33.9026 139.744C33.6223 139.537 33.408 139.236 33.2595 138.841C33.111 138.445 33.0368 137.969 33.0368 137.412C33.0368 136.856 33.111 136.382 33.2595 135.988C33.4096 135.594 33.6248 135.294 33.9051 135.087C34.1871 134.88 34.524 134.777 34.9161 134.777C35.3081 134.777 35.6443 134.881 35.9246 135.09C36.2048 135.296 36.4192 135.597 36.5677 135.99C36.7178 136.383 36.7929 136.856 36.7929 137.412C36.7929 137.971 36.7187 138.448 36.5702 138.843C36.4217 139.237 36.2073 139.538 35.9271 139.747C35.6468 139.953 35.3098 140.057 34.9161 140.057ZM34.9161 139.389C35.2631 139.389 35.5342 139.219 35.7294 138.881C35.9262 138.542 36.0247 138.052 36.0247 137.412C36.0247 136.986 35.9796 136.627 35.8895 136.333C35.8011 136.038 35.6735 135.814 35.5067 135.663C35.3415 135.509 35.1446 135.432 34.9161 135.432C34.5708 135.432 34.2997 135.603 34.1028 135.943C33.9059 136.283 33.8067 136.773 33.805 137.412C33.805 137.839 33.8492 138.2 33.9376 138.495C34.0277 138.789 34.1554 139.012 34.3205 139.164C34.4857 139.314 34.6842 139.389 34.9161 139.389Z" fill="#464646"/>
<path d="M22.365 171.048V164.642H22.7754V171.048H22.365ZM23.6488 166.629C23.6221 166.392 23.512 166.208 23.3184 166.078C23.1249 165.946 22.8814 165.88 22.5877 165.88C22.3775 165.88 22.1957 165.914 22.0422 165.981C21.8887 166.046 21.7694 166.136 21.6844 166.251C21.601 166.364 21.5592 166.494 21.5592 166.639C21.5592 166.761 21.5876 166.866 21.6443 166.954C21.7027 167.042 21.7786 167.117 21.872 167.177C21.9671 167.235 22.0689 167.284 22.1773 167.324C22.2858 167.363 22.39 167.394 22.4901 167.419L22.9906 167.55C23.1541 167.59 23.3218 167.644 23.4936 167.712C23.6654 167.781 23.8248 167.871 23.9716 167.983C24.1184 168.094 24.2368 168.233 24.3269 168.398C24.4187 168.563 24.4645 168.761 24.4645 168.991C24.4645 169.281 24.3895 169.539 24.2393 169.764C24.0908 169.989 23.8748 170.167 23.5912 170.297C23.3093 170.427 22.9681 170.492 22.5677 170.492C22.184 170.492 21.852 170.432 21.5718 170.31C21.2915 170.188 21.0721 170.015 20.9136 169.792C20.7551 169.567 20.6676 169.3 20.6509 168.991H21.4266C21.4416 169.176 21.5017 169.33 21.6068 169.454C21.7136 169.576 21.8495 169.667 22.0147 169.727C22.1815 169.785 22.3642 169.814 22.5627 169.814C22.7813 169.814 22.9756 169.78 23.1458 169.712C23.3176 169.642 23.4527 169.545 23.5512 169.421C23.6496 169.296 23.6988 169.15 23.6988 168.983C23.6988 168.832 23.6554 168.707 23.5687 168.611C23.4836 168.514 23.3677 168.434 23.2208 168.37C23.0757 168.307 22.9114 168.251 22.7279 168.203L22.1223 168.038C21.7119 167.926 21.3866 167.761 21.1463 167.545C20.9078 167.328 20.7885 167.041 20.7885 166.684C20.7885 166.388 20.8686 166.131 21.0287 165.911C21.1889 165.69 21.4058 165.519 21.6794 165.398C21.953 165.274 22.2616 165.212 22.6053 165.212C22.9523 165.212 23.2584 165.273 23.5236 165.395C23.7906 165.517 24.0008 165.684 24.1542 165.898C24.3077 166.11 24.3878 166.353 24.3945 166.629H23.6488ZM26.7504 170.492C26.355 170.491 26.0172 170.386 25.7369 170.18C25.4566 169.973 25.2422 169.672 25.0938 169.276C24.9453 168.881 24.8711 168.405 24.8711 167.847C24.8711 167.292 24.9453 166.817 25.0938 166.424C25.2439 166.03 25.4591 165.73 25.7394 165.523C26.0213 165.316 26.3583 165.212 26.7504 165.212C27.1424 165.212 27.4786 165.317 27.7588 165.525C28.0391 165.732 28.2535 166.032 28.4019 166.426C28.5521 166.818 28.6272 167.292 28.6272 167.847C28.6272 168.406 28.5529 168.883 28.4045 169.279C28.256 169.672 28.0416 169.974 27.7613 170.182C27.4811 170.389 27.1441 170.492 26.7504 170.492ZM26.7504 169.824C27.0974 169.824 27.3685 169.655 27.5636 169.316C27.7605 168.978 27.8589 168.488 27.8589 167.847C27.8589 167.422 27.8139 167.062 27.7238 166.769C27.6354 166.474 27.5078 166.25 27.3409 166.098C27.1758 165.945 26.9789 165.868 26.7504 165.868C26.405 165.868 26.1339 166.038 25.9371 166.378C25.7402 166.719 25.641 167.208 25.6393 167.847C25.6393 168.274 25.6835 168.636 25.7719 168.931C25.862 169.225 25.9896 169.447 26.1548 169.599C26.3199 169.749 26.5185 169.824 26.7504 169.824Z" fill="#464646"/>
<path d="M51.4331 126.324L120.116 78.7484H124.996L137.196 110.748L185.762 83.6006L235.53 97.3239L247.311 79.2276L261.256 107.643L273.047 105.824L284.096 79.2276L291.309 98.8148L296.839 85.1105L308.453 112.324L317.807 103.824L326.347 109.324" stroke="#E20A7A" stroke-width="1.5" stroke-linecap="round"/>
<path d="M120.116 78.7484L51.4331 126.324H326.347V109.324L317.807 103.824L308.453 112.324L296.839 85.1105L291.309 98.8148L284.096 79.2276L273.047 105.824L261.256 107.643L247.311 79.2276L235.53 97.3239L185.762 83.6006L137.196 110.748L124.996 78.7484H120.116Z" fill="url(#paint0_linear_518_12127)"/>
<path d="M216.153 173.42L51.4321 126.324H326.346V132.442L315.77 131.19L308.452 140.324L304.726 160.129L297.501 134.444L294.498 150.711L286.489 140.324L277.981 184.747L269.534 166.851L253.756 132.704L247.656 168.115L241.884 157.345L235.529 173.42H216.153Z" fill="url(#paint1_linear_518_12127)"/>
<path d="M51.4321 126.324L216.292 173.42H235.529L241.802 157.62L247.707 168.683L253.853 133.09L267.488 162.473L277.981 184.747L286.489 140.324L294.498 150.711L297.501 134.444L304.674 160.385L308.452 140.324L315.77 131.19L326.346 132.442" stroke="#791142" stroke-width="1.5" stroke-linecap="round"/>
<path d="M43.9819 126.935H328.783" stroke="#96526B" stroke-width="2"/>
</g>
<path d="M13.903 214.647L17.1111 206.311H19.347L22.5551 214.647H20.5987L20.0032 213.006H16.3698L15.7744 214.647H13.903ZM16.8923 211.548H19.4807L18.7394 209.495C18.707 209.405 18.6665 209.3 18.6179 209.179C18.5774 209.049 18.5328 208.907 18.4842 208.753C18.4356 208.599 18.387 208.45 18.3384 208.304C18.2979 208.15 18.2574 208.012 18.2169 207.891H18.144C18.1035 208.044 18.0508 208.227 17.986 208.437C17.9212 208.64 17.8564 208.838 17.7916 209.033C17.7268 209.219 17.6741 209.373 17.6336 209.495L16.8923 211.548ZM25.9896 214.793C25.544 214.793 25.143 214.744 24.7866 214.647C24.4301 214.55 24.1263 214.416 23.8752 214.246C23.6241 214.068 23.4296 213.857 23.2919 213.614C23.1623 213.371 23.0975 213.096 23.0975 212.788C23.0975 212.755 23.0975 212.723 23.0975 212.691C23.0975 212.658 23.1015 212.634 23.1096 212.618H24.738C24.738 212.634 24.738 212.65 24.738 212.666C24.738 212.682 24.738 212.699 24.738 212.715C24.7461 212.917 24.8109 213.083 24.9324 213.213C25.0539 213.335 25.2119 213.424 25.4063 213.48C25.6089 213.537 25.8195 213.565 26.0382 213.565C26.2327 213.565 26.419 213.549 26.5972 213.517C26.7835 213.476 26.9375 213.407 27.059 213.31C27.1886 213.213 27.2534 213.087 27.2534 212.934C27.2534 212.739 27.1724 212.589 27.0104 212.484C26.8564 212.379 26.6499 212.294 26.3906 212.229C26.1395 212.164 25.864 212.091 25.5643 212.01C25.2889 211.945 25.0134 211.872 24.738 211.791C24.4625 211.702 24.2114 211.589 23.9846 211.451C23.7658 211.313 23.5876 211.135 23.4499 210.916C23.3122 210.69 23.2433 210.406 23.2433 210.066C23.2433 209.734 23.3162 209.446 23.462 209.203C23.6079 208.952 23.8063 208.745 24.0575 208.583C24.3167 208.421 24.6165 208.304 24.9567 208.231C25.3051 208.15 25.6777 208.109 26.0747 208.109C26.4473 208.109 26.7957 208.15 27.1197 208.231C27.4438 208.304 27.7273 208.417 27.9704 208.571C28.2134 208.717 28.4038 208.903 28.5415 209.13C28.6792 209.349 28.7481 209.596 28.7481 209.871C28.7481 209.928 28.7481 209.981 28.7481 210.029C28.7481 210.078 28.744 210.11 28.7359 210.126H27.1197V210.029C27.1197 209.883 27.0752 209.762 26.9861 209.665C26.897 209.559 26.7673 209.478 26.5972 209.422C26.4352 209.365 26.2367 209.337 26.0018 209.337C25.8397 209.337 25.6899 209.349 25.5521 209.373C25.4225 209.397 25.3091 209.434 25.2119 209.482C25.1147 209.531 25.0377 209.592 24.981 209.665C24.9324 209.73 24.9081 209.811 24.9081 209.908C24.9081 210.045 24.9648 210.159 25.0782 210.248C25.1997 210.329 25.3577 210.398 25.5521 210.455C25.7466 210.511 25.9613 210.572 26.1962 210.637C26.4878 210.718 26.7916 210.799 27.1076 210.88C27.4316 210.953 27.7314 211.054 28.0068 211.184C28.2823 211.313 28.505 211.5 28.6752 211.743C28.8453 211.978 28.9304 212.298 28.9304 212.703C28.9304 213.092 28.8534 213.42 28.6995 213.687C28.5537 213.954 28.3471 214.169 28.0797 214.331C27.8124 214.493 27.5005 214.611 27.144 214.683C26.7876 214.756 26.4028 214.793 25.9896 214.793ZM32.742 214.793C32.2964 214.793 31.8954 214.744 31.5389 214.647C31.1825 214.55 30.8787 214.416 30.6275 214.246C30.3764 214.068 30.182 213.857 30.0443 213.614C29.9146 213.371 29.8498 213.096 29.8498 212.788C29.8498 212.755 29.8498 212.723 29.8498 212.691C29.8498 212.658 29.8539 212.634 29.862 212.618H31.4903C31.4903 212.634 31.4903 212.65 31.4903 212.666C31.4903 212.682 31.4903 212.699 31.4903 212.715C31.4984 212.917 31.5632 213.083 31.6848 213.213C31.8063 213.335 31.9642 213.424 32.1587 213.48C32.3612 213.537 32.5718 213.565 32.7906 213.565C32.985 213.565 33.1713 213.549 33.3496 213.517C33.5359 213.476 33.6898 213.407 33.8113 213.31C33.9409 213.213 34.0058 213.087 34.0058 212.934C34.0058 212.739 33.9247 212.589 33.7627 212.484C33.6088 212.379 33.4022 212.294 33.143 212.229C32.8918 212.164 32.6164 212.091 32.3166 212.01C32.0412 211.945 31.7658 211.872 31.4903 211.791C31.2149 211.702 30.9637 211.589 30.7369 211.451C30.5182 211.313 30.3399 211.135 30.2022 210.916C30.0645 210.69 29.9956 210.406 29.9956 210.066C29.9956 209.734 30.0686 209.446 30.2144 209.203C30.3602 208.952 30.5587 208.745 30.8098 208.583C31.0691 208.421 31.3688 208.304 31.7091 208.231C32.0574 208.15 32.4301 208.109 32.827 208.109C33.1997 208.109 33.548 208.15 33.8721 208.231C34.1961 208.304 34.4797 208.417 34.7227 208.571C34.9658 208.717 35.1561 208.903 35.2939 209.13C35.4316 209.349 35.5004 209.596 35.5004 209.871C35.5004 209.928 35.5004 209.981 35.5004 210.029C35.5004 210.078 35.4964 210.11 35.4883 210.126H33.8721V210.029C33.8721 209.883 33.8275 209.762 33.7384 209.665C33.6493 209.559 33.5197 209.478 33.3496 209.422C33.1875 209.365 32.9891 209.337 32.7541 209.337C32.5921 209.337 32.4422 209.349 32.3045 209.373C32.1749 209.397 32.0615 209.434 31.9642 209.482C31.867 209.531 31.7901 209.592 31.7334 209.665C31.6848 209.73 31.6604 209.811 31.6604 209.908C31.6604 210.045 31.7172 210.159 31.8306 210.248C31.9521 210.329 32.1101 210.398 32.3045 210.455C32.4989 210.511 32.7136 210.572 32.9485 210.637C33.2402 210.718 33.544 210.799 33.8599 210.88C34.184 210.953 34.4837 211.054 34.7592 211.184C35.0346 211.313 35.2574 211.5 35.4275 211.743C35.5976 211.978 35.6827 212.298 35.6827 212.703C35.6827 213.092 35.6057 213.42 35.4518 213.687C35.306 213.954 35.0994 214.169 34.8321 214.331C34.5647 214.493 34.2528 214.611 33.8964 214.683C33.5399 214.756 33.1551 214.793 32.742 214.793ZM39.8103 214.793C39.1054 214.793 38.5141 214.675 38.0361 214.44C37.5581 214.197 37.1976 213.829 36.9546 213.335C36.7115 212.84 36.59 212.213 36.59 211.451C36.59 210.681 36.7115 210.054 36.9546 209.567C37.1976 209.073 37.5541 208.709 38.0239 208.474C38.5019 208.231 39.0852 208.109 39.7738 208.109C40.4219 208.109 40.9687 208.227 41.4143 208.462C41.8599 208.689 42.1961 209.045 42.4229 209.531C42.6497 210.009 42.7632 210.629 42.7632 211.39V211.828H38.3034C38.3196 212.2 38.3763 212.516 38.4736 212.776C38.5789 213.035 38.7368 213.229 38.9475 213.359C39.1662 213.48 39.4538 213.541 39.8103 213.541C40.0047 213.541 40.1789 213.517 40.3328 213.468C40.4948 213.42 40.6325 213.347 40.7459 213.25C40.8594 213.152 40.9485 213.031 41.0133 212.885C41.0781 212.739 41.1105 212.573 41.1105 212.387H42.7632C42.7632 212.792 42.6902 213.144 42.5444 213.444C42.3986 213.744 42.1961 213.995 41.9368 214.197C41.6776 214.392 41.3657 214.542 41.0011 214.647C40.6447 214.744 40.2477 214.793 39.8103 214.793ZM38.3277 210.758H41.0254C41.0254 210.515 40.993 210.305 40.9282 210.126C40.8715 209.948 40.7905 209.802 40.6852 209.689C40.5799 209.576 40.4503 209.495 40.2963 209.446C40.1505 209.389 39.9844 209.361 39.7981 209.361C39.4903 209.361 39.231 209.414 39.0204 209.519C38.8179 209.616 38.6599 209.77 38.5465 209.981C38.4411 210.183 38.3682 210.442 38.3277 210.758ZM45.9103 214.793C45.5052 214.793 45.1771 214.72 44.926 214.574C44.6749 214.428 44.4926 214.234 44.3792 213.991C44.2657 213.74 44.209 213.464 44.209 213.164V209.555H43.4192V208.255H44.2698L44.5857 206.432H45.8981V208.255H47.0647V209.555H45.8981V212.885C45.8981 213.079 45.9427 213.229 46.0318 213.335C46.1209 213.432 46.2667 213.48 46.4693 213.48H47.0647V214.598C46.9675 214.631 46.8541 214.659 46.7245 214.683C46.5948 214.716 46.4571 214.74 46.3113 214.756C46.1655 214.781 46.0318 214.793 45.9103 214.793ZM49.8364 214.647L53.0445 206.311H55.2804L58.4885 214.647H56.5321L55.9366 213.006H52.3032L51.7078 214.647H49.8364ZM52.8257 211.548H55.4141L54.6728 209.495C54.6404 209.405 54.5999 209.3 54.5513 209.179C54.5108 209.049 54.4662 208.907 54.4176 208.753C54.369 208.599 54.3204 208.45 54.2718 208.304C54.2313 208.15 54.1908 208.012 54.1503 207.891H54.0774C54.0369 208.044 53.9842 208.227 53.9194 208.437C53.8546 208.64 53.7898 208.838 53.725 209.033C53.6602 209.219 53.6075 209.373 53.567 209.495L52.8257 211.548ZM59.3347 214.647V205.861H61.0238V214.647H59.3347ZM62.5744 214.647V205.861H64.2635V214.647H62.5744ZM68.7548 214.793C68.0581 214.793 67.4667 214.675 66.9807 214.44C66.4946 214.197 66.126 213.829 65.8748 213.335C65.6237 212.832 65.4981 212.204 65.4981 211.451C65.4981 210.681 65.6237 210.054 65.8748 209.567C66.126 209.073 66.4946 208.709 66.9807 208.474C67.4667 208.231 68.0581 208.109 68.7548 208.109C69.4677 208.109 70.0632 208.231 70.5411 208.474C71.0272 208.709 71.3958 209.073 71.647 209.567C71.8981 210.054 72.0237 210.681 72.0237 211.451C72.0237 212.204 71.8981 212.832 71.647 213.335C71.3958 213.829 71.0272 214.197 70.5411 214.44C70.0632 214.675 69.4677 214.793 68.7548 214.793ZM68.7548 213.48C69.1275 213.48 69.4232 213.412 69.6419 213.274C69.8687 213.136 70.0348 212.925 70.1401 212.642C70.2454 212.358 70.2981 212.01 70.2981 211.597V211.305C70.2981 210.892 70.2454 210.544 70.1401 210.26C70.0348 209.977 69.8687 209.766 69.6419 209.628C69.4232 209.482 69.1275 209.41 68.7548 209.41C68.3903 209.41 68.0946 209.482 67.8677 209.628C67.649 209.766 67.487 209.977 67.3817 210.26C67.2763 210.544 67.2237 210.892 67.2237 211.305V211.597C67.2237 212.01 67.2763 212.358 67.3817 212.642C67.487 212.925 67.649 213.136 67.8677 213.274C68.0946 213.412 68.3903 213.48 68.7548 213.48ZM76.0736 214.793C75.3931 214.793 74.822 214.675 74.3602 214.44C73.8985 214.197 73.5461 213.829 73.303 213.335C73.0681 212.832 72.9506 212.204 72.9506 211.451C72.9506 210.681 73.0681 210.054 73.303 209.567C73.5461 209.073 73.8985 208.705 74.3602 208.462C74.8301 208.219 75.4012 208.097 76.0736 208.097C76.5111 208.097 76.904 208.15 77.2524 208.255C77.6088 208.36 77.9167 208.522 78.1759 208.741C78.4352 208.96 78.6296 209.231 78.7592 209.555C78.8969 209.871 78.9658 210.248 78.9658 210.685H77.2767C77.2767 210.394 77.2321 210.155 77.143 209.969C77.0539 209.782 76.9162 209.64 76.7298 209.543C76.5516 209.446 76.3248 209.397 76.0493 209.397C75.7253 209.397 75.462 209.47 75.2595 209.616C75.0569 209.762 74.9071 209.977 74.8099 210.26C74.7126 210.544 74.664 210.896 74.664 211.317V211.597C74.664 212.01 74.7126 212.358 74.8099 212.642C74.9152 212.925 75.0731 213.14 75.2838 213.286C75.4944 213.424 75.7699 213.493 76.1101 213.493C76.3855 213.493 76.6124 213.444 76.7906 213.347C76.9769 213.25 77.1187 213.104 77.2159 212.909C77.3131 212.715 77.3617 212.48 77.3617 212.204H78.9658C78.9658 212.618 78.8969 212.986 78.7592 213.31C78.6296 213.634 78.4352 213.906 78.1759 214.124C77.9248 214.343 77.621 214.509 77.2645 214.623C76.9081 214.736 76.5111 214.793 76.0736 214.793ZM81.9216 214.793C81.711 214.793 81.4842 214.768 81.2411 214.72C81.0062 214.671 80.7834 214.586 80.5728 214.465C80.3621 214.335 80.188 214.153 80.0503 213.918C79.9206 213.675 79.8558 213.367 79.8558 212.994C79.8558 212.549 79.953 212.18 80.1475 211.889C80.3419 211.597 80.6173 211.37 80.9738 211.208C81.3383 211.038 81.7718 210.92 82.274 210.856C82.7763 210.791 83.3313 210.758 83.9388 210.758V210.284C83.9388 210.098 83.9064 209.936 83.8416 209.798C83.7849 209.661 83.6796 209.551 83.5257 209.47C83.3799 209.389 83.1733 209.349 82.9059 209.349C82.6386 209.349 82.4199 209.381 82.2497 209.446C82.0877 209.511 81.9702 209.596 81.8973 209.701C81.8325 209.798 81.8001 209.908 81.8001 210.029V210.175H80.1596C80.1515 210.135 80.1475 210.098 80.1475 210.066C80.1475 210.025 80.1475 209.977 80.1475 209.92C80.1475 209.547 80.2609 209.227 80.4877 208.96C80.7146 208.684 81.0346 208.474 81.4477 208.328C81.8609 208.182 82.3429 208.109 82.8938 208.109C83.4852 208.109 83.9793 208.186 84.3763 208.34C84.7814 208.494 85.0892 208.721 85.2999 209.021C85.5186 209.32 85.628 209.697 85.628 210.151V213.055C85.628 213.201 85.6685 213.31 85.7495 213.383C85.8386 213.448 85.9358 213.48 86.0411 213.48H86.4421V214.586C86.3611 214.627 86.2355 214.667 86.0654 214.708C85.8953 214.756 85.6887 214.781 85.4457 214.781C85.2107 214.781 85.0001 214.744 84.8138 214.671C84.6355 214.606 84.4857 214.513 84.3642 214.392C84.2426 214.262 84.1576 214.108 84.109 213.93H84.0239C83.8862 214.1 83.7161 214.25 83.5135 214.38C83.3191 214.509 83.0882 214.611 82.8209 214.683C82.5616 214.756 82.2619 214.793 81.9216 214.793ZM82.4928 213.517C82.7196 213.517 82.9221 213.484 83.1004 213.42C83.2786 213.347 83.4285 213.254 83.55 213.14C83.6715 213.019 83.7647 212.873 83.8295 212.703C83.9024 212.533 83.9388 212.35 83.9388 212.156V211.803C83.4852 211.803 83.0801 211.836 82.7237 211.901C82.3672 211.957 82.0837 212.059 81.873 212.204C81.6705 212.35 81.5692 212.553 81.5692 212.812C81.5692 212.958 81.6057 213.083 81.6786 213.189C81.7515 213.294 81.8568 213.375 81.9945 213.432C82.1323 213.488 82.2983 213.517 82.4928 213.517ZM89.1894 214.793C88.7843 214.793 88.4562 214.72 88.2051 214.574C87.954 214.428 87.7717 214.234 87.6583 213.991C87.5448 213.74 87.4881 213.464 87.4881 213.164V209.555H86.6983V208.255H87.5489L87.8648 206.432H89.1772V208.255H90.3438V209.555H89.1772V212.885C89.1772 213.079 89.2218 213.229 89.3109 213.335C89.4 213.432 89.5458 213.48 89.7484 213.48H90.3438V214.598C90.2466 214.631 90.1332 214.659 90.0036 214.683C89.8739 214.716 89.7362 214.74 89.5904 214.756C89.4446 214.781 89.3109 214.793 89.1894 214.793ZM91.435 207.319V205.861H93.1241V207.319H91.435ZM91.435 214.647V208.255H93.1241V214.647H91.435ZM97.6155 214.793C96.9188 214.793 96.3274 214.675 95.8413 214.44C95.3552 214.197 94.9866 213.829 94.7355 213.335C94.4843 212.832 94.3588 212.204 94.3588 211.451C94.3588 210.681 94.4843 210.054 94.7355 209.567C94.9866 209.073 95.3552 208.709 95.8413 208.474C96.3274 208.231 96.9188 208.109 97.6155 208.109C98.3284 208.109 98.9238 208.231 99.4018 208.474C99.8879 208.709 100.256 209.073 100.508 209.567C100.759 210.054 100.884 210.681 100.884 211.451C100.884 212.204 100.759 212.832 100.508 213.335C100.256 213.829 99.8879 214.197 99.4018 214.44C98.9238 214.675 98.3284 214.793 97.6155 214.793ZM97.6155 213.48C97.9881 213.48 98.2838 213.412 98.5025 213.274C98.7294 213.136 98.8955 212.925 99.0008 212.642C99.1061 212.358 99.1587 212.01 99.1587 211.597V211.305C99.1587 210.892 99.1061 210.544 99.0008 210.26C98.8955 209.977 98.7294 209.766 98.5025 209.628C98.2838 209.482 97.9881 209.41 97.6155 209.41C97.2509 209.41 96.9552 209.482 96.7284 209.628C96.5096 209.766 96.3476 209.977 96.2423 210.26C96.137 210.544 96.0843 210.892 96.0843 211.305V211.597C96.0843 212.01 96.137 212.358 96.2423 212.642C96.3476 212.925 96.5096 213.136 96.7284 213.274C96.9552 213.412 97.2509 213.48 97.6155 213.48ZM102.127 214.647V208.255H103.525L103.658 209.13H103.743C103.889 208.919 104.063 208.737 104.266 208.583C104.477 208.429 104.712 208.312 104.971 208.231C105.23 208.15 105.514 208.109 105.821 208.109C106.243 208.109 106.611 208.186 106.927 208.34C107.243 208.494 107.486 208.737 107.656 209.069C107.835 209.401 107.924 209.835 107.924 210.37V214.647H106.235V210.637C106.235 210.434 106.21 210.264 106.162 210.126C106.113 209.981 106.04 209.863 105.943 209.774C105.854 209.677 105.74 209.608 105.603 209.567C105.465 209.527 105.311 209.507 105.141 209.507C104.89 209.507 104.663 209.567 104.46 209.689C104.258 209.811 104.1 209.977 103.986 210.187C103.873 210.398 103.816 210.641 103.816 210.916V214.647H102.127ZM115.213 214.793C114.727 214.793 114.265 214.744 113.828 214.647C113.39 214.55 113.001 214.396 112.661 214.185C112.329 213.966 112.066 213.695 111.871 213.371C111.685 213.039 111.592 212.638 111.592 212.168C111.592 212.127 111.592 212.087 111.592 212.046C111.592 211.998 111.596 211.961 111.604 211.937H113.402C113.394 211.961 113.39 211.994 113.39 212.034C113.39 212.075 113.39 212.111 113.39 212.144C113.39 212.403 113.459 212.622 113.597 212.8C113.743 212.978 113.953 213.112 114.229 213.201C114.504 213.29 114.824 213.335 115.189 213.335C115.424 213.335 115.63 213.322 115.808 213.298C115.995 213.266 116.157 213.225 116.294 213.177C116.44 213.12 116.558 213.055 116.647 212.982C116.744 212.909 116.813 212.824 116.853 212.727C116.902 212.63 116.926 212.52 116.926 212.399C116.926 212.18 116.853 212.002 116.708 211.864C116.57 211.726 116.375 211.609 116.124 211.512C115.881 211.415 115.606 211.325 115.298 211.244C114.99 211.163 114.674 211.082 114.35 211.001C114.026 210.912 113.71 210.807 113.402 210.685C113.094 210.556 112.819 210.402 112.576 210.224C112.333 210.045 112.139 209.819 111.993 209.543C111.847 209.268 111.774 208.936 111.774 208.547C111.774 208.134 111.859 207.777 112.029 207.477C112.207 207.178 112.454 206.931 112.77 206.736C113.086 206.542 113.451 206.4 113.864 206.311C114.277 206.214 114.727 206.165 115.213 206.165C115.667 206.165 116.096 206.214 116.501 206.311C116.906 206.4 117.263 206.546 117.57 206.748C117.878 206.951 118.117 207.206 118.287 207.514C118.466 207.822 118.555 208.186 118.555 208.608V208.753H116.793V208.656C116.793 208.437 116.728 208.251 116.598 208.097C116.469 207.943 116.286 207.822 116.051 207.733C115.816 207.643 115.541 207.599 115.225 207.599C114.885 207.599 114.593 207.631 114.35 207.696C114.115 207.761 113.933 207.858 113.803 207.988C113.682 208.109 113.621 208.255 113.621 208.425C113.621 208.62 113.69 208.782 113.828 208.911C113.973 209.033 114.168 209.142 114.411 209.239C114.662 209.329 114.942 209.41 115.249 209.482C115.557 209.555 115.873 209.636 116.197 209.725C116.521 209.815 116.837 209.92 117.145 210.041C117.453 210.163 117.728 210.317 117.971 210.503C118.214 210.681 118.409 210.904 118.555 211.172C118.701 211.439 118.773 211.759 118.773 212.132C118.773 212.772 118.62 213.286 118.312 213.675C118.004 214.064 117.583 214.347 117.048 214.525C116.513 214.704 115.902 214.793 115.213 214.793ZM121.978 214.793C121.573 214.793 121.245 214.72 120.994 214.574C120.743 214.428 120.56 214.234 120.447 213.991C120.333 213.74 120.277 213.464 120.277 213.164V209.555H119.487V208.255H120.338L120.653 206.432H121.966V208.255H123.132V209.555H121.966V212.885C121.966 213.079 122.01 213.229 122.1 213.335C122.189 213.432 122.334 213.48 122.537 213.48H123.132V214.598C123.035 214.631 122.922 214.659 122.792 214.683C122.663 214.716 122.525 214.74 122.379 214.756C122.233 214.781 122.1 214.793 121.978 214.793ZM124.224 214.647V208.255H125.621L125.755 209.252H125.84C125.921 209.041 126.026 208.851 126.156 208.68C126.285 208.502 126.447 208.36 126.642 208.255C126.836 208.15 127.063 208.097 127.322 208.097C127.46 208.097 127.586 208.113 127.699 208.146C127.812 208.17 127.898 208.194 127.954 208.219V209.75H127.432C127.181 209.75 126.958 209.786 126.763 209.859C126.577 209.924 126.419 210.029 126.289 210.175C126.16 210.321 126.063 210.499 125.998 210.71C125.941 210.92 125.913 211.167 125.913 211.451V214.647H124.224ZM130.41 214.793C130.2 214.793 129.973 214.768 129.73 214.72C129.495 214.671 129.272 214.586 129.062 214.465C128.851 214.335 128.677 214.153 128.539 213.918C128.409 213.675 128.345 213.367 128.345 212.994C128.345 212.549 128.442 212.18 128.636 211.889C128.831 211.597 129.106 211.37 129.463 211.208C129.827 211.038 130.26 210.92 130.763 210.856C131.265 210.791 131.82 210.758 132.428 210.758V210.284C132.428 210.098 132.395 209.936 132.33 209.798C132.274 209.661 132.168 209.551 132.014 209.47C131.869 209.389 131.662 209.349 131.395 209.349C131.127 209.349 130.909 209.381 130.738 209.446C130.576 209.511 130.459 209.596 130.386 209.701C130.321 209.798 130.289 209.908 130.289 210.029V210.175H128.648C128.64 210.135 128.636 210.098 128.636 210.066C128.636 210.025 128.636 209.977 128.636 209.92C128.636 209.547 128.75 209.227 128.976 208.96C129.203 208.684 129.523 208.474 129.936 208.328C130.35 208.182 130.832 208.109 131.383 208.109C131.974 208.109 132.468 208.186 132.865 208.34C133.27 208.494 133.578 208.721 133.789 209.021C134.007 209.32 134.117 209.697 134.117 210.151V213.055C134.117 213.201 134.157 213.31 134.238 213.383C134.327 213.448 134.425 213.48 134.53 213.48H134.931V214.586C134.85 214.627 134.724 214.667 134.554 214.708C134.384 214.756 134.177 214.781 133.934 214.781C133.699 214.781 133.489 214.744 133.303 214.671C133.124 214.606 132.974 214.513 132.853 214.392C132.731 214.262 132.646 214.108 132.598 213.93H132.513C132.375 214.1 132.205 214.25 132.002 214.38C131.808 214.509 131.577 214.611 131.31 214.683C131.05 214.756 130.751 214.793 130.41 214.793ZM130.981 213.517C131.208 213.517 131.411 213.484 131.589 213.42C131.767 213.347 131.917 213.254 132.039 213.14C132.16 213.019 132.253 212.873 132.318 212.703C132.391 212.533 132.428 212.35 132.428 212.156V211.803C131.974 211.803 131.569 211.836 131.212 211.901C130.856 211.957 130.572 212.059 130.362 212.204C130.159 212.35 130.058 212.553 130.058 212.812C130.058 212.958 130.094 213.083 130.167 213.189C130.24 213.294 130.346 213.375 130.483 213.432C130.621 213.488 130.787 213.517 130.981 213.517ZM137.678 214.793C137.273 214.793 136.945 214.72 136.694 214.574C136.443 214.428 136.26 214.234 136.147 213.991C136.034 213.74 135.977 213.464 135.977 213.164V209.555H135.187V208.255H136.038L136.354 206.432H137.666V208.255H138.833V209.555H137.666V212.885C137.666 213.079 137.711 213.229 137.8 213.335C137.889 213.432 138.035 213.48 138.237 213.48H138.833V214.598C138.735 214.631 138.622 214.659 138.492 214.683C138.363 214.716 138.225 214.74 138.079 214.756C137.933 214.781 137.8 214.793 137.678 214.793ZM142.828 214.793C142.123 214.793 141.532 214.675 141.054 214.44C140.576 214.197 140.215 213.829 139.972 213.335C139.729 212.84 139.608 212.213 139.608 211.451C139.608 210.681 139.729 210.054 139.972 209.567C140.215 209.073 140.572 208.709 141.042 208.474C141.52 208.231 142.103 208.109 142.792 208.109C143.44 208.109 143.987 208.227 144.432 208.462C144.878 208.689 145.214 209.045 145.441 209.531C145.668 210.009 145.781 210.629 145.781 211.39V211.828H141.321C141.337 212.2 141.394 212.516 141.491 212.776C141.597 213.035 141.755 213.229 141.965 213.359C142.184 213.48 142.472 213.541 142.828 213.541C143.022 213.541 143.197 213.517 143.351 213.468C143.513 213.42 143.65 213.347 143.764 213.25C143.877 213.152 143.966 213.031 144.031 212.885C144.096 212.739 144.128 212.573 144.128 212.387H145.781C145.781 212.792 145.708 213.144 145.562 213.444C145.416 213.744 145.214 213.995 144.955 214.197C144.695 214.392 144.383 214.542 144.019 214.647C143.662 214.744 143.265 214.793 142.828 214.793ZM141.346 210.758H144.043C144.043 210.515 144.011 210.305 143.946 210.126C143.889 209.948 143.808 209.802 143.703 209.689C143.598 209.576 143.468 209.495 143.314 209.446C143.168 209.389 143.002 209.361 142.816 209.361C142.508 209.361 142.249 209.414 142.038 209.519C141.836 209.616 141.678 209.77 141.564 209.981C141.459 210.183 141.386 210.442 141.346 210.758ZM148.065 216.932C147.782 216.932 147.514 216.871 147.263 216.749C147.012 216.636 146.81 216.466 146.656 216.239C146.502 216.012 146.425 215.741 146.425 215.425C146.425 215.068 146.526 214.785 146.729 214.574C146.939 214.355 147.174 214.193 147.433 214.088C147.247 213.983 147.093 213.845 146.972 213.675C146.858 213.505 146.801 213.306 146.801 213.079C146.801 212.763 146.915 212.508 147.142 212.314C147.377 212.111 147.644 211.982 147.944 211.925C147.644 211.739 147.409 211.504 147.239 211.22C147.077 210.929 146.996 210.604 146.996 210.248C146.996 209.786 147.109 209.397 147.336 209.081C147.571 208.765 147.903 208.526 148.333 208.364C148.77 208.194 149.285 208.109 149.876 208.109C150.111 208.109 150.33 208.121 150.532 208.146C150.743 208.17 150.933 208.211 151.103 208.267C151.403 208.089 151.606 207.895 151.711 207.684C151.824 207.465 151.885 207.291 151.893 207.161H153.461C153.461 207.461 153.404 207.72 153.291 207.939C153.185 208.158 153.031 208.34 152.829 208.486C152.626 208.624 152.383 208.725 152.1 208.79C152.31 208.968 152.472 209.183 152.586 209.434C152.699 209.685 152.756 209.956 152.756 210.248C152.756 210.702 152.647 211.091 152.428 211.415C152.209 211.731 151.897 211.974 151.492 212.144C151.095 212.314 150.617 212.399 150.058 212.399H149.086C148.892 212.399 148.746 212.435 148.649 212.508C148.551 212.573 148.503 212.67 148.503 212.8C148.503 212.905 148.543 212.998 148.624 213.079C148.713 213.152 148.855 213.189 149.05 213.189H151.711C152.246 213.189 152.671 213.355 152.987 213.687C153.311 214.011 153.473 214.428 153.473 214.939C153.473 215.327 153.372 215.672 153.169 215.972C152.967 216.271 152.687 216.506 152.331 216.676C151.974 216.846 151.565 216.932 151.103 216.932H148.065ZM148.77 215.801H151.018C151.164 215.801 151.294 215.773 151.407 215.716C151.52 215.668 151.61 215.595 151.674 215.498C151.739 215.408 151.772 215.303 151.772 215.182C151.772 214.971 151.707 214.813 151.577 214.708C151.448 214.602 151.286 214.55 151.091 214.55H148.77C148.576 214.55 148.414 214.606 148.284 214.72C148.163 214.833 148.102 214.983 148.102 215.17C148.102 215.356 148.163 215.506 148.284 215.619C148.414 215.741 148.576 215.801 148.77 215.801ZM149.876 211.305C150.273 211.305 150.573 211.216 150.775 211.038C150.986 210.852 151.091 210.588 151.091 210.248C151.091 209.908 150.986 209.649 150.775 209.47C150.573 209.284 150.273 209.191 149.876 209.191C149.487 209.191 149.187 209.284 148.977 209.47C148.774 209.649 148.673 209.908 148.673 210.248C148.673 210.467 148.717 210.657 148.807 210.819C148.896 210.981 149.029 211.103 149.208 211.184C149.386 211.265 149.609 211.305 149.876 211.305ZM155.325 216.932C155.025 216.932 154.774 216.907 154.572 216.859C154.377 216.818 154.252 216.79 154.195 216.774V215.631H154.936C155.139 215.631 155.321 215.583 155.483 215.485C155.645 215.396 155.787 215.275 155.908 215.121C156.03 214.975 156.119 214.817 156.176 214.647L153.672 208.255H155.459L156.552 211.208C156.601 211.346 156.654 211.52 156.71 211.731C156.775 211.933 156.84 212.148 156.905 212.375C156.97 212.593 157.022 212.788 157.063 212.958H157.124C157.156 212.844 157.192 212.711 157.233 212.557C157.273 212.403 157.314 212.245 157.354 212.083C157.403 211.921 157.448 211.767 157.488 211.621C157.537 211.467 157.577 211.334 157.61 211.22L158.521 208.255H160.222L158.047 214.343C157.926 214.7 157.784 215.032 157.622 215.34C157.468 215.656 157.286 215.931 157.075 216.166C156.864 216.409 156.613 216.595 156.322 216.725C156.038 216.863 155.706 216.932 155.325 216.932Z" fill="#111827"/>
<path d="M235.809 214.267C235.229 214.267 234.729 214.174 234.309 213.987C233.89 213.8 233.566 213.507 233.34 213.107C233.12 212.701 233.01 212.181 233.01 211.548V207.289H233.959V211.648C233.959 212.247 234.119 212.697 234.439 212.997C234.766 213.297 235.223 213.447 235.809 213.447C236.402 213.447 236.865 213.297 237.199 212.997C237.532 212.697 237.699 212.247 237.699 211.648V207.289H238.638V211.548C238.638 212.181 238.525 212.701 238.298 213.107C238.072 213.507 237.745 213.8 237.319 213.987C236.899 214.174 236.396 214.267 235.809 214.267ZM240.172 215.877V208.888H240.872L240.962 209.638H241.032C241.212 209.345 241.442 209.128 241.722 208.988C242.002 208.842 242.319 208.768 242.672 208.768C243.112 208.768 243.485 208.865 243.792 209.058C244.098 209.251 244.335 209.555 244.501 209.968C244.668 210.375 244.751 210.904 244.751 211.558C244.751 212.171 244.665 212.681 244.491 213.087C244.325 213.487 244.088 213.784 243.782 213.977C243.475 214.17 243.118 214.267 242.712 214.267C242.485 214.267 242.272 214.24 242.072 214.187C241.872 214.134 241.692 214.05 241.532 213.937C241.372 213.817 241.232 213.667 241.112 213.487H241.052V215.877H240.172ZM242.432 213.497C242.758 213.497 243.025 213.434 243.232 213.307C243.438 213.174 243.592 212.971 243.692 212.697C243.792 212.417 243.842 212.061 243.842 211.628V211.418C243.842 210.958 243.788 210.591 243.682 210.318C243.575 210.038 243.418 209.838 243.212 209.718C243.012 209.598 242.762 209.538 242.462 209.538C242.135 209.538 241.865 209.611 241.652 209.758C241.445 209.898 241.292 210.111 241.192 210.398C241.099 210.684 241.052 211.034 241.052 211.448V211.598C241.052 211.964 241.086 212.271 241.152 212.517C241.226 212.757 241.325 212.951 241.452 213.097C241.585 213.244 241.735 213.347 241.902 213.407C242.069 213.467 242.245 213.497 242.432 213.497ZM247.634 214.267C247.201 214.267 246.828 214.17 246.515 213.977C246.208 213.784 245.968 213.484 245.795 213.077C245.628 212.664 245.545 212.131 245.545 211.478C245.545 210.858 245.632 210.348 245.805 209.948C245.978 209.548 246.218 209.251 246.525 209.058C246.831 208.865 247.188 208.768 247.594 208.768C247.828 208.768 248.044 208.795 248.244 208.848C248.444 208.902 248.621 208.985 248.774 209.098C248.934 209.211 249.074 209.361 249.194 209.548H249.254V206.919H250.134V214.147H249.424L249.344 213.397H249.274C249.094 213.69 248.861 213.91 248.574 214.057C248.288 214.197 247.974 214.267 247.634 214.267ZM247.844 213.497C248.178 213.497 248.448 213.424 248.654 213.277C248.861 213.131 249.011 212.917 249.104 212.637C249.204 212.357 249.254 212.011 249.254 211.598V211.438C249.254 211.078 249.217 210.774 249.144 210.528C249.071 210.281 248.971 210.085 248.844 209.938C248.718 209.791 248.571 209.688 248.404 209.628C248.238 209.568 248.061 209.538 247.874 209.538C247.548 209.538 247.281 209.605 247.075 209.738C246.868 209.865 246.715 210.068 246.615 210.348C246.515 210.621 246.465 210.978 246.465 211.418V211.628C246.465 212.081 246.518 212.447 246.625 212.727C246.731 213.001 246.885 213.197 247.085 213.317C247.291 213.437 247.544 213.497 247.844 213.497ZM252.837 214.267C252.644 214.267 252.45 214.244 252.257 214.197C252.064 214.15 251.884 214.074 251.717 213.967C251.551 213.86 251.417 213.714 251.317 213.527C251.217 213.334 251.167 213.094 251.167 212.807C251.167 212.447 251.254 212.151 251.427 211.918C251.601 211.684 251.841 211.504 252.147 211.378C252.46 211.244 252.83 211.154 253.257 211.108C253.683 211.054 254.147 211.028 254.647 211.028V210.428C254.647 210.235 254.613 210.068 254.547 209.928C254.48 209.788 254.36 209.681 254.187 209.608C254.02 209.528 253.78 209.488 253.467 209.488C253.167 209.488 252.927 209.528 252.747 209.608C252.574 209.681 252.45 209.778 252.377 209.898C252.31 210.018 252.277 210.151 252.277 210.298V210.448H251.427C251.421 210.415 251.417 210.381 251.417 210.348C251.417 210.315 251.417 210.275 251.417 210.228C251.417 209.908 251.504 209.641 251.677 209.428C251.857 209.208 252.107 209.045 252.427 208.938C252.747 208.825 253.114 208.768 253.527 208.768C253.967 208.768 254.333 208.832 254.627 208.958C254.927 209.085 255.15 209.265 255.296 209.498C255.45 209.731 255.526 210.011 255.526 210.338V213.187C255.526 213.314 255.556 213.404 255.616 213.457C255.676 213.504 255.75 213.527 255.836 213.527H256.226V214.107C256.133 214.147 256.03 214.18 255.916 214.207C255.803 214.24 255.673 214.257 255.526 214.257C255.353 214.257 255.21 214.22 255.096 214.147C254.983 214.08 254.897 213.987 254.837 213.867C254.777 213.74 254.737 213.6 254.717 213.447H254.647C254.527 213.614 254.373 213.76 254.187 213.887C254.007 214.007 253.803 214.1 253.577 214.167C253.35 214.234 253.104 214.267 252.837 214.267ZM253.057 213.527C253.27 213.527 253.47 213.494 253.657 213.427C253.85 213.36 254.02 213.267 254.167 213.147C254.313 213.021 254.43 212.871 254.517 212.697C254.603 212.524 254.647 212.334 254.647 212.127V211.688C254.107 211.688 253.647 211.718 253.267 211.778C252.887 211.838 252.594 211.944 252.387 212.097C252.187 212.251 252.087 212.467 252.087 212.747C252.087 212.927 252.127 213.074 252.207 213.187C252.287 213.301 252.4 213.387 252.547 213.447C252.694 213.5 252.864 213.527 253.057 213.527ZM258.195 214.267C257.922 214.267 257.708 214.217 257.555 214.117C257.402 214.01 257.292 213.874 257.225 213.707C257.159 213.534 257.125 213.35 257.125 213.157V209.628H256.445V208.888H257.145L257.305 207.419H258.005V208.888H258.995V209.628H258.005V213.027C258.005 213.194 258.035 213.321 258.095 213.407C258.155 213.487 258.268 213.527 258.435 213.527H258.995V214.107C258.928 214.14 258.848 214.167 258.755 214.187C258.662 214.207 258.565 214.224 258.465 214.237C258.372 214.257 258.282 214.267 258.195 214.267ZM262.033 214.267C261.513 214.267 261.073 214.17 260.713 213.977C260.36 213.777 260.09 213.474 259.903 213.067C259.723 212.661 259.633 212.144 259.633 211.518C259.633 210.884 259.723 210.368 259.903 209.968C260.09 209.561 260.363 209.261 260.723 209.068C261.083 208.868 261.533 208.768 262.073 208.768C262.566 208.768 262.979 208.865 263.312 209.058C263.646 209.245 263.896 209.528 264.062 209.908C264.236 210.281 264.322 210.751 264.322 211.318V211.738H260.543C260.556 212.157 260.616 212.504 260.723 212.777C260.836 213.044 261.003 213.241 261.223 213.367C261.443 213.487 261.72 213.547 262.053 213.547C262.279 213.547 262.476 213.52 262.643 213.467C262.816 213.407 262.959 213.324 263.073 213.217C263.193 213.111 263.282 212.984 263.342 212.837C263.402 212.691 263.436 212.531 263.442 212.357H264.302C264.296 212.637 264.242 212.897 264.142 213.137C264.042 213.37 263.896 213.57 263.702 213.737C263.509 213.904 263.272 214.034 262.993 214.127C262.713 214.22 262.393 214.267 262.033 214.267ZM260.563 211.078H263.412C263.412 210.784 263.379 210.538 263.312 210.338C263.246 210.138 263.149 209.975 263.023 209.848C262.903 209.721 262.759 209.631 262.593 209.578C262.433 209.518 262.249 209.488 262.043 209.488C261.736 209.488 261.476 209.545 261.263 209.658C261.05 209.771 260.886 209.945 260.773 210.178C260.66 210.411 260.59 210.711 260.563 211.078ZM267.2 214.267C266.767 214.267 266.394 214.17 266.08 213.977C265.774 213.784 265.534 213.484 265.36 213.077C265.194 212.664 265.111 212.131 265.111 211.478C265.111 210.858 265.197 210.348 265.37 209.948C265.544 209.548 265.784 209.251 266.09 209.058C266.397 208.865 266.753 208.768 267.16 208.768C267.393 208.768 267.61 208.795 267.81 208.848C268.01 208.902 268.186 208.985 268.34 209.098C268.5 209.211 268.64 209.361 268.76 209.548H268.82V206.919H269.699V214.147H268.99L268.91 213.397H268.84C268.66 213.69 268.426 213.91 268.14 214.057C267.853 214.197 267.54 214.267 267.2 214.267ZM267.41 213.497C267.743 213.497 268.013 213.424 268.22 213.277C268.426 213.131 268.576 212.917 268.67 212.637C268.77 212.357 268.82 212.011 268.82 211.598V211.438C268.82 211.078 268.783 210.774 268.71 210.528C268.636 210.281 268.536 210.085 268.41 209.938C268.283 209.791 268.136 209.688 267.97 209.628C267.803 209.568 267.627 209.538 267.44 209.538C267.113 209.538 266.847 209.605 266.64 209.738C266.434 209.865 266.28 210.068 266.18 210.348C266.08 210.621 266.03 210.978 266.03 211.418V211.628C266.03 212.081 266.084 212.447 266.19 212.727C266.297 213.001 266.45 213.197 266.65 213.317C266.857 213.437 267.11 213.497 267.41 213.497ZM275.382 214.267C274.902 214.267 274.482 214.177 274.122 213.997C273.762 213.817 273.482 213.56 273.282 213.227C273.082 212.887 272.982 212.484 272.982 212.017H273.872C273.872 212.331 273.939 212.601 274.072 212.827C274.205 213.054 274.385 213.227 274.612 213.347C274.845 213.467 275.102 213.527 275.382 213.527C275.668 213.527 275.922 213.47 276.142 213.357C276.362 213.237 276.531 213.057 276.651 212.817C276.778 212.577 276.841 212.274 276.841 211.908C276.841 211.574 276.785 211.301 276.671 211.088C276.558 210.868 276.395 210.704 276.182 210.598C275.975 210.491 275.735 210.438 275.462 210.438C275.262 210.438 275.072 210.471 274.892 210.538C274.712 210.598 274.549 210.684 274.402 210.798C274.262 210.911 274.145 211.051 274.052 211.218L273.222 211.088L273.512 207.289H277.401V208.108H274.282L274.122 210.248C274.235 210.148 274.362 210.058 274.502 209.978C274.649 209.891 274.815 209.825 275.002 209.778C275.188 209.725 275.402 209.698 275.642 209.698C276.035 209.698 276.392 209.775 276.711 209.928C277.031 210.081 277.285 210.318 277.471 210.638C277.658 210.958 277.751 211.371 277.751 211.878C277.751 212.377 277.655 212.807 277.461 213.167C277.275 213.527 277.005 213.8 276.651 213.987C276.298 214.174 275.875 214.267 275.382 214.267ZM282.763 214.267C282.329 214.267 281.956 214.17 281.643 213.977C281.336 213.784 281.096 213.484 280.923 213.077C280.757 212.664 280.673 212.131 280.673 211.478C280.673 210.858 280.76 210.348 280.933 209.948C281.106 209.548 281.346 209.251 281.653 209.058C281.96 208.865 282.316 208.768 282.723 208.768C282.956 208.768 283.173 208.795 283.373 208.848C283.572 208.902 283.749 208.985 283.902 209.098C284.062 209.211 284.202 209.361 284.322 209.548H284.382V206.919H285.262V214.147H284.552L284.472 213.397H284.402C284.222 213.69 283.989 213.91 283.702 214.057C283.416 214.197 283.103 214.267 282.763 214.267ZM282.973 213.497C283.306 213.497 283.576 213.424 283.782 213.277C283.989 213.131 284.139 212.917 284.232 212.637C284.332 212.357 284.382 212.011 284.382 211.598V211.438C284.382 211.078 284.346 210.774 284.272 210.528C284.199 210.281 284.099 210.085 283.972 209.938C283.846 209.791 283.699 209.688 283.533 209.628C283.366 209.568 283.189 209.538 283.003 209.538C282.676 209.538 282.409 209.605 282.203 209.738C281.996 209.865 281.843 210.068 281.743 210.348C281.643 210.621 281.593 210.978 281.593 211.418V211.628C281.593 212.081 281.646 212.447 281.753 212.727C281.86 213.001 282.013 213.197 282.213 213.317C282.419 213.437 282.673 213.497 282.973 213.497ZM287.965 214.267C287.772 214.267 287.579 214.244 287.385 214.197C287.192 214.15 287.012 214.074 286.846 213.967C286.679 213.86 286.546 213.714 286.446 213.527C286.346 213.334 286.296 213.094 286.296 212.807C286.296 212.447 286.382 212.151 286.556 211.918C286.729 211.684 286.969 211.504 287.275 211.378C287.589 211.244 287.959 211.154 288.385 211.108C288.812 211.054 289.275 211.028 289.775 211.028V210.428C289.775 210.235 289.742 210.068 289.675 209.928C289.608 209.788 289.488 209.681 289.315 209.608C289.148 209.528 288.908 209.488 288.595 209.488C288.295 209.488 288.055 209.528 287.875 209.608C287.702 209.681 287.579 209.778 287.505 209.898C287.439 210.018 287.405 210.151 287.405 210.298V210.448H286.556C286.549 210.415 286.546 210.381 286.546 210.348C286.546 210.315 286.546 210.275 286.546 210.228C286.546 209.908 286.632 209.641 286.806 209.428C286.986 209.208 287.235 209.045 287.555 208.938C287.875 208.825 288.242 208.768 288.655 208.768C289.095 208.768 289.462 208.832 289.755 208.958C290.055 209.085 290.278 209.265 290.425 209.498C290.578 209.731 290.655 210.011 290.655 210.338V213.187C290.655 213.314 290.685 213.404 290.745 213.457C290.805 213.504 290.878 213.527 290.965 213.527H291.354V214.107C291.261 214.147 291.158 214.18 291.045 214.207C290.931 214.24 290.801 214.257 290.655 214.257C290.481 214.257 290.338 214.22 290.225 214.147C290.111 214.08 290.025 213.987 289.965 213.867C289.905 213.74 289.865 213.6 289.845 213.447H289.775C289.655 213.614 289.502 213.76 289.315 213.887C289.135 214.007 288.932 214.1 288.705 214.167C288.478 214.234 288.232 214.267 287.965 214.267ZM288.185 213.527C288.398 213.527 288.598 213.494 288.785 213.427C288.978 213.36 289.148 213.267 289.295 213.147C289.442 213.021 289.558 212.871 289.645 212.697C289.732 212.524 289.775 212.334 289.775 212.127V211.688C289.235 211.688 288.775 211.718 288.395 211.778C288.015 211.838 287.722 211.944 287.515 212.097C287.315 212.251 287.215 212.467 287.215 212.747C287.215 212.927 287.255 213.074 287.335 213.187C287.415 213.301 287.529 213.387 287.675 213.447C287.822 213.5 287.992 213.527 288.185 213.527ZM292.543 215.967C292.383 215.967 292.243 215.953 292.123 215.927C292.01 215.907 291.934 215.893 291.894 215.887V215.247H292.333C292.493 215.247 292.65 215.213 292.803 215.147C292.957 215.08 293.1 214.967 293.233 214.807C293.367 214.647 293.48 214.427 293.573 214.147L291.534 208.888H292.453L293.503 211.598C293.55 211.724 293.603 211.881 293.663 212.067C293.73 212.247 293.793 212.434 293.853 212.627C293.92 212.821 293.973 212.991 294.013 213.137H294.073C294.1 213.031 294.133 212.911 294.173 212.777C294.213 212.644 294.253 212.507 294.293 212.367C294.34 212.221 294.383 212.084 294.423 211.958C294.47 211.824 294.506 211.708 294.533 211.608L295.423 208.888H296.312L294.533 213.997C294.433 214.284 294.323 214.547 294.203 214.787C294.083 215.033 293.95 215.243 293.803 215.417C293.656 215.59 293.48 215.723 293.273 215.817C293.067 215.917 292.823 215.967 292.543 215.967ZM298.971 214.267C298.611 214.267 298.294 214.23 298.021 214.157C297.748 214.084 297.521 213.977 297.341 213.837C297.161 213.697 297.025 213.53 296.931 213.337C296.838 213.144 296.791 212.924 296.791 212.677C296.791 212.644 296.791 212.614 296.791 212.587C296.791 212.554 296.795 212.527 296.801 212.507H297.671C297.665 212.534 297.661 212.557 297.661 212.577C297.661 212.597 297.661 212.617 297.661 212.637C297.668 212.871 297.728 213.054 297.841 213.187C297.961 213.321 298.124 213.414 298.331 213.467C298.538 213.52 298.768 213.547 299.021 213.547C299.241 213.547 299.444 213.52 299.631 213.467C299.817 213.407 299.964 213.321 300.071 213.207C300.184 213.087 300.241 212.937 300.241 212.757C300.241 212.537 300.167 212.371 300.021 212.257C299.881 212.137 299.694 212.044 299.461 211.977C299.227 211.911 298.984 211.841 298.731 211.768C298.518 211.708 298.304 211.641 298.091 211.568C297.878 211.494 297.685 211.404 297.511 211.298C297.345 211.191 297.208 211.054 297.101 210.888C297.001 210.714 296.951 210.498 296.951 210.238C296.951 210.005 296.998 209.798 297.091 209.618C297.191 209.438 297.331 209.285 297.511 209.158C297.691 209.032 297.908 208.938 298.161 208.878C298.421 208.812 298.708 208.778 299.021 208.778C299.354 208.778 299.644 208.815 299.891 208.888C300.144 208.962 300.354 209.065 300.521 209.198C300.687 209.331 300.81 209.485 300.89 209.658C300.97 209.825 301.01 210.005 301.01 210.198C301.01 210.238 301.01 210.278 301.01 210.318C301.01 210.351 301.007 210.378 301 210.398H300.141V210.288C300.141 210.155 300.104 210.028 300.031 209.908C299.964 209.781 299.844 209.681 299.671 209.608C299.504 209.528 299.271 209.488 298.971 209.488C298.778 209.488 298.611 209.505 298.471 209.538C298.331 209.565 298.214 209.611 298.121 209.678C298.028 209.738 297.958 209.811 297.911 209.898C297.864 209.978 297.841 210.071 297.841 210.178C297.841 210.351 297.898 210.485 298.011 210.578C298.124 210.671 298.274 210.748 298.461 210.808C298.654 210.868 298.861 210.934 299.081 211.008C299.314 211.074 299.551 211.144 299.791 211.218C300.037 211.284 300.261 211.371 300.461 211.478C300.667 211.584 300.83 211.731 300.95 211.918C301.077 212.097 301.14 212.337 301.14 212.637C301.14 212.917 301.087 213.161 300.98 213.367C300.874 213.574 300.72 213.744 300.521 213.877C300.327 214.01 300.097 214.107 299.831 214.167C299.571 214.234 299.284 214.267 298.971 214.267ZM305.637 214.267C305.443 214.267 305.25 214.244 305.057 214.197C304.864 214.15 304.684 214.074 304.517 213.967C304.35 213.86 304.217 213.714 304.117 213.527C304.017 213.334 303.967 213.094 303.967 212.807C303.967 212.447 304.054 212.151 304.227 211.918C304.4 211.684 304.64 211.504 304.947 211.378C305.26 211.244 305.63 211.154 306.057 211.108C306.483 211.054 306.946 211.028 307.446 211.028V210.428C307.446 210.235 307.413 210.068 307.346 209.928C307.28 209.788 307.16 209.681 306.986 209.608C306.82 209.528 306.58 209.488 306.267 209.488C305.967 209.488 305.727 209.528 305.547 209.608C305.374 209.681 305.25 209.778 305.177 209.898C305.11 210.018 305.077 210.151 305.077 210.298V210.448H304.227C304.22 210.415 304.217 210.381 304.217 210.348C304.217 210.315 304.217 210.275 304.217 210.228C304.217 209.908 304.304 209.641 304.477 209.428C304.657 209.208 304.907 209.045 305.227 208.938C305.547 208.825 305.913 208.768 306.327 208.768C306.766 208.768 307.133 208.832 307.426 208.958C307.726 209.085 307.95 209.265 308.096 209.498C308.249 209.731 308.326 210.011 308.326 210.338V213.187C308.326 213.314 308.356 213.404 308.416 213.457C308.476 213.504 308.549 213.527 308.636 213.527H309.026V214.107C308.933 214.147 308.829 214.18 308.716 214.207C308.603 214.24 308.473 214.257 308.326 214.257C308.153 214.257 308.01 214.22 307.896 214.147C307.783 214.08 307.696 213.987 307.636 213.867C307.576 213.74 307.536 213.6 307.516 213.447H307.446C307.326 213.614 307.173 213.76 306.986 213.887C306.806 214.007 306.603 214.1 306.377 214.167C306.15 214.234 305.903 214.267 305.637 214.267ZM305.857 213.527C306.07 213.527 306.27 213.494 306.457 213.427C306.65 213.36 306.82 213.267 306.966 213.147C307.113 213.021 307.23 212.871 307.316 212.697C307.403 212.524 307.446 212.334 307.446 212.127V211.688C306.906 211.688 306.447 211.718 306.067 211.778C305.687 211.838 305.393 211.944 305.187 212.097C304.987 212.251 304.887 212.467 304.887 212.747C304.887 212.927 304.927 213.074 305.007 213.187C305.087 213.301 305.2 213.387 305.347 213.447C305.493 213.5 305.663 213.527 305.857 213.527ZM310.655 215.967C310.402 215.967 310.168 215.913 309.955 215.807C309.742 215.707 309.572 215.56 309.445 215.367C309.318 215.173 309.255 214.943 309.255 214.677C309.255 214.384 309.335 214.14 309.495 213.947C309.662 213.754 309.858 213.61 310.085 213.517C309.918 213.437 309.788 213.327 309.695 213.187C309.602 213.041 309.555 212.881 309.555 212.707C309.555 212.474 309.638 212.277 309.805 212.117C309.978 211.958 310.188 211.851 310.435 211.798C310.208 211.651 310.028 211.464 309.895 211.238C309.768 211.004 309.705 210.748 309.705 210.468C309.705 210.135 309.782 209.841 309.935 209.588C310.095 209.335 310.335 209.135 310.655 208.988C310.981 208.842 311.378 208.768 311.844 208.768C312.058 208.768 312.258 208.785 312.444 208.818C312.631 208.845 312.798 208.892 312.944 208.958C313.178 208.852 313.351 208.715 313.464 208.548C313.584 208.382 313.657 208.212 313.684 208.038H314.554C314.554 208.238 314.507 208.428 314.414 208.608C314.327 208.782 314.207 208.928 314.054 209.048C313.901 209.162 313.714 209.238 313.494 209.278C313.661 209.438 313.784 209.618 313.864 209.818C313.951 210.018 313.994 210.235 313.994 210.468C313.994 210.801 313.914 211.098 313.754 211.358C313.601 211.611 313.367 211.811 313.054 211.958C312.741 212.104 312.348 212.177 311.874 212.177H311.055C310.875 212.177 310.728 212.214 310.615 212.287C310.501 212.354 310.445 212.464 310.445 212.617C310.445 212.751 310.501 212.861 310.615 212.947C310.728 213.027 310.875 213.067 311.055 213.067H313.194C313.581 213.067 313.897 213.197 314.144 213.457C314.391 213.71 314.514 214.037 314.514 214.437C314.514 214.723 314.441 214.98 314.294 215.207C314.154 215.44 313.954 215.623 313.694 215.757C313.441 215.897 313.144 215.967 312.804 215.967H310.655ZM310.905 215.297H312.794C312.948 215.297 313.088 215.263 313.214 215.197C313.341 215.137 313.441 215.05 313.514 214.937C313.587 214.823 313.624 214.7 313.624 214.567C313.624 214.34 313.557 214.16 313.424 214.027C313.291 213.894 313.124 213.827 312.924 213.827H310.905C310.691 213.827 310.511 213.9 310.365 214.047C310.218 214.187 310.145 214.36 310.145 214.567C310.145 214.787 310.218 214.963 310.365 215.097C310.511 215.23 310.691 215.297 310.905 215.297ZM311.854 211.518C312.281 211.518 312.598 211.424 312.804 211.238C313.011 211.051 313.114 210.794 313.114 210.468C313.114 210.148 313.011 209.895 312.804 209.708C312.598 209.521 312.281 209.428 311.854 209.428C311.428 209.428 311.108 209.521 310.895 209.708C310.688 209.895 310.585 210.148 310.585 210.468C310.585 210.674 310.631 210.858 310.725 211.018C310.818 211.178 310.958 211.301 311.145 211.388C311.331 211.474 311.568 211.518 311.854 211.518ZM317.48 214.267C316.947 214.267 316.497 214.17 316.13 213.977C315.77 213.777 315.494 213.474 315.3 213.067C315.114 212.661 315.02 212.144 315.02 211.518C315.02 210.884 315.114 210.368 315.3 209.968C315.494 209.561 315.77 209.261 316.13 209.068C316.497 208.868 316.947 208.768 317.48 208.768C318.013 208.768 318.46 208.868 318.819 209.068C319.186 209.261 319.463 209.561 319.649 209.968C319.836 210.368 319.929 210.884 319.929 211.518C319.929 212.144 319.836 212.661 319.649 213.067C319.463 213.474 319.186 213.777 318.819 213.977C318.46 214.17 318.013 214.267 317.48 214.267ZM317.48 213.527C317.82 213.527 318.103 213.46 318.33 213.327C318.556 213.194 318.726 212.987 318.839 212.707C318.959 212.421 319.019 212.061 319.019 211.628V211.408C319.019 210.968 318.959 210.608 318.839 210.328C318.726 210.048 318.556 209.841 318.33 209.708C318.103 209.575 317.82 209.508 317.48 209.508C317.14 209.508 316.853 209.575 316.62 209.708C316.393 209.841 316.223 210.048 316.11 210.328C315.997 210.608 315.94 210.968 315.94 211.408V211.628C315.94 212.061 315.997 212.421 316.11 212.707C316.223 212.987 316.393 213.194 316.62 213.327C316.853 213.46 317.14 213.527 317.48 213.527Z" fill="#6B7280"/>
<defs>
<linearGradient id="paint0_linear_518_12127" x1="225.489" y1="90.2735" x2="235.222" y2="147.716" gradientUnits="userSpaceOnUse">
<stop stop-color="#FAA3D0"/>
<stop offset="1" stop-color="#FEFDFF"/>
</linearGradient>
<linearGradient id="paint1_linear_518_12127" x1="225.488" y1="170.594" x2="239.96" y2="101.04" gradientUnits="userSpaceOnUse">
<stop stop-color="#EF288F"/>
<stop offset="1" stop-color="#FEFDFF"/>
</linearGradient>
<clipPath id="clip0_518_12127">
<rect width="334" height="156" fill="white" transform="translate(0.5 33.3169)"/>
</clipPath>
</defs>
</svg>